ISO-10303-21;
HEADER;
/* Generated by software containing ST-Developer
 * from STEP Tools, Inc. (www.steptools.com) 
 */
/* OPTION: using custom renumber hook */

FILE_DESCRIPTION(
/* description */ ('STEP AP242 Edition 2',
'CAx-IF Rec.Pracs.---Representation and Presentation of Product Manufa
cturing Information (PMI)---4.0---2014-10-13',
'CAx-IF Rec.Pracs.---3D Tessellated Geometry---0.4---2014-09-14','2;1',
'CAx-IF Rec.Pracs.---User Defined Attributes---1.5---2016-08-15'),
/* implementation_level */ '2;1');

FILE_NAME(
/* name */ '1-4_gearbox_cover',
/* time_stamp */ '2026-06-03T07:11:03Z',
/* author */ (''),
/* organization */ (''),
/* preprocessor_version */ 'ST-DEVELOPER v20',
/* originating_system */ 'ONSHAPE BY PTC INC, 1.215',
/* authorisation */ '  ');

FILE_SCHEMA (('AP242_MANAGED_MODEL_BASED_3D_ENGINEERING_MIM_LF { 1 0 10303 442 3 1 4 }'));
ENDSEC;

DATA;
#10=SHAPE_REPRESENTATION_RELATIONSHIP('','',#1416,#11);
#11=ADVANCED_BREP_SHAPE_REPRESENTATION('',(#1414),#2413);
#12=B_SPLINE_CURVE_WITH_KNOTS('',3,(#2317,#2318,#2319,#2320,#2321),
 .UNSPECIFIED.,.F.,.F.,(4,1,4),(0.,0.000585340457370824,0.00117068091474165),
 .UNSPECIFIED.);
#13=B_SPLINE_CURVE_WITH_KNOTS('',3,(#2322,#2323,#2324,#2325,#2326),
 .UNSPECIFIED.,.F.,.F.,(4,1,4),(0.,0.000585340457370823,0.00117068091474165),
 .UNSPECIFIED.);
#14=B_SPLINE_CURVE_WITH_KNOTS('',3,(#2328,#2329,#2330,#2331,#2332),
 .UNSPECIFIED.,.F.,.F.,(4,1,4),(0.,0.000585340457370821,0.00117068091474164),
 .UNSPECIFIED.);
#15=B_SPLINE_CURVE_WITH_KNOTS('',3,(#2333,#2334,#2335,#2336,#2337),
 .UNSPECIFIED.,.F.,.F.,(4,1,4),(0.,0.000585340457370821,0.00117068091474164),
 .UNSPECIFIED.);
#16=TOROIDAL_SURFACE('',#1486,7.975,0.5);
#17=TOROIDAL_SURFACE('',#1488,11.975,0.5);
#18=TOROIDAL_SURFACE('',#1490,11.1089745962156,0.5);
#19=TOROIDAL_SURFACE('',#1491,7.58770166537926,0.1);
#20=CONICAL_SURFACE('',#1480,1.275,0.785398163397465);
#21=PLANE('',#1424);
#22=PLANE('',#1425);
#23=PLANE('',#1456);
#24=PLANE('',#1460);
#25=PLANE('',#1462);
#26=PLANE('',#1464);
#27=PLANE('',#1465);
#28=PLANE('',#1466);
#29=PLANE('',#1467);
#30=PLANE('',#1468);
#31=PLANE('',#1471);
#32=PLANE('',#1472);
#33=PLANE('',#1475);
#34=PLANE('',#1479);
#35=PLANE('',#1481);
#36=PLANE('',#1483);
#37=PLANE('',#1492);
#38=PLANE('',#1497);
#39=PLANE('',#1500);
#40=PLANE('',#1507);
#41=PLANE('',#1510);
#42=PLANE('',#1515);
#43=PLANE('',#1518);
#44=PLANE('',#1525);
#45=PLANE('',#1538);
#46=PLANE('',#1539);
#47=PLANE('',#1540);
#48=PLANE('',#1541);
#49=PLANE('',#1542);
#50=PLANE('',#1545);
#51=PLANE('',#1548);
#52=PLANE('',#1551);
#53=PLANE('',#1554);
#54=PLANE('',#1557);
#55=PLANE('',#1560);
#56=PLANE('',#1563);
#57=PLANE('',#1566);
#58=PLANE('',#1567);
#59=PLANE('',#1568);
#60=PLANE('',#1569);
#61=PLANE('',#1570);
#62=PLANE('',#1571);
#63=PLANE('',#1572);
#64=PLANE('',#1573);
#65=LINE('',#2005,#165);
#66=LINE('',#2009,#166);
#67=LINE('',#2014,#167);
#68=LINE('',#2018,#168);
#69=LINE('',#2020,#169);
#70=LINE('',#2023,#170);
#71=LINE('',#2025,#171);
#72=LINE('',#2027,#172);
#73=LINE('',#2029,#173);
#74=LINE('',#2032,#174);
#75=LINE('',#2034,#175);
#76=LINE('',#2036,#176);
#77=LINE('',#2081,#177);
#78=LINE('',#2085,#178);
#79=LINE('',#2090,#179);
#80=LINE('',#2094,#180);
#81=LINE('',#2096,#181);
#82=LINE('',#2099,#182);
#83=LINE('',#2101,#183);
#84=LINE('',#2103,#184);
#85=LINE('',#2104,#185);
#86=LINE('',#2107,#186);
#87=LINE('',#2109,#187);
#88=LINE('',#2111,#188);
#89=LINE('',#2120,#189);
#90=LINE('',#2123,#190);
#91=LINE('',#2125,#191);
#92=LINE('',#2127,#192);
#93=LINE('',#2131,#193);
#94=LINE('',#2134,#194);
#95=LINE('',#2136,#195);
#96=LINE('',#2138,#196);
#97=LINE('',#2140,#197);
#98=LINE('',#2143,#198);
#99=LINE('',#2144,#199);
#100=LINE('',#2146,#200);
#101=LINE('',#2149,#201);
#102=LINE('',#2151,#202);
#103=LINE('',#2153,#203);
#104=LINE('',#2154,#204);
#105=LINE('',#2156,#205);
#106=LINE('',#2158,#206);
#107=LINE('',#2160,#207);
#108=LINE('',#2162,#208);
#109=LINE('',#2165,#209);
#110=LINE('',#2167,#210);
#111=LINE('',#2168,#211);
#112=LINE('',#2170,#212);
#113=LINE('',#2172,#213);
#114=LINE('',#2175,#214);
#115=LINE('',#2177,#215);
#116=LINE('',#2181,#216);
#117=LINE('',#2182,#217);
#118=LINE('',#2186,#218);
#119=LINE('',#2188,#219);
#120=LINE('',#2189,#220);
#121=LINE('',#2191,#221);
#122=LINE('',#2194,#222);
#123=LINE('',#2197,#223);
#124=LINE('',#2201,#224);
#125=LINE('',#2203,#225);
#126=LINE('',#2204,#226);
#127=LINE('',#2231,#227);
#128=LINE('',#2234,#228);
#129=LINE('',#2238,#229);
#130=LINE('',#2242,#230);
#131=LINE('',#2248,#231);
#132=LINE('',#2249,#232);
#133=LINE('',#2259,#233);
#134=LINE('',#2263,#234);
#135=LINE('',#2265,#235);
#136=LINE('',#2271,#236);
#137=LINE('',#2275,#237);
#138=LINE('',#2278,#238);
#139=LINE('',#2282,#239);
#140=LINE('',#2286,#240);
#141=LINE('',#2292,#241);
#142=LINE('',#2293,#242);
#143=LINE('',#2303,#243);
#144=LINE('',#2307,#244);
#145=LINE('',#2309,#245);
#146=LINE('',#2315,#246);
#147=LINE('',#2343,#247);
#148=LINE('',#2345,#248);
#149=LINE('',#2349,#249);
#150=LINE('',#2350,#250);
#151=LINE('',#2351,#251);
#152=LINE('',#2354,#252);
#153=LINE('',#2355,#253);
#154=LINE('',#2356,#254);
#155=LINE('',#2391,#255);
#156=LINE('',#2393,#256);
#157=LINE('',#2394,#257);
#158=LINE('',#2396,#258);
#159=LINE('',#2397,#259);
#160=LINE('',#2399,#260);
#161=LINE('',#2403,#261);
#162=LINE('',#2404,#262);
#163=LINE('',#2406,#263);
#164=LINE('',#2407,#264);
#165=VECTOR('',#1584,1000.);
#166=VECTOR('',#1587,1000.);
#167=VECTOR('',#1592,1000.);
#168=VECTOR('',#1595,1000.);
#169=VECTOR('',#1598,1000.);
#170=VECTOR('',#1599,1000.);
#171=VECTOR('',#1600,1000.);
#172=VECTOR('',#1601,1000.);
#173=VECTOR('',#1604,1000.);
#174=VECTOR('',#1605,1000.);
#175=VECTOR('',#1606,1000.);
#176=VECTOR('',#1607,1000.);
#177=VECTOR('',#1660,1000.);
#178=VECTOR('',#1663,1000.);
#179=VECTOR('',#1668,1000.);
#180=VECTOR('',#1671,1000.);
#181=VECTOR('',#1674,1000.);
#182=VECTOR('',#1675,1000.);
#183=VECTOR('',#1676,1000.);
#184=VECTOR('',#1677,1000.);
#185=VECTOR('',#1678,1000.);
#186=VECTOR('',#1679,1000.);
#187=VECTOR('',#1680,1000.);
#188=VECTOR('',#1681,1000.);
#189=VECTOR('',#1692,1000.);
#190=VECTOR('',#1693,1000.);
#191=VECTOR('',#1694,1000.);
#192=VECTOR('',#1695,1000.);
#193=VECTOR('',#1700,1000.);
#194=VECTOR('',#1701,1000.);
#195=VECTOR('',#1702,1000.);
#196=VECTOR('',#1703,1000.);
#197=VECTOR('',#1706,1000.);
#198=VECTOR('',#1707,1000.);
#199=VECTOR('',#1708,1000.);
#200=VECTOR('',#1711,1000.);
#201=VECTOR('',#1712,1000.);
#202=VECTOR('',#1713,1000.);
#203=VECTOR('',#1714,1000.);
#204=VECTOR('',#1715,1000.);
#205=VECTOR('',#1716,1000.);
#206=VECTOR('',#1719,1000.);
#207=VECTOR('',#1720,1000.);
#208=VECTOR('',#1723,1000.);
#209=VECTOR('',#1724,1000.);
#210=VECTOR('',#1725,1000.);
#211=VECTOR('',#1726,1000.);
#212=VECTOR('',#1727,1000.);
#213=VECTOR('',#1730,1000.);
#214=VECTOR('',#1731,1000.);
#215=VECTOR('',#1732,1000.);
#216=VECTOR('',#1735,1000.);
#217=VECTOR('',#1736,1000.);
#218=VECTOR('',#1741,1000.);
#219=VECTOR('',#1742,1000.);
#220=VECTOR('',#1743,1000.);
#221=VECTOR('',#1746,1000.);
#222=VECTOR('',#1747,1000.);
#223=VECTOR('',#1750,1000.);
#224=VECTOR('',#1753,1000.);
#225=VECTOR('',#1756,1000.);
#226=VECTOR('',#1757,1000.);
#227=VECTOR('',#1794,1000.);
#228=VECTOR('',#1797,1000.);
#229=VECTOR('',#1800,1000.);
#230=VECTOR('',#1803,1000.);
#231=VECTOR('',#1810,1000.);
#232=VECTOR('',#1811,1000.);
#233=VECTOR('',#1822,1000.);
#234=VECTOR('',#1825,1000.);
#235=VECTOR('',#1826,1000.);
#236=VECTOR('',#1835,1000.);
#237=VECTOR('',#1840,1000.);
#238=VECTOR('',#1843,1000.);
#239=VECTOR('',#1846,1000.);
#240=VECTOR('',#1849,1000.);
#241=VECTOR('',#1856,1000.);
#242=VECTOR('',#1857,1000.);
#243=VECTOR('',#1868,1000.);
#244=VECTOR('',#1871,1000.);
#245=VECTOR('',#1872,1000.);
#246=VECTOR('',#1881,1000.);
#247=VECTOR('',#1896,1000.);
#248=VECTOR('',#1899,1000.);
#249=VECTOR('',#1906,1000.);
#250=VECTOR('',#1907,1000.);
#251=VECTOR('',#1908,1000.);
#252=VECTOR('',#1913,1000.);
#253=VECTOR('',#1914,1000.);
#254=VECTOR('',#1915,1000.);
#255=VECTOR('',#1968,1000.);
#256=VECTOR('',#1971,1000.);
#257=VECTOR('',#1972,1000.);
#258=VECTOR('',#1975,1000.);
#259=VECTOR('',#1976,1000.);
#260=VECTOR('',#1979,1000.);
#261=VECTOR('',#1986,1000.);
#262=VECTOR('',#1987,1000.);
#263=VECTOR('',#1990,1000.);
#264=VECTOR('',#1991,1000.);
#265=ORIENTED_EDGE('',*,*,#623,.F.);
#266=ORIENTED_EDGE('',*,*,#624,.T.);
#267=ORIENTED_EDGE('',*,*,#625,.F.);
#268=ORIENTED_EDGE('',*,*,#626,.F.);
#269=ORIENTED_EDGE('',*,*,#627,.F.);
#270=ORIENTED_EDGE('',*,*,#628,.T.);
#271=ORIENTED_EDGE('',*,*,#629,.F.);
#272=ORIENTED_EDGE('',*,*,#630,.F.);
#273=ORIENTED_EDGE('',*,*,#631,.T.);
#274=ORIENTED_EDGE('',*,*,#632,.T.);
#275=ORIENTED_EDGE('',*,*,#633,.T.);
#276=ORIENTED_EDGE('',*,*,#634,.T.);
#277=ORIENTED_EDGE('',*,*,#635,.T.);
#278=ORIENTED_EDGE('',*,*,#636,.T.);
#279=ORIENTED_EDGE('',*,*,#637,.F.);
#280=ORIENTED_EDGE('',*,*,#638,.T.);
#281=ORIENTED_EDGE('',*,*,#639,.T.);
#282=ORIENTED_EDGE('',*,*,#640,.F.);
#283=ORIENTED_EDGE('',*,*,#641,.T.);
#284=ORIENTED_EDGE('',*,*,#642,.F.);
#285=ORIENTED_EDGE('',*,*,#643,.T.);
#286=ORIENTED_EDGE('',*,*,#644,.F.);
#287=ORIENTED_EDGE('',*,*,#645,.T.);
#288=ORIENTED_EDGE('',*,*,#646,.F.);
#289=ORIENTED_EDGE('',*,*,#647,.T.);
#290=ORIENTED_EDGE('',*,*,#648,.F.);
#291=ORIENTED_EDGE('',*,*,#649,.T.);
#292=ORIENTED_EDGE('',*,*,#650,.F.);
#293=ORIENTED_EDGE('',*,*,#651,.T.);
#294=ORIENTED_EDGE('',*,*,#652,.F.);
#295=ORIENTED_EDGE('',*,*,#653,.T.);
#296=ORIENTED_EDGE('',*,*,#654,.F.);
#297=ORIENTED_EDGE('',*,*,#655,.F.);
#298=ORIENTED_EDGE('',*,*,#656,.T.);
#299=ORIENTED_EDGE('',*,*,#657,.F.);
#300=ORIENTED_EDGE('',*,*,#658,.F.);
#301=ORIENTED_EDGE('',*,*,#659,.F.);
#302=ORIENTED_EDGE('',*,*,#660,.T.);
#303=ORIENTED_EDGE('',*,*,#661,.F.);
#304=ORIENTED_EDGE('',*,*,#662,.F.);
#305=ORIENTED_EDGE('',*,*,#663,.F.);
#306=ORIENTED_EDGE('',*,*,#664,.T.);
#307=ORIENTED_EDGE('',*,*,#665,.T.);
#308=ORIENTED_EDGE('',*,*,#666,.F.);
#309=ORIENTED_EDGE('',*,*,#667,.F.);
#310=ORIENTED_EDGE('',*,*,#668,.F.);
#311=ORIENTED_EDGE('',*,*,#669,.F.);
#312=ORIENTED_EDGE('',*,*,#670,.F.);
#313=ORIENTED_EDGE('',*,*,#671,.F.);
#314=ORIENTED_EDGE('',*,*,#672,.F.);
#315=ORIENTED_EDGE('',*,*,#673,.T.);
#316=ORIENTED_EDGE('',*,*,#671,.T.);
#317=ORIENTED_EDGE('',*,*,#674,.T.);
#318=ORIENTED_EDGE('',*,*,#675,.F.);
#319=ORIENTED_EDGE('',*,*,#676,.F.);
#320=ORIENTED_EDGE('',*,*,#677,.T.);
#321=ORIENTED_EDGE('',*,*,#678,.T.);
#322=ORIENTED_EDGE('',*,*,#679,.F.);
#323=ORIENTED_EDGE('',*,*,#680,.T.);
#324=ORIENTED_EDGE('',*,*,#681,.T.);
#325=ORIENTED_EDGE('',*,*,#682,.F.);
#326=ORIENTED_EDGE('',*,*,#683,.T.);
#327=ORIENTED_EDGE('',*,*,#684,.T.);
#328=ORIENTED_EDGE('',*,*,#677,.F.);
#329=ORIENTED_EDGE('',*,*,#685,.F.);
#330=ORIENTED_EDGE('',*,*,#686,.T.);
#331=ORIENTED_EDGE('',*,*,#687,.T.);
#332=ORIENTED_EDGE('',*,*,#688,.F.);
#333=ORIENTED_EDGE('',*,*,#689,.T.);
#334=ORIENTED_EDGE('',*,*,#685,.T.);
#335=ORIENTED_EDGE('',*,*,#676,.T.);
#336=ORIENTED_EDGE('',*,*,#690,.F.);
#337=ORIENTED_EDGE('',*,*,#691,.T.);
#338=ORIENTED_EDGE('',*,*,#692,.F.);
#339=ORIENTED_EDGE('',*,*,#693,.T.);
#340=ORIENTED_EDGE('',*,*,#690,.T.);
#341=ORIENTED_EDGE('',*,*,#675,.T.);
#342=ORIENTED_EDGE('',*,*,#694,.T.);
#343=ORIENTED_EDGE('',*,*,#695,.F.);
#344=ORIENTED_EDGE('',*,*,#696,.T.);
#345=ORIENTED_EDGE('',*,*,#692,.T.);
#346=ORIENTED_EDGE('',*,*,#674,.F.);
#347=ORIENTED_EDGE('',*,*,#684,.F.);
#348=ORIENTED_EDGE('',*,*,#697,.T.);
#349=ORIENTED_EDGE('',*,*,#698,.T.);
#350=ORIENTED_EDGE('',*,*,#699,.F.);
#351=ORIENTED_EDGE('',*,*,#700,.T.);
#352=ORIENTED_EDGE('',*,*,#701,.F.);
#353=ORIENTED_EDGE('',*,*,#702,.T.);
#354=ORIENTED_EDGE('',*,*,#703,.T.);
#355=ORIENTED_EDGE('',*,*,#679,.T.);
#356=ORIENTED_EDGE('',*,*,#704,.F.);
#357=ORIENTED_EDGE('',*,*,#705,.T.);
#358=ORIENTED_EDGE('',*,*,#682,.T.);
#359=ORIENTED_EDGE('',*,*,#706,.F.);
#360=ORIENTED_EDGE('',*,*,#707,.F.);
#361=ORIENTED_EDGE('',*,*,#665,.F.);
#362=ORIENTED_EDGE('',*,*,#708,.F.);
#363=ORIENTED_EDGE('',*,*,#704,.T.);
#364=ORIENTED_EDGE('',*,*,#709,.T.);
#365=ORIENTED_EDGE('',*,*,#710,.F.);
#366=ORIENTED_EDGE('',*,*,#711,.T.);
#367=ORIENTED_EDGE('',*,*,#706,.T.);
#368=ORIENTED_EDGE('',*,*,#681,.F.);
#369=ORIENTED_EDGE('',*,*,#712,.F.);
#370=ORIENTED_EDGE('',*,*,#713,.T.);
#371=ORIENTED_EDGE('',*,*,#714,.F.);
#372=ORIENTED_EDGE('',*,*,#680,.F.);
#373=ORIENTED_EDGE('',*,*,#703,.F.);
#374=ORIENTED_EDGE('',*,*,#715,.T.);
#375=ORIENTED_EDGE('',*,*,#663,.T.);
#376=ORIENTED_EDGE('',*,*,#716,.T.);
#377=ORIENTED_EDGE('',*,*,#712,.T.);
#378=ORIENTED_EDGE('',*,*,#717,.T.);
#379=ORIENTED_EDGE('',*,*,#718,.F.);
#380=ORIENTED_EDGE('',*,*,#718,.T.);
#381=ORIENTED_EDGE('',*,*,#673,.F.);
#382=ORIENTED_EDGE('',*,*,#717,.F.);
#383=ORIENTED_EDGE('',*,*,#719,.T.);
#384=ORIENTED_EDGE('',*,*,#672,.T.);
#385=ORIENTED_EDGE('',*,*,#720,.T.);
#386=ORIENTED_EDGE('',*,*,#721,.T.);
#387=ORIENTED_EDGE('',*,*,#722,.T.);
#388=ORIENTED_EDGE('',*,*,#721,.F.);
#389=ORIENTED_EDGE('',*,*,#723,.T.);
#390=ORIENTED_EDGE('',*,*,#678,.F.);
#391=ORIENTED_EDGE('',*,*,#723,.F.);
#392=ORIENTED_EDGE('',*,*,#720,.F.);
#393=ORIENTED_EDGE('',*,*,#722,.F.);
#394=ORIENTED_EDGE('',*,*,#719,.F.);
#395=ORIENTED_EDGE('',*,*,#657,.T.);
#396=ORIENTED_EDGE('',*,*,#724,.T.);
#397=ORIENTED_EDGE('',*,*,#725,.F.);
#398=ORIENTED_EDGE('',*,*,#726,.T.);
#399=ORIENTED_EDGE('',*,*,#623,.T.);
#400=ORIENTED_EDGE('',*,*,#727,.T.);
#401=ORIENTED_EDGE('',*,*,#728,.T.);
#402=ORIENTED_EDGE('',*,*,#729,.T.);
#403=ORIENTED_EDGE('',*,*,#730,.T.);
#404=ORIENTED_EDGE('',*,*,#731,.F.);
#405=ORIENTED_EDGE('',*,*,#653,.F.);
#406=ORIENTED_EDGE('',*,*,#651,.F.);
#407=ORIENTED_EDGE('',*,*,#649,.F.);
#408=ORIENTED_EDGE('',*,*,#647,.F.);
#409=ORIENTED_EDGE('',*,*,#732,.T.);
#410=ORIENTED_EDGE('',*,*,#733,.T.);
#411=ORIENTED_EDGE('',*,*,#734,.F.);
#412=ORIENTED_EDGE('',*,*,#658,.T.);
#413=ORIENTED_EDGE('',*,*,#731,.T.);
#414=ORIENTED_EDGE('',*,*,#735,.T.);
#415=ORIENTED_EDGE('',*,*,#710,.T.);
#416=ORIENTED_EDGE('',*,*,#736,.F.);
#417=ORIENTED_EDGE('',*,*,#737,.F.);
#418=ORIENTED_EDGE('',*,*,#738,.F.);
#419=ORIENTED_EDGE('',*,*,#739,.F.);
#420=ORIENTED_EDGE('',*,*,#740,.T.);
#421=ORIENTED_EDGE('',*,*,#741,.T.);
#422=ORIENTED_EDGE('',*,*,#655,.T.);
#423=ORIENTED_EDGE('',*,*,#734,.T.);
#424=ORIENTED_EDGE('',*,*,#742,.T.);
#425=ORIENTED_EDGE('',*,*,#743,.F.);
#426=ORIENTED_EDGE('',*,*,#625,.T.);
#427=ORIENTED_EDGE('',*,*,#744,.T.);
#428=ORIENTED_EDGE('',*,*,#743,.T.);
#429=ORIENTED_EDGE('',*,*,#745,.T.);
#430=ORIENTED_EDGE('',*,*,#746,.T.);
#431=ORIENTED_EDGE('',*,*,#714,.T.);
#432=ORIENTED_EDGE('',*,*,#747,.T.);
#433=ORIENTED_EDGE('',*,*,#727,.F.);
#434=ORIENTED_EDGE('',*,*,#626,.T.);
#435=ORIENTED_EDGE('',*,*,#661,.T.);
#436=ORIENTED_EDGE('',*,*,#748,.T.);
#437=ORIENTED_EDGE('',*,*,#749,.F.);
#438=ORIENTED_EDGE('',*,*,#750,.T.);
#439=ORIENTED_EDGE('',*,*,#627,.T.);
#440=ORIENTED_EDGE('',*,*,#751,.T.);
#441=ORIENTED_EDGE('',*,*,#752,.T.);
#442=ORIENTED_EDGE('',*,*,#753,.T.);
#443=ORIENTED_EDGE('',*,*,#754,.T.);
#444=ORIENTED_EDGE('',*,*,#755,.F.);
#445=ORIENTED_EDGE('',*,*,#645,.F.);
#446=ORIENTED_EDGE('',*,*,#643,.F.);
#447=ORIENTED_EDGE('',*,*,#641,.F.);
#448=ORIENTED_EDGE('',*,*,#639,.F.);
#449=ORIENTED_EDGE('',*,*,#756,.T.);
#450=ORIENTED_EDGE('',*,*,#757,.T.);
#451=ORIENTED_EDGE('',*,*,#758,.F.);
#452=ORIENTED_EDGE('',*,*,#662,.T.);
#453=ORIENTED_EDGE('',*,*,#755,.T.);
#454=ORIENTED_EDGE('',*,*,#759,.T.);
#455=ORIENTED_EDGE('',*,*,#701,.T.);
#456=ORIENTED_EDGE('',*,*,#760,.T.);
#457=ORIENTED_EDGE('',*,*,#761,.T.);
#458=ORIENTED_EDGE('',*,*,#762,.T.);
#459=ORIENTED_EDGE('',*,*,#763,.T.);
#460=ORIENTED_EDGE('',*,*,#764,.F.);
#461=ORIENTED_EDGE('',*,*,#765,.T.);
#462=ORIENTED_EDGE('',*,*,#659,.T.);
#463=ORIENTED_EDGE('',*,*,#758,.T.);
#464=ORIENTED_EDGE('',*,*,#766,.T.);
#465=ORIENTED_EDGE('',*,*,#767,.F.);
#466=ORIENTED_EDGE('',*,*,#629,.T.);
#467=ORIENTED_EDGE('',*,*,#768,.T.);
#468=ORIENTED_EDGE('',*,*,#767,.T.);
#469=ORIENTED_EDGE('',*,*,#769,.T.);
#470=ORIENTED_EDGE('',*,*,#770,.T.);
#471=ORIENTED_EDGE('',*,*,#699,.T.);
#472=ORIENTED_EDGE('',*,*,#771,.T.);
#473=ORIENTED_EDGE('',*,*,#751,.F.);
#474=ORIENTED_EDGE('',*,*,#630,.T.);
#475=ORIENTED_EDGE('',*,*,#664,.F.);
#476=ORIENTED_EDGE('',*,*,#772,.T.);
#477=ORIENTED_EDGE('',*,*,#753,.F.);
#478=ORIENTED_EDGE('',*,*,#773,.T.);
#479=ORIENTED_EDGE('',*,*,#666,.T.);
#480=ORIENTED_EDGE('',*,*,#774,.T.);
#481=ORIENTED_EDGE('',*,*,#729,.F.);
#482=ORIENTED_EDGE('',*,*,#775,.T.);
#483=ORIENTED_EDGE('',*,*,#772,.F.);
#484=ORIENTED_EDGE('',*,*,#715,.F.);
#485=ORIENTED_EDGE('',*,*,#702,.F.);
#486=ORIENTED_EDGE('',*,*,#759,.F.);
#487=ORIENTED_EDGE('',*,*,#754,.F.);
#488=ORIENTED_EDGE('',*,*,#728,.F.);
#489=ORIENTED_EDGE('',*,*,#747,.F.);
#490=ORIENTED_EDGE('',*,*,#713,.F.);
#491=ORIENTED_EDGE('',*,*,#716,.F.);
#492=ORIENTED_EDGE('',*,*,#775,.F.);
#493=ORIENTED_EDGE('',*,*,#774,.F.);
#494=ORIENTED_EDGE('',*,*,#707,.T.);
#495=ORIENTED_EDGE('',*,*,#711,.F.);
#496=ORIENTED_EDGE('',*,*,#735,.F.);
#497=ORIENTED_EDGE('',*,*,#730,.F.);
#498=ORIENTED_EDGE('',*,*,#752,.F.);
#499=ORIENTED_EDGE('',*,*,#771,.F.);
#500=ORIENTED_EDGE('',*,*,#705,.F.);
#501=ORIENTED_EDGE('',*,*,#708,.T.);
#502=ORIENTED_EDGE('',*,*,#773,.F.);
#503=ORIENTED_EDGE('',*,*,#770,.F.);
#504=ORIENTED_EDGE('',*,*,#776,.T.);
#505=ORIENTED_EDGE('',*,*,#756,.F.);
#506=ORIENTED_EDGE('',*,*,#700,.F.);
#507=ORIENTED_EDGE('',*,*,#746,.F.);
#508=ORIENTED_EDGE('',*,*,#777,.T.);
#509=ORIENTED_EDGE('',*,*,#732,.F.);
#510=ORIENTED_EDGE('',*,*,#709,.F.);
#511=ORIENTED_EDGE('',*,*,#757,.F.);
#512=ORIENTED_EDGE('',*,*,#776,.F.);
#513=ORIENTED_EDGE('',*,*,#769,.F.);
#514=ORIENTED_EDGE('',*,*,#766,.F.);
#515=ORIENTED_EDGE('',*,*,#733,.F.);
#516=ORIENTED_EDGE('',*,*,#777,.F.);
#517=ORIENTED_EDGE('',*,*,#745,.F.);
#518=ORIENTED_EDGE('',*,*,#742,.F.);
#519=ORIENTED_EDGE('',*,*,#778,.F.);
#520=ORIENTED_EDGE('',*,*,#698,.F.);
#521=ORIENTED_EDGE('',*,*,#779,.T.);
#522=ORIENTED_EDGE('',*,*,#688,.T.);
#523=ORIENTED_EDGE('',*,*,#780,.F.);
#524=ORIENTED_EDGE('',*,*,#634,.F.);
#525=ORIENTED_EDGE('',*,*,#689,.F.);
#526=ORIENTED_EDGE('',*,*,#779,.F.);
#527=ORIENTED_EDGE('',*,*,#697,.F.);
#528=ORIENTED_EDGE('',*,*,#683,.F.);
#529=ORIENTED_EDGE('',*,*,#781,.F.);
#530=ORIENTED_EDGE('',*,*,#686,.F.);
#531=ORIENTED_EDGE('',*,*,#782,.T.);
#532=ORIENTED_EDGE('',*,*,#695,.T.);
#533=ORIENTED_EDGE('',*,*,#783,.F.);
#534=ORIENTED_EDGE('',*,*,#636,.F.);
#535=ORIENTED_EDGE('',*,*,#691,.F.);
#536=ORIENTED_EDGE('',*,*,#693,.F.);
#537=ORIENTED_EDGE('',*,*,#696,.F.);
#538=ORIENTED_EDGE('',*,*,#782,.F.);
#539=ORIENTED_EDGE('',*,*,#784,.T.);
#540=ORIENTED_EDGE('',*,*,#654,.T.);
#541=ORIENTED_EDGE('',*,*,#784,.F.);
#542=ORIENTED_EDGE('',*,*,#738,.T.);
#543=ORIENTED_EDGE('',*,*,#785,.T.);
#544=ORIENTED_EDGE('',*,*,#652,.T.);
#545=ORIENTED_EDGE('',*,*,#785,.F.);
#546=ORIENTED_EDGE('',*,*,#736,.T.);
#547=ORIENTED_EDGE('',*,*,#786,.T.);
#548=ORIENTED_EDGE('',*,*,#650,.T.);
#549=ORIENTED_EDGE('',*,*,#786,.F.);
#550=ORIENTED_EDGE('',*,*,#737,.T.);
#551=ORIENTED_EDGE('',*,*,#787,.T.);
#552=ORIENTED_EDGE('',*,*,#648,.T.);
#553=ORIENTED_EDGE('',*,*,#787,.F.);
#554=ORIENTED_EDGE('',*,*,#739,.T.);
#555=ORIENTED_EDGE('',*,*,#788,.F.);
#556=ORIENTED_EDGE('',*,*,#646,.T.);
#557=ORIENTED_EDGE('',*,*,#788,.T.);
#558=ORIENTED_EDGE('',*,*,#762,.F.);
#559=ORIENTED_EDGE('',*,*,#789,.F.);
#560=ORIENTED_EDGE('',*,*,#644,.T.);
#561=ORIENTED_EDGE('',*,*,#789,.T.);
#562=ORIENTED_EDGE('',*,*,#760,.F.);
#563=ORIENTED_EDGE('',*,*,#790,.F.);
#564=ORIENTED_EDGE('',*,*,#642,.T.);
#565=ORIENTED_EDGE('',*,*,#790,.T.);
#566=ORIENTED_EDGE('',*,*,#761,.F.);
#567=ORIENTED_EDGE('',*,*,#791,.F.);
#568=ORIENTED_EDGE('',*,*,#640,.T.);
#569=ORIENTED_EDGE('',*,*,#791,.T.);
#570=ORIENTED_EDGE('',*,*,#763,.F.);
#571=ORIENTED_EDGE('',*,*,#694,.F.);
#572=ORIENTED_EDGE('',*,*,#778,.T.);
#573=ORIENTED_EDGE('',*,*,#792,.T.);
#574=ORIENTED_EDGE('',*,*,#783,.T.);
#575=ORIENTED_EDGE('',*,*,#632,.F.);
#576=ORIENTED_EDGE('',*,*,#793,.T.);
#577=ORIENTED_EDGE('',*,*,#667,.T.);
#578=ORIENTED_EDGE('',*,*,#794,.F.);
#579=ORIENTED_EDGE('',*,*,#635,.F.);
#580=ORIENTED_EDGE('',*,*,#795,.T.);
#581=ORIENTED_EDGE('',*,*,#668,.T.);
#582=ORIENTED_EDGE('',*,*,#793,.F.);
#583=ORIENTED_EDGE('',*,*,#631,.F.);
#584=ORIENTED_EDGE('',*,*,#796,.F.);
#585=ORIENTED_EDGE('',*,*,#638,.F.);
#586=ORIENTED_EDGE('',*,*,#797,.T.);
#587=ORIENTED_EDGE('',*,*,#669,.T.);
#588=ORIENTED_EDGE('',*,*,#795,.F.);
#589=ORIENTED_EDGE('',*,*,#633,.F.);
#590=ORIENTED_EDGE('',*,*,#794,.T.);
#591=ORIENTED_EDGE('',*,*,#670,.T.);
#592=ORIENTED_EDGE('',*,*,#797,.F.);
#593=ORIENTED_EDGE('',*,*,#637,.T.);
#594=ORIENTED_EDGE('',*,*,#792,.F.);
#595=ORIENTED_EDGE('',*,*,#796,.T.);
#596=ORIENTED_EDGE('',*,*,#780,.T.);
#597=ORIENTED_EDGE('',*,*,#687,.F.);
#598=ORIENTED_EDGE('',*,*,#781,.T.);
#599=ORIENTED_EDGE('',*,*,#749,.T.);
#600=ORIENTED_EDGE('',*,*,#798,.T.);
#601=ORIENTED_EDGE('',*,*,#764,.T.);
#602=ORIENTED_EDGE('',*,*,#799,.T.);
#603=ORIENTED_EDGE('',*,*,#725,.T.);
#604=ORIENTED_EDGE('',*,*,#800,.T.);
#605=ORIENTED_EDGE('',*,*,#740,.F.);
#606=ORIENTED_EDGE('',*,*,#801,.T.);
#607=ORIENTED_EDGE('',*,*,#741,.F.);
#608=ORIENTED_EDGE('',*,*,#800,.F.);
#609=ORIENTED_EDGE('',*,*,#724,.F.);
#610=ORIENTED_EDGE('',*,*,#656,.F.);
#611=ORIENTED_EDGE('',*,*,#744,.F.);
#612=ORIENTED_EDGE('',*,*,#624,.F.);
#613=ORIENTED_EDGE('',*,*,#726,.F.);
#614=ORIENTED_EDGE('',*,*,#801,.F.);
#615=ORIENTED_EDGE('',*,*,#748,.F.);
#616=ORIENTED_EDGE('',*,*,#660,.F.);
#617=ORIENTED_EDGE('',*,*,#765,.F.);
#618=ORIENTED_EDGE('',*,*,#798,.F.);
#619=ORIENTED_EDGE('',*,*,#750,.F.);
#620=ORIENTED_EDGE('',*,*,#799,.F.);
#621=ORIENTED_EDGE('',*,*,#768,.F.);
#622=ORIENTED_EDGE('',*,*,#628,.F.);
#623=EDGE_CURVE('',#802,#803,#933,.T.);
#624=EDGE_CURVE('',#802,#804,#65,.T.);
#625=EDGE_CURVE('',#805,#804,#934,.F.);
#626=EDGE_CURVE('',#803,#805,#66,.T.);
#627=EDGE_CURVE('',#806,#807,#935,.T.);
#628=EDGE_CURVE('',#806,#808,#67,.T.);
#629=EDGE_CURVE('',#809,#808,#936,.F.);
#630=EDGE_CURVE('',#807,#809,#68,.T.);
#631=EDGE_CURVE('',#810,#811,#69,.T.);
#632=EDGE_CURVE('',#811,#812,#70,.T.);
#633=EDGE_CURVE('',#812,#813,#71,.T.);
#634=EDGE_CURVE('',#813,#810,#72,.T.);
#635=EDGE_CURVE('',#814,#815,#73,.T.);
#636=EDGE_CURVE('',#815,#816,#74,.T.);
#637=EDGE_CURVE('',#817,#816,#75,.T.);
#638=EDGE_CURVE('',#817,#814,#76,.T.);
#639=EDGE_CURVE('',#818,#818,#937,.T.);
#640=EDGE_CURVE('',#819,#819,#938,.F.);
#641=EDGE_CURVE('',#820,#820,#939,.T.);
#642=EDGE_CURVE('',#821,#821,#940,.F.);
#643=EDGE_CURVE('',#822,#822,#941,.T.);
#644=EDGE_CURVE('',#823,#823,#942,.F.);
#645=EDGE_CURVE('',#824,#824,#943,.T.);
#646=EDGE_CURVE('',#825,#825,#944,.F.);
#647=EDGE_CURVE('',#826,#826,#945,.T.);
#648=EDGE_CURVE('',#827,#827,#946,.F.);
#649=EDGE_CURVE('',#828,#828,#947,.T.);
#650=EDGE_CURVE('',#829,#829,#948,.F.);
#651=EDGE_CURVE('',#830,#830,#949,.T.);
#652=EDGE_CURVE('',#831,#831,#950,.F.);
#653=EDGE_CURVE('',#832,#832,#951,.T.);
#654=EDGE_CURVE('',#833,#833,#952,.F.);
#655=EDGE_CURVE('',#834,#835,#953,.F.);
#656=EDGE_CURVE('',#834,#836,#77,.F.);
#657=EDGE_CURVE('',#837,#836,#954,.T.);
#658=EDGE_CURVE('',#835,#837,#78,.T.);
#659=EDGE_CURVE('',#838,#839,#955,.F.);
#660=EDGE_CURVE('',#838,#840,#79,.F.);
#661=EDGE_CURVE('',#841,#840,#956,.T.);
#662=EDGE_CURVE('',#839,#841,#80,.T.);
#663=EDGE_CURVE('',#842,#843,#81,.T.);
#664=EDGE_CURVE('',#842,#844,#82,.T.);
#665=EDGE_CURVE('',#844,#845,#83,.T.);
#666=EDGE_CURVE('',#843,#845,#84,.T.);
#667=EDGE_CURVE('',#846,#847,#85,.T.);
#668=EDGE_CURVE('',#848,#846,#86,.T.);
#669=EDGE_CURVE('',#849,#848,#87,.T.);
#670=EDGE_CURVE('',#847,#849,#88,.T.);
#671=EDGE_CURVE('',#850,#850,#957,.T.);
#672=EDGE_CURVE('',#851,#851,#958,.F.);
#673=EDGE_CURVE('',#852,#852,#959,.T.);
#674=EDGE_CURVE('',#853,#854,#89,.T.);
#675=EDGE_CURVE('',#855,#854,#90,.T.);
#676=EDGE_CURVE('',#856,#855,#91,.T.);
#677=EDGE_CURVE('',#856,#853,#92,.T.);
#678=EDGE_CURVE('',#857,#857,#960,.F.);
#679=EDGE_CURVE('',#858,#859,#93,.T.);
#680=EDGE_CURVE('',#858,#860,#94,.T.);
#681=EDGE_CURVE('',#860,#861,#95,.T.);
#682=EDGE_CURVE('',#859,#861,#96,.T.);
#683=EDGE_CURVE('',#862,#863,#97,.T.);
#684=EDGE_CURVE('',#863,#853,#98,.T.);
#685=EDGE_CURVE('',#862,#856,#99,.T.);
#686=EDGE_CURVE('',#864,#865,#100,.T.);
#687=EDGE_CURVE('',#865,#866,#101,.T.);
#688=EDGE_CURVE('',#867,#866,#102,.T.);
#689=EDGE_CURVE('',#867,#862,#103,.T.);
#690=EDGE_CURVE('',#868,#855,#104,.T.);
#691=EDGE_CURVE('',#868,#864,#105,.T.);
#692=EDGE_CURVE('',#869,#854,#106,.T.);
#693=EDGE_CURVE('',#869,#868,#107,.T.);
#694=EDGE_CURVE('',#870,#871,#108,.T.);
#695=EDGE_CURVE('',#872,#871,#109,.T.);
#696=EDGE_CURVE('',#872,#869,#110,.T.);
#697=EDGE_CURVE('',#863,#873,#111,.T.);
#698=EDGE_CURVE('',#873,#870,#112,.T.);
#699=EDGE_CURVE('',#874,#875,#113,.T.);
#700=EDGE_CURVE('',#874,#876,#114,.T.);
#701=EDGE_CURVE('',#877,#876,#115,.T.);
#702=EDGE_CURVE('',#877,#878,#961,.T.);
#703=EDGE_CURVE('',#878,#858,#116,.T.);
#704=EDGE_CURVE('',#879,#859,#117,.T.);
#705=EDGE_CURVE('',#879,#875,#962,.T.);
#706=EDGE_CURVE('',#880,#861,#118,.T.);
#707=EDGE_CURVE('',#845,#880,#119,.T.);
#708=EDGE_CURVE('',#879,#844,#120,.T.);
#709=EDGE_CURVE('',#881,#882,#121,.F.);
#710=EDGE_CURVE('',#883,#882,#122,.T.);
#711=EDGE_CURVE('',#883,#880,#963,.F.);
#712=EDGE_CURVE('',#884,#860,#123,.T.);
#713=EDGE_CURVE('',#884,#885,#964,.F.);
#714=EDGE_CURVE('',#881,#885,#124,.T.);
#715=EDGE_CURVE('',#878,#842,#125,.T.);
#716=EDGE_CURVE('',#843,#884,#126,.T.);
#717=EDGE_CURVE('',#886,#886,#965,.F.);
#718=EDGE_CURVE('',#887,#887,#966,.T.);
#719=EDGE_CURVE('',#888,#888,#967,.T.);
#720=EDGE_CURVE('',#889,#889,#968,.T.);
#721=EDGE_CURVE('',#890,#890,#969,.F.);
#722=EDGE_CURVE('',#891,#891,#970,.T.);
#723=EDGE_CURVE('',#892,#892,#971,.F.);
#724=EDGE_CURVE('',#836,#893,#972,.T.);
#725=EDGE_CURVE('',#894,#893,#127,.T.);
#726=EDGE_CURVE('',#894,#802,#973,.T.);
#727=EDGE_CURVE('',#803,#895,#128,.T.);
#728=EDGE_CURVE('',#895,#896,#974,.F.);
#729=EDGE_CURVE('',#896,#897,#129,.F.);
#730=EDGE_CURVE('',#897,#898,#975,.F.);
#731=EDGE_CURVE('',#837,#898,#130,.T.);
#732=EDGE_CURVE('',#882,#899,#976,.T.);
#733=EDGE_CURVE('',#899,#900,#977,.F.);
#734=EDGE_CURVE('',#835,#900,#131,.T.);
#735=EDGE_CURVE('',#898,#883,#132,.T.);
#736=EDGE_CURVE('',#901,#901,#978,.T.);
#737=EDGE_CURVE('',#902,#902,#979,.T.);
#738=EDGE_CURVE('',#903,#903,#980,.T.);
#739=EDGE_CURVE('',#904,#904,#981,.T.);
#740=EDGE_CURVE('',#905,#906,#133,.T.);
#741=EDGE_CURVE('',#906,#834,#982,.F.);
#742=EDGE_CURVE('',#900,#907,#134,.F.);
#743=EDGE_CURVE('',#805,#907,#135,.T.);
#744=EDGE_CURVE('',#804,#905,#983,.F.);
#745=EDGE_CURVE('',#907,#908,#984,.T.);
#746=EDGE_CURVE('',#908,#881,#985,.F.);
#747=EDGE_CURVE('',#885,#895,#136,.F.);
#748=EDGE_CURVE('',#840,#909,#986,.T.);
#749=EDGE_CURVE('',#910,#909,#137,.T.);
#750=EDGE_CURVE('',#910,#806,#987,.T.);
#751=EDGE_CURVE('',#807,#911,#138,.T.);
#752=EDGE_CURVE('',#911,#912,#988,.F.);
#753=EDGE_CURVE('',#912,#913,#139,.F.);
#754=EDGE_CURVE('',#913,#914,#989,.F.);
#755=EDGE_CURVE('',#841,#914,#140,.T.);
#756=EDGE_CURVE('',#876,#915,#990,.T.);
#757=EDGE_CURVE('',#915,#916,#991,.F.);
#758=EDGE_CURVE('',#839,#916,#141,.T.);
#759=EDGE_CURVE('',#914,#877,#142,.T.);
#760=EDGE_CURVE('',#917,#917,#992,.T.);
#761=EDGE_CURVE('',#918,#918,#993,.T.);
#762=EDGE_CURVE('',#919,#919,#994,.T.);
#763=EDGE_CURVE('',#920,#920,#995,.T.);
#764=EDGE_CURVE('',#921,#922,#143,.T.);
#765=EDGE_CURVE('',#921,#838,#996,.F.);
#766=EDGE_CURVE('',#916,#923,#144,.F.);
#767=EDGE_CURVE('',#809,#923,#145,.T.);
#768=EDGE_CURVE('',#808,#922,#997,.F.);
#769=EDGE_CURVE('',#923,#924,#998,.T.);
#770=EDGE_CURVE('',#924,#874,#999,.F.);
#771=EDGE_CURVE('',#875,#911,#146,.F.);
#772=EDGE_CURVE('',#842,#913,#12,.F.);
#773=EDGE_CURVE('',#912,#844,#13,.T.);
#774=EDGE_CURVE('',#845,#897,#14,.F.);
#775=EDGE_CURVE('',#896,#843,#15,.T.);
#776=EDGE_CURVE('',#924,#915,#147,.T.);
#777=EDGE_CURVE('',#908,#899,#148,.T.);
#778=EDGE_CURVE('',#870,#813,#149,.T.);
#779=EDGE_CURVE('',#873,#867,#150,.T.);
#780=EDGE_CURVE('',#810,#866,#151,.T.);
#781=EDGE_CURVE('',#865,#815,#152,.T.);
#782=EDGE_CURVE('',#864,#872,#153,.T.);
#783=EDGE_CURVE('',#816,#871,#154,.T.);
#784=EDGE_CURVE('',#925,#925,#1000,.T.);
#785=EDGE_CURVE('',#926,#926,#1001,.T.);
#786=EDGE_CURVE('',#927,#927,#1002,.T.);
#787=EDGE_CURVE('',#928,#928,#1003,.T.);
#788=EDGE_CURVE('',#929,#929,#1004,.T.);
#789=EDGE_CURVE('',#930,#930,#1005,.T.);
#790=EDGE_CURVE('',#931,#931,#1006,.T.);
#791=EDGE_CURVE('',#932,#932,#1007,.T.);
#792=EDGE_CURVE('',#813,#816,#155,.T.);
#793=EDGE_CURVE('',#811,#846,#156,.T.);
#794=EDGE_CURVE('',#812,#847,#157,.T.);
#795=EDGE_CURVE('',#814,#848,#158,.T.);
#796=EDGE_CURVE('',#815,#810,#159,.T.);
#797=EDGE_CURVE('',#817,#849,#160,.T.);
#798=EDGE_CURVE('',#909,#921,#161,.F.);
#799=EDGE_CURVE('',#922,#910,#162,.T.);
#800=EDGE_CURVE('',#893,#906,#163,.F.);
#801=EDGE_CURVE('',#905,#894,#164,.T.);
#802=VERTEX_POINT('',#2003);
#803=VERTEX_POINT('',#2004);
#804=VERTEX_POINT('',#2006);
#805=VERTEX_POINT('',#2008);
#806=VERTEX_POINT('',#2012);
#807=VERTEX_POINT('',#2013);
#808=VERTEX_POINT('',#2015);
#809=VERTEX_POINT('',#2017);
#810=VERTEX_POINT('',#2021);
#811=VERTEX_POINT('',#2022);
#812=VERTEX_POINT('',#2024);
#813=VERTEX_POINT('',#2026);
#814=VERTEX_POINT('',#2030);
#815=VERTEX_POINT('',#2031);
#816=VERTEX_POINT('',#2033);
#817=VERTEX_POINT('',#2035);
#818=VERTEX_POINT('',#2039);
#819=VERTEX_POINT('',#2041);
#820=VERTEX_POINT('',#2044);
#821=VERTEX_POINT('',#2046);
#822=VERTEX_POINT('',#2049);
#823=VERTEX_POINT('',#2051);
#824=VERTEX_POINT('',#2054);
#825=VERTEX_POINT('',#2056);
#826=VERTEX_POINT('',#2059);
#827=VERTEX_POINT('',#2061);
#828=VERTEX_POINT('',#2064);
#829=VERTEX_POINT('',#2066);
#830=VERTEX_POINT('',#2069);
#831=VERTEX_POINT('',#2071);
#832=VERTEX_POINT('',#2074);
#833=VERTEX_POINT('',#2076);
#834=VERTEX_POINT('',#2079);
#835=VERTEX_POINT('',#2080);
#836=VERTEX_POINT('',#2082);
#837=VERTEX_POINT('',#2084);
#838=VERTEX_POINT('',#2088);
#839=VERTEX_POINT('',#2089);
#840=VERTEX_POINT('',#2091);
#841=VERTEX_POINT('',#2093);
#842=VERTEX_POINT('',#2097);
#843=VERTEX_POINT('',#2098);
#844=VERTEX_POINT('',#2100);
#845=VERTEX_POINT('',#2102);
#846=VERTEX_POINT('',#2105);
#847=VERTEX_POINT('',#2106);
#848=VERTEX_POINT('',#2108);
#849=VERTEX_POINT('',#2110);
#850=VERTEX_POINT('',#2114);
#851=VERTEX_POINT('',#2116);
#852=VERTEX_POINT('',#2119);
#853=VERTEX_POINT('',#2121);
#854=VERTEX_POINT('',#2122);
#855=VERTEX_POINT('',#2124);
#856=VERTEX_POINT('',#2126);
#857=VERTEX_POINT('',#2130);
#858=VERTEX_POINT('',#2132);
#859=VERTEX_POINT('',#2133);
#860=VERTEX_POINT('',#2135);
#861=VERTEX_POINT('',#2137);
#862=VERTEX_POINT('',#2141);
#863=VERTEX_POINT('',#2142);
#864=VERTEX_POINT('',#2147);
#865=VERTEX_POINT('',#2148);
#866=VERTEX_POINT('',#2150);
#867=VERTEX_POINT('',#2152);
#868=VERTEX_POINT('',#2155);
#869=VERTEX_POINT('',#2159);
#870=VERTEX_POINT('',#2163);
#871=VERTEX_POINT('',#2164);
#872=VERTEX_POINT('',#2166);
#873=VERTEX_POINT('',#2169);
#874=VERTEX_POINT('',#2173);
#875=VERTEX_POINT('',#2174);
#876=VERTEX_POINT('',#2176);
#877=VERTEX_POINT('',#2178);
#878=VERTEX_POINT('',#2180);
#879=VERTEX_POINT('',#2183);
#880=VERTEX_POINT('',#2187);
#881=VERTEX_POINT('',#2192);
#882=VERTEX_POINT('',#2193);
#883=VERTEX_POINT('',#2195);
#884=VERTEX_POINT('',#2198);
#885=VERTEX_POINT('',#2200);
#886=VERTEX_POINT('',#2207);
#887=VERTEX_POINT('',#2209);
#888=VERTEX_POINT('',#2214);
#889=VERTEX_POINT('',#2217);
#890=VERTEX_POINT('',#2219);
#891=VERTEX_POINT('',#2222);
#892=VERTEX_POINT('',#2225);
#893=VERTEX_POINT('',#2230);
#894=VERTEX_POINT('',#2232);
#895=VERTEX_POINT('',#2235);
#896=VERTEX_POINT('',#2237);
#897=VERTEX_POINT('',#2239);
#898=VERTEX_POINT('',#2241);
#899=VERTEX_POINT('',#2245);
#900=VERTEX_POINT('',#2247);
#901=VERTEX_POINT('',#2252);
#902=VERTEX_POINT('',#2254);
#903=VERTEX_POINT('',#2256);
#904=VERTEX_POINT('',#2258);
#905=VERTEX_POINT('',#2260);
#906=VERTEX_POINT('',#2261);
#907=VERTEX_POINT('',#2264);
#908=VERTEX_POINT('',#2269);
#909=VERTEX_POINT('',#2274);
#910=VERTEX_POINT('',#2276);
#911=VERTEX_POINT('',#2279);
#912=VERTEX_POINT('',#2281);
#913=VERTEX_POINT('',#2283);
#914=VERTEX_POINT('',#2285);
#915=VERTEX_POINT('',#2289);
#916=VERTEX_POINT('',#2291);
#917=VERTEX_POINT('',#2296);
#918=VERTEX_POINT('',#2298);
#919=VERTEX_POINT('',#2300);
#920=VERTEX_POINT('',#2302);
#921=VERTEX_POINT('',#2304);
#922=VERTEX_POINT('',#2305);
#923=VERTEX_POINT('',#2308);
#924=VERTEX_POINT('',#2313);
#925=VERTEX_POINT('',#2360);
#926=VERTEX_POINT('',#2364);
#927=VERTEX_POINT('',#2368);
#928=VERTEX_POINT('',#2372);
#929=VERTEX_POINT('',#2376);
#930=VERTEX_POINT('',#2380);
#931=VERTEX_POINT('',#2384);
#932=VERTEX_POINT('',#2388);
#933=CIRCLE('',#1419,23.75);
#934=CIRCLE('',#1420,23.75);
#935=CIRCLE('',#1422,23.75);
#936=CIRCLE('',#1423,23.75);
#937=CIRCLE('',#1427,1.275);
#938=CIRCLE('',#1428,1.275);
#939=CIRCLE('',#1430,1.275);
#940=CIRCLE('',#1431,1.275);
#941=CIRCLE('',#1433,1.275);
#942=CIRCLE('',#1434,1.275);
#943=CIRCLE('',#1436,1.275);
#944=CIRCLE('',#1437,1.275);
#945=CIRCLE('',#1439,1.275);
#946=CIRCLE('',#1440,1.275);
#947=CIRCLE('',#1442,1.275);
#948=CIRCLE('',#1443,1.275);
#949=CIRCLE('',#1445,1.275);
#950=CIRCLE('',#1446,1.275);
#951=CIRCLE('',#1448,1.275);
#952=CIRCLE('',#1449,1.275);
#953=CIRCLE('',#1451,23.75);
#954=CIRCLE('',#1452,23.75);
#955=CIRCLE('',#1454,23.75);
#956=CIRCLE('',#1455,23.75);
#957=CIRCLE('',#1458,9.475);
#958=CIRCLE('',#1459,9.475);
#959=CIRCLE('',#1461,1.475);
#960=CIRCLE('',#1463,11.975);
#961=CIRCLE('',#1469,1.);
#962=CIRCLE('',#1470,1.);
#963=CIRCLE('',#1473,1.);
#964=CIRCLE('',#1474,1.);
#965=CIRCLE('',#1477,1.275);
#966=CIRCLE('',#1478,1.275);
#967=CIRCLE('',#1482,7.58770166537926);
#968=CIRCLE('',#1484,11.1089745962156);
#969=CIRCLE('',#1485,7.975);
#970=CIRCLE('',#1487,7.49087708172407);
#971=CIRCLE('',#1489,11.5419872981078);
#972=CIRCLE('',#1493,10.);
#973=CIRCLE('',#1494,10.);
#974=CIRCLE('',#1495,1.);
#975=CIRCLE('',#1496,1.);
#976=CIRCLE('',#1498,3.);
#977=CIRCLE('',#1499,3.);
#978=CIRCLE('',#1501,2.5);
#979=CIRCLE('',#1502,2.5);
#980=CIRCLE('',#1503,2.5);
#981=CIRCLE('',#1504,2.5);
#982=CIRCLE('',#1505,10.);
#983=CIRCLE('',#1506,10.);
#984=CIRCLE('',#1508,3.);
#985=CIRCLE('',#1509,3.);
#986=CIRCLE('',#1511,10.);
#987=CIRCLE('',#1512,10.);
#988=CIRCLE('',#1513,1.);
#989=CIRCLE('',#1514,1.);
#990=CIRCLE('',#1516,3.);
#991=CIRCLE('',#1517,3.);
#992=CIRCLE('',#1519,2.5);
#993=CIRCLE('',#1520,2.5);
#994=CIRCLE('',#1521,2.5);
#995=CIRCLE('',#1522,2.5);
#996=CIRCLE('',#1523,10.);
#997=CIRCLE('',#1524,10.);
#998=CIRCLE('',#1526,3.);
#999=CIRCLE('',#1527,3.);
#1000=CIRCLE('',#1543,2.5);
#1001=CIRCLE('',#1546,2.5);
#1002=CIRCLE('',#1549,2.5);
#1003=CIRCLE('',#1552,2.5);
#1004=CIRCLE('',#1555,2.5);
#1005=CIRCLE('',#1558,2.5);
#1006=CIRCLE('',#1561,2.5);
#1007=CIRCLE('',#1564,2.5);
#1008=EDGE_LOOP('',(#265,#266,#267,#268));
#1009=EDGE_LOOP('',(#269,#270,#271,#272));
#1010=EDGE_LOOP('',(#273,#274,#275,#276));
#1011=EDGE_LOOP('',(#277,#278,#279,#280));
#1012=EDGE_LOOP('',(#281));
#1013=EDGE_LOOP('',(#282));
#1014=EDGE_LOOP('',(#283));
#1015=EDGE_LOOP('',(#284));
#1016=EDGE_LOOP('',(#285));
#1017=EDGE_LOOP('',(#286));
#1018=EDGE_LOOP('',(#287));
#1019=EDGE_LOOP('',(#288));
#1020=EDGE_LOOP('',(#289));
#1021=EDGE_LOOP('',(#290));
#1022=EDGE_LOOP('',(#291));
#1023=EDGE_LOOP('',(#292));
#1024=EDGE_LOOP('',(#293));
#1025=EDGE_LOOP('',(#294));
#1026=EDGE_LOOP('',(#295));
#1027=EDGE_LOOP('',(#296));
#1028=EDGE_LOOP('',(#297,#298,#299,#300));
#1029=EDGE_LOOP('',(#301,#302,#303,#304));
#1030=EDGE_LOOP('',(#305,#306,#307,#308));
#1031=EDGE_LOOP('',(#309,#310,#311,#312));
#1032=EDGE_LOOP('',(#313));
#1033=EDGE_LOOP('',(#314));
#1034=EDGE_LOOP('',(#315));
#1035=EDGE_LOOP('',(#316));
#1036=EDGE_LOOP('',(#317,#318,#319,#320));
#1037=EDGE_LOOP('',(#321));
#1038=EDGE_LOOP('',(#322,#323,#324,#325));
#1039=EDGE_LOOP('',(#326,#327,#328,#329));
#1040=EDGE_LOOP('',(#330,#331,#332,#333,#334,#335,#336,#337));
#1041=EDGE_LOOP('',(#338,#339,#340,#341));
#1042=EDGE_LOOP('',(#342,#343,#344,#345,#346,#347,#348,#349));
#1043=EDGE_LOOP('',(#350,#351,#352,#353,#354,#355,#356,#357));
#1044=EDGE_LOOP('',(#358,#359,#360,#361,#362,#363));
#1045=EDGE_LOOP('',(#364,#365,#366,#367,#368,#369,#370,#371));
#1046=EDGE_LOOP('',(#372,#373,#374,#375,#376,#377));
#1047=EDGE_LOOP('',(#378));
#1048=EDGE_LOOP('',(#379));
#1049=EDGE_LOOP('',(#380));
#1050=EDGE_LOOP('',(#381));
#1051=EDGE_LOOP('',(#382));
#1052=EDGE_LOOP('',(#383));
#1053=EDGE_LOOP('',(#384));
#1054=EDGE_LOOP('',(#385));
#1055=EDGE_LOOP('',(#386));
#1056=EDGE_LOOP('',(#387));
#1057=EDGE_LOOP('',(#388));
#1058=EDGE_LOOP('',(#389));
#1059=EDGE_LOOP('',(#390));
#1060=EDGE_LOOP('',(#391));
#1061=EDGE_LOOP('',(#392));
#1062=EDGE_LOOP('',(#393));
#1063=EDGE_LOOP('',(#394));
#1064=EDGE_LOOP('',(#395,#396,#397,#398,#399,#400,#401,#402,#403,#404));
#1065=EDGE_LOOP('',(#405));
#1066=EDGE_LOOP('',(#406));
#1067=EDGE_LOOP('',(#407));
#1068=EDGE_LOOP('',(#408));
#1069=EDGE_LOOP('',(#409,#410,#411,#412,#413,#414,#415));
#1070=EDGE_LOOP('',(#416));
#1071=EDGE_LOOP('',(#417));
#1072=EDGE_LOOP('',(#418));
#1073=EDGE_LOOP('',(#419));
#1074=EDGE_LOOP('',(#420,#421,#422,#423,#424,#425,#426,#427));
#1075=EDGE_LOOP('',(#428,#429,#430,#431,#432,#433,#434));
#1076=EDGE_LOOP('',(#435,#436,#437,#438,#439,#440,#441,#442,#443,#444));
#1077=EDGE_LOOP('',(#445));
#1078=EDGE_LOOP('',(#446));
#1079=EDGE_LOOP('',(#447));
#1080=EDGE_LOOP('',(#448));
#1081=EDGE_LOOP('',(#449,#450,#451,#452,#453,#454,#455));
#1082=EDGE_LOOP('',(#456));
#1083=EDGE_LOOP('',(#457));
#1084=EDGE_LOOP('',(#458));
#1085=EDGE_LOOP('',(#459));
#1086=EDGE_LOOP('',(#460,#461,#462,#463,#464,#465,#466,#467));
#1087=EDGE_LOOP('',(#468,#469,#470,#471,#472,#473,#474));
#1088=EDGE_LOOP('',(#475,#476,#477,#478));
#1089=EDGE_LOOP('',(#479,#480,#481,#482));
#1090=EDGE_LOOP('',(#483,#484,#485,#486,#487));
#1091=EDGE_LOOP('',(#488,#489,#490,#491,#492));
#1092=EDGE_LOOP('',(#493,#494,#495,#496,#497));
#1093=EDGE_LOOP('',(#498,#499,#500,#501,#502));
#1094=EDGE_LOOP('',(#503,#504,#505,#506));
#1095=EDGE_LOOP('',(#507,#508,#509,#510));
#1096=EDGE_LOOP('',(#511,#512,#513,#514));
#1097=EDGE_LOOP('',(#515,#516,#517,#518));
#1098=EDGE_LOOP('',(#519,#520,#521,#522,#523,#524));
#1099=EDGE_LOOP('',(#525,#526,#527,#528));
#1100=EDGE_LOOP('',(#529,#530,#531,#532,#533,#534));
#1101=EDGE_LOOP('',(#535,#536,#537,#538));
#1102=EDGE_LOOP('',(#539));
#1103=EDGE_LOOP('',(#540));
#1104=EDGE_LOOP('',(#541));
#1105=EDGE_LOOP('',(#542));
#1106=EDGE_LOOP('',(#543));
#1107=EDGE_LOOP('',(#544));
#1108=EDGE_LOOP('',(#545));
#1109=EDGE_LOOP('',(#546));
#1110=EDGE_LOOP('',(#547));
#1111=EDGE_LOOP('',(#548));
#1112=EDGE_LOOP('',(#549));
#1113=EDGE_LOOP('',(#550));
#1114=EDGE_LOOP('',(#551));
#1115=EDGE_LOOP('',(#552));
#1116=EDGE_LOOP('',(#553));
#1117=EDGE_LOOP('',(#554));
#1118=EDGE_LOOP('',(#555));
#1119=EDGE_LOOP('',(#556));
#1120=EDGE_LOOP('',(#557));
#1121=EDGE_LOOP('',(#558));
#1122=EDGE_LOOP('',(#559));
#1123=EDGE_LOOP('',(#560));
#1124=EDGE_LOOP('',(#561));
#1125=EDGE_LOOP('',(#562));
#1126=EDGE_LOOP('',(#563));
#1127=EDGE_LOOP('',(#564));
#1128=EDGE_LOOP('',(#565));
#1129=EDGE_LOOP('',(#566));
#1130=EDGE_LOOP('',(#567));
#1131=EDGE_LOOP('',(#568));
#1132=EDGE_LOOP('',(#569));
#1133=EDGE_LOOP('',(#570));
#1134=EDGE_LOOP('',(#571,#572,#573,#574));
#1135=EDGE_LOOP('',(#575,#576,#577,#578));
#1136=EDGE_LOOP('',(#579,#580,#581,#582,#583,#584));
#1137=EDGE_LOOP('',(#585,#586,#587,#588));
#1138=EDGE_LOOP('',(#589,#590,#591,#592,#593,#594));
#1139=EDGE_LOOP('',(#595,#596,#597,#598));
#1140=EDGE_LOOP('',(#599,#600,#601,#602));
#1141=EDGE_LOOP('',(#603,#604,#605,#606));
#1142=EDGE_LOOP('',(#607,#608,#609,#610));
#1143=EDGE_LOOP('',(#611,#612,#613,#614));
#1144=EDGE_LOOP('',(#615,#616,#617,#618));
#1145=EDGE_LOOP('',(#619,#620,#621,#622));
#1146=FACE_BOUND('',#1008,.T.);
#1147=FACE_BOUND('',#1009,.T.);
#1148=FACE_BOUND('',#1010,.T.);
#1149=FACE_BOUND('',#1011,.T.);
#1150=FACE_BOUND('',#1012,.T.);
#1151=FACE_BOUND('',#1013,.T.);
#1152=FACE_BOUND('',#1014,.T.);
#1153=FACE_BOUND('',#1015,.T.);
#1154=FACE_BOUND('',#1016,.T.);
#1155=FACE_BOUND('',#1017,.T.);
#1156=FACE_BOUND('',#1018,.T.);
#1157=FACE_BOUND('',#1019,.T.);
#1158=FACE_BOUND('',#1020,.T.);
#1159=FACE_BOUND('',#1021,.T.);
#1160=FACE_BOUND('',#1022,.T.);
#1161=FACE_BOUND('',#1023,.T.);
#1162=FACE_BOUND('',#1024,.T.);
#1163=FACE_BOUND('',#1025,.T.);
#1164=FACE_BOUND('',#1026,.T.);
#1165=FACE_BOUND('',#1027,.T.);
#1166=FACE_BOUND('',#1028,.T.);
#1167=FACE_BOUND('',#1029,.T.);
#1168=FACE_BOUND('',#1030,.T.);
#1169=FACE_BOUND('',#1031,.T.);
#1170=FACE_BOUND('',#1032,.T.);
#1171=FACE_BOUND('',#1033,.T.);
#1172=FACE_BOUND('',#1034,.T.);
#1173=FACE_BOUND('',#1035,.T.);
#1174=FACE_BOUND('',#1036,.T.);
#1175=FACE_BOUND('',#1037,.T.);
#1176=FACE_BOUND('',#1038,.T.);
#1177=FACE_BOUND('',#1039,.T.);
#1178=FACE_BOUND('',#1040,.T.);
#1179=FACE_BOUND('',#1041,.T.);
#1180=FACE_BOUND('',#1042,.T.);
#1181=FACE_BOUND('',#1043,.T.);
#1182=FACE_BOUND('',#1044,.T.);
#1183=FACE_BOUND('',#1045,.T.);
#1184=FACE_BOUND('',#1046,.T.);
#1185=FACE_BOUND('',#1047,.T.);
#1186=FACE_BOUND('',#1048,.T.);
#1187=FACE_BOUND('',#1049,.T.);
#1188=FACE_BOUND('',#1050,.T.);
#1189=FACE_BOUND('',#1051,.T.);
#1190=FACE_BOUND('',#1052,.T.);
#1191=FACE_BOUND('',#1053,.T.);
#1192=FACE_BOUND('',#1054,.T.);
#1193=FACE_BOUND('',#1055,.T.);
#1194=FACE_BOUND('',#1056,.T.);
#1195=FACE_BOUND('',#1057,.T.);
#1196=FACE_BOUND('',#1058,.T.);
#1197=FACE_BOUND('',#1059,.T.);
#1198=FACE_BOUND('',#1060,.T.);
#1199=FACE_BOUND('',#1061,.T.);
#1200=FACE_BOUND('',#1062,.T.);
#1201=FACE_BOUND('',#1063,.T.);
#1202=FACE_BOUND('',#1064,.T.);
#1203=FACE_BOUND('',#1065,.T.);
#1204=FACE_BOUND('',#1066,.T.);
#1205=FACE_BOUND('',#1067,.T.);
#1206=FACE_BOUND('',#1068,.T.);
#1207=FACE_BOUND('',#1069,.T.);
#1208=FACE_BOUND('',#1070,.T.);
#1209=FACE_BOUND('',#1071,.T.);
#1210=FACE_BOUND('',#1072,.T.);
#1211=FACE_BOUND('',#1073,.T.);
#1212=FACE_BOUND('',#1074,.T.);
#1213=FACE_BOUND('',#1075,.T.);
#1214=FACE_BOUND('',#1076,.T.);
#1215=FACE_BOUND('',#1077,.T.);
#1216=FACE_BOUND('',#1078,.T.);
#1217=FACE_BOUND('',#1079,.T.);
#1218=FACE_BOUND('',#1080,.T.);
#1219=FACE_BOUND('',#1081,.T.);
#1220=FACE_BOUND('',#1082,.T.);
#1221=FACE_BOUND('',#1083,.T.);
#1222=FACE_BOUND('',#1084,.T.);
#1223=FACE_BOUND('',#1085,.T.);
#1224=FACE_BOUND('',#1086,.T.);
#1225=FACE_BOUND('',#1087,.T.);
#1226=FACE_BOUND('',#1088,.T.);
#1227=FACE_BOUND('',#1089,.T.);
#1228=FACE_BOUND('',#1090,.T.);
#1229=FACE_BOUND('',#1091,.T.);
#1230=FACE_BOUND('',#1092,.T.);
#1231=FACE_BOUND('',#1093,.T.);
#1232=FACE_BOUND('',#1094,.T.);
#1233=FACE_BOUND('',#1095,.T.);
#1234=FACE_BOUND('',#1096,.T.);
#1235=FACE_BOUND('',#1097,.T.);
#1236=FACE_BOUND('',#1098,.T.);
#1237=FACE_BOUND('',#1099,.T.);
#1238=FACE_BOUND('',#1100,.T.);
#1239=FACE_BOUND('',#1101,.T.);
#1240=FACE_BOUND('',#1102,.T.);
#1241=FACE_BOUND('',#1103,.T.);
#1242=FACE_BOUND('',#1104,.T.);
#1243=FACE_BOUND('',#1105,.T.);
#1244=FACE_BOUND('',#1106,.T.);
#1245=FACE_BOUND('',#1107,.T.);
#1246=FACE_BOUND('',#1108,.T.);
#1247=FACE_BOUND('',#1109,.T.);
#1248=FACE_BOUND('',#1110,.T.);
#1249=FACE_BOUND('',#1111,.T.);
#1250=FACE_BOUND('',#1112,.T.);
#1251=FACE_BOUND('',#1113,.T.);
#1252=FACE_BOUND('',#1114,.T.);
#1253=FACE_BOUND('',#1115,.T.);
#1254=FACE_BOUND('',#1116,.T.);
#1255=FACE_BOUND('',#1117,.T.);
#1256=FACE_BOUND('',#1118,.T.);
#1257=FACE_BOUND('',#1119,.T.);
#1258=FACE_BOUND('',#1120,.T.);
#1259=FACE_BOUND('',#1121,.T.);
#1260=FACE_BOUND('',#1122,.T.);
#1261=FACE_BOUND('',#1123,.T.);
#1262=FACE_BOUND('',#1124,.T.);
#1263=FACE_BOUND('',#1125,.T.);
#1264=FACE_BOUND('',#1126,.T.);
#1265=FACE_BOUND('',#1127,.T.);
#1266=FACE_BOUND('',#1128,.T.);
#1267=FACE_BOUND('',#1129,.T.);
#1268=FACE_BOUND('',#1130,.T.);
#1269=FACE_BOUND('',#1131,.T.);
#1270=FACE_BOUND('',#1132,.T.);
#1271=FACE_BOUND('',#1133,.T.);
#1272=FACE_BOUND('',#1134,.T.);
#1273=FACE_BOUND('',#1135,.T.);
#1274=FACE_BOUND('',#1136,.T.);
#1275=FACE_BOUND('',#1137,.T.);
#1276=FACE_BOUND('',#1138,.T.);
#1277=FACE_BOUND('',#1139,.T.);
#1278=FACE_BOUND('',#1140,.T.);
#1279=FACE_BOUND('',#1141,.T.);
#1280=FACE_BOUND('',#1142,.T.);
#1281=FACE_BOUND('',#1143,.T.);
#1282=FACE_BOUND('',#1144,.T.);
#1283=FACE_BOUND('',#1145,.T.);
#1284=CYLINDRICAL_SURFACE('',#1418,23.75);
#1285=CYLINDRICAL_SURFACE('',#1421,23.75);
#1286=CYLINDRICAL_SURFACE('',#1426,1.275);
#1287=CYLINDRICAL_SURFACE('',#1429,1.275);
#1288=CYLINDRICAL_SURFACE('',#1432,1.275);
#1289=CYLINDRICAL_SURFACE('',#1435,1.275);
#1290=CYLINDRICAL_SURFACE('',#1438,1.275);
#1291=CYLINDRICAL_SURFACE('',#1441,1.275);
#1292=CYLINDRICAL_SURFACE('',#1444,1.275);
#1293=CYLINDRICAL_SURFACE('',#1447,1.275);
#1294=CYLINDRICAL_SURFACE('',#1450,23.75);
#1295=CYLINDRICAL_SURFACE('',#1453,23.75);
#1296=CYLINDRICAL_SURFACE('',#1457,9.475);
#1297=CYLINDRICAL_SURFACE('',#1476,1.275);
#1298=CYLINDRICAL_SURFACE('',#1528,0.5);
#1299=CYLINDRICAL_SURFACE('',#1529,0.5);
#1300=CYLINDRICAL_SURFACE('',#1530,1.);
#1301=CYLINDRICAL_SURFACE('',#1531,1.);
#1302=CYLINDRICAL_SURFACE('',#1532,1.);
#1303=CYLINDRICAL_SURFACE('',#1533,1.);
#1304=CYLINDRICAL_SURFACE('',#1534,3.);
#1305=CYLINDRICAL_SURFACE('',#1535,3.);
#1306=CYLINDRICAL_SURFACE('',#1536,3.);
#1307=CYLINDRICAL_SURFACE('',#1537,3.);
#1308=CYLINDRICAL_SURFACE('',#1544,2.5);
#1309=CYLINDRICAL_SURFACE('',#1547,2.5);
#1310=CYLINDRICAL_SURFACE('',#1550,2.5);
#1311=CYLINDRICAL_SURFACE('',#1553,2.5);
#1312=CYLINDRICAL_SURFACE('',#1556,2.5);
#1313=CYLINDRICAL_SURFACE('',#1559,2.5);
#1314=CYLINDRICAL_SURFACE('',#1562,2.5);
#1315=CYLINDRICAL_SURFACE('',#1565,2.5);
#1316=CYLINDRICAL_SURFACE('',#1574,10.);
#1317=CYLINDRICAL_SURFACE('',#1575,10.);
#1318=CYLINDRICAL_SURFACE('',#1576,10.);
#1319=CYLINDRICAL_SURFACE('',#1577,10.);
#1320=ADVANCED_FACE('',(#1146),#1284,.T.);
#1321=ADVANCED_FACE('',(#1147),#1285,.T.);
#1322=ADVANCED_FACE('',(#1148),#21,.F.);
#1323=ADVANCED_FACE('',(#1149),#22,.F.);
#1324=ADVANCED_FACE('',(#1150,#1151),#1286,.F.);
#1325=ADVANCED_FACE('',(#1152,#1153),#1287,.F.);
#1326=ADVANCED_FACE('',(#1154,#1155),#1288,.F.);
#1327=ADVANCED_FACE('',(#1156,#1157),#1289,.F.);
#1328=ADVANCED_FACE('',(#1158,#1159),#1290,.F.);
#1329=ADVANCED_FACE('',(#1160,#1161),#1291,.F.);
#1330=ADVANCED_FACE('',(#1162,#1163),#1292,.F.);
#1331=ADVANCED_FACE('',(#1164,#1165),#1293,.F.);
#1332=ADVANCED_FACE('',(#1166),#1294,.T.);
#1333=ADVANCED_FACE('',(#1167),#1295,.T.);
#1334=ADVANCED_FACE('',(#1168,#1169),#23,.F.);
#1335=ADVANCED_FACE('',(#1170,#1171),#1296,.F.);
#1336=ADVANCED_FACE('',(#1172,#1173,#1174),#24,.F.);
#1337=ADVANCED_FACE('',(#1175,#1176),#25,.T.);
#1338=ADVANCED_FACE('',(#1177),#26,.T.);
#1339=ADVANCED_FACE('',(#1178),#27,.F.);
#1340=ADVANCED_FACE('',(#1179),#28,.F.);
#1341=ADVANCED_FACE('',(#1180),#29,.T.);
#1342=ADVANCED_FACE('',(#1181),#30,.F.);
#1343=ADVANCED_FACE('',(#1182),#31,.F.);
#1344=ADVANCED_FACE('',(#1183),#32,.T.);
#1345=ADVANCED_FACE('',(#1184),#33,.T.);
#1346=ADVANCED_FACE('',(#1185,#1186),#1297,.F.);
#1347=ADVANCED_FACE('',(#1187),#34,.T.);
#1348=ADVANCED_FACE('',(#1188,#1189),#20,.F.);
#1349=ADVANCED_FACE('',(#1190,#1191),#35,.F.);
#1350=ADVANCED_FACE('',(#1192,#1193),#36,.T.);
#1351=ADVANCED_FACE('',(#1194,#1195),#16,.T.);
#1352=ADVANCED_FACE('',(#1196,#1197),#17,.F.);
#1353=ADVANCED_FACE('',(#1198,#1199),#18,.T.);
#1354=ADVANCED_FACE('',(#1200,#1201),#19,.T.);
#1355=ADVANCED_FACE('',(#1202,#1203,#1204,#1205,#1206),#37,.T.);
#1356=ADVANCED_FACE('',(#1207),#38,.F.);
#1357=ADVANCED_FACE('',(#1208,#1209,#1210,#1211,#1212),#39,.F.);
#1358=ADVANCED_FACE('',(#1213),#40,.T.);
#1359=ADVANCED_FACE('',(#1214,#1215,#1216,#1217,#1218),#41,.T.);
#1360=ADVANCED_FACE('',(#1219),#42,.F.);
#1361=ADVANCED_FACE('',(#1220,#1221,#1222,#1223,#1224),#43,.F.);
#1362=ADVANCED_FACE('',(#1225),#44,.T.);
#1363=ADVANCED_FACE('',(#1226),#1298,.F.);
#1364=ADVANCED_FACE('',(#1227),#1299,.F.);
#1365=ADVANCED_FACE('',(#1228),#1300,.F.);
#1366=ADVANCED_FACE('',(#1229),#1301,.F.);
#1367=ADVANCED_FACE('',(#1230),#1302,.F.);
#1368=ADVANCED_FACE('',(#1231),#1303,.F.);
#1369=ADVANCED_FACE('',(#1232),#1304,.F.);
#1370=ADVANCED_FACE('',(#1233),#1305,.F.);
#1371=ADVANCED_FACE('',(#1234),#1306,.T.);
#1372=ADVANCED_FACE('',(#1235),#1307,.T.);
#1373=ADVANCED_FACE('',(#1236),#45,.T.);
#1374=ADVANCED_FACE('',(#1237),#46,.T.);
#1375=ADVANCED_FACE('',(#1238),#47,.T.);
#1376=ADVANCED_FACE('',(#1239),#48,.T.);
#1377=ADVANCED_FACE('',(#1240,#1241),#49,.T.);
#1378=ADVANCED_FACE('',(#1242,#1243),#1308,.F.);
#1379=ADVANCED_FACE('',(#1244,#1245),#50,.T.);
#1380=ADVANCED_FACE('',(#1246,#1247),#1309,.F.);
#1381=ADVANCED_FACE('',(#1248,#1249),#51,.T.);
#1382=ADVANCED_FACE('',(#1250,#1251),#1310,.F.);
#1383=ADVANCED_FACE('',(#1252,#1253),#52,.T.);
#1384=ADVANCED_FACE('',(#1254,#1255),#1311,.F.);
#1385=ADVANCED_FACE('',(#1256,#1257),#53,.T.);
#1386=ADVANCED_FACE('',(#1258,#1259),#1312,.F.);
#1387=ADVANCED_FACE('',(#1260,#1261),#54,.T.);
#1388=ADVANCED_FACE('',(#1262,#1263),#1313,.F.);
#1389=ADVANCED_FACE('',(#1264,#1265),#55,.T.);
#1390=ADVANCED_FACE('',(#1266,#1267),#1314,.F.);
#1391=ADVANCED_FACE('',(#1268,#1269),#56,.T.);
#1392=ADVANCED_FACE('',(#1270,#1271),#1315,.F.);
#1393=ADVANCED_FACE('',(#1272),#57,.T.);
#1394=ADVANCED_FACE('',(#1273),#58,.F.);
#1395=ADVANCED_FACE('',(#1274),#59,.F.);
#1396=ADVANCED_FACE('',(#1275),#60,.F.);
#1397=ADVANCED_FACE('',(#1276),#61,.F.);
#1398=ADVANCED_FACE('',(#1277),#62,.T.);
#1399=ADVANCED_FACE('',(#1278),#63,.F.);
#1400=ADVANCED_FACE('',(#1279),#64,.F.);
#1401=ADVANCED_FACE('',(#1280),#1316,.T.);
#1402=ADVANCED_FACE('',(#1281),#1317,.T.);
#1403=ADVANCED_FACE('',(#1282),#1318,.T.);
#1404=ADVANCED_FACE('',(#1283),#1319,.T.);
#1405=CLOSED_SHELL('',(#1320,#1321,#1322,#1323,#1324,#1325,#1326,#1327,
#1328,#1329,#1330,#1331,#1332,#1333,#1334,#1335,#1336,#1337,#1338,#1339,
#1340,#1341,#1342,#1343,#1344,#1345,#1346,#1347,#1348,#1349,#1350,#1351,
#1352,#1353,#1354,#1355,#1356,#1357,#1358,#1359,#1360,#1361,#1362,#1363,
#1364,#1365,#1366,#1367,#1368,#1369,#1370,#1371,#1372,#1373,#1374,#1375,
#1376,#1377,#1378,#1379,#1380,#1381,#1382,#1383,#1384,#1385,#1386,#1387,
#1388,#1389,#1390,#1391,#1392,#1393,#1394,#1395,#1396,#1397,#1398,#1399,
#1400,#1401,#1402,#1403,#1404));
#1406=STYLED_ITEM('',(#1407),#1414);
#1407=PRESENTATION_STYLE_ASSIGNMENT((#1408));
#1408=SURFACE_STYLE_USAGE(.BOTH.,#1409);
#1409=SURFACE_SIDE_STYLE('',(#1410));
#1410=SURFACE_STYLE_FILL_AREA(#1411);
#1411=FILL_AREA_STYLE('',(#1412));
#1412=FILL_AREA_STYLE_COLOUR('',#1413);
#1413=COLOUR_RGB('',0.796078431372549,0.823529411764706,0.937254901960784);
#1414=MANIFOLD_SOLID_BREP('Part 1',#1405);
#1415=SHAPE_DEFINITION_REPRESENTATION(#2418,#1416);
#1416=SHAPE_REPRESENTATION('Part 1',(#1417),#2413);
#1417=AXIS2_PLACEMENT_3D('',#2000,#1578,#1579);
#1418=AXIS2_PLACEMENT_3D('',#2001,#1580,#1581);
#1419=AXIS2_PLACEMENT_3D('',#2002,#1582,#1583);
#1420=AXIS2_PLACEMENT_3D('',#2007,#1585,#1586);
#1421=AXIS2_PLACEMENT_3D('',#2010,#1588,#1589);
#1422=AXIS2_PLACEMENT_3D('',#2011,#1590,#1591);
#1423=AXIS2_PLACEMENT_3D('',#2016,#1593,#1594);
#1424=AXIS2_PLACEMENT_3D('',#2019,#1596,#1597);
#1425=AXIS2_PLACEMENT_3D('',#2028,#1602,#1603);
#1426=AXIS2_PLACEMENT_3D('',#2037,#1608,#1609);
#1427=AXIS2_PLACEMENT_3D('',#2038,#1610,#1611);
#1428=AXIS2_PLACEMENT_3D('',#2040,#1612,#1613);
#1429=AXIS2_PLACEMENT_3D('',#2042,#1614,#1615);
#1430=AXIS2_PLACEMENT_3D('',#2043,#1616,#1617);
#1431=AXIS2_PLACEMENT_3D('',#2045,#1618,#1619);
#1432=AXIS2_PLACEMENT_3D('',#2047,#1620,#1621);
#1433=AXIS2_PLACEMENT_3D('',#2048,#1622,#1623);
#1434=AXIS2_PLACEMENT_3D('',#2050,#1624,#1625);
#1435=AXIS2_PLACEMENT_3D('',#2052,#1626,#1627);
#1436=AXIS2_PLACEMENT_3D('',#2053,#1628,#1629);
#1437=AXIS2_PLACEMENT_3D('',#2055,#1630,#1631);
#1438=AXIS2_PLACEMENT_3D('',#2057,#1632,#1633);
#1439=AXIS2_PLACEMENT_3D('',#2058,#1634,#1635);
#1440=AXIS2_PLACEMENT_3D('',#2060,#1636,#1637);
#1441=AXIS2_PLACEMENT_3D('',#2062,#1638,#1639);
#1442=AXIS2_PLACEMENT_3D('',#2063,#1640,#1641);
#1443=AXIS2_PLACEMENT_3D('',#2065,#1642,#1643);
#1444=AXIS2_PLACEMENT_3D('',#2067,#1644,#1645);
#1445=AXIS2_PLACEMENT_3D('',#2068,#1646,#1647);
#1446=AXIS2_PLACEMENT_3D('',#2070,#1648,#1649);
#1447=AXIS2_PLACEMENT_3D('',#2072,#1650,#1651);
#1448=AXIS2_PLACEMENT_3D('',#2073,#1652,#1653);
#1449=AXIS2_PLACEMENT_3D('',#2075,#1654,#1655);
#1450=AXIS2_PLACEMENT_3D('',#2077,#1656,#1657);
#1451=AXIS2_PLACEMENT_3D('',#2078,#1658,#1659);
#1452=AXIS2_PLACEMENT_3D('',#2083,#1661,#1662);
#1453=AXIS2_PLACEMENT_3D('',#2086,#1664,#1665);
#1454=AXIS2_PLACEMENT_3D('',#2087,#1666,#1667);
#1455=AXIS2_PLACEMENT_3D('',#2092,#1669,#1670);
#1456=AXIS2_PLACEMENT_3D('',#2095,#1672,#1673);
#1457=AXIS2_PLACEMENT_3D('',#2112,#1682,#1683);
#1458=AXIS2_PLACEMENT_3D('',#2113,#1684,#1685);
#1459=AXIS2_PLACEMENT_3D('',#2115,#1686,#1687);
#1460=AXIS2_PLACEMENT_3D('',#2117,#1688,#1689);
#1461=AXIS2_PLACEMENT_3D('',#2118,#1690,#1691);
#1462=AXIS2_PLACEMENT_3D('',#2128,#1696,#1697);
#1463=AXIS2_PLACEMENT_3D('',#2129,#1698,#1699);
#1464=AXIS2_PLACEMENT_3D('',#2139,#1704,#1705);
#1465=AXIS2_PLACEMENT_3D('',#2145,#1709,#1710);
#1466=AXIS2_PLACEMENT_3D('',#2157,#1717,#1718);
#1467=AXIS2_PLACEMENT_3D('',#2161,#1721,#1722);
#1468=AXIS2_PLACEMENT_3D('',#2171,#1728,#1729);
#1469=AXIS2_PLACEMENT_3D('',#2179,#1733,#1734);
#1470=AXIS2_PLACEMENT_3D('',#2184,#1737,#1738);
#1471=AXIS2_PLACEMENT_3D('',#2185,#1739,#1740);
#1472=AXIS2_PLACEMENT_3D('',#2190,#1744,#1745);
#1473=AXIS2_PLACEMENT_3D('',#2196,#1748,#1749);
#1474=AXIS2_PLACEMENT_3D('',#2199,#1751,#1752);
#1475=AXIS2_PLACEMENT_3D('',#2202,#1754,#1755);
#1476=AXIS2_PLACEMENT_3D('',#2205,#1758,#1759);
#1477=AXIS2_PLACEMENT_3D('',#2206,#1760,#1761);
#1478=AXIS2_PLACEMENT_3D('',#2208,#1762,#1763);
#1479=AXIS2_PLACEMENT_3D('',#2210,#1764,#1765);
#1480=AXIS2_PLACEMENT_3D('',#2211,#1766,#1767);
#1481=AXIS2_PLACEMENT_3D('',#2212,#1768,#1769);
#1482=AXIS2_PLACEMENT_3D('',#2213,#1770,#1771);
#1483=AXIS2_PLACEMENT_3D('',#2215,#1772,#1773);
#1484=AXIS2_PLACEMENT_3D('',#2216,#1774,#1775);
#1485=AXIS2_PLACEMENT_3D('',#2218,#1776,#1777);
#1486=AXIS2_PLACEMENT_3D('',#2220,#1778,#1779);
#1487=AXIS2_PLACEMENT_3D('',#2221,#1780,#1781);
#1488=AXIS2_PLACEMENT_3D('',#2223,#1782,#1783);
#1489=AXIS2_PLACEMENT_3D('',#2224,#1784,#1785);
#1490=AXIS2_PLACEMENT_3D('',#2226,#1786,#1787);
#1491=AXIS2_PLACEMENT_3D('',#2227,#1788,#1789);
#1492=AXIS2_PLACEMENT_3D('',#2228,#1790,#1791);
#1493=AXIS2_PLACEMENT_3D('',#2229,#1792,#1793);
#1494=AXIS2_PLACEMENT_3D('',#2233,#1795,#1796);
#1495=AXIS2_PLACEMENT_3D('',#2236,#1798,#1799);
#1496=AXIS2_PLACEMENT_3D('',#2240,#1801,#1802);
#1497=AXIS2_PLACEMENT_3D('',#2243,#1804,#1805);
#1498=AXIS2_PLACEMENT_3D('',#2244,#1806,#1807);
#1499=AXIS2_PLACEMENT_3D('',#2246,#1808,#1809);
#1500=AXIS2_PLACEMENT_3D('',#2250,#1812,#1813);
#1501=AXIS2_PLACEMENT_3D('',#2251,#1814,#1815);
#1502=AXIS2_PLACEMENT_3D('',#2253,#1816,#1817);
#1503=AXIS2_PLACEMENT_3D('',#2255,#1818,#1819);
#1504=AXIS2_PLACEMENT_3D('',#2257,#1820,#1821);
#1505=AXIS2_PLACEMENT_3D('',#2262,#1823,#1824);
#1506=AXIS2_PLACEMENT_3D('',#2266,#1827,#1828);
#1507=AXIS2_PLACEMENT_3D('',#2267,#1829,#1830);
#1508=AXIS2_PLACEMENT_3D('',#2268,#1831,#1832);
#1509=AXIS2_PLACEMENT_3D('',#2270,#1833,#1834);
#1510=AXIS2_PLACEMENT_3D('',#2272,#1836,#1837);
#1511=AXIS2_PLACEMENT_3D('',#2273,#1838,#1839);
#1512=AXIS2_PLACEMENT_3D('',#2277,#1841,#1842);
#1513=AXIS2_PLACEMENT_3D('',#2280,#1844,#1845);
#1514=AXIS2_PLACEMENT_3D('',#2284,#1847,#1848);
#1515=AXIS2_PLACEMENT_3D('',#2287,#1850,#1851);
#1516=AXIS2_PLACEMENT_3D('',#2288,#1852,#1853);
#1517=AXIS2_PLACEMENT_3D('',#2290,#1854,#1855);
#1518=AXIS2_PLACEMENT_3D('',#2294,#1858,#1859);
#1519=AXIS2_PLACEMENT_3D('',#2295,#1860,#1861);
#1520=AXIS2_PLACEMENT_3D('',#2297,#1862,#1863);
#1521=AXIS2_PLACEMENT_3D('',#2299,#1864,#1865);
#1522=AXIS2_PLACEMENT_3D('',#2301,#1866,#1867);
#1523=AXIS2_PLACEMENT_3D('',#2306,#1869,#1870);
#1524=AXIS2_PLACEMENT_3D('',#2310,#1873,#1874);
#1525=AXIS2_PLACEMENT_3D('',#2311,#1875,#1876);
#1526=AXIS2_PLACEMENT_3D('',#2312,#1877,#1878);
#1527=AXIS2_PLACEMENT_3D('',#2314,#1879,#1880);
#1528=AXIS2_PLACEMENT_3D('',#2316,#1882,#1883);
#1529=AXIS2_PLACEMENT_3D('',#2327,#1884,#1885);
#1530=AXIS2_PLACEMENT_3D('',#2338,#1886,#1887);
#1531=AXIS2_PLACEMENT_3D('',#2339,#1888,#1889);
#1532=AXIS2_PLACEMENT_3D('',#2340,#1890,#1891);
#1533=AXIS2_PLACEMENT_3D('',#2341,#1892,#1893);
#1534=AXIS2_PLACEMENT_3D('',#2342,#1894,#1895);
#1535=AXIS2_PLACEMENT_3D('',#2344,#1897,#1898);
#1536=AXIS2_PLACEMENT_3D('',#2346,#1900,#1901);
#1537=AXIS2_PLACEMENT_3D('',#2347,#1902,#1903);
#1538=AXIS2_PLACEMENT_3D('',#2348,#1904,#1905);
#1539=AXIS2_PLACEMENT_3D('',#2352,#1909,#1910);
#1540=AXIS2_PLACEMENT_3D('',#2353,#1911,#1912);
#1541=AXIS2_PLACEMENT_3D('',#2357,#1916,#1917);
#1542=AXIS2_PLACEMENT_3D('',#2358,#1918,#1919);
#1543=AXIS2_PLACEMENT_3D('',#2359,#1920,#1921);
#1544=AXIS2_PLACEMENT_3D('',#2361,#1922,#1923);
#1545=AXIS2_PLACEMENT_3D('',#2362,#1924,#1925);
#1546=AXIS2_PLACEMENT_3D('',#2363,#1926,#1927);
#1547=AXIS2_PLACEMENT_3D('',#2365,#1928,#1929);
#1548=AXIS2_PLACEMENT_3D('',#2366,#1930,#1931);
#1549=AXIS2_PLACEMENT_3D('',#2367,#1932,#1933);
#1550=AXIS2_PLACEMENT_3D('',#2369,#1934,#1935);
#1551=AXIS2_PLACEMENT_3D('',#2370,#1936,#1937);
#1552=AXIS2_PLACEMENT_3D('',#2371,#1938,#1939);
#1553=AXIS2_PLACEMENT_3D('',#2373,#1940,#1941);
#1554=AXIS2_PLACEMENT_3D('',#2374,#1942,#1943);
#1555=AXIS2_PLACEMENT_3D('',#2375,#1944,#1945);
#1556=AXIS2_PLACEMENT_3D('',#2377,#1946,#1947);
#1557=AXIS2_PLACEMENT_3D('',#2378,#1948,#1949);
#1558=AXIS2_PLACEMENT_3D('',#2379,#1950,#1951);
#1559=AXIS2_PLACEMENT_3D('',#2381,#1952,#1953);
#1560=AXIS2_PLACEMENT_3D('',#2382,#1954,#1955);
#1561=AXIS2_PLACEMENT_3D('',#2383,#1956,#1957);
#1562=AXIS2_PLACEMENT_3D('',#2385,#1958,#1959);
#1563=AXIS2_PLACEMENT_3D('',#2386,#1960,#1961);
#1564=AXIS2_PLACEMENT_3D('',#2387,#1962,#1963);
#1565=AXIS2_PLACEMENT_3D('',#2389,#1964,#1965);
#1566=AXIS2_PLACEMENT_3D('',#2390,#1966,#1967);
#1567=AXIS2_PLACEMENT_3D('',#2392,#1969,#1970);
#1568=AXIS2_PLACEMENT_3D('',#2395,#1973,#1974);
#1569=AXIS2_PLACEMENT_3D('',#2398,#1977,#1978);
#1570=AXIS2_PLACEMENT_3D('',#2400,#1980,#1981);
#1571=AXIS2_PLACEMENT_3D('',#2401,#1982,#1983);
#1572=AXIS2_PLACEMENT_3D('',#2402,#1984,#1985);
#1573=AXIS2_PLACEMENT_3D('',#2405,#1988,#1989);
#1574=AXIS2_PLACEMENT_3D('',#2408,#1992,#1993);
#1575=AXIS2_PLACEMENT_3D('',#2409,#1994,#1995);
#1576=AXIS2_PLACEMENT_3D('',#2410,#1996,#1997);
#1577=AXIS2_PLACEMENT_3D('',#2411,#1998,#1999);
#1578=DIRECTION('',(0.,0.,1.));
#1579=DIRECTION('',(1.,0.,0.));
#1580=DIRECTION('',(-1.15648231731787E-15,0.,1.));
#1581=DIRECTION('',(1.,0.,1.15648231731787E-15));
#1582=DIRECTION('',(0.,0.,-1.));
#1583=DIRECTION('',(-1.,0.,0.));
#1584=DIRECTION('',(-1.15648231731787E-15,0.,1.));
#1585=DIRECTION('',(1.94548427212352E-16,0.,-1.));
#1586=DIRECTION('',(-1.,0.,-1.94548427212352E-16));
#1587=DIRECTION('',(1.15648231731788E-15,0.,1.));
#1588=DIRECTION('',(0.,0.,-1.));
#1589=DIRECTION('',(-1.,0.,0.));
#1590=DIRECTION('',(0.,0.,1.));
#1591=DIRECTION('',(1.,0.,0.));
#1592=DIRECTION('',(0.,0.,-1.));
#1593=DIRECTION('',(-6.48494757374507E-17,0.,1.));
#1594=DIRECTION('',(1.,0.,6.48494757374507E-17));
#1595=DIRECTION('',(0.,0.,-1.));
#1596=DIRECTION('',(0.,1.,0.));
#1597=DIRECTION('',(0.,0.,1.));
#1598=DIRECTION('',(-1.28498035257541E-16,0.,-1.));
#1599=DIRECTION('',(1.,0.,0.));
#1600=DIRECTION('',(0.,0.,1.));
#1601=DIRECTION('',(-1.,0.,-7.46117624076046E-17));
#1602=DIRECTION('',(0.,1.,0.));
#1603=DIRECTION('',(0.,0.,1.));
#1604=DIRECTION('',(-1.28498035257541E-16,0.,-1.));
#1605=DIRECTION('',(1.,0.,7.46117624076046E-17));
#1606=DIRECTION('',(0.,0.,-1.));
#1607=DIRECTION('',(-1.,0.,0.));
#1608=DIRECTION('',(0.,0.,1.));
#1609=DIRECTION('',(1.,0.,0.));
#1610=DIRECTION('',(0.,0.,1.));
#1611=DIRECTION('',(1.,0.,0.));
#1612=DIRECTION('',(0.,0.,-1.));
#1613=DIRECTION('',(-1.,0.,0.));
#1614=DIRECTION('',(0.,0.,1.));
#1615=DIRECTION('',(1.,0.,0.));
#1616=DIRECTION('',(0.,0.,1.));
#1617=DIRECTION('',(1.,0.,0.));
#1618=DIRECTION('',(0.,0.,-1.));
#1619=DIRECTION('',(-1.,0.,0.));
#1620=DIRECTION('',(0.,0.,1.));
#1621=DIRECTION('',(1.,0.,0.));
#1622=DIRECTION('',(0.,0.,1.));
#1623=DIRECTION('',(1.,0.,0.));
#1624=DIRECTION('',(0.,0.,-1.));
#1625=DIRECTION('',(-1.,0.,0.));
#1626=DIRECTION('',(0.,0.,1.));
#1627=DIRECTION('',(1.,0.,0.));
#1628=DIRECTION('',(0.,0.,1.));
#1629=DIRECTION('',(1.,0.,0.));
#1630=DIRECTION('',(0.,0.,-1.));
#1631=DIRECTION('',(-1.,0.,0.));
#1632=DIRECTION('',(0.,0.,1.));
#1633=DIRECTION('',(1.,0.,0.));
#1634=DIRECTION('',(0.,0.,-1.));
#1635=DIRECTION('',(-1.,0.,0.));
#1636=DIRECTION('',(0.,0.,1.));
#1637=DIRECTION('',(1.,0.,0.));
#1638=DIRECTION('',(0.,0.,1.));
#1639=DIRECTION('',(1.,0.,0.));
#1640=DIRECTION('',(0.,0.,-1.));
#1641=DIRECTION('',(-1.,0.,0.));
#1642=DIRECTION('',(0.,0.,1.));
#1643=DIRECTION('',(1.,0.,0.));
#1644=DIRECTION('',(0.,0.,1.));
#1645=DIRECTION('',(1.,0.,0.));
#1646=DIRECTION('',(0.,0.,-1.));
#1647=DIRECTION('',(-1.,0.,0.));
#1648=DIRECTION('',(0.,0.,1.));
#1649=DIRECTION('',(1.,0.,0.));
#1650=DIRECTION('',(0.,0.,1.));
#1651=DIRECTION('',(1.,0.,0.));
#1652=DIRECTION('',(0.,0.,-1.));
#1653=DIRECTION('',(-1.,0.,0.));
#1654=DIRECTION('',(0.,0.,1.));
#1655=DIRECTION('',(1.,0.,0.));
#1656=DIRECTION('',(-1.15648231731787E-15,0.,1.));
#1657=DIRECTION('',(1.,0.,1.15648231731787E-15));
#1658=DIRECTION('',(1.94548427212352E-16,0.,-1.));
#1659=DIRECTION('',(-1.,0.,-1.94548427212352E-16));
#1660=DIRECTION('',(-1.15648231731787E-15,0.,1.));
#1661=DIRECTION('',(0.,0.,-1.));
#1662=DIRECTION('',(-1.,0.,0.));
#1663=DIRECTION('',(1.15648231731787E-15,0.,-1.));
#1664=DIRECTION('',(0.,0.,-1.));
#1665=DIRECTION('',(-1.,0.,0.));
#1666=DIRECTION('',(-6.48494757374507E-17,0.,1.));
#1667=DIRECTION('',(1.,0.,6.48494757374507E-17));
#1668=DIRECTION('',(0.,0.,-1.));
#1669=DIRECTION('',(0.,0.,1.));
#1670=DIRECTION('',(1.,0.,0.));
#1671=DIRECTION('',(1.15648231731787E-15,0.,1.));
#1672=DIRECTION('',(0.,1.,0.));
#1673=DIRECTION('',(0.,0.,1.));
#1674=DIRECTION('',(0.,0.,1.));
#1675=DIRECTION('',(1.,0.,0.));
#1676=DIRECTION('',(0.,0.,1.));
#1677=DIRECTION('',(1.,0.,0.));
#1678=DIRECTION('',(1.,0.,0.));
#1679=DIRECTION('',(-1.28498035257541E-16,0.,-1.));
#1680=DIRECTION('',(-1.,0.,0.));
#1681=DIRECTION('',(0.,0.,1.));
#1682=DIRECTION('',(0.,1.,0.));
#1683=DIRECTION('',(0.,0.,1.));
#1684=DIRECTION('',(0.,1.,0.));
#1685=DIRECTION('',(0.,0.,1.));
#1686=DIRECTION('',(0.,1.,0.));
#1687=DIRECTION('',(0.,0.,1.));
#1688=DIRECTION('',(0.,1.,0.));
#1689=DIRECTION('',(0.,0.,1.));
#1690=DIRECTION('',(0.,1.,0.));
#1691=DIRECTION('',(0.,0.,1.));
#1692=DIRECTION('',(1.21734980770302E-16,0.,1.));
#1693=DIRECTION('',(1.,0.,0.));
#1694=DIRECTION('',(-1.21734980770302E-16,0.,1.));
#1695=DIRECTION('',(1.,0.,0.));
#1696=DIRECTION('',(0.,1.,0.));
#1697=DIRECTION('',(0.,0.,1.));
#1698=DIRECTION('',(0.,1.,0.));
#1699=DIRECTION('',(0.,0.,1.));
#1700=DIRECTION('',(1.,0.,0.));
#1701=DIRECTION('',(0.,0.,1.));
#1702=DIRECTION('',(1.,0.,0.));
#1703=DIRECTION('',(0.,0.,1.));
#1704=DIRECTION('',(0.,0.,1.));
#1705=DIRECTION('',(1.,0.,0.));
#1706=DIRECTION('',(1.,0.,0.));
#1707=DIRECTION('',(0.,1.,0.));
#1708=DIRECTION('',(0.,1.,0.));
#1709=DIRECTION('',(-1.,0.,-1.21734980770302E-16));
#1710=DIRECTION('',(-1.21734980770302E-16,0.,1.));
#1711=DIRECTION('',(0.,-1.,0.));
#1712=DIRECTION('',(2.43469961540605E-16,0.,-1.));
#1713=DIRECTION('',(0.,-1.,0.));
#1714=DIRECTION('',(0.,0.,-1.));
#1715=DIRECTION('',(0.,1.,0.));
#1716=DIRECTION('',(0.,0.,-1.));
#1717=DIRECTION('',(0.,0.,1.));
#1718=DIRECTION('',(1.,0.,0.));
#1719=DIRECTION('',(0.,1.,0.));
#1720=DIRECTION('',(-1.,0.,0.));
#1721=DIRECTION('',(-1.,0.,1.21734980770302E-16));
#1722=DIRECTION('',(1.21734980770302E-16,0.,1.));
#1723=DIRECTION('',(1.21734980770302E-16,0.,1.));
#1724=DIRECTION('',(0.,-1.,0.));
#1725=DIRECTION('',(-1.15648231731787E-15,0.,1.));
#1726=DIRECTION('',(0.,0.,1.));
#1727=DIRECTION('',(0.,-1.,0.));
#1728=DIRECTION('',(0.,0.,1.));
#1729=DIRECTION('',(1.,0.,0.));
#1730=DIRECTION('',(0.,-1.,0.));
#1731=DIRECTION('',(-1.,0.,0.));
#1732=DIRECTION('',(0.,1.,0.));
#1733=DIRECTION('',(0.,0.,1.));
#1734=DIRECTION('',(1.,0.,0.));
#1735=DIRECTION('',(0.,1.,0.));
#1736=DIRECTION('',(0.,1.,0.));
#1737=DIRECTION('',(0.,0.,1.));
#1738=DIRECTION('',(1.,0.,0.));
#1739=DIRECTION('',(-1.,0.,0.));
#1740=DIRECTION('',(0.,0.,1.));
#1741=DIRECTION('',(0.,1.,0.));
#1742=DIRECTION('',(0.,0.,1.));
#1743=DIRECTION('',(0.,0.,1.));
#1744=DIRECTION('',(0.,0.,1.));
#1745=DIRECTION('',(1.,0.,0.));
#1746=DIRECTION('',(-1.,0.,0.));
#1747=DIRECTION('',(0.,1.,0.));
#1748=DIRECTION('',(0.,0.,1.));
#1749=DIRECTION('',(1.,0.,0.));
#1750=DIRECTION('',(0.,1.,0.));
#1751=DIRECTION('',(0.,0.,1.));
#1752=DIRECTION('',(1.,0.,0.));
#1753=DIRECTION('',(0.,-1.,0.));
#1754=DIRECTION('',(-1.,0.,0.));
#1755=DIRECTION('',(0.,0.,1.));
#1756=DIRECTION('',(0.,0.,1.));
#1757=DIRECTION('',(0.,0.,1.));
#1758=DIRECTION('',(0.,-1.,0.));
#1759=DIRECTION('',(0.,0.,-1.));
#1760=DIRECTION('',(0.,1.,0.));
#1761=DIRECTION('',(0.,0.,1.));
#1762=DIRECTION('',(0.,-1.,0.));
#1763=DIRECTION('',(0.,0.,-1.));
#1764=DIRECTION('',(0.,-1.,0.));
#1765=DIRECTION('',(0.,0.,-1.));
#1766=DIRECTION('',(0.,-1.,0.));
#1767=DIRECTION('',(0.,0.,-1.));
#1768=DIRECTION('',(0.,1.,0.));
#1769=DIRECTION('',(0.,0.,1.));
#1770=DIRECTION('',(0.,1.,0.));
#1771=DIRECTION('',(0.,0.,1.));
#1772=DIRECTION('',(0.,1.,0.));
#1773=DIRECTION('',(0.,0.,1.));
#1774=DIRECTION('',(0.,1.,0.));
#1775=DIRECTION('',(0.,0.,1.));
#1776=DIRECTION('',(0.,1.,0.));
#1777=DIRECTION('',(0.,0.,1.));
#1778=DIRECTION('',(0.,1.,0.));
#1779=DIRECTION('',(0.,0.,1.));
#1780=DIRECTION('',(0.,-1.,0.));
#1781=DIRECTION('',(0.,0.,-1.));
#1782=DIRECTION('',(0.,1.,0.));
#1783=DIRECTION('',(0.,0.,1.));
#1784=DIRECTION('',(0.,1.,0.));
#1785=DIRECTION('',(0.,0.,1.));
#1786=DIRECTION('',(0.,-1.,0.));
#1787=DIRECTION('',(0.,0.,-1.));
#1788=DIRECTION('',(0.,-1.,0.));
#1789=DIRECTION('',(0.,0.,-1.));
#1790=DIRECTION('',(0.,0.,-1.));
#1791=DIRECTION('',(-1.,0.,0.));
#1792=DIRECTION('',(0.,0.,-1.));
#1793=DIRECTION('',(-1.,0.,0.));
#1794=DIRECTION('',(1.,0.,0.));
#1795=DIRECTION('',(0.,0.,-1.));
#1796=DIRECTION('',(-1.,0.,0.));
#1797=DIRECTION('',(0.,1.,0.));
#1798=DIRECTION('',(0.,0.,-1.));
#1799=DIRECTION('',(-1.,0.,0.));
#1800=DIRECTION('',(-1.,0.,0.));
#1801=DIRECTION('',(0.,0.,-1.));
#1802=DIRECTION('',(-1.,0.,0.));
#1803=DIRECTION('',(0.,1.,0.));
#1804=DIRECTION('',(-1.,0.,-1.15648231731787E-15));
#1805=DIRECTION('',(-1.15648231731787E-15,0.,1.));
#1806=DIRECTION('',(-1.,0.,-1.15648231731787E-15));
#1807=DIRECTION('',(-1.15648231731787E-15,0.,1.));
#1808=DIRECTION('',(-1.,0.,-1.15648231731787E-15));
#1809=DIRECTION('',(-1.15648231731787E-15,0.,1.));
#1810=DIRECTION('',(0.,1.,0.));
#1811=DIRECTION('',(-1.15648231731787E-15,0.,1.));
#1812=DIRECTION('',(1.94548427212352E-16,0.,-1.));
#1813=DIRECTION('',(-1.,0.,-1.94548427212352E-16));
#1814=DIRECTION('',(0.,0.,1.));
#1815=DIRECTION('',(1.,0.,0.));
#1816=DIRECTION('',(0.,0.,1.));
#1817=DIRECTION('',(1.,0.,0.));
#1818=DIRECTION('',(0.,0.,1.));
#1819=DIRECTION('',(1.,0.,0.));
#1820=DIRECTION('',(0.,0.,1.));
#1821=DIRECTION('',(1.,0.,0.));
#1822=DIRECTION('',(1.,0.,0.));
#1823=DIRECTION('',(1.94548427212352E-16,0.,-1.));
#1824=DIRECTION('',(-1.,0.,-1.94548427212352E-16));
#1825=DIRECTION('',(1.,0.,1.94548427212352E-16));
#1826=DIRECTION('',(0.,1.,0.));
#1827=DIRECTION('',(1.94548427212352E-16,0.,-1.));
#1828=DIRECTION('',(-1.,0.,-1.94548427212352E-16));
#1829=DIRECTION('',(-1.,0.,1.15648231731788E-15));
#1830=DIRECTION('',(1.15648231731788E-15,0.,1.));
#1831=DIRECTION('',(-1.,0.,1.15648231731788E-15));
#1832=DIRECTION('',(1.15648231731788E-15,0.,1.));
#1833=DIRECTION('',(-1.,0.,1.15648231731788E-15));
#1834=DIRECTION('',(1.15648231731788E-15,0.,1.));
#1835=DIRECTION('',(1.15648231731788E-15,0.,1.));
#1836=DIRECTION('',(0.,0.,1.));
#1837=DIRECTION('',(1.,0.,0.));
#1838=DIRECTION('',(0.,0.,1.));
#1839=DIRECTION('',(1.,0.,0.));
#1840=DIRECTION('',(-1.,0.,0.));
#1841=DIRECTION('',(0.,0.,1.));
#1842=DIRECTION('',(1.,0.,0.));
#1843=DIRECTION('',(0.,1.,0.));
#1844=DIRECTION('',(0.,0.,1.));
#1845=DIRECTION('',(1.,0.,0.));
#1846=DIRECTION('',(1.,0.,0.));
#1847=DIRECTION('',(0.,0.,1.));
#1848=DIRECTION('',(1.,0.,0.));
#1849=DIRECTION('',(0.,1.,0.));
#1850=DIRECTION('',(1.,0.,-1.15648231731787E-15));
#1851=DIRECTION('',(-1.15648231731787E-15,0.,-1.));
#1852=DIRECTION('',(1.,0.,-1.15648231731787E-15));
#1853=DIRECTION('',(-1.15648231731787E-15,0.,-1.));
#1854=DIRECTION('',(1.,0.,-1.15648231731787E-15));
#1855=DIRECTION('',(-1.15648231731787E-15,0.,-1.));
#1856=DIRECTION('',(0.,1.,0.));
#1857=DIRECTION('',(-1.15648231731787E-15,0.,-1.));
#1858=DIRECTION('',(-6.48494757374507E-17,0.,1.));
#1859=DIRECTION('',(1.,0.,6.48494757374507E-17));
#1860=DIRECTION('',(0.,0.,1.));
#1861=DIRECTION('',(1.,0.,0.));
#1862=DIRECTION('',(0.,0.,1.));
#1863=DIRECTION('',(1.,0.,0.));
#1864=DIRECTION('',(0.,0.,1.));
#1865=DIRECTION('',(1.,0.,0.));
#1866=DIRECTION('',(0.,0.,1.));
#1867=DIRECTION('',(1.,0.,0.));
#1868=DIRECTION('',(1.,0.,0.));
#1869=DIRECTION('',(-6.48494757374507E-17,0.,1.));
#1870=DIRECTION('',(1.,0.,6.48494757374507E-17));
#1871=DIRECTION('',(-1.,0.,-6.48494757374507E-17));
#1872=DIRECTION('',(0.,1.,0.));
#1873=DIRECTION('',(-6.48494757374507E-17,0.,1.));
#1874=DIRECTION('',(1.,0.,6.48494757374507E-17));
#1875=DIRECTION('',(1.,0.,0.));
#1876=DIRECTION('',(0.,0.,-1.));
#1877=DIRECTION('',(1.,0.,0.));
#1878=DIRECTION('',(0.,0.,-1.));
#1879=DIRECTION('',(1.,0.,0.));
#1880=DIRECTION('',(0.,0.,-1.));
#1881=DIRECTION('',(0.,0.,-1.));
#1882=DIRECTION('',(1.,0.,0.));
#1883=DIRECTION('',(0.,0.,-1.));
#1884=DIRECTION('',(-1.,0.,0.));
#1885=DIRECTION('',(0.,0.,1.));
#1886=DIRECTION('',(1.15648231731787E-15,0.,1.));
#1887=DIRECTION('',(1.,0.,-1.15648231731787E-15));
#1888=DIRECTION('',(1.15648231731788E-15,0.,1.));
#1889=DIRECTION('',(1.,0.,-1.15648231731788E-15));
#1890=DIRECTION('',(1.15648231731787E-15,0.,-1.));
#1891=DIRECTION('',(-1.,0.,-1.15648231731787E-15));
#1892=DIRECTION('',(0.,0.,-1.));
#1893=DIRECTION('',(-1.,0.,0.));
#1894=DIRECTION('',(-1.,0.,-6.48494757374507E-17));
#1895=DIRECTION('',(-6.48494757374507E-17,0.,1.));
#1896=DIRECTION('',(-1.,0.,-6.48494757374507E-17));
#1897=DIRECTION('',(1.,0.,1.94548427212352E-16));
#1898=DIRECTION('',(1.94548427212352E-16,0.,-1.));
#1899=DIRECTION('',(1.,0.,1.94548427212352E-16));
#1900=DIRECTION('',(-1.,0.,-6.48494757374507E-17));
#1901=DIRECTION('',(-6.48494757374507E-17,0.,1.));
#1902=DIRECTION('',(1.,0.,1.94548427212352E-16));
#1903=DIRECTION('',(1.94548427212352E-16,0.,-1.));
#1904=DIRECTION('',(-7.46117624076046E-17,0.,1.));
#1905=DIRECTION('',(1.,0.,7.46117624076046E-17));
#1906=DIRECTION('',(-1.,0.,-7.46117624076046E-17));
#1907=DIRECTION('',(-1.,0.,-7.46117624076046E-17));
#1908=DIRECTION('',(-1.,0.,-7.46117624076046E-17));
#1909=DIRECTION('',(0.,1.,0.));
#1910=DIRECTION('',(0.,0.,1.));
#1911=DIRECTION('',(7.46117624076046E-17,0.,-1.));
#1912=DIRECTION('',(-1.,0.,-7.46117624076046E-17));
#1913=DIRECTION('',(1.,0.,7.46117624076046E-17));
#1914=DIRECTION('',(1.,0.,7.46117624076046E-17));
#1915=DIRECTION('',(1.,0.,7.46117624076046E-17));
#1916=DIRECTION('',(0.,1.,0.));
#1917=DIRECTION('',(0.,0.,1.));
#1918=DIRECTION('',(0.,0.,1.));
#1919=DIRECTION('',(1.,0.,0.));
#1920=DIRECTION('',(0.,0.,1.));
#1921=DIRECTION('',(1.,0.,0.));
#1922=DIRECTION('',(0.,0.,1.));
#1923=DIRECTION('',(1.,0.,0.));
#1924=DIRECTION('',(0.,0.,1.));
#1925=DIRECTION('',(1.,0.,0.));
#1926=DIRECTION('',(0.,0.,1.));
#1927=DIRECTION('',(1.,0.,0.));
#1928=DIRECTION('',(0.,0.,1.));
#1929=DIRECTION('',(1.,0.,0.));
#1930=DIRECTION('',(0.,0.,1.));
#1931=DIRECTION('',(1.,0.,0.));
#1932=DIRECTION('',(0.,0.,1.));
#1933=DIRECTION('',(1.,0.,0.));
#1934=DIRECTION('',(0.,0.,1.));
#1935=DIRECTION('',(1.,0.,0.));
#1936=DIRECTION('',(0.,0.,1.));
#1937=DIRECTION('',(1.,0.,0.));
#1938=DIRECTION('',(0.,0.,1.));
#1939=DIRECTION('',(1.,0.,0.));
#1940=DIRECTION('',(0.,0.,1.));
#1941=DIRECTION('',(1.,0.,0.));
#1942=DIRECTION('',(0.,0.,-1.));
#1943=DIRECTION('',(1.,0.,0.));
#1944=DIRECTION('',(0.,0.,1.));
#1945=DIRECTION('',(1.,0.,0.));
#1946=DIRECTION('',(0.,0.,-1.));
#1947=DIRECTION('',(-1.,0.,0.));
#1948=DIRECTION('',(0.,0.,-1.));
#1949=DIRECTION('',(1.,0.,0.));
#1950=DIRECTION('',(0.,0.,1.));
#1951=DIRECTION('',(1.,0.,0.));
#1952=DIRECTION('',(0.,0.,-1.));
#1953=DIRECTION('',(-1.,0.,0.));
#1954=DIRECTION('',(0.,0.,-1.));
#1955=DIRECTION('',(1.,0.,0.));
#1956=DIRECTION('',(0.,0.,1.));
#1957=DIRECTION('',(1.,0.,0.));
#1958=DIRECTION('',(0.,0.,-1.));
#1959=DIRECTION('',(-1.,0.,0.));
#1960=DIRECTION('',(0.,0.,-1.));
#1961=DIRECTION('',(1.,0.,0.));
#1962=DIRECTION('',(0.,0.,1.));
#1963=DIRECTION('',(1.,0.,0.));
#1964=DIRECTION('',(0.,0.,-1.));
#1965=DIRECTION('',(-1.,0.,0.));
#1966=DIRECTION('',(0.,1.,0.));
#1967=DIRECTION('',(0.,0.,1.));
#1968=DIRECTION('',(0.,0.,1.));
#1969=DIRECTION('',(0.,0.,-1.));
#1970=DIRECTION('',(-1.,0.,0.));
#1971=DIRECTION('',(0.,-1.,0.));
#1972=DIRECTION('',(0.,-1.,0.));
#1973=DIRECTION('',(-1.,0.,1.28498035257541E-16));
#1974=DIRECTION('',(1.28498035257541E-16,0.,1.));
#1975=DIRECTION('',(0.,-1.,0.));
#1976=DIRECTION('',(-1.28498035257541E-16,0.,-1.));
#1977=DIRECTION('',(0.,0.,1.));
#1978=DIRECTION('',(1.,0.,0.));
#1979=DIRECTION('',(0.,-1.,0.));
#1980=DIRECTION('',(1.,0.,0.));
#1981=DIRECTION('',(0.,0.,-1.));
#1982=DIRECTION('',(0.,1.,0.));
#1983=DIRECTION('',(0.,0.,1.));
#1984=DIRECTION('',(0.,1.,0.));
#1985=DIRECTION('',(0.,0.,1.));
#1986=DIRECTION('',(0.,0.,1.));
#1987=DIRECTION('',(0.,0.,1.));
#1988=DIRECTION('',(0.,1.,0.));
#1989=DIRECTION('',(0.,0.,1.));
#1990=DIRECTION('',(1.15648231731787E-15,0.,-1.));
#1991=DIRECTION('',(1.15648231731787E-15,0.,-1.));
#1992=DIRECTION('',(-1.15648231731787E-15,0.,1.));
#1993=DIRECTION('',(1.,0.,1.15648231731787E-15));
#1994=DIRECTION('',(-1.15648231731787E-15,0.,1.));
#1995=DIRECTION('',(1.,0.,1.15648231731787E-15));
#1996=DIRECTION('',(0.,0.,-1.));
#1997=DIRECTION('',(-1.,0.,0.));
#1998=DIRECTION('',(0.,0.,-1.));
#1999=DIRECTION('',(-1.,0.,0.));
#2000=CARTESIAN_POINT('',(0.,0.,0.));
#2001=CARTESIAN_POINT('',(-1.73472347597681E-15,-29.4,17.75));
#2002=CARTESIAN_POINT('',(1.73472347597681E-15,-29.4,14.75));
#2003=CARTESIAN_POINT('',(-18.3204938761969,-44.5136363636364,14.75));
#2004=CARTESIAN_POINT('',(-23.75,-29.4,14.75));
#2005=CARTESIAN_POINT('',(-18.3204938761969,-44.5136363636364,17.75));
#2006=CARTESIAN_POINT('',(-18.3204938761969,-44.5136363636364,17.75));
#2007=CARTESIAN_POINT('',(-1.7347234759768E-15,-29.4,17.75));
#2008=CARTESIAN_POINT('',(-23.75,-29.4,17.75));
#2009=CARTESIAN_POINT('',(-23.75,-29.4,2.74664550362996E-14));
#2010=CARTESIAN_POINT('',(0.,-29.4,-14.75));
#2011=CARTESIAN_POINT('',(0.,-29.4,-14.75));
#2012=CARTESIAN_POINT('',(18.3204938761969,-44.5136363636364,-14.75));
#2013=CARTESIAN_POINT('',(23.75,-29.4,-14.75));
#2014=CARTESIAN_POINT('',(18.3204938761969,-44.5136363636364,-14.75));
#2015=CARTESIAN_POINT('',(18.3204938761969,-44.5136363636364,-17.75));
#2016=CARTESIAN_POINT('',(0.,-29.4,-17.75));
#2017=CARTESIAN_POINT('',(23.75,-29.4,-17.75));
#2018=CARTESIAN_POINT('',(23.75,-29.4,0.));
#2019=CARTESIAN_POINT('',(0.,-11.05,0.));
#2020=CARTESIAN_POINT('',(-22.5,-11.05,-13.5));
#2021=CARTESIAN_POINT('',(-22.5,-11.05,-11.25));
#2022=CARTESIAN_POINT('',(-22.5,-11.05,-13.5));
#2023=CARTESIAN_POINT('',(-22.5,-11.05,-13.5));
#2024=CARTESIAN_POINT('',(22.5,-11.05,-13.5));
#2025=CARTESIAN_POINT('',(22.5,-11.05,-13.5));
#2026=CARTESIAN_POINT('',(22.5,-11.05,-11.25));
#2027=CARTESIAN_POINT('',(-23.25,-11.05,-11.25));
#2028=CARTESIAN_POINT('',(0.,-11.05,0.));
#2029=CARTESIAN_POINT('',(-22.5,-11.05,-13.5));
#2030=CARTESIAN_POINT('',(-22.5,-11.05,13.5));
#2031=CARTESIAN_POINT('',(-22.5,-11.05,11.25));
#2032=CARTESIAN_POINT('',(-23.25,-11.05,11.25));
#2033=CARTESIAN_POINT('',(22.5,-11.05,11.25));
#2034=CARTESIAN_POINT('',(22.5,-11.05,0.));
#2035=CARTESIAN_POINT('',(22.5,-11.05,13.5));
#2036=CARTESIAN_POINT('',(22.5,-11.05,13.5));
#2037=CARTESIAN_POINT('',(-16.,-30.15,-17.75));
#2038=CARTESIAN_POINT('',(-16.,-30.15,-14.75));
#2039=CARTESIAN_POINT('',(-14.725,-30.15,-14.75));
#2040=CARTESIAN_POINT('',(-16.,-30.15,-16.25));
#2041=CARTESIAN_POINT('',(-17.275,-30.15,-16.25));
#2042=CARTESIAN_POINT('',(8.,-42.15,-17.75));
#2043=CARTESIAN_POINT('',(8.,-42.15,-14.75));
#2044=CARTESIAN_POINT('',(9.275,-42.15,-14.75));
#2045=CARTESIAN_POINT('',(8.,-42.15,-16.25));
#2046=CARTESIAN_POINT('',(6.725,-42.15,-16.25));
#2047=CARTESIAN_POINT('',(8.,-30.15,-17.75));
#2048=CARTESIAN_POINT('',(8.,-30.15,-14.75));
#2049=CARTESIAN_POINT('',(9.275,-30.15,-14.75));
#2050=CARTESIAN_POINT('',(8.,-30.15,-16.25));
#2051=CARTESIAN_POINT('',(6.725,-30.15,-16.25));
#2052=CARTESIAN_POINT('',(-16.,-42.15,-17.75));
#2053=CARTESIAN_POINT('',(-16.,-42.15,-14.75));
#2054=CARTESIAN_POINT('',(-14.725,-42.15,-14.75));
#2055=CARTESIAN_POINT('',(-16.,-42.15,-16.25));
#2056=CARTESIAN_POINT('',(-17.275,-42.15,-16.25));
#2057=CARTESIAN_POINT('',(-16.,-30.15,-17.75));
#2058=CARTESIAN_POINT('',(-16.,-30.15,14.75));
#2059=CARTESIAN_POINT('',(-17.275,-30.15,14.75));
#2060=CARTESIAN_POINT('',(-16.,-30.15,16.25));
#2061=CARTESIAN_POINT('',(-14.725,-30.15,16.25));
#2062=CARTESIAN_POINT('',(8.,-42.15,-17.75));
#2063=CARTESIAN_POINT('',(8.,-42.15,14.75));
#2064=CARTESIAN_POINT('',(6.725,-42.15,14.75));
#2065=CARTESIAN_POINT('',(8.,-42.15,16.25));
#2066=CARTESIAN_POINT('',(9.275,-42.15,16.25));
#2067=CARTESIAN_POINT('',(8.,-30.15,-17.75));
#2068=CARTESIAN_POINT('',(8.,-30.15,14.75));
#2069=CARTESIAN_POINT('',(6.725,-30.15,14.75));
#2070=CARTESIAN_POINT('',(8.,-30.15,16.25));
#2071=CARTESIAN_POINT('',(9.275,-30.15,16.25));
#2072=CARTESIAN_POINT('',(-16.,-42.15,-17.75));
#2073=CARTESIAN_POINT('',(-16.,-42.15,14.75));
#2074=CARTESIAN_POINT('',(-17.275,-42.15,14.75));
#2075=CARTESIAN_POINT('',(-16.,-42.15,16.25));
#2076=CARTESIAN_POINT('',(-14.725,-42.15,16.25));
#2077=CARTESIAN_POINT('',(-1.73472347597681E-15,-29.4,17.75));
#2078=CARTESIAN_POINT('',(-1.7347234759768E-15,-29.4,17.75));
#2079=CARTESIAN_POINT('',(18.3204938761969,-44.5136363636364,17.75));
#2080=CARTESIAN_POINT('',(23.75,-29.4,17.75));
#2081=CARTESIAN_POINT('',(18.3204938761969,-44.5136363636364,17.75));
#2082=CARTESIAN_POINT('',(18.3204938761969,-44.5136363636364,14.75));
#2083=CARTESIAN_POINT('',(1.73472347597681E-15,-29.4,14.75));
#2084=CARTESIAN_POINT('',(23.75,-29.4,14.75));
#2085=CARTESIAN_POINT('',(23.75,-29.4,17.75));
#2086=CARTESIAN_POINT('',(0.,-29.4,-14.75));
#2087=CARTESIAN_POINT('',(0.,-29.4,-17.75));
#2088=CARTESIAN_POINT('',(-18.3204938761969,-44.5136363636364,-17.75));
#2089=CARTESIAN_POINT('',(-23.75,-29.4,-17.75));
#2090=CARTESIAN_POINT('',(-18.3204938761969,-44.5136363636364,-14.75));
#2091=CARTESIAN_POINT('',(-18.3204938761969,-44.5136363636364,-14.75));
#2092=CARTESIAN_POINT('',(0.,-29.4,-14.75));
#2093=CARTESIAN_POINT('',(-23.75,-29.4,-14.75));
#2094=CARTESIAN_POINT('',(-23.75,-29.4,-14.75));
#2095=CARTESIAN_POINT('',(0.,-19.15,0.));
#2096=CARTESIAN_POINT('',(-24.75,-19.15,0.));
#2097=CARTESIAN_POINT('',(-24.75,-19.15,-14.25));
#2098=CARTESIAN_POINT('',(-24.75,-19.15,14.25));
#2099=CARTESIAN_POINT('',(0.,-19.15,-14.25));
#2100=CARTESIAN_POINT('',(24.75,-19.15,-14.25));
#2101=CARTESIAN_POINT('',(24.75,-19.15,0.));
#2102=CARTESIAN_POINT('',(24.75,-19.15,14.25));
#2103=CARTESIAN_POINT('',(0.,-19.15,14.25));
#2104=CARTESIAN_POINT('',(-22.5,-19.15,-13.5));
#2105=CARTESIAN_POINT('',(-22.5,-19.15,-13.5));
#2106=CARTESIAN_POINT('',(22.5,-19.15,-13.5));
#2107=CARTESIAN_POINT('',(-22.5,-19.15,-13.5));
#2108=CARTESIAN_POINT('',(-22.5,-19.15,13.5));
#2109=CARTESIAN_POINT('',(22.5,-19.15,13.5));
#2110=CARTESIAN_POINT('',(22.5,-19.15,13.5));
#2111=CARTESIAN_POINT('',(22.5,-19.15,-13.5));
#2112=CARTESIAN_POINT('',(12.,-5.,3.85185988877447E-31));
#2113=CARTESIAN_POINT('',(12.,-5.,3.85185988877447E-31));
#2114=CARTESIAN_POINT('',(12.,-5.,9.475));
#2115=CARTESIAN_POINT('',(12.,0.,3.85185988877447E-31));
#2116=CARTESIAN_POINT('',(12.,0.,9.475));
#2117=CARTESIAN_POINT('',(0.,-5.,0.));
#2118=CARTESIAN_POINT('',(-3.,-5.,0.));
#2119=CARTESIAN_POINT('',(-3.,-5.,1.475));
#2120=CARTESIAN_POINT('',(23.25,-5.,-2.83033830290953E-15));
#2121=CARTESIAN_POINT('',(23.25,-5.,-14.25));
#2122=CARTESIAN_POINT('',(23.25,-5.,14.25));
#2123=CARTESIAN_POINT('',(0.,-5.,14.25));
#2124=CARTESIAN_POINT('',(-23.25,-5.,14.25));
#2125=CARTESIAN_POINT('',(-23.25,-5.,-2.83033830290953E-15));
#2126=CARTESIAN_POINT('',(-23.25,-5.,-14.25));
#2127=CARTESIAN_POINT('',(0.,-5.,-14.25));
#2128=CARTESIAN_POINT('',(0.,0.,0.));
#2129=CARTESIAN_POINT('',(12.,0.,3.85185988877447E-31));
#2130=CARTESIAN_POINT('',(12.,0.,11.975));
#2131=CARTESIAN_POINT('',(0.,0.,-15.75));
#2132=CARTESIAN_POINT('',(-24.75,0.,-15.75));
#2133=CARTESIAN_POINT('',(24.75,0.,-15.75));
#2134=CARTESIAN_POINT('',(-24.75,0.,0.));
#2135=CARTESIAN_POINT('',(-24.75,0.,15.75));
#2136=CARTESIAN_POINT('',(0.,0.,15.75));
#2137=CARTESIAN_POINT('',(24.75,0.,15.75));
#2138=CARTESIAN_POINT('',(24.75,0.,0.));
#2139=CARTESIAN_POINT('',(0.,-19.15,-14.25));
#2140=CARTESIAN_POINT('',(-23.25,-9.05,-14.25));
#2141=CARTESIAN_POINT('',(-23.25,-9.05,-14.25));
#2142=CARTESIAN_POINT('',(23.25,-9.05,-14.25));
#2143=CARTESIAN_POINT('',(23.25,-19.15,-14.25));
#2144=CARTESIAN_POINT('',(-23.25,-19.15,-14.25));
#2145=CARTESIAN_POINT('',(-23.25,-19.15,-2.83033830290953E-15));
#2146=CARTESIAN_POINT('',(-23.25,-9.05,11.25));
#2147=CARTESIAN_POINT('',(-23.25,-9.05,11.25));
#2148=CARTESIAN_POINT('',(-23.25,-11.05,11.25));
#2149=CARTESIAN_POINT('',(-23.25,-11.05,-14.25));
#2150=CARTESIAN_POINT('',(-23.25,-11.05,-11.25));
#2151=CARTESIAN_POINT('',(-23.25,-9.05,-11.25));
#2152=CARTESIAN_POINT('',(-23.25,-9.05,-11.25));
#2153=CARTESIAN_POINT('',(-23.25,-9.05,-14.25));
#2154=CARTESIAN_POINT('',(-23.25,-19.15,14.25));
#2155=CARTESIAN_POINT('',(-23.25,-9.05,14.25));
#2156=CARTESIAN_POINT('',(-23.25,-9.05,11.25));
#2157=CARTESIAN_POINT('',(0.,-19.15,14.25));
#2158=CARTESIAN_POINT('',(23.25,-19.15,14.25));
#2159=CARTESIAN_POINT('',(23.25,-9.05,14.25));
#2160=CARTESIAN_POINT('',(-23.25,-9.05,14.25));
#2161=CARTESIAN_POINT('',(23.25,-19.15,-2.83033830290953E-15));
#2162=CARTESIAN_POINT('',(23.25,-11.05,-14.25));
#2163=CARTESIAN_POINT('',(23.25,-11.05,-11.25));
#2164=CARTESIAN_POINT('',(23.25,-11.05,11.25));
#2165=CARTESIAN_POINT('',(23.25,-9.05,11.25));
#2166=CARTESIAN_POINT('',(23.25,-9.05,11.25));
#2167=CARTESIAN_POINT('',(23.25,-9.05,11.25));
#2168=CARTESIAN_POINT('',(23.25,-9.05,-14.25));
#2169=CARTESIAN_POINT('',(23.25,-9.05,-11.25));
#2170=CARTESIAN_POINT('',(23.25,-9.05,-11.25));
#2171=CARTESIAN_POINT('',(0.,-19.15,-15.75));
#2172=CARTESIAN_POINT('',(23.75,-53.15,-15.75));
#2173=CARTESIAN_POINT('',(23.75,-16.3215728752538,-15.75));
#2174=CARTESIAN_POINT('',(23.75,-20.15,-15.75));
#2175=CARTESIAN_POINT('',(0.,-16.3215728752538,-15.75));
#2176=CARTESIAN_POINT('',(-23.75,-16.3215728752538,-15.75));
#2177=CARTESIAN_POINT('',(-23.75,-19.15,-15.75));
#2178=CARTESIAN_POINT('',(-23.75,-20.15,-15.75));
#2179=CARTESIAN_POINT('',(-24.75,-20.15,-15.75));
#2180=CARTESIAN_POINT('',(-24.75,-19.15,-15.75));
#2181=CARTESIAN_POINT('',(-24.75,-19.15,-15.75));
#2182=CARTESIAN_POINT('',(24.75,-19.15,-15.75));
#2183=CARTESIAN_POINT('',(24.75,-19.15,-15.75));
#2184=CARTESIAN_POINT('',(24.75,-20.15,-15.75));
#2185=CARTESIAN_POINT('',(24.75,-19.15,0.));
#2186=CARTESIAN_POINT('',(24.75,-19.15,15.75));
#2187=CARTESIAN_POINT('',(24.75,-19.15,15.75));
#2188=CARTESIAN_POINT('',(24.75,-19.15,0.));
#2189=CARTESIAN_POINT('',(24.75,-19.15,0.));
#2190=CARTESIAN_POINT('',(0.,-19.15,15.75));
#2191=CARTESIAN_POINT('',(23.75,-16.3215728752538,15.75));
#2192=CARTESIAN_POINT('',(-23.75,-16.3215728752538,15.75));
#2193=CARTESIAN_POINT('',(23.75,-16.3215728752538,15.75));
#2194=CARTESIAN_POINT('',(23.75,-53.15,15.75));
#2195=CARTESIAN_POINT('',(23.75,-20.15,15.75));
#2196=CARTESIAN_POINT('',(24.75,-20.15,15.75));
#2197=CARTESIAN_POINT('',(-24.75,-19.15,15.75));
#2198=CARTESIAN_POINT('',(-24.75,-19.15,15.75));
#2199=CARTESIAN_POINT('',(-24.75,-20.15,15.75));
#2200=CARTESIAN_POINT('',(-23.75,-20.15,15.75));
#2201=CARTESIAN_POINT('',(-23.75,-19.15,15.75));
#2202=CARTESIAN_POINT('',(-24.75,-19.15,0.));
#2203=CARTESIAN_POINT('',(-24.75,-19.15,0.));
#2204=CARTESIAN_POINT('',(-24.75,-19.15,0.));
#2205=CARTESIAN_POINT('',(-3.,-2.7,0.));
#2206=CARTESIAN_POINT('',(-3.,-4.8,0.));
#2207=CARTESIAN_POINT('',(-3.,-4.8,1.275));
#2208=CARTESIAN_POINT('',(-3.,-2.7,0.));
#2209=CARTESIAN_POINT('',(-3.,-2.7,-1.275));
#2210=CARTESIAN_POINT('',(-3.,-2.7,0.));
#2211=CARTESIAN_POINT('',(-3.,-4.8,0.));
#2212=CARTESIAN_POINT('',(12.,0.,3.85185988877447E-31));
#2213=CARTESIAN_POINT('',(12.,0.,3.85185988877447E-31));
#2214=CARTESIAN_POINT('',(12.,0.,7.58770166537926));
#2215=CARTESIAN_POINT('',(12.,0.5,3.85185988877447E-31));
#2216=CARTESIAN_POINT('',(12.,0.5,3.85185988877447E-31));
#2217=CARTESIAN_POINT('',(12.,0.5,11.1089745962156));
#2218=CARTESIAN_POINT('',(12.,0.5,3.85185988877447E-31));
#2219=CARTESIAN_POINT('',(12.,0.5,7.975));
#2220=CARTESIAN_POINT('',(12.,0.,3.85185988877447E-31));
#2221=CARTESIAN_POINT('',(12.,0.125,3.85185988877447E-31));
#2222=CARTESIAN_POINT('',(12.,0.125,-7.49087708172407));
#2223=CARTESIAN_POINT('',(12.,0.5,3.85185988877447E-31));
#2224=CARTESIAN_POINT('',(12.,0.250000000000019,3.85185988877447E-31));
#2225=CARTESIAN_POINT('',(12.,0.250000000000019,11.5419872981078));
#2226=CARTESIAN_POINT('',(12.,0.,3.85185988877447E-31));
#2227=CARTESIAN_POINT('',(12.,0.1,3.85185988877447E-31));
#2228=CARTESIAN_POINT('',(0.,-53.15,14.75));
#2229=CARTESIAN_POINT('',(10.6066017177982,-38.15,14.75));
#2230=CARTESIAN_POINT('',(10.6066017177982,-48.15,14.75));
#2231=CARTESIAN_POINT('',(0.,-48.15,14.75));
#2232=CARTESIAN_POINT('',(-10.6066017177982,-48.15,14.75));
#2233=CARTESIAN_POINT('',(-10.6066017177982,-38.15,14.75));
#2234=CARTESIAN_POINT('',(-23.75,-53.15,14.75));
#2235=CARTESIAN_POINT('',(-23.75,-20.15,14.75));
#2236=CARTESIAN_POINT('',(-24.75,-20.15,14.75));
#2237=CARTESIAN_POINT('',(-23.8839745962156,-19.65,14.75));
#2238=CARTESIAN_POINT('',(0.,-19.65,14.75));
#2239=CARTESIAN_POINT('',(23.8839745962156,-19.65,14.75));
#2240=CARTESIAN_POINT('',(24.75,-20.15,14.75));
#2241=CARTESIAN_POINT('',(23.75,-20.15,14.75));
#2242=CARTESIAN_POINT('',(23.75,-53.15,14.75));
#2243=CARTESIAN_POINT('',(23.75,-53.15,2.74664550362995E-14));
#2244=CARTESIAN_POINT('',(23.75,-16.3215728752538,18.75));
#2245=CARTESIAN_POINT('',(23.75,-18.5576408527536,16.75));
#2246=CARTESIAN_POINT('',(23.75,-20.7937088302534,14.75));
#2247=CARTESIAN_POINT('',(23.75,-20.7937088302534,17.75));
#2248=CARTESIAN_POINT('',(23.75,-53.15,17.75));
#2249=CARTESIAN_POINT('',(23.75,-20.15,15.75));
#2250=CARTESIAN_POINT('',(-3.45323458301925E-15,-53.15,17.75));
#2251=CARTESIAN_POINT('',(8.,-30.15,17.75));
#2252=CARTESIAN_POINT('',(10.5,-30.15,17.75));
#2253=CARTESIAN_POINT('',(8.,-42.15,17.75));
#2254=CARTESIAN_POINT('',(10.5,-42.15,17.75));
#2255=CARTESIAN_POINT('',(-16.,-42.15,17.75));
#2256=CARTESIAN_POINT('',(-13.5,-42.15,17.75));
#2257=CARTESIAN_POINT('',(-16.,-30.15,17.75));
#2258=CARTESIAN_POINT('',(-13.5,-30.15,17.75));
#2259=CARTESIAN_POINT('',(-14.5773797371132,-48.15,17.75));
#2260=CARTESIAN_POINT('',(-10.6066017177982,-48.15,17.75));
#2261=CARTESIAN_POINT('',(10.6066017177982,-48.15,17.75));
#2262=CARTESIAN_POINT('',(10.6066017177982,-38.15,17.75));
#2263=CARTESIAN_POINT('',(-3.45323458301925E-15,-20.7937088302534,17.75));
#2264=CARTESIAN_POINT('',(-23.75,-20.7937088302534,17.75));
#2265=CARTESIAN_POINT('',(-23.75,-53.15,17.75));
#2266=CARTESIAN_POINT('',(-10.6066017177982,-38.15,17.75));
#2267=CARTESIAN_POINT('',(-23.75,-53.15,2.74664550362996E-14));
#2268=CARTESIAN_POINT('',(-23.75,-20.7937088302534,14.75));
#2269=CARTESIAN_POINT('',(-23.75,-18.5576408527536,16.75));
#2270=CARTESIAN_POINT('',(-23.75,-16.3215728752538,18.75));
#2271=CARTESIAN_POINT('',(-23.75,-20.15,2.74664550362996E-14));
#2272=CARTESIAN_POINT('',(0.,-53.15,-14.75));
#2273=CARTESIAN_POINT('',(-10.6066017177982,-38.15,-14.75));
#2274=CARTESIAN_POINT('',(-10.6066017177982,-48.15,-14.75));
#2275=CARTESIAN_POINT('',(0.,-48.15,-14.75));
#2276=CARTESIAN_POINT('',(10.6066017177982,-48.15,-14.75));
#2277=CARTESIAN_POINT('',(10.6066017177982,-38.15,-14.75));
#2278=CARTESIAN_POINT('',(23.75,-53.15,-14.75));
#2279=CARTESIAN_POINT('',(23.75,-20.15,-14.75));
#2280=CARTESIAN_POINT('',(24.75,-20.15,-14.75));
#2281=CARTESIAN_POINT('',(23.8839745962156,-19.65,-14.75));
#2282=CARTESIAN_POINT('',(0.,-19.65,-14.75));
#2283=CARTESIAN_POINT('',(-23.8839745962156,-19.65,-14.75));
#2284=CARTESIAN_POINT('',(-24.75,-20.15,-14.75));
#2285=CARTESIAN_POINT('',(-23.75,-20.15,-14.75));
#2286=CARTESIAN_POINT('',(-23.75,-53.15,-14.75));
#2287=CARTESIAN_POINT('',(-23.75,-53.15,2.74664550362994E-14));
#2288=CARTESIAN_POINT('',(-23.75,-16.3215728752538,-18.75));
#2289=CARTESIAN_POINT('',(-23.75,-18.5576408527536,-16.75));
#2290=CARTESIAN_POINT('',(-23.75,-20.7937088302534,-14.75));
#2291=CARTESIAN_POINT('',(-23.75,-20.7937088302534,-17.75));
#2292=CARTESIAN_POINT('',(-23.75,-53.15,-17.75));
#2293=CARTESIAN_POINT('',(-23.75,-20.15,-15.75));
#2294=CARTESIAN_POINT('',(1.15107819433975E-15,-53.15,-17.75));
#2295=CARTESIAN_POINT('',(8.,-30.15,-17.75));
#2296=CARTESIAN_POINT('',(10.5,-30.15,-17.75));
#2297=CARTESIAN_POINT('',(8.,-42.15,-17.75));
#2298=CARTESIAN_POINT('',(10.5,-42.15,-17.75));
#2299=CARTESIAN_POINT('',(-16.,-42.15,-17.75));
#2300=CARTESIAN_POINT('',(-13.5,-42.15,-17.75));
#2301=CARTESIAN_POINT('',(-16.,-30.15,-17.75));
#2302=CARTESIAN_POINT('',(-13.5,-30.15,-17.75));
#2303=CARTESIAN_POINT('',(-14.5773797371132,-48.15,-17.75));
#2304=CARTESIAN_POINT('',(-10.6066017177982,-48.15,-17.75));
#2305=CARTESIAN_POINT('',(10.6066017177982,-48.15,-17.75));
#2306=CARTESIAN_POINT('',(-10.6066017177982,-38.15,-17.75));
#2307=CARTESIAN_POINT('',(1.15107819433975E-15,-20.7937088302534,-17.75));
#2308=CARTESIAN_POINT('',(23.75,-20.7937088302534,-17.75));
#2309=CARTESIAN_POINT('',(23.75,-53.15,-17.75));
#2310=CARTESIAN_POINT('',(10.6066017177982,-38.15,-17.75));
#2311=CARTESIAN_POINT('',(23.75,-53.15,0.));
#2312=CARTESIAN_POINT('',(23.75,-20.7937088302534,-14.75));
#2313=CARTESIAN_POINT('',(23.75,-18.5576408527536,-16.75));
#2314=CARTESIAN_POINT('',(23.75,-16.3215728752538,-18.75));
#2315=CARTESIAN_POINT('',(23.75,-20.15,0.));
#2316=CARTESIAN_POINT('',(0.,-19.65,-14.25));
#2317=CARTESIAN_POINT('',(-23.8839745962156,-19.65,-14.75));
#2318=CARTESIAN_POINT('',(-23.9836726648139,-19.4773178797713,-14.75));
#2319=CARTESIAN_POINT('',(-24.2688692548118,-19.2231168875902,-14.5898093687666));
#2320=CARTESIAN_POINT('',(-24.5906899750545,-19.15,-14.362648823735));
#2321=CARTESIAN_POINT('',(-24.75,-19.15,-14.25));
#2322=CARTESIAN_POINT('',(23.8839745962156,-19.65,-14.75));
#2323=CARTESIAN_POINT('',(23.9836726648139,-19.4773178797713,-14.75));
#2324=CARTESIAN_POINT('',(24.2688692548155,-19.2231168875902,-14.5898093687718));
#2325=CARTESIAN_POINT('',(24.5906899750471,-19.15,-14.3626488237245));
#2326=CARTESIAN_POINT('',(24.75,-19.15,-14.25));
#2327=CARTESIAN_POINT('',(0.,-19.65,14.25));
#2328=CARTESIAN_POINT('',(23.8839745962156,-19.65,14.75));
#2329=CARTESIAN_POINT('',(23.9836726648139,-19.4773178797713,14.75));
#2330=CARTESIAN_POINT('',(24.2688692548118,-19.2231168875902,14.5898093687666));
#2331=CARTESIAN_POINT('',(24.5906899750546,-19.15,14.362648823735));
#2332=CARTESIAN_POINT('',(24.75,-19.15,14.25));
#2333=CARTESIAN_POINT('',(-23.8839745962156,-19.65,14.75));
#2334=CARTESIAN_POINT('',(-23.9836726648139,-19.4773178797713,14.75));
#2335=CARTESIAN_POINT('',(-24.2688692548162,-19.2231168875902,14.5898093687728));
#2336=CARTESIAN_POINT('',(-24.5906899750457,-19.15,14.3626488237225));
#2337=CARTESIAN_POINT('',(-24.75,-19.15,14.25));
#2338=CARTESIAN_POINT('',(-24.75,-20.15,2.86229373536173E-14));
#2339=CARTESIAN_POINT('',(-24.75,-20.15,2.86229373536175E-14));
#2340=CARTESIAN_POINT('',(24.75,-20.15,2.86229373536173E-14));
#2341=CARTESIAN_POINT('',(24.75,-20.15,0.));
#2342=CARTESIAN_POINT('',(1.15107819433975E-15,-16.3215728752538,-18.75));
#2343=CARTESIAN_POINT('',(1.02137924286485E-15,-18.5576408527536,-16.75));
#2344=CARTESIAN_POINT('',(-3.45323458301925E-15,-16.3215728752538,18.75));
#2345=CARTESIAN_POINT('',(-3.06413772859455E-15,-18.5576408527536,16.75));
#2346=CARTESIAN_POINT('',(8.91680291389948E-16,-20.7937088302534,-14.75));
#2347=CARTESIAN_POINT('',(-2.67504087416984E-15,-20.7937088302534,14.75));
#2348=CARTESIAN_POINT('',(-23.25,-9.05,-11.25));
#2349=CARTESIAN_POINT('',(-23.25,-11.05,-11.25));
#2350=CARTESIAN_POINT('',(-23.25,-9.05,-11.25));
#2351=CARTESIAN_POINT('',(-23.25,-11.05,-11.25));
#2352=CARTESIAN_POINT('',(0.,-9.05,0.));
#2353=CARTESIAN_POINT('',(-23.25,-9.05,11.25));
#2354=CARTESIAN_POINT('',(-23.25,-11.05,11.25));
#2355=CARTESIAN_POINT('',(-23.25,-9.05,11.25));
#2356=CARTESIAN_POINT('',(-23.25,-11.05,11.25));
#2357=CARTESIAN_POINT('',(0.,-9.05,0.));
#2358=CARTESIAN_POINT('',(-16.,-42.15,16.25));
#2359=CARTESIAN_POINT('',(-16.,-42.15,16.25));
#2360=CARTESIAN_POINT('',(-13.5,-42.15,16.25));
#2361=CARTESIAN_POINT('',(-16.,-42.15,16.25));
#2362=CARTESIAN_POINT('',(8.,-30.15,16.25));
#2363=CARTESIAN_POINT('',(8.,-30.15,16.25));
#2364=CARTESIAN_POINT('',(10.5,-30.15,16.25));
#2365=CARTESIAN_POINT('',(8.,-30.15,16.25));
#2366=CARTESIAN_POINT('',(8.,-42.15,16.25));
#2367=CARTESIAN_POINT('',(8.,-42.15,16.25));
#2368=CARTESIAN_POINT('',(10.5,-42.15,16.25));
#2369=CARTESIAN_POINT('',(8.,-42.15,16.25));
#2370=CARTESIAN_POINT('',(-16.,-30.15,16.25));
#2371=CARTESIAN_POINT('',(-16.,-30.15,16.25));
#2372=CARTESIAN_POINT('',(-13.5,-30.15,16.25));
#2373=CARTESIAN_POINT('',(-16.,-30.15,16.25));
#2374=CARTESIAN_POINT('',(-16.,-42.15,-16.25));
#2375=CARTESIAN_POINT('',(-16.,-42.15,-16.25));
#2376=CARTESIAN_POINT('',(-13.5,-42.15,-16.25));
#2377=CARTESIAN_POINT('',(-16.,-42.15,-16.25));
#2378=CARTESIAN_POINT('',(8.,-30.15,-16.25));
#2379=CARTESIAN_POINT('',(8.,-30.15,-16.25));
#2380=CARTESIAN_POINT('',(10.5,-30.15,-16.25));
#2381=CARTESIAN_POINT('',(8.,-30.15,-16.25));
#2382=CARTESIAN_POINT('',(8.,-42.15,-16.25));
#2383=CARTESIAN_POINT('',(8.,-42.15,-16.25));
#2384=CARTESIAN_POINT('',(10.5,-42.15,-16.25));
#2385=CARTESIAN_POINT('',(8.,-42.15,-16.25));
#2386=CARTESIAN_POINT('',(-16.,-30.15,-16.25));
#2387=CARTESIAN_POINT('',(-16.,-30.15,-16.25));
#2388=CARTESIAN_POINT('',(-13.5,-30.15,-16.25));
#2389=CARTESIAN_POINT('',(-16.,-30.15,-16.25));
#2390=CARTESIAN_POINT('',(0.,-11.05,0.));
#2391=CARTESIAN_POINT('',(22.5,-11.05,-13.5));
#2392=CARTESIAN_POINT('',(-22.5,43.4889768880935,-13.5));
#2393=CARTESIAN_POINT('',(-22.5,43.4889768880935,-13.5));
#2394=CARTESIAN_POINT('',(22.5,43.4889768880935,-13.5));
#2395=CARTESIAN_POINT('',(-22.5,43.4889768880935,-13.5));
#2396=CARTESIAN_POINT('',(-22.5,43.4889768880935,13.5));
#2397=CARTESIAN_POINT('',(-22.5,-11.05,-13.5));
#2398=CARTESIAN_POINT('',(22.5,43.4889768880935,13.5));
#2399=CARTESIAN_POINT('',(22.5,43.4889768880935,13.5));
#2400=CARTESIAN_POINT('',(22.5,43.4889768880935,-13.5));
#2401=CARTESIAN_POINT('',(0.,-11.05,0.));
#2402=CARTESIAN_POINT('',(-14.5773797371132,-48.15,17.75));
#2403=CARTESIAN_POINT('',(-10.6066017177982,-48.15,-17.75));
#2404=CARTESIAN_POINT('',(10.6066017177982,-48.15,-14.75));
#2405=CARTESIAN_POINT('',(-14.5773797371132,-48.15,17.75));
#2406=CARTESIAN_POINT('',(10.6066017177982,-48.15,17.75));
#2407=CARTESIAN_POINT('',(-10.6066017177982,-48.15,14.75));
#2408=CARTESIAN_POINT('',(10.6066017177982,-38.15,17.75));
#2409=CARTESIAN_POINT('',(-10.6066017177982,-38.15,17.75));
#2410=CARTESIAN_POINT('',(-10.6066017177982,-38.15,-14.75));
#2411=CARTESIAN_POINT('',(10.6066017177982,-38.15,-14.75));
#2412=MECHANICAL_DESIGN_GEOMETRIC_PRESENTATION_REPRESENTATION('',(#1406),
#2413);
#2413=(
GEOMETRIC_REPRESENTATION_CONTEXT(3)
GLOBAL_UNCERTAINTY_ASSIGNED_CONTEXT((#2414))
GLOBAL_UNIT_ASSIGNED_CONTEXT((#2417,#2416,#2415))
REPRESENTATION_CONTEXT('Part 1','TOP_LEVEL_ASSEMBLY_PART')
);
#2414=UNCERTAINTY_MEASURE_WITH_UNIT(LENGTH_MEASURE(1.E-5),#2417,
'DISTANCE_ACCURACY_VALUE','Maximum Tolerance applied to model');
#2415=(
NAMED_UNIT(*)
SI_UNIT($,.STERADIAN.)
SOLID_ANGLE_UNIT()
);
#2416=(
NAMED_UNIT(*)
PLANE_ANGLE_UNIT()
SI_UNIT($,.RADIAN.)
);
#2417=(
LENGTH_UNIT()
NAMED_UNIT(*)
SI_UNIT(.MILLI.,.METRE.)
);
#2418=PRODUCT_DEFINITION_SHAPE('','',#2419);
#2419=PRODUCT_DEFINITION('','',#2421,#2420);
#2420=PRODUCT_DEFINITION_CONTEXT('',#2427,'design');
#2421=PRODUCT_DEFINITION_FORMATION_WITH_SPECIFIED_SOURCE('','',#2423,
 .NOT_KNOWN.);
#2422=PRODUCT_RELATED_PRODUCT_CATEGORY('','',(#2423));
#2423=PRODUCT('Part 1','Part 1','Part 1',(#2425));
#2424=PRODUCT_CATEGORY('','');
#2425=PRODUCT_CONTEXT('',#2427,'mechanical');
#2426=APPLICATION_PROTOCOL_DEFINITION('international standard',
'ap242_managed_model_based_3d_engineering',2020,#2427);
#2427=APPLICATION_CONTEXT('managed model based 3d engineering');
ENDSEC;
END-ISO-10303-21;
