ISO-10303-21;
HEADER;
/* Generated by software containing ST-Developer
 * from STEP Tools, Inc. (www.steptools.com) 
 */
/* OPTION: using custom renumber hook */

FILE_DESCRIPTION(
/* description */ ('STEP AP242 Edition 2',
'CAx-IF Rec.Pracs.---Representation and Presentation of Product Manufa
cturing Information (PMI)---4.0---2014-10-13',
'CAx-IF Rec.Pracs.---3D Tessellated Geometry---0.4---2014-09-14','2;1',
'CAx-IF Rec.Pracs.---User Defined Attributes---1.5---2016-08-15'),
/* implementation_level */ '2;1');

FILE_NAME(
/* name */ '6001-2z_05 - Copy',
/* time_stamp */ '2026-06-03T07:09:59Z',
/* author */ (''),
/* organization */ (''),
/* preprocessor_version */ 'ST-DEVELOPER v20',
/* originating_system */ 'ONSHAPE BY PTC INC, 1.215',
/* authorisation */ '  ');

FILE_SCHEMA (('AP242_MANAGED_MODEL_BASED_3D_ENGINEERING_MIM_LF { 1 0 10303 442 3 1 4 }'));
ENDSEC;

DATA;
#10=SHAPE_REPRESENTATION_RELATIONSHIP('','',#487,#11);
#11=ADVANCED_BREP_SHAPE_REPRESENTATION('',(#485),#925);
#12=SPHERICAL_SURFACE('',#513,2.381);
#13=SPHERICAL_SURFACE('',#516,2.381);
#14=SPHERICAL_SURFACE('',#519,2.381);
#15=SPHERICAL_SURFACE('',#522,2.381);
#16=SPHERICAL_SURFACE('',#525,2.381);
#17=SPHERICAL_SURFACE('',#528,2.381);
#18=SPHERICAL_SURFACE('',#531,2.381);
#19=SPHERICAL_SURFACE('',#534,2.381);
#20=SPHERICAL_SURFACE('',#537,2.381);
#21=SPHERICAL_SURFACE('',#538,2.381);
#22=SPHERICAL_SURFACE('',#539,2.381);
#23=SPHERICAL_SURFACE('',#540,2.381);
#24=SPHERICAL_SURFACE('',#541,2.381);
#25=SPHERICAL_SURFACE('',#542,2.381);
#26=SPHERICAL_SURFACE('',#543,2.381);
#27=SPHERICAL_SURFACE('',#544,2.381);
#28=B_SPLINE_CURVE_WITH_KNOTS('',3,(#688,#689,#690,#691),.UNSPECIFIED.,
 .F.,.F.,(4,4),(0.,1.),.UNSPECIFIED.);
#29=B_SPLINE_CURVE_WITH_KNOTS('',3,(#695,#696,#697,#698),.UNSPECIFIED.,
 .F.,.F.,(4,4),(0.,1.),.UNSPECIFIED.);
#30=B_SPLINE_CURVE_WITH_KNOTS('',3,(#703,#704,#705,#706),.UNSPECIFIED.,
 .F.,.F.,(4,4),(0.,1.),.UNSPECIFIED.);
#31=B_SPLINE_CURVE_WITH_KNOTS('',3,(#710,#711,#712,#713),.UNSPECIFIED.,
 .F.,.F.,(4,4),(0.,1.),.UNSPECIFIED.);
#32=B_SPLINE_CURVE_WITH_KNOTS('',3,(#718,#719,#720,#721),.UNSPECIFIED.,
 .F.,.F.,(4,4),(0.,1.),.UNSPECIFIED.);
#33=B_SPLINE_CURVE_WITH_KNOTS('',3,(#725,#726,#727,#728),.UNSPECIFIED.,
 .F.,.F.,(4,4),(0.,1.),.UNSPECIFIED.);
#34=B_SPLINE_CURVE_WITH_KNOTS('',3,(#733,#734,#735,#736),.UNSPECIFIED.,
 .F.,.F.,(4,4),(0.,1.),.UNSPECIFIED.);
#35=B_SPLINE_CURVE_WITH_KNOTS('',3,(#740,#741,#742,#743),.UNSPECIFIED.,
 .F.,.F.,(4,4),(0.,1.),.UNSPECIFIED.);
#36=B_SPLINE_CURVE_WITH_KNOTS('',3,(#748,#749,#750,#751),.UNSPECIFIED.,
 .F.,.F.,(4,4),(0.,1.),.UNSPECIFIED.);
#37=B_SPLINE_CURVE_WITH_KNOTS('',3,(#755,#756,#757,#758),.UNSPECIFIED.,
 .F.,.F.,(4,4),(0.,1.),.UNSPECIFIED.);
#38=B_SPLINE_CURVE_WITH_KNOTS('',3,(#763,#764,#765,#766),.UNSPECIFIED.,
 .F.,.F.,(4,4),(0.,1.),.UNSPECIFIED.);
#39=B_SPLINE_CURVE_WITH_KNOTS('',3,(#770,#771,#772,#773),.UNSPECIFIED.,
 .F.,.F.,(4,4),(0.,1.),.UNSPECIFIED.);
#40=B_SPLINE_CURVE_WITH_KNOTS('',3,(#778,#779,#780,#781),.UNSPECIFIED.,
 .F.,.F.,(4,4),(0.,1.),.UNSPECIFIED.);
#41=B_SPLINE_CURVE_WITH_KNOTS('',3,(#785,#786,#787,#788),.UNSPECIFIED.,
 .F.,.F.,(4,4),(0.,1.),.UNSPECIFIED.);
#42=B_SPLINE_CURVE_WITH_KNOTS('',3,(#793,#794,#795,#796),.UNSPECIFIED.,
 .F.,.F.,(4,4),(0.,1.),.UNSPECIFIED.);
#43=B_SPLINE_CURVE_WITH_KNOTS('',3,(#800,#801,#802,#803),.UNSPECIFIED.,
 .F.,.F.,(4,4),(0.,1.),.UNSPECIFIED.);
#44=B_SPLINE_CURVE_WITH_KNOTS('',3,(#805,#806,#807,#808),.UNSPECIFIED.,
 .F.,.F.,(4,4),(0.,1.),.UNSPECIFIED.);
#45=B_SPLINE_CURVE_WITH_KNOTS('',3,(#809,#810,#811,#812),.UNSPECIFIED.,
 .F.,.F.,(4,4),(0.,1.),.UNSPECIFIED.);
#46=B_SPLINE_CURVE_WITH_KNOTS('',3,(#818,#819,#820,#821),.UNSPECIFIED.,
 .F.,.F.,(4,4),(0.,1.),.UNSPECIFIED.);
#47=B_SPLINE_CURVE_WITH_KNOTS('',3,(#822,#823,#824,#825),.UNSPECIFIED.,
 .F.,.F.,(4,4),(0.,1.),.UNSPECIFIED.);
#48=B_SPLINE_CURVE_WITH_KNOTS('',3,(#831,#832,#833,#834),.UNSPECIFIED.,
 .F.,.F.,(4,4),(0.,1.),.UNSPECIFIED.);
#49=B_SPLINE_CURVE_WITH_KNOTS('',3,(#835,#836,#837,#838),.UNSPECIFIED.,
 .F.,.F.,(4,4),(0.,1.),.UNSPECIFIED.);
#50=B_SPLINE_CURVE_WITH_KNOTS('',3,(#844,#845,#846,#847),.UNSPECIFIED.,
 .F.,.F.,(4,4),(0.,1.),.UNSPECIFIED.);
#51=B_SPLINE_CURVE_WITH_KNOTS('',3,(#848,#849,#850,#851),.UNSPECIFIED.,
 .F.,.F.,(4,4),(0.,1.),.UNSPECIFIED.);
#52=B_SPLINE_CURVE_WITH_KNOTS('',3,(#857,#858,#859,#860),.UNSPECIFIED.,
 .F.,.F.,(4,4),(0.,1.),.UNSPECIFIED.);
#53=B_SPLINE_CURVE_WITH_KNOTS('',3,(#861,#862,#863,#864),.UNSPECIFIED.,
 .F.,.F.,(4,4),(0.,1.),.UNSPECIFIED.);
#54=B_SPLINE_CURVE_WITH_KNOTS('',3,(#870,#871,#872,#873),.UNSPECIFIED.,
 .F.,.F.,(4,4),(0.,1.),.UNSPECIFIED.);
#55=B_SPLINE_CURVE_WITH_KNOTS('',3,(#874,#875,#876,#877),.UNSPECIFIED.,
 .F.,.F.,(4,4),(0.,1.),.UNSPECIFIED.);
#56=B_SPLINE_CURVE_WITH_KNOTS('',3,(#883,#884,#885,#886),.UNSPECIFIED.,
 .F.,.F.,(4,4),(0.,1.),.UNSPECIFIED.);
#57=B_SPLINE_CURVE_WITH_KNOTS('',3,(#887,#888,#889,#890),.UNSPECIFIED.,
 .F.,.F.,(4,4),(0.,1.),.UNSPECIFIED.);
#58=B_SPLINE_CURVE_WITH_KNOTS('',3,(#896,#897,#898,#899),.UNSPECIFIED.,
 .F.,.F.,(4,4),(0.,1.),.UNSPECIFIED.);
#59=B_SPLINE_CURVE_WITH_KNOTS('',3,(#900,#901,#902,#903),.UNSPECIFIED.,
 .F.,.F.,(4,4),(0.,1.),.UNSPECIFIED.);
#60=ORIENTED_EDGE('',*,*,#188,.T.);
#61=ORIENTED_EDGE('',*,*,#189,.T.);
#62=ORIENTED_EDGE('',*,*,#190,.T.);
#63=ORIENTED_EDGE('',*,*,#191,.T.);
#64=ORIENTED_EDGE('',*,*,#192,.T.);
#65=ORIENTED_EDGE('',*,*,#193,.T.);
#66=ORIENTED_EDGE('',*,*,#194,.T.);
#67=ORIENTED_EDGE('',*,*,#195,.T.);
#68=ORIENTED_EDGE('',*,*,#196,.T.);
#69=ORIENTED_EDGE('',*,*,#197,.T.);
#70=ORIENTED_EDGE('',*,*,#198,.T.);
#71=ORIENTED_EDGE('',*,*,#199,.T.);
#72=ORIENTED_EDGE('',*,*,#200,.T.);
#73=ORIENTED_EDGE('',*,*,#201,.T.);
#74=ORIENTED_EDGE('',*,*,#202,.T.);
#75=ORIENTED_EDGE('',*,*,#203,.T.);
#76=ORIENTED_EDGE('',*,*,#204,.T.);
#77=ORIENTED_EDGE('',*,*,#205,.T.);
#78=ORIENTED_EDGE('',*,*,#206,.T.);
#79=ORIENTED_EDGE('',*,*,#207,.T.);
#80=ORIENTED_EDGE('',*,*,#208,.T.);
#81=ORIENTED_EDGE('',*,*,#209,.T.);
#82=ORIENTED_EDGE('',*,*,#210,.T.);
#83=ORIENTED_EDGE('',*,*,#211,.T.);
#84=ORIENTED_EDGE('',*,*,#212,.T.);
#85=ORIENTED_EDGE('',*,*,#213,.T.);
#86=ORIENTED_EDGE('',*,*,#214,.T.);
#87=ORIENTED_EDGE('',*,*,#215,.T.);
#88=ORIENTED_EDGE('',*,*,#216,.T.);
#89=ORIENTED_EDGE('',*,*,#217,.T.);
#90=ORIENTED_EDGE('',*,*,#218,.T.);
#91=ORIENTED_EDGE('',*,*,#219,.T.);
#92=ORIENTED_EDGE('',*,*,#220,.F.);
#93=ORIENTED_EDGE('',*,*,#191,.F.);
#94=ORIENTED_EDGE('',*,*,#213,.F.);
#95=ORIENTED_EDGE('',*,*,#221,.F.);
#96=ORIENTED_EDGE('',*,*,#222,.T.);
#97=ORIENTED_EDGE('',*,*,#223,.T.);
#98=ORIENTED_EDGE('',*,*,#224,.F.);
#99=ORIENTED_EDGE('',*,*,#219,.F.);
#100=ORIENTED_EDGE('',*,*,#189,.F.);
#101=ORIENTED_EDGE('',*,*,#225,.F.);
#102=ORIENTED_EDGE('',*,*,#226,.T.);
#103=ORIENTED_EDGE('',*,*,#227,.T.);
#104=ORIENTED_EDGE('',*,*,#228,.F.);
#105=ORIENTED_EDGE('',*,*,#195,.F.);
#106=ORIENTED_EDGE('',*,*,#217,.F.);
#107=ORIENTED_EDGE('',*,*,#229,.F.);
#108=ORIENTED_EDGE('',*,*,#230,.T.);
#109=ORIENTED_EDGE('',*,*,#231,.T.);
#110=ORIENTED_EDGE('',*,*,#232,.F.);
#111=ORIENTED_EDGE('',*,*,#199,.F.);
#112=ORIENTED_EDGE('',*,*,#193,.F.);
#113=ORIENTED_EDGE('',*,*,#233,.F.);
#114=ORIENTED_EDGE('',*,*,#234,.T.);
#115=ORIENTED_EDGE('',*,*,#235,.T.);
#116=ORIENTED_EDGE('',*,*,#236,.F.);
#117=ORIENTED_EDGE('',*,*,#203,.F.);
#118=ORIENTED_EDGE('',*,*,#197,.F.);
#119=ORIENTED_EDGE('',*,*,#237,.F.);
#120=ORIENTED_EDGE('',*,*,#238,.T.);
#121=ORIENTED_EDGE('',*,*,#239,.T.);
#122=ORIENTED_EDGE('',*,*,#240,.F.);
#123=ORIENTED_EDGE('',*,*,#207,.F.);
#124=ORIENTED_EDGE('',*,*,#201,.F.);
#125=ORIENTED_EDGE('',*,*,#241,.F.);
#126=ORIENTED_EDGE('',*,*,#242,.T.);
#127=ORIENTED_EDGE('',*,*,#243,.T.);
#128=ORIENTED_EDGE('',*,*,#244,.F.);
#129=ORIENTED_EDGE('',*,*,#211,.F.);
#130=ORIENTED_EDGE('',*,*,#205,.F.);
#131=ORIENTED_EDGE('',*,*,#245,.F.);
#132=ORIENTED_EDGE('',*,*,#246,.T.);
#133=ORIENTED_EDGE('',*,*,#247,.T.);
#134=ORIENTED_EDGE('',*,*,#248,.F.);
#135=ORIENTED_EDGE('',*,*,#215,.F.);
#136=ORIENTED_EDGE('',*,*,#209,.F.);
#137=ORIENTED_EDGE('',*,*,#249,.F.);
#138=ORIENTED_EDGE('',*,*,#250,.T.);
#139=ORIENTED_EDGE('',*,*,#251,.T.);
#140=ORIENTED_EDGE('',*,*,#250,.F.);
#141=ORIENTED_EDGE('',*,*,#251,.F.);
#142=ORIENTED_EDGE('',*,*,#246,.F.);
#143=ORIENTED_EDGE('',*,*,#247,.F.);
#144=ORIENTED_EDGE('',*,*,#242,.F.);
#145=ORIENTED_EDGE('',*,*,#243,.F.);
#146=ORIENTED_EDGE('',*,*,#238,.F.);
#147=ORIENTED_EDGE('',*,*,#239,.F.);
#148=ORIENTED_EDGE('',*,*,#234,.F.);
#149=ORIENTED_EDGE('',*,*,#235,.F.);
#150=ORIENTED_EDGE('',*,*,#230,.F.);
#151=ORIENTED_EDGE('',*,*,#231,.F.);
#152=ORIENTED_EDGE('',*,*,#226,.F.);
#153=ORIENTED_EDGE('',*,*,#227,.F.);
#154=ORIENTED_EDGE('',*,*,#222,.F.);
#155=ORIENTED_EDGE('',*,*,#223,.F.);
#156=ORIENTED_EDGE('',*,*,#216,.F.);
#157=ORIENTED_EDGE('',*,*,#224,.T.);
#158=ORIENTED_EDGE('',*,*,#218,.F.);
#159=ORIENTED_EDGE('',*,*,#229,.T.);
#160=ORIENTED_EDGE('',*,*,#212,.F.);
#161=ORIENTED_EDGE('',*,*,#248,.T.);
#162=ORIENTED_EDGE('',*,*,#214,.F.);
#163=ORIENTED_EDGE('',*,*,#221,.T.);
#164=ORIENTED_EDGE('',*,*,#208,.F.);
#165=ORIENTED_EDGE('',*,*,#244,.T.);
#166=ORIENTED_EDGE('',*,*,#210,.F.);
#167=ORIENTED_EDGE('',*,*,#249,.T.);
#168=ORIENTED_EDGE('',*,*,#204,.F.);
#169=ORIENTED_EDGE('',*,*,#240,.T.);
#170=ORIENTED_EDGE('',*,*,#206,.F.);
#171=ORIENTED_EDGE('',*,*,#245,.T.);
#172=ORIENTED_EDGE('',*,*,#200,.F.);
#173=ORIENTED_EDGE('',*,*,#236,.T.);
#174=ORIENTED_EDGE('',*,*,#202,.F.);
#175=ORIENTED_EDGE('',*,*,#241,.T.);
#176=ORIENTED_EDGE('',*,*,#196,.F.);
#177=ORIENTED_EDGE('',*,*,#232,.T.);
#178=ORIENTED_EDGE('',*,*,#198,.F.);
#179=ORIENTED_EDGE('',*,*,#237,.T.);
#180=ORIENTED_EDGE('',*,*,#192,.F.);
#181=ORIENTED_EDGE('',*,*,#228,.T.);
#182=ORIENTED_EDGE('',*,*,#194,.F.);
#183=ORIENTED_EDGE('',*,*,#233,.T.);
#184=ORIENTED_EDGE('',*,*,#188,.F.);
#185=ORIENTED_EDGE('',*,*,#220,.T.);
#186=ORIENTED_EDGE('',*,*,#190,.F.);
#187=ORIENTED_EDGE('',*,*,#225,.T.);
#188=EDGE_CURVE('',#252,#253,#300,.T.);
#189=EDGE_CURVE('',#253,#254,#28,.F.);
#190=EDGE_CURVE('',#254,#255,#301,.T.);
#191=EDGE_CURVE('',#255,#252,#29,.F.);
#192=EDGE_CURVE('',#256,#257,#302,.T.);
#193=EDGE_CURVE('',#257,#258,#30,.F.);
#194=EDGE_CURVE('',#258,#259,#303,.T.);
#195=EDGE_CURVE('',#259,#256,#31,.F.);
#196=EDGE_CURVE('',#260,#261,#304,.T.);
#197=EDGE_CURVE('',#261,#262,#32,.F.);
#198=EDGE_CURVE('',#262,#263,#305,.T.);
#199=EDGE_CURVE('',#263,#260,#33,.F.);
#200=EDGE_CURVE('',#264,#265,#306,.T.);
#201=EDGE_CURVE('',#265,#266,#34,.F.);
#202=EDGE_CURVE('',#266,#267,#307,.T.);
#203=EDGE_CURVE('',#267,#264,#35,.F.);
#204=EDGE_CURVE('',#268,#269,#308,.T.);
#205=EDGE_CURVE('',#269,#270,#36,.F.);
#206=EDGE_CURVE('',#270,#271,#309,.T.);
#207=EDGE_CURVE('',#271,#268,#37,.F.);
#208=EDGE_CURVE('',#272,#273,#310,.T.);
#209=EDGE_CURVE('',#273,#274,#38,.F.);
#210=EDGE_CURVE('',#274,#275,#311,.T.);
#211=EDGE_CURVE('',#275,#272,#39,.F.);
#212=EDGE_CURVE('',#276,#277,#312,.T.);
#213=EDGE_CURVE('',#277,#278,#40,.F.);
#214=EDGE_CURVE('',#278,#279,#313,.T.);
#215=EDGE_CURVE('',#279,#276,#41,.F.);
#216=EDGE_CURVE('',#280,#281,#314,.T.);
#217=EDGE_CURVE('',#281,#282,#42,.F.);
#218=EDGE_CURVE('',#282,#283,#315,.T.);
#219=EDGE_CURVE('',#283,#280,#43,.F.);
#220=EDGE_CURVE('',#252,#255,#44,.F.);
#221=EDGE_CURVE('',#278,#277,#45,.F.);
#222=EDGE_CURVE('',#284,#285,#316,.T.);
#223=EDGE_CURVE('',#285,#284,#317,.T.);
#224=EDGE_CURVE('',#280,#283,#46,.F.);
#225=EDGE_CURVE('',#254,#253,#47,.F.);
#226=EDGE_CURVE('',#286,#287,#318,.T.);
#227=EDGE_CURVE('',#287,#286,#319,.T.);
#228=EDGE_CURVE('',#256,#259,#48,.F.);
#229=EDGE_CURVE('',#282,#281,#49,.F.);
#230=EDGE_CURVE('',#288,#289,#320,.T.);
#231=EDGE_CURVE('',#289,#288,#321,.T.);
#232=EDGE_CURVE('',#260,#263,#50,.F.);
#233=EDGE_CURVE('',#258,#257,#51,.F.);
#234=EDGE_CURVE('',#290,#291,#322,.T.);
#235=EDGE_CURVE('',#291,#290,#323,.T.);
#236=EDGE_CURVE('',#264,#267,#52,.F.);
#237=EDGE_CURVE('',#262,#261,#53,.F.);
#238=EDGE_CURVE('',#292,#293,#324,.T.);
#239=EDGE_CURVE('',#293,#292,#325,.T.);
#240=EDGE_CURVE('',#268,#271,#54,.F.);
#241=EDGE_CURVE('',#266,#265,#55,.F.);
#242=EDGE_CURVE('',#294,#295,#326,.T.);
#243=EDGE_CURVE('',#295,#294,#327,.T.);
#244=EDGE_CURVE('',#272,#275,#56,.F.);
#245=EDGE_CURVE('',#270,#269,#57,.F.);
#246=EDGE_CURVE('',#296,#297,#328,.T.);
#247=EDGE_CURVE('',#297,#296,#329,.T.);
#248=EDGE_CURVE('',#276,#279,#58,.F.);
#249=EDGE_CURVE('',#274,#273,#59,.F.);
#250=EDGE_CURVE('',#298,#299,#330,.T.);
#251=EDGE_CURVE('',#299,#298,#331,.T.);
#252=VERTEX_POINT('',#686);
#253=VERTEX_POINT('',#687);
#254=VERTEX_POINT('',#692);
#255=VERTEX_POINT('',#694);
#256=VERTEX_POINT('',#701);
#257=VERTEX_POINT('',#702);
#258=VERTEX_POINT('',#707);
#259=VERTEX_POINT('',#709);
#260=VERTEX_POINT('',#716);
#261=VERTEX_POINT('',#717);
#262=VERTEX_POINT('',#722);
#263=VERTEX_POINT('',#724);
#264=VERTEX_POINT('',#731);
#265=VERTEX_POINT('',#732);
#266=VERTEX_POINT('',#737);
#267=VERTEX_POINT('',#739);
#268=VERTEX_POINT('',#746);
#269=VERTEX_POINT('',#747);
#270=VERTEX_POINT('',#752);
#271=VERTEX_POINT('',#754);
#272=VERTEX_POINT('',#761);
#273=VERTEX_POINT('',#762);
#274=VERTEX_POINT('',#767);
#275=VERTEX_POINT('',#769);
#276=VERTEX_POINT('',#776);
#277=VERTEX_POINT('',#777);
#278=VERTEX_POINT('',#782);
#279=VERTEX_POINT('',#784);
#280=VERTEX_POINT('',#791);
#281=VERTEX_POINT('',#792);
#282=VERTEX_POINT('',#797);
#283=VERTEX_POINT('',#799);
#284=VERTEX_POINT('',#814);
#285=VERTEX_POINT('',#815);
#286=VERTEX_POINT('',#827);
#287=VERTEX_POINT('',#828);
#288=VERTEX_POINT('',#840);
#289=VERTEX_POINT('',#841);
#290=VERTEX_POINT('',#853);
#291=VERTEX_POINT('',#854);
#292=VERTEX_POINT('',#866);
#293=VERTEX_POINT('',#867);
#294=VERTEX_POINT('',#879);
#295=VERTEX_POINT('',#880);
#296=VERTEX_POINT('',#892);
#297=VERTEX_POINT('',#893);
#298=VERTEX_POINT('',#905);
#299=VERTEX_POINT('',#906);
#300=CIRCLE('',#490,10.01);
#301=CIRCLE('',#491,9.99);
#302=CIRCLE('',#493,10.01);
#303=CIRCLE('',#494,9.99);
#304=CIRCLE('',#496,10.01);
#305=CIRCLE('',#497,9.99);
#306=CIRCLE('',#499,10.01);
#307=CIRCLE('',#500,9.99);
#308=CIRCLE('',#502,10.01);
#309=CIRCLE('',#503,9.99);
#310=CIRCLE('',#505,10.01);
#311=CIRCLE('',#506,9.99);
#312=CIRCLE('',#508,10.01);
#313=CIRCLE('',#509,9.99);
#314=CIRCLE('',#511,10.01);
#315=CIRCLE('',#512,9.99);
#316=CIRCLE('',#514,2.381);
#317=CIRCLE('',#515,2.381);
#318=CIRCLE('',#517,2.381);
#319=CIRCLE('',#518,2.381);
#320=CIRCLE('',#520,2.381);
#321=CIRCLE('',#521,2.381);
#322=CIRCLE('',#523,2.381);
#323=CIRCLE('',#524,2.381);
#324=CIRCLE('',#526,2.381);
#325=CIRCLE('',#527,2.381);
#326=CIRCLE('',#529,2.381);
#327=CIRCLE('',#530,2.381);
#328=CIRCLE('',#532,2.381);
#329=CIRCLE('',#533,2.381);
#330=CIRCLE('',#535,2.381);
#331=CIRCLE('',#536,2.381);
#332=EDGE_LOOP('',(#60,#61,#62,#63));
#333=EDGE_LOOP('',(#64,#65,#66,#67));
#334=EDGE_LOOP('',(#68,#69,#70,#71));
#335=EDGE_LOOP('',(#72,#73,#74,#75));
#336=EDGE_LOOP('',(#76,#77,#78,#79));
#337=EDGE_LOOP('',(#80,#81,#82,#83));
#338=EDGE_LOOP('',(#84,#85,#86,#87));
#339=EDGE_LOOP('',(#88,#89,#90,#91));
#340=EDGE_LOOP('',(#92,#93));
#341=EDGE_LOOP('',(#94,#95));
#342=EDGE_LOOP('',(#96,#97));
#343=EDGE_LOOP('',(#98,#99));
#344=EDGE_LOOP('',(#100,#101));
#345=EDGE_LOOP('',(#102,#103));
#346=EDGE_LOOP('',(#104,#105));
#347=EDGE_LOOP('',(#106,#107));
#348=EDGE_LOOP('',(#108,#109));
#349=EDGE_LOOP('',(#110,#111));
#350=EDGE_LOOP('',(#112,#113));
#351=EDGE_LOOP('',(#114,#115));
#352=EDGE_LOOP('',(#116,#117));
#353=EDGE_LOOP('',(#118,#119));
#354=EDGE_LOOP('',(#120,#121));
#355=EDGE_LOOP('',(#122,#123));
#356=EDGE_LOOP('',(#124,#125));
#357=EDGE_LOOP('',(#126,#127));
#358=EDGE_LOOP('',(#128,#129));
#359=EDGE_LOOP('',(#130,#131));
#360=EDGE_LOOP('',(#132,#133));
#361=EDGE_LOOP('',(#134,#135));
#362=EDGE_LOOP('',(#136,#137));
#363=EDGE_LOOP('',(#138,#139));
#364=EDGE_LOOP('',(#140,#141));
#365=EDGE_LOOP('',(#142,#143));
#366=EDGE_LOOP('',(#144,#145));
#367=EDGE_LOOP('',(#146,#147));
#368=EDGE_LOOP('',(#148,#149));
#369=EDGE_LOOP('',(#150,#151));
#370=EDGE_LOOP('',(#152,#153));
#371=EDGE_LOOP('',(#154,#155));
#372=EDGE_LOOP('',(#156,#157,#158,#159));
#373=EDGE_LOOP('',(#160,#161,#162,#163));
#374=EDGE_LOOP('',(#164,#165,#166,#167));
#375=EDGE_LOOP('',(#168,#169,#170,#171));
#376=EDGE_LOOP('',(#172,#173,#174,#175));
#377=EDGE_LOOP('',(#176,#177,#178,#179));
#378=EDGE_LOOP('',(#180,#181,#182,#183));
#379=EDGE_LOOP('',(#184,#185,#186,#187));
#380=FACE_BOUND('',#332,.T.);
#381=FACE_BOUND('',#333,.T.);
#382=FACE_BOUND('',#334,.T.);
#383=FACE_BOUND('',#335,.T.);
#384=FACE_BOUND('',#336,.T.);
#385=FACE_BOUND('',#337,.T.);
#386=FACE_BOUND('',#338,.T.);
#387=FACE_BOUND('',#339,.T.);
#388=FACE_BOUND('',#340,.T.);
#389=FACE_BOUND('',#341,.T.);
#390=FACE_BOUND('',#342,.T.);
#391=FACE_BOUND('',#343,.T.);
#392=FACE_BOUND('',#344,.T.);
#393=FACE_BOUND('',#345,.T.);
#394=FACE_BOUND('',#346,.T.);
#395=FACE_BOUND('',#347,.T.);
#396=FACE_BOUND('',#348,.T.);
#397=FACE_BOUND('',#349,.T.);
#398=FACE_BOUND('',#350,.T.);
#399=FACE_BOUND('',#351,.T.);
#400=FACE_BOUND('',#352,.T.);
#401=FACE_BOUND('',#353,.T.);
#402=FACE_BOUND('',#354,.T.);
#403=FACE_BOUND('',#355,.T.);
#404=FACE_BOUND('',#356,.T.);
#405=FACE_BOUND('',#357,.T.);
#406=FACE_BOUND('',#358,.T.);
#407=FACE_BOUND('',#359,.T.);
#408=FACE_BOUND('',#360,.T.);
#409=FACE_BOUND('',#361,.T.);
#410=FACE_BOUND('',#362,.T.);
#411=FACE_BOUND('',#363,.T.);
#412=FACE_BOUND('',#364,.T.);
#413=FACE_BOUND('',#365,.T.);
#414=FACE_BOUND('',#366,.T.);
#415=FACE_BOUND('',#367,.T.);
#416=FACE_BOUND('',#368,.T.);
#417=FACE_BOUND('',#369,.T.);
#418=FACE_BOUND('',#370,.T.);
#419=FACE_BOUND('',#371,.T.);
#420=FACE_BOUND('',#372,.T.);
#421=FACE_BOUND('',#373,.T.);
#422=FACE_BOUND('',#374,.T.);
#423=FACE_BOUND('',#375,.T.);
#424=FACE_BOUND('',#376,.T.);
#425=FACE_BOUND('',#377,.T.);
#426=FACE_BOUND('',#378,.T.);
#427=FACE_BOUND('',#379,.T.);
#428=TOROIDAL_SURFACE('',#489,10.,0.01);
#429=TOROIDAL_SURFACE('',#492,10.,0.01);
#430=TOROIDAL_SURFACE('',#495,10.,0.01);
#431=TOROIDAL_SURFACE('',#498,10.,0.01);
#432=TOROIDAL_SURFACE('',#501,10.,0.01);
#433=TOROIDAL_SURFACE('',#504,10.,0.01);
#434=TOROIDAL_SURFACE('',#507,10.,0.01);
#435=TOROIDAL_SURFACE('',#510,10.,0.01);
#436=TOROIDAL_SURFACE('',#545,10.,0.01);
#437=TOROIDAL_SURFACE('',#546,10.,0.01);
#438=TOROIDAL_SURFACE('',#547,10.,0.01);
#439=TOROIDAL_SURFACE('',#548,10.,0.01);
#440=TOROIDAL_SURFACE('',#549,10.,0.01);
#441=TOROIDAL_SURFACE('',#550,10.,0.01);
#442=TOROIDAL_SURFACE('',#551,10.,0.01);
#443=TOROIDAL_SURFACE('',#552,10.,0.01);
#444=ADVANCED_FACE('',(#380),#428,.T.);
#445=ADVANCED_FACE('',(#381),#429,.T.);
#446=ADVANCED_FACE('',(#382),#430,.T.);
#447=ADVANCED_FACE('',(#383),#431,.T.);
#448=ADVANCED_FACE('',(#384),#432,.T.);
#449=ADVANCED_FACE('',(#385),#433,.T.);
#450=ADVANCED_FACE('',(#386),#434,.T.);
#451=ADVANCED_FACE('',(#387),#435,.T.);
#452=ADVANCED_FACE('',(#388,#389,#390),#12,.T.);
#453=ADVANCED_FACE('',(#391,#392,#393),#13,.T.);
#454=ADVANCED_FACE('',(#394,#395,#396),#14,.T.);
#455=ADVANCED_FACE('',(#397,#398,#399),#15,.T.);
#456=ADVANCED_FACE('',(#400,#401,#402),#16,.T.);
#457=ADVANCED_FACE('',(#403,#404,#405),#17,.T.);
#458=ADVANCED_FACE('',(#406,#407,#408),#18,.T.);
#459=ADVANCED_FACE('',(#409,#410,#411),#19,.T.);
#460=ADVANCED_FACE('',(#412),#20,.T.);
#461=ADVANCED_FACE('',(#413),#21,.T.);
#462=ADVANCED_FACE('',(#414),#22,.T.);
#463=ADVANCED_FACE('',(#415),#23,.T.);
#464=ADVANCED_FACE('',(#416),#24,.T.);
#465=ADVANCED_FACE('',(#417),#25,.T.);
#466=ADVANCED_FACE('',(#418),#26,.T.);
#467=ADVANCED_FACE('',(#419),#27,.T.);
#468=ADVANCED_FACE('',(#420),#436,.T.);
#469=ADVANCED_FACE('',(#421),#437,.T.);
#470=ADVANCED_FACE('',(#422),#438,.T.);
#471=ADVANCED_FACE('',(#423),#439,.T.);
#472=ADVANCED_FACE('',(#424),#440,.T.);
#473=ADVANCED_FACE('',(#425),#441,.T.);
#474=ADVANCED_FACE('',(#426),#442,.T.);
#475=ADVANCED_FACE('',(#427),#443,.T.);
#476=CLOSED_SHELL('',(#444,#445,#446,#447,#448,#449,#450,#451,#452,#453,
#454,#455,#456,#457,#458,#459,#460,#461,#462,#463,#464,#465,#466,#467,#468,
#469,#470,#471,#472,#473,#474,#475));
#477=STYLED_ITEM('',(#478),#485);
#478=PRESENTATION_STYLE_ASSIGNMENT((#479));
#479=SURFACE_STYLE_USAGE(.BOTH.,#480);
#480=SURFACE_SIDE_STYLE('',(#481));
#481=SURFACE_STYLE_FILL_AREA(#482);
#482=FILL_AREA_STYLE('',(#483));
#483=FILL_AREA_STYLE_COLOUR('',#484);
#484=COLOUR_RGB('',0.796078431372549,0.823529411764706,0.937254901960784);
#485=MANIFOLD_SOLID_BREP('Part 1',#476);
#486=SHAPE_DEFINITION_REPRESENTATION(#930,#487);
#487=SHAPE_REPRESENTATION('Part 1',(#488),#925);
#488=AXIS2_PLACEMENT_3D('',#683,#553,#554);
#489=AXIS2_PLACEMENT_3D('',#684,#555,#556);
#490=AXIS2_PLACEMENT_3D('',#685,#557,#558);
#491=AXIS2_PLACEMENT_3D('',#693,#559,#560);
#492=AXIS2_PLACEMENT_3D('',#699,#561,#562);
#493=AXIS2_PLACEMENT_3D('',#700,#563,#564);
#494=AXIS2_PLACEMENT_3D('',#708,#565,#566);
#495=AXIS2_PLACEMENT_3D('',#714,#567,#568);
#496=AXIS2_PLACEMENT_3D('',#715,#569,#570);
#497=AXIS2_PLACEMENT_3D('',#723,#571,#572);
#498=AXIS2_PLACEMENT_3D('',#729,#573,#574);
#499=AXIS2_PLACEMENT_3D('',#730,#575,#576);
#500=AXIS2_PLACEMENT_3D('',#738,#577,#578);
#501=AXIS2_PLACEMENT_3D('',#744,#579,#580);
#502=AXIS2_PLACEMENT_3D('',#745,#581,#582);
#503=AXIS2_PLACEMENT_3D('',#753,#583,#584);
#504=AXIS2_PLACEMENT_3D('',#759,#585,#586);
#505=AXIS2_PLACEMENT_3D('',#760,#587,#588);
#506=AXIS2_PLACEMENT_3D('',#768,#589,#590);
#507=AXIS2_PLACEMENT_3D('',#774,#591,#592);
#508=AXIS2_PLACEMENT_3D('',#775,#593,#594);
#509=AXIS2_PLACEMENT_3D('',#783,#595,#596);
#510=AXIS2_PLACEMENT_3D('',#789,#597,#598);
#511=AXIS2_PLACEMENT_3D('',#790,#599,#600);
#512=AXIS2_PLACEMENT_3D('',#798,#601,#602);
#513=AXIS2_PLACEMENT_3D('',#804,#603,#604);
#514=AXIS2_PLACEMENT_3D('',#813,#605,#606);
#515=AXIS2_PLACEMENT_3D('',#816,#607,#608);
#516=AXIS2_PLACEMENT_3D('',#817,#609,#610);
#517=AXIS2_PLACEMENT_3D('',#826,#611,#612);
#518=AXIS2_PLACEMENT_3D('',#829,#613,#614);
#519=AXIS2_PLACEMENT_3D('',#830,#615,#616);
#520=AXIS2_PLACEMENT_3D('',#839,#617,#618);
#521=AXIS2_PLACEMENT_3D('',#842,#619,#620);
#522=AXIS2_PLACEMENT_3D('',#843,#621,#622);
#523=AXIS2_PLACEMENT_3D('',#852,#623,#624);
#524=AXIS2_PLACEMENT_3D('',#855,#625,#626);
#525=AXIS2_PLACEMENT_3D('',#856,#627,#628);
#526=AXIS2_PLACEMENT_3D('',#865,#629,#630);
#527=AXIS2_PLACEMENT_3D('',#868,#631,#632);
#528=AXIS2_PLACEMENT_3D('',#869,#633,#634);
#529=AXIS2_PLACEMENT_3D('',#878,#635,#636);
#530=AXIS2_PLACEMENT_3D('',#881,#637,#638);
#531=AXIS2_PLACEMENT_3D('',#882,#639,#640);
#532=AXIS2_PLACEMENT_3D('',#891,#641,#642);
#533=AXIS2_PLACEMENT_3D('',#894,#643,#644);
#534=AXIS2_PLACEMENT_3D('',#895,#645,#646);
#535=AXIS2_PLACEMENT_3D('',#904,#647,#648);
#536=AXIS2_PLACEMENT_3D('',#907,#649,#650);
#537=AXIS2_PLACEMENT_3D('',#908,#651,#652);
#538=AXIS2_PLACEMENT_3D('',#909,#653,#654);
#539=AXIS2_PLACEMENT_3D('',#910,#655,#656);
#540=AXIS2_PLACEMENT_3D('',#911,#657,#658);
#541=AXIS2_PLACEMENT_3D('',#912,#659,#660);
#542=AXIS2_PLACEMENT_3D('',#913,#661,#662);
#543=AXIS2_PLACEMENT_3D('',#914,#663,#664);
#544=AXIS2_PLACEMENT_3D('',#915,#665,#666);
#545=AXIS2_PLACEMENT_3D('',#916,#667,#668);
#546=AXIS2_PLACEMENT_3D('',#917,#669,#670);
#547=AXIS2_PLACEMENT_3D('',#918,#671,#672);
#548=AXIS2_PLACEMENT_3D('',#919,#673,#674);
#549=AXIS2_PLACEMENT_3D('',#920,#675,#676);
#550=AXIS2_PLACEMENT_3D('',#921,#677,#678);
#551=AXIS2_PLACEMENT_3D('',#922,#679,#680);
#552=AXIS2_PLACEMENT_3D('',#923,#681,#682);
#553=DIRECTION('',(0.,0.,1.));
#554=DIRECTION('',(1.,0.,0.));
#555=DIRECTION('',(1.,0.,6.12303176911189E-17));
#556=DIRECTION('',(6.12303176911189E-17,0.,-1.));
#557=DIRECTION('',(1.,0.,6.12303176911189E-17));
#558=DIRECTION('',(6.12303176911189E-17,0.,-1.));
#559=DIRECTION('',(-1.,0.,-6.12303176911189E-17));
#560=DIRECTION('',(6.12303176911189E-17,0.,-1.));
#561=DIRECTION('',(1.,0.,6.12303176911189E-17));
#562=DIRECTION('',(6.12303176911189E-17,0.,-1.));
#563=DIRECTION('',(1.,0.,6.12303176911189E-17));
#564=DIRECTION('',(6.12303176911189E-17,0.,-1.));
#565=DIRECTION('',(-1.,0.,-6.12303176911189E-17));
#566=DIRECTION('',(6.12303176911189E-17,0.,-1.));
#567=DIRECTION('',(1.,0.,6.12303176911189E-17));
#568=DIRECTION('',(6.12303176911189E-17,0.,-1.));
#569=DIRECTION('',(1.,0.,6.12303176911189E-17));
#570=DIRECTION('',(6.12303176911189E-17,0.,-1.));
#571=DIRECTION('',(-1.,0.,-6.12303176911189E-17));
#572=DIRECTION('',(6.12303176911189E-17,0.,-1.));
#573=DIRECTION('',(1.,0.,6.12303176911189E-17));
#574=DIRECTION('',(6.12303176911189E-17,0.,-1.));
#575=DIRECTION('',(1.,0.,6.12303176911189E-17));
#576=DIRECTION('',(6.12303176911189E-17,0.,-1.));
#577=DIRECTION('',(-1.,0.,-6.12303176911189E-17));
#578=DIRECTION('',(6.12303176911189E-17,0.,-1.));
#579=DIRECTION('',(1.,0.,6.12303176911189E-17));
#580=DIRECTION('',(6.12303176911189E-17,0.,-1.));
#581=DIRECTION('',(1.,0.,6.12303176911189E-17));
#582=DIRECTION('',(6.12303176911189E-17,0.,-1.));
#583=DIRECTION('',(-1.,0.,-6.12303176911189E-17));
#584=DIRECTION('',(6.12303176911189E-17,0.,-1.));
#585=DIRECTION('',(1.,0.,6.12303176911189E-17));
#586=DIRECTION('',(6.12303176911189E-17,0.,-1.));
#587=DIRECTION('',(1.,0.,6.12303176911189E-17));
#588=DIRECTION('',(6.12303176911189E-17,0.,-1.));
#589=DIRECTION('',(-1.,0.,-6.12303176911189E-17));
#590=DIRECTION('',(6.12303176911189E-17,0.,-1.));
#591=DIRECTION('',(1.,0.,6.12303176911189E-17));
#592=DIRECTION('',(6.12303176911189E-17,0.,-1.));
#593=DIRECTION('',(1.,0.,6.12303176911189E-17));
#594=DIRECTION('',(6.12303176911189E-17,0.,-1.));
#595=DIRECTION('',(-1.,0.,-6.12303176911189E-17));
#596=DIRECTION('',(6.12303176911189E-17,0.,-1.));
#597=DIRECTION('',(1.,0.,6.12303176911189E-17));
#598=DIRECTION('',(6.12303176911189E-17,0.,-1.));
#599=DIRECTION('',(1.,0.,6.12303176911189E-17));
#600=DIRECTION('',(6.12303176911189E-17,0.,-1.));
#601=DIRECTION('',(-1.,0.,-6.12303176911189E-17));
#602=DIRECTION('',(6.12303176911189E-17,0.,-1.));
#603=DIRECTION('',(0.,0.,1.));
#604=DIRECTION('',(1.,0.,0.));
#605=DIRECTION('',(0.,-1.,0.));
#606=DIRECTION('',(0.,0.,1.));
#607=DIRECTION('',(0.,-1.,0.));
#608=DIRECTION('',(0.,0.,1.));
#609=DIRECTION('',(0.,-0.707106781186548,0.707106781186548));
#610=DIRECTION('',(1.,0.,0.));
#611=DIRECTION('',(0.,-0.707106781186548,-0.707106781186548));
#612=DIRECTION('',(0.,-0.707106781186548,0.707106781186548));
#613=DIRECTION('',(0.,-0.707106781186548,-0.707106781186548));
#614=DIRECTION('',(0.,-0.707106781186548,0.707106781186548));
#615=DIRECTION('',(0.,-1.,6.12303176911189E-17));
#616=DIRECTION('',(1.,0.,0.));
#617=DIRECTION('',(0.,-6.12303176911189E-17,-1.));
#618=DIRECTION('',(0.,-1.,6.12303176911189E-17));
#619=DIRECTION('',(0.,-6.12303176911189E-17,-1.));
#620=DIRECTION('',(0.,-1.,6.12303176911189E-17));
#621=DIRECTION('',(0.,-0.707106781186548,-0.707106781186548));
#622=DIRECTION('',(1.,0.,0.));
#623=DIRECTION('',(0.,0.707106781186548,-0.707106781186548));
#624=DIRECTION('',(0.,-0.707106781186548,-0.707106781186548));
#625=DIRECTION('',(0.,0.707106781186548,-0.707106781186548));
#626=DIRECTION('',(0.,-0.707106781186548,-0.707106781186548));
#627=DIRECTION('',(0.,-1.22460635382238E-16,-1.));
#628=DIRECTION('',(1.,0.,0.));
#629=DIRECTION('',(0.,1.,-1.22460635382238E-16));
#630=DIRECTION('',(0.,-1.22460635382238E-16,-1.));
#631=DIRECTION('',(0.,1.,-1.22460635382238E-16));
#632=DIRECTION('',(0.,-1.22460635382238E-16,-1.));
#633=DIRECTION('',(0.,0.707106781186547,-0.707106781186548));
#634=DIRECTION('',(1.,0.,0.));
#635=DIRECTION('',(0.,0.707106781186548,0.707106781186547));
#636=DIRECTION('',(0.,0.707106781186547,-0.707106781186548));
#637=DIRECTION('',(0.,0.707106781186548,0.707106781186547));
#638=DIRECTION('',(0.,0.707106781186547,-0.707106781186548));
#639=DIRECTION('',(0.,1.,-1.83690953073357E-16));
#640=DIRECTION('',(1.,0.,0.));
#641=DIRECTION('',(0.,1.83690953073357E-16,1.));
#642=DIRECTION('',(0.,1.,-1.83690953073357E-16));
#643=DIRECTION('',(0.,1.83690953073357E-16,1.));
#644=DIRECTION('',(0.,1.,-1.83690953073357E-16));
#645=DIRECTION('',(0.,0.707106781186548,0.707106781186547));
#646=DIRECTION('',(1.,0.,0.));
#647=DIRECTION('',(0.,-0.707106781186547,0.707106781186548));
#648=DIRECTION('',(0.,0.707106781186548,0.707106781186547));
#649=DIRECTION('',(0.,-0.707106781186547,0.707106781186548));
#650=DIRECTION('',(0.,0.707106781186548,0.707106781186547));
#651=DIRECTION('',(0.,0.707106781186548,0.707106781186547));
#652=DIRECTION('',(1.,0.,0.));
#653=DIRECTION('',(0.,1.,-1.83690953073357E-16));
#654=DIRECTION('',(1.,0.,0.));
#655=DIRECTION('',(0.,0.707106781186547,-0.707106781186548));
#656=DIRECTION('',(1.,0.,0.));
#657=DIRECTION('',(0.,-1.22460635382238E-16,-1.));
#658=DIRECTION('',(1.,0.,0.));
#659=DIRECTION('',(0.,-0.707106781186548,-0.707106781186548));
#660=DIRECTION('',(1.,0.,0.));
#661=DIRECTION('',(0.,-1.,6.12303176911189E-17));
#662=DIRECTION('',(1.,0.,0.));
#663=DIRECTION('',(0.,-0.707106781186548,0.707106781186548));
#664=DIRECTION('',(1.,0.,0.));
#665=DIRECTION('',(0.,0.,1.));
#666=DIRECTION('',(1.,0.,0.));
#667=DIRECTION('',(1.,0.,6.12303176911189E-17));
#668=DIRECTION('',(6.12303176911189E-17,0.,-1.));
#669=DIRECTION('',(1.,0.,6.12303176911189E-17));
#670=DIRECTION('',(6.12303176911189E-17,0.,-1.));
#671=DIRECTION('',(1.,0.,6.12303176911189E-17));
#672=DIRECTION('',(6.12303176911189E-17,0.,-1.));
#673=DIRECTION('',(1.,0.,6.12303176911189E-17));
#674=DIRECTION('',(6.12303176911189E-17,0.,-1.));
#675=DIRECTION('',(1.,0.,6.12303176911189E-17));
#676=DIRECTION('',(6.12303176911189E-17,0.,-1.));
#677=DIRECTION('',(1.,0.,6.12303176911189E-17));
#678=DIRECTION('',(6.12303176911189E-17,0.,-1.));
#679=DIRECTION('',(1.,0.,6.12303176911189E-17));
#680=DIRECTION('',(6.12303176911189E-17,0.,-1.));
#681=DIRECTION('',(1.,0.,6.12303176911189E-17));
#682=DIRECTION('',(6.12303176911189E-17,0.,-1.));
#683=CARTESIAN_POINT('',(0.,0.,0.));
#684=CARTESIAN_POINT('',(4.,0.,0.));
#685=CARTESIAN_POINT('',(4.,0.,-1.30047952196769E-32));
#686=CARTESIAN_POINT('',(4.,9.72654695,2.36524510980272));
#687=CARTESIAN_POINT('',(4.,8.55018816218416,5.20522644956451));
#688=CARTESIAN_POINT('',(4.,8.53435036102854,5.19277997947267));
#689=CARTESIAN_POINT('',(4.01103870174906,8.53435036102854,5.19277997947267));
#690=CARTESIAN_POINT('',(4.01112585032434,8.55018816218416,5.20522644956451));
#691=CARTESIAN_POINT('',(4.,8.55018816218416,5.20522644956451));
#692=CARTESIAN_POINT('',(4.,8.53435036102853,5.19277997947267));
#693=CARTESIAN_POINT('',(4.,0.,-1.30047952196769E-32));
#694=CARTESIAN_POINT('',(4.,9.70654695,2.36284707661027));
#695=CARTESIAN_POINT('',(4.,9.72654694999999,2.36524510980272));
#696=CARTESIAN_POINT('',(4.01112005971617,9.72654694999999,2.36524510980272));
#697=CARTESIAN_POINT('',(4.01104005918619,9.70654694999999,2.36284707661027));
#698=CARTESIAN_POINT('',(4.,9.70654694999999,2.36284707661027));
#699=CARTESIAN_POINT('',(4.,0.,0.));
#700=CARTESIAN_POINT('',(4.,0.,7.03971465090393E-33));
#701=CARTESIAN_POINT('',(4.,-2.36524510980272,9.72654695));
#702=CARTESIAN_POINT('',(4.,-5.20522644956451,8.55018816218416));
#703=CARTESIAN_POINT('',(4.,-5.19277997947267,8.53435036102854));
#704=CARTESIAN_POINT('',(4.01103870173795,-5.19277997947267,8.53435036102854));
#705=CARTESIAN_POINT('',(4.01112585031797,-5.20522644956451,8.55018816218416));
#706=CARTESIAN_POINT('',(4.,-5.20522644956451,8.55018816218416));
#707=CARTESIAN_POINT('',(4.,-5.19277997947267,8.53435036102853));
#708=CARTESIAN_POINT('',(4.,0.,7.03971465090393E-33));
#709=CARTESIAN_POINT('',(4.,-2.36284707661027,9.70654695));
#710=CARTESIAN_POINT('',(4.,-2.36524510980272,9.72654694999999));
#711=CARTESIAN_POINT('',(4.01112005913443,-2.36524510980272,9.72654694999999));
#712=CARTESIAN_POINT('',(4.01104449278468,-2.36284707661027,9.70654694999999));
#713=CARTESIAN_POINT('',(4.,-2.36284707661027,9.70654694999999));
#714=CARTESIAN_POINT('',(4.,0.,0.));
#715=CARTESIAN_POINT('',(4.,0.,-1.30047951434845E-32));
#716=CARTESIAN_POINT('',(4.,-8.55018816218416,5.20522644956451));
#717=CARTESIAN_POINT('',(4.,-9.72654695,2.36524510980272));
#718=CARTESIAN_POINT('',(4.,-9.70654694999999,2.36284707661027));
#719=CARTESIAN_POINT('',(4.01103870174616,-9.70654694999999,2.36284707661027));
#720=CARTESIAN_POINT('',(4.01112585032162,-9.72654694999999,2.36524510980272));
#721=CARTESIAN_POINT('',(4.,-9.72654694999999,2.36524510980272));
#722=CARTESIAN_POINT('',(4.,-9.70654695,2.36284707661027));
#723=CARTESIAN_POINT('',(4.,0.,-1.30047951434845E-32));
#724=CARTESIAN_POINT('',(4.,-8.53435036102853,5.19277997947267));
#725=CARTESIAN_POINT('',(4.,-8.55018816218416,5.20522644956451));
#726=CARTESIAN_POINT('',(4.0111200591491,-8.55018816218416,5.20522644956451));
#727=CARTESIAN_POINT('',(4.01104449278179,-8.53435036102854,5.19277997947267));
#728=CARTESIAN_POINT('',(4.,-8.53435036102854,5.19277997947267));
#729=CARTESIAN_POINT('',(4.,0.,0.));
#730=CARTESIAN_POINT('',(4.,0.,-1.41869282588328E-32));
#731=CARTESIAN_POINT('',(4.,-9.72654695,-2.36524510980272));
#732=CARTESIAN_POINT('',(4.,-8.55018816218416,-5.2052264495645));
#733=CARTESIAN_POINT('',(4.,-8.53435036102853,-5.19277997947266));
#734=CARTESIAN_POINT('',(4.01103870174121,-8.53435036102853,-5.19277997947266));
#735=CARTESIAN_POINT('',(4.01112585032162,-8.55018816218415,-5.20522644956449));
#736=CARTESIAN_POINT('',(4.,-8.55018816218415,-5.20522644956449));
#737=CARTESIAN_POINT('',(4.,-8.53435036102853,-5.19277997947267));
#738=CARTESIAN_POINT('',(4.,0.,-1.41869282588328E-32));
#739=CARTESIAN_POINT('',(4.,-9.70654695,-2.36284707661027));
#740=CARTESIAN_POINT('',(4.,-9.72654694999999,-2.36524510980272));
#741=CARTESIAN_POINT('',(4.01112005913712,-9.72654694999999,-2.36524510980272));
#742=CARTESIAN_POINT('',(4.01104449277527,-9.70654694999999,-2.36284707661027));
#743=CARTESIAN_POINT('',(4.,-9.70654694999999,-2.36284707661027));
#744=CARTESIAN_POINT('',(4.,0.,0.));
#745=CARTESIAN_POINT('',(4.,0.,2.01520087514134E-32));
#746=CARTESIAN_POINT('',(4.,-5.20522644956451,-8.55018816218416));
#747=CARTESIAN_POINT('',(4.,-2.36524510980272,-9.72654695));
#748=CARTESIAN_POINT('',(4.,-2.36284707661027,-9.70654694999999));
#749=CARTESIAN_POINT('',(4.01103870173673,-2.36284707661027,-9.70654694999999));
#750=CARTESIAN_POINT('',(4.01112585031427,-2.36524510980272,-9.72654694999999));
#751=CARTESIAN_POINT('',(4.,-2.36524510980272,-9.72654694999999));
#752=CARTESIAN_POINT('',(4.,-2.36284707661027,-9.70654695));
#753=CARTESIAN_POINT('',(4.,0.,2.01520087514134E-32));
#754=CARTESIAN_POINT('',(4.,-5.19277997947267,-8.53435036102853));
#755=CARTESIAN_POINT('',(4.,-5.20522644956452,-8.55018816218416));
#756=CARTESIAN_POINT('',(4.01112005914178,-5.20522644956452,-8.55018816218416));
#757=CARTESIAN_POINT('',(4.01104449279169,-5.19277997947267,-8.53435036102852));
#758=CARTESIAN_POINT('',(4.,-5.19277997947267,-8.53435036102852));
#759=CARTESIAN_POINT('',(4.,0.,0.));
#760=CARTESIAN_POINT('',(4.,0.,2.01520087514133E-32));
#761=CARTESIAN_POINT('',(4.,2.36524510980272,-9.72654695));
#762=CARTESIAN_POINT('',(4.,5.2052264495645,-8.55018816218416));
#763=CARTESIAN_POINT('',(4.,5.19277997947266,-8.53435036102853));
#764=CARTESIAN_POINT('',(4.01103870174411,5.19277997947266,-8.53435036102853));
#765=CARTESIAN_POINT('',(4.01112585032621,5.20522644956449,-8.55018816218415));
#766=CARTESIAN_POINT('',(4.,5.20522644956449,-8.55018816218415));
#767=CARTESIAN_POINT('',(4.,5.19277997947267,-8.53435036102853));
#768=CARTESIAN_POINT('',(4.,0.,2.01520087514133E-32));
#769=CARTESIAN_POINT('',(4.,2.36284707661027,-9.70654695));
#770=CARTESIAN_POINT('',(4.,2.36524510980272,-9.72654694999999));
#771=CARTESIAN_POINT('',(4.01112005915736,2.36524510980272,-9.72654694999999));
#772=CARTESIAN_POINT('',(4.01104449279373,2.36284707661027,-9.70654694999999));
#773=CARTESIAN_POINT('',(4.,2.36284707661027,-9.70654694999999));
#774=CARTESIAN_POINT('',(4.,0.,0.));
#775=CARTESIAN_POINT('',(4.,0.,-5.31145167431376E-34));
#776=CARTESIAN_POINT('',(4.,8.55018816218416,-5.20522644956451));
#777=CARTESIAN_POINT('',(4.,9.72654695,-2.36524510980272));
#778=CARTESIAN_POINT('',(4.,9.70654694999999,-2.36284707661027));
#779=CARTESIAN_POINT('',(4.01103424076949,9.70654694999999,-2.36284707661027));
#780=CARTESIAN_POINT('',(4.01112585090374,9.72654694999999,-2.36524510980272));
#781=CARTESIAN_POINT('',(4.,9.72654694999999,-2.36524510980272));
#782=CARTESIAN_POINT('',(4.,9.70654695,-2.36284707661027));
#783=CARTESIAN_POINT('',(4.,0.,-5.31145167431376E-34));
#784=CARTESIAN_POINT('',(4.,8.53435036102853,-5.19277997947267));
#785=CARTESIAN_POINT('',(4.,8.55018816218416,-5.20522644956452));
#786=CARTESIAN_POINT('',(4.01112005913995,8.55018816218416,-5.20522644956452));
#787=CARTESIAN_POINT('',(4.01104449279963,8.53435036102852,-5.19277997947267));
#788=CARTESIAN_POINT('',(4.,8.53435036102852,-5.19277997947267));
#789=CARTESIAN_POINT('',(4.,0.,0.));
#790=CARTESIAN_POINT('',(4.,0.,7.03971465090393E-33));
#791=CARTESIAN_POINT('',(4.,5.20522644956451,8.55018816218416));
#792=CARTESIAN_POINT('',(4.,2.36524510980272,9.72654695));
#793=CARTESIAN_POINT('',(4.,2.36284707661027,9.70654694999999));
#794=CARTESIAN_POINT('',(4.01103870174821,2.36284707661027,9.70654694999999));
#795=CARTESIAN_POINT('',(4.01112585032714,2.36524510980272,9.72654694999999));
#796=CARTESIAN_POINT('',(4.,2.36524510980272,9.72654694999999));
#797=CARTESIAN_POINT('',(4.,2.36284707661027,9.70654695));
#798=CARTESIAN_POINT('',(4.,0.,7.03971465090393E-33));
#799=CARTESIAN_POINT('',(4.,5.19277997947267,8.53435036102853));
#800=CARTESIAN_POINT('',(4.,5.20522644956451,8.55018816218416));
#801=CARTESIAN_POINT('',(4.01112005913169,5.20522644956451,8.55018816218416));
#802=CARTESIAN_POINT('',(4.01104449277443,5.19277997947267,8.53435036102854));
#803=CARTESIAN_POINT('',(4.,5.19277997947267,8.53435036102854));
#804=CARTESIAN_POINT('',(4.,10.,0.));
#805=CARTESIAN_POINT('',(4.,9.70654694999999,2.36284707661027));
#806=CARTESIAN_POINT('',(3.98896129826906,9.70654694999999,2.36284707661027));
#807=CARTESIAN_POINT('',(3.98887414967936,9.72654694999999,2.36524510980272));
#808=CARTESIAN_POINT('',(4.,9.72654694999999,2.36524510980272));
#809=CARTESIAN_POINT('',(4.,9.72654694999999,-2.36524510980272));
#810=CARTESIAN_POINT('',(3.98887994086468,9.72654694999999,-2.36524510980272));
#811=CARTESIAN_POINT('',(3.98895550721206,9.70654694999999,-2.36284707661027));
#812=CARTESIAN_POINT('',(4.,9.70654694999999,-2.36284707661027));
#813=CARTESIAN_POINT('',(4.,10.,0.));
#814=CARTESIAN_POINT('',(4.,10.,-2.381));
#815=CARTESIAN_POINT('',(4.,10.,2.381));
#816=CARTESIAN_POINT('',(4.,10.,0.));
#817=CARTESIAN_POINT('',(4.,7.07106781186547,7.07106781186547));
#818=CARTESIAN_POINT('',(4.,5.19277997947267,8.53435036102854));
#819=CARTESIAN_POINT('',(3.98896129826496,5.19277997947267,8.53435036102854));
#820=CARTESIAN_POINT('',(3.98887414967005,5.20522644956451,8.55018816218416));
#821=CARTESIAN_POINT('',(4.,5.20522644956451,8.55018816218416));
#822=CARTESIAN_POINT('',(4.,8.55018816218416,5.20522644956451));
#823=CARTESIAN_POINT('',(3.98887994086468,8.55018816218416,5.20522644956451));
#824=CARTESIAN_POINT('',(3.98895550721736,8.53435036102854,5.19277997947267));
#825=CARTESIAN_POINT('',(4.,8.53435036102854,5.19277997947267));
#826=CARTESIAN_POINT('',(4.,7.07106781186547,7.07106781186547));
#827=CARTESIAN_POINT('',(4.,8.75468905787064,5.38744656586031));
#828=CARTESIAN_POINT('',(4.,5.38744656586031,8.75468905787064));
#829=CARTESIAN_POINT('',(4.,7.07106781186547,7.07106781186547));
#830=CARTESIAN_POINT('',(4.,6.12303176911189E-16,10.));
#831=CARTESIAN_POINT('',(4.,-2.36284707661027,9.70654694999999));
#832=CARTESIAN_POINT('',(3.98896129824889,-2.36284707661027,9.70654694999999));
#833=CARTESIAN_POINT('',(3.98887414967014,-2.36524510980272,9.72654694999999));
#834=CARTESIAN_POINT('',(4.,-2.36524510980272,9.72654694999999));
#835=CARTESIAN_POINT('',(4.,2.36524510980272,9.72654694999999));
#836=CARTESIAN_POINT('',(3.98887994085453,2.36524510980272,9.72654694999999));
#837=CARTESIAN_POINT('',(3.98895550721206,2.36284707661027,9.70654694999999));
#838=CARTESIAN_POINT('',(4.,2.36284707661027,9.70654694999999));
#839=CARTESIAN_POINT('',(4.,6.12303176911189E-16,10.));
#840=CARTESIAN_POINT('',(4.,2.381,10.));
#841=CARTESIAN_POINT('',(4.,-2.381,10.));
#842=CARTESIAN_POINT('',(4.,6.12303176911189E-16,10.));
#843=CARTESIAN_POINT('',(4.,-7.07106781186547,7.07106781186547));
#844=CARTESIAN_POINT('',(4.,-8.53435036102854,5.19277997947267));
#845=CARTESIAN_POINT('',(3.98896129826496,-8.53435036102854,5.19277997947267));
#846=CARTESIAN_POINT('',(3.98887414967005,-8.55018816218416,5.20522644956451));
#847=CARTESIAN_POINT('',(4.,-8.55018816218416,5.20522644956451));
#848=CARTESIAN_POINT('',(4.,-5.20522644956451,8.55018816218416));
#849=CARTESIAN_POINT('',(3.98887994085543,-5.20522644956451,8.55018816218416));
#850=CARTESIAN_POINT('',(3.98895550722556,-5.19277997947267,8.53435036102854));
#851=CARTESIAN_POINT('',(4.,-5.19277997947267,8.53435036102854));
#852=CARTESIAN_POINT('',(4.,-7.07106781186547,7.07106781186547));
#853=CARTESIAN_POINT('',(4.,-5.38744656586031,8.75468905787064));
#854=CARTESIAN_POINT('',(4.,-8.75468905787064,5.38744656586031));
#855=CARTESIAN_POINT('',(4.,-7.07106781186547,7.07106781186547));
#856=CARTESIAN_POINT('',(4.,-10.,1.22460635382238E-15));
#857=CARTESIAN_POINT('',(4.,-9.70654694999999,-2.36284707661027));
#858=CARTESIAN_POINT('',(3.98896129825614,-9.70654694999999,-2.36284707661027));
#859=CARTESIAN_POINT('',(3.98887414968201,-9.72654694999999,-2.36524510980272));
#860=CARTESIAN_POINT('',(4.,-9.72654694999999,-2.36524510980272));
#861=CARTESIAN_POINT('',(4.,-9.72654694999999,2.36524510980272));
#862=CARTESIAN_POINT('',(3.98887994085825,-9.72654694999999,2.36524510980272));
#863=CARTESIAN_POINT('',(3.98895550722546,-9.70654694999999,2.36284707661027));
#864=CARTESIAN_POINT('',(4.,-9.70654694999999,2.36284707661027));
#865=CARTESIAN_POINT('',(4.,-10.,1.22460635382238E-15));
#866=CARTESIAN_POINT('',(4.,-10.,2.381));
#867=CARTESIAN_POINT('',(4.,-10.,-2.381));
#868=CARTESIAN_POINT('',(4.,-10.,1.22460635382238E-15));
#869=CARTESIAN_POINT('',(4.,-7.07106781186548,-7.07106781186547));
#870=CARTESIAN_POINT('',(4.,-5.19277997947267,-8.53435036102852));
#871=CARTESIAN_POINT('',(3.98896129826205,-5.19277997947267,-8.53435036102852));
#872=CARTESIAN_POINT('',(3.9888741496692,-5.20522644956452,-8.55018816218416));
#873=CARTESIAN_POINT('',(4.,-5.20522644956452,-8.55018816218416));
#874=CARTESIAN_POINT('',(4.,-8.55018816218415,-5.20522644956449));
#875=CARTESIAN_POINT('',(3.98887994085276,-8.55018816218415,-5.20522644956449));
#876=CARTESIAN_POINT('',(3.98895550722231,-8.53435036102853,-5.19277997947266));
#877=CARTESIAN_POINT('',(4.,-8.53435036102853,-5.19277997947266));
#878=CARTESIAN_POINT('',(4.,-7.07106781186548,-7.07106781186547));
#879=CARTESIAN_POINT('',(4.,-8.75468905787065,-5.38744656586031));
#880=CARTESIAN_POINT('',(4.,-5.38744656586031,-8.75468905787064));
#881=CARTESIAN_POINT('',(4.,-7.07106781186548,-7.07106781186547));
#882=CARTESIAN_POINT('',(4.,-1.83690953073357E-15,-10.));
#883=CARTESIAN_POINT('',(4.,2.36284707661027,-9.70654694999999));
#884=CARTESIAN_POINT('',(3.9889612982466,2.36284707661027,-9.70654694999999));
#885=CARTESIAN_POINT('',(3.98887414966734,2.36524510980272,-9.72654694999999));
#886=CARTESIAN_POINT('',(4.,2.36524510980272,-9.72654694999999));
#887=CARTESIAN_POINT('',(4.,-2.36524510980272,-9.72654694999999));
#888=CARTESIAN_POINT('',(3.98887994086005,-2.36524510980272,-9.72654694999999));
#889=CARTESIAN_POINT('',(3.98895550721435,-2.36284707661027,-9.70654694999999));
#890=CARTESIAN_POINT('',(4.,-2.36284707661027,-9.70654694999999));
#891=CARTESIAN_POINT('',(4.,-1.83690953073357E-15,-10.));
#892=CARTESIAN_POINT('',(4.,-2.381,-10.));
#893=CARTESIAN_POINT('',(4.,2.381,-10.));
#894=CARTESIAN_POINT('',(4.,-1.83690953073357E-15,-10.));
#895=CARTESIAN_POINT('',(4.,7.07106781186547,-7.07106781186548));
#896=CARTESIAN_POINT('',(4.,8.53435036102852,-5.19277997947267));
#897=CARTESIAN_POINT('',(3.98896129825507,8.53435036102852,-5.19277997947267));
#898=CARTESIAN_POINT('',(3.98887414966915,8.55018816218416,-5.20522644956452));
#899=CARTESIAN_POINT('',(4.,8.55018816218416,-5.20522644956452));
#900=CARTESIAN_POINT('',(4.,5.20522644956449,-8.55018816218415));
#901=CARTESIAN_POINT('',(3.98887994085819,5.20522644956449,-8.55018816218415));
#902=CARTESIAN_POINT('',(3.98895550722317,5.19277997947266,-8.53435036102853));
#903=CARTESIAN_POINT('',(4.,5.19277997947266,-8.53435036102853));
#904=CARTESIAN_POINT('',(4.,7.07106781186547,-7.07106781186548));
#905=CARTESIAN_POINT('',(4.,5.3874465658603,-8.75468905787065));
#906=CARTESIAN_POINT('',(4.,8.75468905787064,-5.38744656586031));
#907=CARTESIAN_POINT('',(4.,7.07106781186547,-7.07106781186548));
#908=CARTESIAN_POINT('',(4.,7.07106781186547,-7.07106781186548));
#909=CARTESIAN_POINT('',(4.,-1.83690953073357E-15,-10.));
#910=CARTESIAN_POINT('',(4.,-7.07106781186548,-7.07106781186547));
#911=CARTESIAN_POINT('',(4.,-10.,1.22460635382238E-15));
#912=CARTESIAN_POINT('',(4.,-7.07106781186547,7.07106781186547));
#913=CARTESIAN_POINT('',(4.,6.12303176911189E-16,10.));
#914=CARTESIAN_POINT('',(4.,7.07106781186547,7.07106781186547));
#915=CARTESIAN_POINT('',(4.,10.,0.));
#916=CARTESIAN_POINT('',(4.,0.,0.));
#917=CARTESIAN_POINT('',(4.,0.,0.));
#918=CARTESIAN_POINT('',(4.,0.,0.));
#919=CARTESIAN_POINT('',(4.,0.,0.));
#920=CARTESIAN_POINT('',(4.,0.,0.));
#921=CARTESIAN_POINT('',(4.,0.,0.));
#922=CARTESIAN_POINT('',(4.,0.,0.));
#923=CARTESIAN_POINT('',(4.,0.,0.));
#924=MECHANICAL_DESIGN_GEOMETRIC_PRESENTATION_REPRESENTATION('',(#477),
#925);
#925=(
GEOMETRIC_REPRESENTATION_CONTEXT(3)
GLOBAL_UNCERTAINTY_ASSIGNED_CONTEXT((#926))
GLOBAL_UNIT_ASSIGNED_CONTEXT((#929,#928,#927))
REPRESENTATION_CONTEXT('Part 1','TOP_LEVEL_ASSEMBLY_PART')
);
#926=UNCERTAINTY_MEASURE_WITH_UNIT(LENGTH_MEASURE(1.E-5),#929,
'DISTANCE_ACCURACY_VALUE','Maximum Tolerance applied to model');
#927=(
NAMED_UNIT(*)
SI_UNIT($,.STERADIAN.)
SOLID_ANGLE_UNIT()
);
#928=(
NAMED_UNIT(*)
PLANE_ANGLE_UNIT()
SI_UNIT($,.RADIAN.)
);
#929=(
LENGTH_UNIT()
NAMED_UNIT(*)
SI_UNIT(.MILLI.,.METRE.)
);
#930=PRODUCT_DEFINITION_SHAPE('','',#931);
#931=PRODUCT_DEFINITION('','',#933,#932);
#932=PRODUCT_DEFINITION_CONTEXT('',#939,'design');
#933=PRODUCT_DEFINITION_FORMATION_WITH_SPECIFIED_SOURCE('','',#935,
 .NOT_KNOWN.);
#934=PRODUCT_RELATED_PRODUCT_CATEGORY('','',(#935));
#935=PRODUCT('Part 1','Part 1','Part 1',(#937));
#936=PRODUCT_CATEGORY('','');
#937=PRODUCT_CONTEXT('',#939,'mechanical');
#938=APPLICATION_PROTOCOL_DEFINITION('international standard',
'ap242_managed_model_based_3d_engineering',2020,#939);
#939=APPLICATION_CONTEXT('managed model based 3d engineering');
ENDSEC;
END-ISO-10303-21;
