ISO-10303-21;
HEADER;
/* Generated by software containing ST-Developer
 * from STEP Tools, Inc. (www.steptools.com) 
 */
/* OPTION: using custom renumber hook */

FILE_DESCRIPTION(
/* description */ ('STEP AP242 Edition 2',
'CAx-IF Rec.Pracs.---Representation and Presentation of Product Manufa
cturing Information (PMI)---4.0---2014-10-13',
'CAx-IF Rec.Pracs.---3D Tessellated Geometry---0.4---2014-09-14','2;1',
'CAx-IF Rec.Pracs.---User Defined Attributes---1.5---2016-08-15'),
/* implementation_level */ '2;1');

FILE_NAME(
/* name */ '6001-2z_04',
/* time_stamp */ '2026-06-03T07:09:06Z',
/* author */ (''),
/* organization */ (''),
/* preprocessor_version */ 'ST-DEVELOPER v20',
/* originating_system */ 'ONSHAPE BY PTC INC, 1.215',
/* authorisation */ '  ');

FILE_SCHEMA (('AP242_MANAGED_MODEL_BASED_3D_ENGINEERING_MIM_LF { 1 0 10303 442 3 1 4 }'));
ENDSEC;

DATA;
#10=SHAPE_REPRESENTATION_RELATIONSHIP('','',#299,#11);
#11=ADVANCED_BREP_SHAPE_REPRESENTATION('',(#297),#529);
#12=CYLINDRICAL_SURFACE('',#312,8.883);
#13=CYLINDRICAL_SURFACE('',#318,8.655);
#14=CYLINDRICAL_SURFACE('',#332,12.664);
#15=CYLINDRICAL_SURFACE('',#338,12.664);
#16=CYLINDRICAL_SURFACE('',#341,8.655);
#17=CYLINDRICAL_SURFACE('',#342,8.883);
#18=LINE('',#457,#32);
#19=LINE('',#461,#33);
#20=LINE('',#469,#34);
#21=LINE('',#471,#35);
#22=LINE('',#481,#36);
#23=LINE('',#485,#37);
#24=LINE('',#493,#38);
#25=LINE('',#495,#39);
#26=LINE('',#505,#40);
#27=LINE('',#509,#41);
#28=LINE('',#511,#42);
#29=LINE('',#514,#43);
#30=LINE('',#518,#44);
#31=LINE('',#519,#45);
#32=VECTOR('',#358,1000.);
#33=VECTOR('',#361,1000.);
#34=VECTOR('',#372,1000.);
#35=VECTOR('',#373,1000.);
#36=VECTOR('',#386,1000.);
#37=VECTOR('',#389,1000.);
#38=VECTOR('',#400,1000.);
#39=VECTOR('',#401,1000.);
#40=VECTOR('',#414,1000.);
#41=VECTOR('',#417,1000.);
#42=VECTOR('',#420,1000.);
#43=VECTOR('',#423,1000.);
#44=VECTOR('',#428,1000.);
#45=VECTOR('',#429,1000.);
#46=CONICAL_SURFACE('',#306,11.124,0.785398163397447);
#47=CONICAL_SURFACE('',#324,11.2184406922211,0.78539816339745);
#48=CONICAL_SURFACE('',#330,12.122026292358,1.39626340159546);
#49=CONICAL_SURFACE('',#335,12.132,1.39626340159546);
#50=CONICAL_SURFACE('',#336,12.132,1.39626340159546);
#51=CONICAL_SURFACE('',#339,12.122026292358,1.39626340159546);
#52=CONICAL_SURFACE('',#340,11.2184406922211,0.78539816339745);
#53=CONICAL_SURFACE('',#343,11.124,0.785398163397447);
#54=ORIENTED_EDGE('',*,*,#130,.T.);
#55=ORIENTED_EDGE('',*,*,#131,.T.);
#56=ORIENTED_EDGE('',*,*,#132,.F.);
#57=ORIENTED_EDGE('',*,*,#133,.F.);
#58=ORIENTED_EDGE('',*,*,#134,.T.);
#59=ORIENTED_EDGE('',*,*,#135,.T.);
#60=ORIENTED_EDGE('',*,*,#136,.T.);
#61=ORIENTED_EDGE('',*,*,#130,.F.);
#62=ORIENTED_EDGE('',*,*,#137,.T.);
#63=ORIENTED_EDGE('',*,*,#138,.T.);
#64=ORIENTED_EDGE('',*,*,#135,.F.);
#65=ORIENTED_EDGE('',*,*,#139,.F.);
#66=ORIENTED_EDGE('',*,*,#140,.T.);
#67=ORIENTED_EDGE('',*,*,#138,.F.);
#68=ORIENTED_EDGE('',*,*,#141,.T.);
#69=ORIENTED_EDGE('',*,*,#142,.T.);
#70=ORIENTED_EDGE('',*,*,#143,.T.);
#71=ORIENTED_EDGE('',*,*,#144,.T.);
#72=ORIENTED_EDGE('',*,*,#145,.F.);
#73=ORIENTED_EDGE('',*,*,#142,.F.);
#74=ORIENTED_EDGE('',*,*,#146,.T.);
#75=ORIENTED_EDGE('',*,*,#147,.T.);
#76=ORIENTED_EDGE('',*,*,#148,.T.);
#77=ORIENTED_EDGE('',*,*,#143,.F.);
#78=ORIENTED_EDGE('',*,*,#147,.F.);
#79=ORIENTED_EDGE('',*,*,#149,.F.);
#80=ORIENTED_EDGE('',*,*,#150,.T.);
#81=ORIENTED_EDGE('',*,*,#151,.T.);
#82=ORIENTED_EDGE('',*,*,#152,.T.);
#83=ORIENTED_EDGE('',*,*,#151,.F.);
#84=ORIENTED_EDGE('',*,*,#153,.T.);
#85=ORIENTED_EDGE('',*,*,#154,.T.);
#86=ORIENTED_EDGE('',*,*,#155,.F.);
#87=ORIENTED_EDGE('',*,*,#154,.F.);
#88=ORIENTED_EDGE('',*,*,#156,.T.);
#89=ORIENTED_EDGE('',*,*,#157,.T.);
#90=ORIENTED_EDGE('',*,*,#158,.T.);
#91=ORIENTED_EDGE('',*,*,#159,.T.);
#92=ORIENTED_EDGE('',*,*,#160,.T.);
#93=ORIENTED_EDGE('',*,*,#156,.F.);
#94=ORIENTED_EDGE('',*,*,#161,.T.);
#95=ORIENTED_EDGE('',*,*,#162,.F.);
#96=ORIENTED_EDGE('',*,*,#163,.T.);
#97=ORIENTED_EDGE('',*,*,#164,.T.);
#98=ORIENTED_EDGE('',*,*,#165,.T.);
#99=ORIENTED_EDGE('',*,*,#164,.F.);
#100=ORIENTED_EDGE('',*,*,#166,.T.);
#101=ORIENTED_EDGE('',*,*,#133,.T.);
#102=ORIENTED_EDGE('',*,*,#165,.F.);
#103=ORIENTED_EDGE('',*,*,#132,.T.);
#104=ORIENTED_EDGE('',*,*,#166,.F.);
#105=ORIENTED_EDGE('',*,*,#167,.F.);
#106=ORIENTED_EDGE('',*,*,#161,.F.);
#107=ORIENTED_EDGE('',*,*,#167,.T.);
#108=ORIENTED_EDGE('',*,*,#163,.F.);
#109=ORIENTED_EDGE('',*,*,#159,.F.);
#110=ORIENTED_EDGE('',*,*,#158,.F.);
#111=ORIENTED_EDGE('',*,*,#157,.F.);
#112=ORIENTED_EDGE('',*,*,#160,.F.);
#113=ORIENTED_EDGE('',*,*,#162,.T.);
#114=ORIENTED_EDGE('',*,*,#152,.F.);
#115=ORIENTED_EDGE('',*,*,#155,.T.);
#116=ORIENTED_EDGE('',*,*,#153,.F.);
#117=ORIENTED_EDGE('',*,*,#150,.F.);
#118=ORIENTED_EDGE('',*,*,#146,.F.);
#119=ORIENTED_EDGE('',*,*,#144,.F.);
#120=ORIENTED_EDGE('',*,*,#148,.F.);
#121=ORIENTED_EDGE('',*,*,#149,.T.);
#122=ORIENTED_EDGE('',*,*,#140,.F.);
#123=ORIENTED_EDGE('',*,*,#145,.T.);
#124=ORIENTED_EDGE('',*,*,#141,.F.);
#125=ORIENTED_EDGE('',*,*,#137,.F.);
#126=ORIENTED_EDGE('',*,*,#134,.F.);
#127=ORIENTED_EDGE('',*,*,#131,.F.);
#128=ORIENTED_EDGE('',*,*,#136,.F.);
#129=ORIENTED_EDGE('',*,*,#139,.T.);
#130=EDGE_CURVE('',#168,#169,#192,.T.);
#131=EDGE_CURVE('',#169,#168,#193,.T.);
#132=EDGE_CURVE('',#170,#171,#194,.T.);
#133=EDGE_CURVE('',#171,#170,#195,.T.);
#134=EDGE_CURVE('',#168,#172,#18,.T.);
#135=EDGE_CURVE('',#172,#173,#196,.T.);
#136=EDGE_CURVE('',#173,#169,#19,.T.);
#137=EDGE_CURVE('',#174,#175,#197,.T.);
#138=EDGE_CURVE('',#175,#174,#198,.T.);
#139=EDGE_CURVE('',#173,#172,#199,.T.);
#140=EDGE_CURVE('',#176,#174,#20,.T.);
#141=EDGE_CURVE('',#175,#177,#21,.T.);
#142=EDGE_CURVE('',#177,#176,#200,.T.);
#143=EDGE_CURVE('',#178,#179,#201,.T.);
#144=EDGE_CURVE('',#179,#178,#202,.T.);
#145=EDGE_CURVE('',#176,#177,#203,.T.);
#146=EDGE_CURVE('',#178,#180,#22,.T.);
#147=EDGE_CURVE('',#180,#181,#204,.T.);
#148=EDGE_CURVE('',#181,#179,#23,.T.);
#149=EDGE_CURVE('',#181,#180,#205,.T.);
#150=EDGE_CURVE('',#182,#183,#206,.T.);
#151=EDGE_CURVE('',#183,#182,#207,.T.);
#152=EDGE_CURVE('',#184,#182,#24,.T.);
#153=EDGE_CURVE('',#183,#185,#25,.T.);
#154=EDGE_CURVE('',#185,#184,#208,.T.);
#155=EDGE_CURVE('',#184,#185,#209,.T.);
#156=EDGE_CURVE('',#186,#187,#210,.T.);
#157=EDGE_CURVE('',#187,#186,#211,.T.);
#158=EDGE_CURVE('',#186,#188,#26,.T.);
#159=EDGE_CURVE('',#188,#189,#212,.T.);
#160=EDGE_CURVE('',#189,#187,#27,.T.);
#161=EDGE_CURVE('',#190,#188,#28,.T.);
#162=EDGE_CURVE('',#189,#188,#213,.T.);
#163=EDGE_CURVE('',#189,#191,#29,.T.);
#164=EDGE_CURVE('',#191,#190,#214,.T.);
#165=EDGE_CURVE('',#170,#190,#30,.T.);
#166=EDGE_CURVE('',#191,#171,#31,.T.);
#167=EDGE_CURVE('',#190,#191,#215,.T.);
#168=VERTEX_POINT('',#449);
#169=VERTEX_POINT('',#450);
#170=VERTEX_POINT('',#453);
#171=VERTEX_POINT('',#454);
#172=VERTEX_POINT('',#458);
#173=VERTEX_POINT('',#460);
#174=VERTEX_POINT('',#464);
#175=VERTEX_POINT('',#465);
#176=VERTEX_POINT('',#470);
#177=VERTEX_POINT('',#472);
#178=VERTEX_POINT('',#476);
#179=VERTEX_POINT('',#477);
#180=VERTEX_POINT('',#482);
#181=VERTEX_POINT('',#484);
#182=VERTEX_POINT('',#489);
#183=VERTEX_POINT('',#490);
#184=VERTEX_POINT('',#494);
#185=VERTEX_POINT('',#496);
#186=VERTEX_POINT('',#501);
#187=VERTEX_POINT('',#502);
#188=VERTEX_POINT('',#506);
#189=VERTEX_POINT('',#508);
#190=VERTEX_POINT('',#512);
#191=VERTEX_POINT('',#515);
#192=CIRCLE('',#302,11.352);
#193=CIRCLE('',#303,11.352);
#194=CIRCLE('',#304,11.6);
#195=CIRCLE('',#305,11.6);
#196=CIRCLE('',#307,10.896);
#197=CIRCLE('',#309,8.883);
#198=CIRCLE('',#310,8.883);
#199=CIRCLE('',#311,10.896);
#200=CIRCLE('',#313,8.883);
#201=CIRCLE('',#315,8.655);
#202=CIRCLE('',#316,8.655);
#203=CIRCLE('',#317,8.883);
#204=CIRCLE('',#319,8.655);
#205=CIRCLE('',#321,8.655);
#206=CIRCLE('',#322,10.9904406922211);
#207=CIRCLE('',#323,10.9904406922211);
#208=CIRCLE('',#325,11.4464406922211);
#209=CIRCLE('',#327,11.4464406922211);
#210=CIRCLE('',#328,11.5800525847161);
#211=CIRCLE('',#329,11.5800525847161);
#212=CIRCLE('',#331,12.664);
#213=CIRCLE('',#333,12.664);
#214=CIRCLE('',#334,12.664);
#215=CIRCLE('',#337,12.664);
#216=EDGE_LOOP('',(#54,#55));
#217=EDGE_LOOP('',(#56,#57));
#218=EDGE_LOOP('',(#58,#59,#60,#61));
#219=EDGE_LOOP('',(#62,#63));
#220=EDGE_LOOP('',(#64,#65));
#221=EDGE_LOOP('',(#66,#67,#68,#69));
#222=EDGE_LOOP('',(#70,#71));
#223=EDGE_LOOP('',(#72,#73));
#224=EDGE_LOOP('',(#74,#75,#76,#77));
#225=EDGE_LOOP('',(#78,#79));
#226=EDGE_LOOP('',(#80,#81));
#227=EDGE_LOOP('',(#82,#83,#84,#85));
#228=EDGE_LOOP('',(#86,#87));
#229=EDGE_LOOP('',(#88,#89));
#230=EDGE_LOOP('',(#90,#91,#92,#93));
#231=EDGE_LOOP('',(#94,#95,#96,#97));
#232=EDGE_LOOP('',(#98,#99,#100,#101));
#233=EDGE_LOOP('',(#102,#103,#104,#105));
#234=EDGE_LOOP('',(#106,#107,#108,#109));
#235=EDGE_LOOP('',(#110,#111,#112,#113));
#236=EDGE_LOOP('',(#114,#115,#116,#117));
#237=EDGE_LOOP('',(#118,#119,#120,#121));
#238=EDGE_LOOP('',(#122,#123,#124,#125));
#239=EDGE_LOOP('',(#126,#127,#128,#129));
#240=FACE_BOUND('',#216,.T.);
#241=FACE_BOUND('',#217,.T.);
#242=FACE_BOUND('',#218,.T.);
#243=FACE_BOUND('',#219,.T.);
#244=FACE_BOUND('',#220,.T.);
#245=FACE_BOUND('',#221,.T.);
#246=FACE_BOUND('',#222,.T.);
#247=FACE_BOUND('',#223,.T.);
#248=FACE_BOUND('',#224,.T.);
#249=FACE_BOUND('',#225,.T.);
#250=FACE_BOUND('',#226,.T.);
#251=FACE_BOUND('',#227,.T.);
#252=FACE_BOUND('',#228,.T.);
#253=FACE_BOUND('',#229,.T.);
#254=FACE_BOUND('',#230,.T.);
#255=FACE_BOUND('',#231,.T.);
#256=FACE_BOUND('',#232,.T.);
#257=FACE_BOUND('',#233,.T.);
#258=FACE_BOUND('',#234,.T.);
#259=FACE_BOUND('',#235,.T.);
#260=FACE_BOUND('',#236,.T.);
#261=FACE_BOUND('',#237,.T.);
#262=FACE_BOUND('',#238,.T.);
#263=FACE_BOUND('',#239,.T.);
#264=PLANE('',#301);
#265=PLANE('',#308);
#266=PLANE('',#314);
#267=PLANE('',#320);
#268=PLANE('',#326);
#269=ADVANCED_FACE('',(#240,#241),#264,.T.);
#270=ADVANCED_FACE('',(#242),#46,.F.);
#271=ADVANCED_FACE('',(#243,#244),#265,.T.);
#272=ADVANCED_FACE('',(#245),#12,.T.);
#273=ADVANCED_FACE('',(#246,#247),#266,.T.);
#274=ADVANCED_FACE('',(#248),#13,.F.);
#275=ADVANCED_FACE('',(#249,#250),#267,.T.);
#276=ADVANCED_FACE('',(#251),#47,.T.);
#277=ADVANCED_FACE('',(#252,#253),#268,.T.);
#278=ADVANCED_FACE('',(#254),#48,.F.);
#279=ADVANCED_FACE('',(#255),#14,.T.);
#280=ADVANCED_FACE('',(#256),#49,.T.);
#281=ADVANCED_FACE('',(#257),#50,.T.);
#282=ADVANCED_FACE('',(#258),#15,.T.);
#283=ADVANCED_FACE('',(#259),#51,.F.);
#284=ADVANCED_FACE('',(#260),#52,.T.);
#285=ADVANCED_FACE('',(#261),#16,.F.);
#286=ADVANCED_FACE('',(#262),#17,.T.);
#287=ADVANCED_FACE('',(#263),#53,.F.);
#288=CLOSED_SHELL('',(#269,#270,#271,#272,#273,#274,#275,#276,#277,#278,
#279,#280,#281,#282,#283,#284,#285,#286,#287));
#289=STYLED_ITEM('',(#290),#297);
#290=PRESENTATION_STYLE_ASSIGNMENT((#291));
#291=SURFACE_STYLE_USAGE(.BOTH.,#292);
#292=SURFACE_SIDE_STYLE('',(#293));
#293=SURFACE_STYLE_FILL_AREA(#294);
#294=FILL_AREA_STYLE('',(#295));
#295=FILL_AREA_STYLE_COLOUR('',#296);
#296=COLOUR_RGB('',0.796078431372549,0.823529411764706,0.937254901960784);
#297=MANIFOLD_SOLID_BREP('Part 1',#288);
#298=SHAPE_DEFINITION_REPRESENTATION(#534,#299);
#299=SHAPE_REPRESENTATION('Part 1',(#300),#529);
#300=AXIS2_PLACEMENT_3D('',#446,#344,#345);
#301=AXIS2_PLACEMENT_3D('',#447,#346,#347);
#302=AXIS2_PLACEMENT_3D('',#448,#348,#349);
#303=AXIS2_PLACEMENT_3D('',#451,#350,#351);
#304=AXIS2_PLACEMENT_3D('',#452,#352,#353);
#305=AXIS2_PLACEMENT_3D('',#455,#354,#355);
#306=AXIS2_PLACEMENT_3D('',#456,#356,#357);
#307=AXIS2_PLACEMENT_3D('',#459,#359,#360);
#308=AXIS2_PLACEMENT_3D('',#462,#362,#363);
#309=AXIS2_PLACEMENT_3D('',#463,#364,#365);
#310=AXIS2_PLACEMENT_3D('',#466,#366,#367);
#311=AXIS2_PLACEMENT_3D('',#467,#368,#369);
#312=AXIS2_PLACEMENT_3D('',#468,#370,#371);
#313=AXIS2_PLACEMENT_3D('',#473,#374,#375);
#314=AXIS2_PLACEMENT_3D('',#474,#376,#377);
#315=AXIS2_PLACEMENT_3D('',#475,#378,#379);
#316=AXIS2_PLACEMENT_3D('',#478,#380,#381);
#317=AXIS2_PLACEMENT_3D('',#479,#382,#383);
#318=AXIS2_PLACEMENT_3D('',#480,#384,#385);
#319=AXIS2_PLACEMENT_3D('',#483,#387,#388);
#320=AXIS2_PLACEMENT_3D('',#486,#390,#391);
#321=AXIS2_PLACEMENT_3D('',#487,#392,#393);
#322=AXIS2_PLACEMENT_3D('',#488,#394,#395);
#323=AXIS2_PLACEMENT_3D('',#491,#396,#397);
#324=AXIS2_PLACEMENT_3D('',#492,#398,#399);
#325=AXIS2_PLACEMENT_3D('',#497,#402,#403);
#326=AXIS2_PLACEMENT_3D('',#498,#404,#405);
#327=AXIS2_PLACEMENT_3D('',#499,#406,#407);
#328=AXIS2_PLACEMENT_3D('',#500,#408,#409);
#329=AXIS2_PLACEMENT_3D('',#503,#410,#411);
#330=AXIS2_PLACEMENT_3D('',#504,#412,#413);
#331=AXIS2_PLACEMENT_3D('',#507,#415,#416);
#332=AXIS2_PLACEMENT_3D('',#510,#418,#419);
#333=AXIS2_PLACEMENT_3D('',#513,#421,#422);
#334=AXIS2_PLACEMENT_3D('',#516,#424,#425);
#335=AXIS2_PLACEMENT_3D('',#517,#426,#427);
#336=AXIS2_PLACEMENT_3D('',#520,#430,#431);
#337=AXIS2_PLACEMENT_3D('',#521,#432,#433);
#338=AXIS2_PLACEMENT_3D('',#522,#434,#435);
#339=AXIS2_PLACEMENT_3D('',#523,#436,#437);
#340=AXIS2_PLACEMENT_3D('',#524,#438,#439);
#341=AXIS2_PLACEMENT_3D('',#525,#440,#441);
#342=AXIS2_PLACEMENT_3D('',#526,#442,#443);
#343=AXIS2_PLACEMENT_3D('',#527,#444,#445);
#344=DIRECTION('',(0.,0.,1.));
#345=DIRECTION('',(1.,0.,0.));
#346=DIRECTION('',(1.,-6.1230317691119E-17,1.22460635382238E-16));
#347=DIRECTION('',(-1.22460635382238E-16,0.,1.));
#348=DIRECTION('',(-1.,0.,-1.22460635382238E-16));
#349=DIRECTION('',(0.,1.,0.));
#350=DIRECTION('',(-1.,0.,-1.22460635382238E-16));
#351=DIRECTION('',(0.,1.,0.));
#352=DIRECTION('',(-1.,0.,-1.22460635382238E-16));
#353=DIRECTION('',(0.,1.,0.));
#354=DIRECTION('',(-1.,0.,-1.22460635382238E-16));
#355=DIRECTION('',(0.,1.,0.));
#356=DIRECTION('',(1.,0.,1.22460635382238E-16));
#357=DIRECTION('',(0.,1.,0.));
#358=DIRECTION('',(-0.707106781186549,-0.707106781186546,-1.73185491414387E-16));
#359=DIRECTION('',(-1.,0.,-1.22460635382238E-16));
#360=DIRECTION('',(0.,1.,0.));
#361=DIRECTION('',(0.707106781186549,-0.707106781186546,3.19118489167076E-31));
#362=DIRECTION('',(1.,-2.75763294740476E-16,1.22460635382238E-16));
#363=DIRECTION('',(-2.75763294740476E-16,-1.,0.));
#364=DIRECTION('',(-1.,0.,-1.22460635382238E-16));
#365=DIRECTION('',(0.,1.,0.));
#366=DIRECTION('',(-1.,0.,-1.22460635382238E-16));
#367=DIRECTION('',(0.,1.,0.));
#368=DIRECTION('',(-1.,0.,-1.22460635382238E-16));
#369=DIRECTION('',(0.,1.,0.));
#370=DIRECTION('',(-1.,0.,-1.22460635382238E-16));
#371=DIRECTION('',(0.,1.,0.));
#372=DIRECTION('',(-1.,0.,-1.22460635382238E-16));
#373=DIRECTION('',(1.,0.,1.22460635382238E-16));
#374=DIRECTION('',(-1.,0.,-1.22460635382238E-16));
#375=DIRECTION('',(0.,1.,0.));
#376=DIRECTION('',(1.,6.12303176911189E-17,1.22460635382238E-16));
#377=DIRECTION('',(-1.22460635382238E-16,0.,1.));
#378=DIRECTION('',(-1.,0.,-1.22460635382238E-16));
#379=DIRECTION('',(0.,1.,0.));
#380=DIRECTION('',(-1.,0.,-1.22460635382238E-16));
#381=DIRECTION('',(0.,1.,0.));
#382=DIRECTION('',(-1.,0.,-1.22460635382238E-16));
#383=DIRECTION('',(0.,1.,0.));
#384=DIRECTION('',(-1.,0.,-1.22460635382238E-16));
#385=DIRECTION('',(0.,1.,0.));
#386=DIRECTION('',(-1.,0.,-1.22460635382238E-16));
#387=DIRECTION('',(-1.,0.,-1.22460635382238E-16));
#388=DIRECTION('',(0.,1.,0.));
#389=DIRECTION('',(1.,0.,1.22460635382238E-16));
#390=DIRECTION('',(-1.,2.37690262981867E-16,-1.22460635382238E-16));
#391=DIRECTION('',(-1.22460635382238E-16,0.,1.));
#392=DIRECTION('',(-1.,0.,-1.22460635382238E-16));
#393=DIRECTION('',(0.,1.,0.));
#394=DIRECTION('',(-1.,0.,-1.22460635382238E-16));
#395=DIRECTION('',(0.,1.,0.));
#396=DIRECTION('',(-1.,0.,-1.22460635382238E-16));
#397=DIRECTION('',(0.,1.,0.));
#398=DIRECTION('',(1.,0.,1.22460635382238E-16));
#399=DIRECTION('',(0.,1.,0.));
#400=DIRECTION('',(-0.707106781186546,-0.707106781186549,-1.73185491414387E-16));
#401=DIRECTION('',(0.707106781186546,-0.707106781186549,-4.04329828847433E-31));
#402=DIRECTION('',(-1.,0.,-1.22460635382238E-16));
#403=DIRECTION('',(0.,1.,0.));
#404=DIRECTION('',(-1.,0.,-1.22460635382238E-16));
#405=DIRECTION('',(-1.22460635382238E-16,0.,1.));
#406=DIRECTION('',(-1.,0.,-1.22460635382238E-16));
#407=DIRECTION('',(0.,1.,0.));
#408=DIRECTION('',(-1.,0.,-1.22460635382238E-16));
#409=DIRECTION('',(0.,1.,0.));
#410=DIRECTION('',(-1.,0.,-1.22460635382238E-16));
#411=DIRECTION('',(0.,1.,0.));
#412=DIRECTION('',(-1.,0.,-1.22460635382238E-16));
#413=DIRECTION('',(0.,1.,0.));
#414=DIRECTION('',(-0.17364817766693,0.984807753012208,9.93351169931689E-17));
#415=DIRECTION('',(-1.,0.,-1.22460635382238E-16));
#416=DIRECTION('',(0.,1.,0.));
#417=DIRECTION('',(0.17364817766693,0.984807753012208,1.41865249333289E-16));
#418=DIRECTION('',(-1.,0.,-1.22460635382238E-16));
#419=DIRECTION('',(0.,1.,0.));
#420=DIRECTION('',(-1.,0.,-1.22460635382238E-16));
#421=DIRECTION('',(-1.,0.,-1.22460635382238E-16));
#422=DIRECTION('',(0.,1.,0.));
#423=DIRECTION('',(1.,0.,1.22460635382238E-16));
#424=DIRECTION('',(-1.,0.,-1.22460635382238E-16));
#425=DIRECTION('',(0.,1.,0.));
#426=DIRECTION('',(-1.,0.,-1.22460635382238E-16));
#427=DIRECTION('',(0.,1.,0.));
#428=DIRECTION('',(-0.173648177666931,0.984807753012208,9.93351169931688E-17));
#429=DIRECTION('',(0.173648177666931,0.984807753012208,1.41865249333289E-16));
#430=DIRECTION('',(-1.,0.,-1.22460635382238E-16));
#431=DIRECTION('',(0.,1.,0.));
#432=DIRECTION('',(-1.,0.,-1.22460635382238E-16));
#433=DIRECTION('',(0.,1.,0.));
#434=DIRECTION('',(-1.,0.,-1.22460635382238E-16));
#435=DIRECTION('',(0.,1.,0.));
#436=DIRECTION('',(-1.,0.,-1.22460635382238E-16));
#437=DIRECTION('',(0.,1.,0.));
#438=DIRECTION('',(1.,0.,1.22460635382238E-16));
#439=DIRECTION('',(0.,1.,0.));
#440=DIRECTION('',(-1.,0.,-1.22460635382238E-16));
#441=DIRECTION('',(0.,1.,0.));
#442=DIRECTION('',(-1.,0.,-1.22460635382238E-16));
#443=DIRECTION('',(0.,1.,0.));
#444=DIRECTION('',(1.,0.,1.22460635382238E-16));
#445=DIRECTION('',(0.,1.,0.));
#446=CARTESIAN_POINT('',(0.,0.,0.));
#447=CARTESIAN_POINT('',(0.891972615026867,11.476,-3.80611008349205E-16));
#448=CARTESIAN_POINT('',(0.891972615026867,0.,-3.80611008349205E-16));
#449=CARTESIAN_POINT('',(0.891972615026867,11.352,-3.80611008349205E-16));
#450=CARTESIAN_POINT('',(0.891972615026867,-11.352,-1.77078414120837E-15));
#451=CARTESIAN_POINT('',(0.891972615026867,0.,-3.80611008349205E-16));
#452=CARTESIAN_POINT('',(0.891972615026867,0.,-3.80611008349205E-16));
#453=CARTESIAN_POINT('',(0.891972615026867,11.6,-3.80611008349205E-16));
#454=CARTESIAN_POINT('',(0.891972615026867,-11.6,-1.80115437878316E-15));
#455=CARTESIAN_POINT('',(0.891972615026867,0.,-3.80611008349205E-16));
#456=CARTESIAN_POINT('',(0.663972615026867,0.,-4.08532033216355E-16));
#457=CARTESIAN_POINT('',(0.663972615026867,11.124,9.53720074775658E-16));
#458=CARTESIAN_POINT('',(0.435972615026867,10.896,-4.36453058083505E-16));
#459=CARTESIAN_POINT('',(0.435972615026867,0.,-4.36453058083505E-16));
#460=CARTESIAN_POINT('',(0.435972615026867,-10.896,-1.77078414120837E-15));
#461=CARTESIAN_POINT('',(0.663972615026867,-11.124,-1.77078414120837E-15));
#462=CARTESIAN_POINT('',(0.435972615026867,9.8895,-4.36453058083505E-16));
#463=CARTESIAN_POINT('',(0.435972615026867,0.,-4.36453058083505E-16));
#464=CARTESIAN_POINT('',(0.435972615026867,8.883,-4.36453058083505E-16));
#465=CARTESIAN_POINT('',(0.435972615026867,-8.883,-1.52427088218392E-15));
#466=CARTESIAN_POINT('',(0.435972615026867,0.,-4.36453058083505E-16));
#467=CARTESIAN_POINT('',(0.435972615026867,0.,-4.36453058083505E-16));
#468=CARTESIAN_POINT('',(0.663972615026867,0.,-4.08532033216355E-16));
#469=CARTESIAN_POINT('',(0.663972615026867,8.883,6.79285790884063E-16));
#470=CARTESIAN_POINT('',(0.891972615026867,8.883,-3.80611008349205E-16));
#471=CARTESIAN_POINT('',(0.663972615026867,-8.883,-1.49634985731677E-15));
#472=CARTESIAN_POINT('',(0.891972615026867,-8.883,-1.46842883244962E-15));
#473=CARTESIAN_POINT('',(0.891972615026867,0.,-3.80611008349205E-16));
#474=CARTESIAN_POINT('',(0.891972615026867,8.769,-3.80611008349205E-16));
#475=CARTESIAN_POINT('',(0.891972615026867,0.,-3.80611008349205E-16));
#476=CARTESIAN_POINT('',(0.891972615026867,8.655,-3.80611008349205E-16));
#477=CARTESIAN_POINT('',(0.891972615026867,-8.655,-1.44050780758247E-15));
#478=CARTESIAN_POINT('',(0.891972615026867,0.,-3.80611008349205E-16));
#479=CARTESIAN_POINT('',(0.891972615026867,0.,-3.80611008349205E-16));
#480=CARTESIAN_POINT('',(0.549972615026867,0.,-4.2249254564993E-16));
#481=CARTESIAN_POINT('',(0.549972615026867,8.655,6.37404253583337E-16));
#482=CARTESIAN_POINT('',(0.207972615026867,8.655,-4.64374082950655E-16));
#483=CARTESIAN_POINT('',(0.207972615026867,0.,-4.64374082950655E-16));
#484=CARTESIAN_POINT('',(0.207972615026867,-8.655,-1.52427088218392E-15));
#485=CARTESIAN_POINT('',(0.549972615026867,-8.655,-1.4823893448832E-15));
#486=CARTESIAN_POINT('',(0.207972615026867,9.82272034611053,-4.64374082950655E-16));
#487=CARTESIAN_POINT('',(0.207972615026867,0.,-4.64374082950655E-16));
#488=CARTESIAN_POINT('',(0.207972615026867,0.,-4.64374082950655E-16));
#489=CARTESIAN_POINT('',(0.207972615026867,10.9904406922211,-4.64374082950655E-16));
#490=CARTESIAN_POINT('',(0.207972615026867,-10.9904406922211,-1.81027043325085E-15));
#491=CARTESIAN_POINT('',(0.207972615026867,0.,-4.64374082950655E-16));
#492=CARTESIAN_POINT('',(0.435972615026867,0.,-4.36453058083505E-16));
#493=CARTESIAN_POINT('',(0.435972615026867,11.2184406922211,9.37364317083838E-16));
#494=CARTESIAN_POINT('',(0.663972615026867,11.4464406922211,-4.08532033216355E-16));
#495=CARTESIAN_POINT('',(0.435972615026867,-11.2184406922211,-1.81027043325085E-15));
#496=CARTESIAN_POINT('',(0.663972615026867,-11.4464406922211,-1.81027043325085E-15));
#497=CARTESIAN_POINT('',(0.663972615026867,0.,-4.08532033216355E-16));
#498=CARTESIAN_POINT('',(0.663972615026867,11.5132466384686,-4.08532033216355E-16));
#499=CARTESIAN_POINT('',(0.663972615026867,0.,-4.08532033216355E-16));
#500=CARTESIAN_POINT('',(0.663972615026867,0.,-4.08532033216355E-16));
#501=CARTESIAN_POINT('',(0.663972615026867,11.5800525847161,-4.08532033216355E-16));
#502=CARTESIAN_POINT('',(0.663972615026867,-11.5800525847161,-1.82663263050041E-15));
#503=CARTESIAN_POINT('',(0.663972615026867,0.,-4.08532033216355E-16));
#504=CARTESIAN_POINT('',(0.568408027534988,0.,-4.20234933320652E-16));
#505=CARTESIAN_POINT('',(0.568408027534988,12.122026292358,1.06423610856171E-15));
#506=CARTESIAN_POINT('',(0.47284344004311,12.664,-4.31937833424949E-16));
#507=CARTESIAN_POINT('',(0.47284344004311,0.,-4.31937833424949E-16));
#508=CARTESIAN_POINT('',(0.47284344004311,-12.664,-1.98277931990561E-15));
#509=CARTESIAN_POINT('',(0.568408027534988,-12.122026292358,-1.90470597520301E-15));
#510=CARTESIAN_POINT('',(0.588602073798085,0.,-4.17761957584335E-16));
#511=CARTESIAN_POINT('',(0.588602073798085,12.664,1.13307952889632E-15));
#512=CARTESIAN_POINT('',(0.70436070755306,12.664,-4.03586081743721E-16));
#513=CARTESIAN_POINT('',(0.47284344004311,0.,-4.31937833424949E-16));
#514=CARTESIAN_POINT('',(0.588602073798085,-12.664,-1.96860344406499E-15));
#515=CARTESIAN_POINT('',(0.70436070755306,-12.664,-1.95442756822438E-15));
#516=CARTESIAN_POINT('',(0.70436070755306,0.,-4.03586081743721E-16));
#517=CARTESIAN_POINT('',(0.798166661289963,0.,-3.92098545046463E-16));
#518=CARTESIAN_POINT('',(0.798166661289963,12.132,1.09359388341085E-15));
#519=CARTESIAN_POINT('',(0.798166661289963,-12.132,-1.87779097350377E-15));
#520=CARTESIAN_POINT('',(0.798166661289963,0.,-3.92098545046463E-16));
#521=CARTESIAN_POINT('',(0.70436070755306,0.,-4.03586081743721E-16));
#522=CARTESIAN_POINT('',(0.588602073798085,0.,-4.17761957584335E-16));
#523=CARTESIAN_POINT('',(0.568408027534988,0.,-4.20234933320652E-16));
#524=CARTESIAN_POINT('',(0.435972615026867,0.,-4.36453058083505E-16));
#525=CARTESIAN_POINT('',(0.549972615026867,0.,-4.2249254564993E-16));
#526=CARTESIAN_POINT('',(0.663972615026867,0.,-4.08532033216355E-16));
#527=CARTESIAN_POINT('',(0.663972615026867,0.,-4.08532033216355E-16));
#528=MECHANICAL_DESIGN_GEOMETRIC_PRESENTATION_REPRESENTATION('',(#289),
#529);
#529=(
GEOMETRIC_REPRESENTATION_CONTEXT(3)
GLOBAL_UNCERTAINTY_ASSIGNED_CONTEXT((#530))
GLOBAL_UNIT_ASSIGNED_CONTEXT((#533,#532,#531))
REPRESENTATION_CONTEXT('Part 1','TOP_LEVEL_ASSEMBLY_PART')
);
#530=UNCERTAINTY_MEASURE_WITH_UNIT(LENGTH_MEASURE(1.E-5),#533,
'DISTANCE_ACCURACY_VALUE','Maximum Tolerance applied to model');
#531=(
NAMED_UNIT(*)
SI_UNIT($,.STERADIAN.)
SOLID_ANGLE_UNIT()
);
#532=(
NAMED_UNIT(*)
PLANE_ANGLE_UNIT()
SI_UNIT($,.RADIAN.)
);
#533=(
LENGTH_UNIT()
NAMED_UNIT(*)
SI_UNIT(.MILLI.,.METRE.)
);
#534=PRODUCT_DEFINITION_SHAPE('','',#535);
#535=PRODUCT_DEFINITION('','',#537,#536);
#536=PRODUCT_DEFINITION_CONTEXT('',#543,'design');
#537=PRODUCT_DEFINITION_FORMATION_WITH_SPECIFIED_SOURCE('','',#539,
 .NOT_KNOWN.);
#538=PRODUCT_RELATED_PRODUCT_CATEGORY('','',(#539));
#539=PRODUCT('Part 1','Part 1','Part 1',(#541));
#540=PRODUCT_CATEGORY('','');
#541=PRODUCT_CONTEXT('',#543,'mechanical');
#542=APPLICATION_PROTOCOL_DEFINITION('international standard',
'ap242_managed_model_based_3d_engineering',2020,#543);
#543=APPLICATION_CONTEXT('managed model based 3d engineering');
ENDSEC;
END-ISO-10303-21;
