ISO-10303-21;
HEADER;
/* Generated by software containing ST-Developer
 * from STEP Tools, Inc. (www.steptools.com) 
 */
/* OPTION: using custom renumber hook */

FILE_DESCRIPTION(
/* description */ ('STEP AP242 Edition 2',
'CAx-IF Rec.Pracs.---Representation and Presentation of Product Manufa
cturing Information (PMI)---4.0---2014-10-13',
'CAx-IF Rec.Pracs.---3D Tessellated Geometry---0.4---2014-09-14','2;1',
'CAx-IF Rec.Pracs.---User Defined Attributes---1.5---2016-08-15'),
/* implementation_level */ '2;1');

FILE_NAME(
/* name */ '6005-2z_01 - Copy',
/* time_stamp */ '2026-06-03T07:07:12Z',
/* author */ (''),
/* organization */ (''),
/* preprocessor_version */ 'ST-DEVELOPER v20',
/* originating_system */ 'ONSHAPE BY PTC INC, 1.215',
/* authorisation */ '  ');

FILE_SCHEMA (('AP242_MANAGED_MODEL_BASED_3D_ENGINEERING_MIM_LF { 1 0 10303 442 3 1 4 }'));
ENDSEC;

DATA;
#10=SHAPE_REPRESENTATION_RELATIONSHIP('','',#539,#11);
#11=ADVANCED_BREP_SHAPE_REPRESENTATION('',(#537),#1015);
#12=CONICAL_SURFACE('',#581,20.5882025990867,1.39626340159546);
#13=CONICAL_SURFACE('',#597,20.5882025990867,1.39626340159546);
#14=CONICAL_SURFACE('',#599,20.5882025990867,1.39626340159546);
#15=CONICAL_SURFACE('',#610,20.5882025990867,1.39626340159546);
#16=PLANE('',#551);
#17=PLANE('',#569);
#18=LINE('',#864,#32);
#19=LINE('',#869,#33);
#20=LINE('',#889,#34);
#21=LINE('',#893,#35);
#22=LINE('',#913,#36);
#23=LINE('',#919,#37);
#24=LINE('',#929,#38);
#25=LINE('',#934,#39);
#26=LINE('',#940,#40);
#27=LINE('',#946,#41);
#28=LINE('',#956,#42);
#29=LINE('',#961,#43);
#30=LINE('',#967,#44);
#31=LINE('',#970,#45);
#32=VECTOR('',#655,1000.);
#33=VECTOR('',#658,1000.);
#34=VECTOR('',#683,1000.);
#35=VECTOR('',#686,1000.);
#36=VECTOR('',#711,1000.);
#37=VECTOR('',#716,1000.);
#38=VECTOR('',#729,1000.);
#39=VECTOR('',#732,1000.);
#40=VECTOR('',#739,1000.);
#41=VECTOR('',#744,1000.);
#42=VECTOR('',#757,1000.);
#43=VECTOR('',#760,1000.);
#44=VECTOR('',#767,1000.);
#45=VECTOR('',#770,1000.);
#46=CYLINDRICAL_SURFACE('',#547,21.1);
#47=CYLINDRICAL_SURFACE('',#560,23.5);
#48=CYLINDRICAL_SURFACE('',#573,21.1);
#49=CYLINDRICAL_SURFACE('',#585,20.);
#50=CYLINDRICAL_SURFACE('',#593,20.);
#51=CYLINDRICAL_SURFACE('',#602,20.);
#52=CYLINDRICAL_SURFACE('',#608,20.);
#53=CYLINDRICAL_SURFACE('',#616,21.1);
#54=CYLINDRICAL_SURFACE('',#619,23.5);
#55=CYLINDRICAL_SURFACE('',#622,21.1);
#56=ORIENTED_EDGE('',*,*,#216,.T.);
#57=ORIENTED_EDGE('',*,*,#217,.T.);
#58=ORIENTED_EDGE('',*,*,#218,.F.);
#59=ORIENTED_EDGE('',*,*,#219,.F.);
#60=ORIENTED_EDGE('',*,*,#220,.T.);
#61=ORIENTED_EDGE('',*,*,#221,.T.);
#62=ORIENTED_EDGE('',*,*,#222,.T.);
#63=ORIENTED_EDGE('',*,*,#223,.T.);
#64=ORIENTED_EDGE('',*,*,#224,.F.);
#65=ORIENTED_EDGE('',*,*,#225,.F.);
#66=ORIENTED_EDGE('',*,*,#222,.F.);
#67=ORIENTED_EDGE('',*,*,#226,.F.);
#68=ORIENTED_EDGE('',*,*,#227,.T.);
#69=ORIENTED_EDGE('',*,*,#228,.T.);
#70=ORIENTED_EDGE('',*,*,#229,.T.);
#71=ORIENTED_EDGE('',*,*,#227,.F.);
#72=ORIENTED_EDGE('',*,*,#230,.T.);
#73=ORIENTED_EDGE('',*,*,#231,.T.);
#74=ORIENTED_EDGE('',*,*,#232,.T.);
#75=ORIENTED_EDGE('',*,*,#233,.T.);
#76=ORIENTED_EDGE('',*,*,#234,.F.);
#77=ORIENTED_EDGE('',*,*,#232,.F.);
#78=ORIENTED_EDGE('',*,*,#235,.T.);
#79=ORIENTED_EDGE('',*,*,#236,.T.);
#80=ORIENTED_EDGE('',*,*,#237,.T.);
#81=ORIENTED_EDGE('',*,*,#238,.T.);
#82=ORIENTED_EDGE('',*,*,#236,.F.);
#83=ORIENTED_EDGE('',*,*,#239,.F.);
#84=ORIENTED_EDGE('',*,*,#240,.T.);
#85=ORIENTED_EDGE('',*,*,#241,.T.);
#86=ORIENTED_EDGE('',*,*,#242,.T.);
#87=ORIENTED_EDGE('',*,*,#243,.T.);
#88=ORIENTED_EDGE('',*,*,#244,.F.);
#89=ORIENTED_EDGE('',*,*,#241,.F.);
#90=ORIENTED_EDGE('',*,*,#245,.T.);
#91=ORIENTED_EDGE('',*,*,#246,.T.);
#92=ORIENTED_EDGE('',*,*,#247,.T.);
#93=ORIENTED_EDGE('',*,*,#248,.T.);
#94=ORIENTED_EDGE('',*,*,#242,.F.);
#95=ORIENTED_EDGE('',*,*,#249,.T.);
#96=ORIENTED_EDGE('',*,*,#250,.T.);
#97=ORIENTED_EDGE('',*,*,#246,.F.);
#98=ORIENTED_EDGE('',*,*,#251,.F.);
#99=ORIENTED_EDGE('',*,*,#252,.T.);
#100=ORIENTED_EDGE('',*,*,#253,.T.);
#101=ORIENTED_EDGE('',*,*,#254,.T.);
#102=ORIENTED_EDGE('',*,*,#255,.T.);
#103=ORIENTED_EDGE('',*,*,#256,.F.);
#104=ORIENTED_EDGE('',*,*,#257,.F.);
#105=ORIENTED_EDGE('',*,*,#258,.T.);
#106=ORIENTED_EDGE('',*,*,#259,.T.);
#107=ORIENTED_EDGE('',*,*,#260,.T.);
#108=ORIENTED_EDGE('',*,*,#261,.T.);
#109=ORIENTED_EDGE('',*,*,#254,.F.);
#110=ORIENTED_EDGE('',*,*,#262,.T.);
#111=ORIENTED_EDGE('',*,*,#263,.T.);
#112=ORIENTED_EDGE('',*,*,#259,.F.);
#113=ORIENTED_EDGE('',*,*,#264,.F.);
#114=ORIENTED_EDGE('',*,*,#265,.T.);
#115=ORIENTED_EDGE('',*,*,#266,.T.);
#116=ORIENTED_EDGE('',*,*,#267,.T.);
#117=ORIENTED_EDGE('',*,*,#268,.T.);
#118=ORIENTED_EDGE('',*,*,#269,.F.);
#119=ORIENTED_EDGE('',*,*,#270,.F.);
#120=ORIENTED_EDGE('',*,*,#271,.T.);
#121=ORIENTED_EDGE('',*,*,#218,.T.);
#122=ORIENTED_EDGE('',*,*,#272,.T.);
#123=ORIENTED_EDGE('',*,*,#273,.T.);
#124=ORIENTED_EDGE('',*,*,#267,.F.);
#125=ORIENTED_EDGE('',*,*,#271,.F.);
#126=ORIENTED_EDGE('',*,*,#274,.F.);
#127=ORIENTED_EDGE('',*,*,#273,.F.);
#128=ORIENTED_EDGE('',*,*,#275,.T.);
#129=ORIENTED_EDGE('',*,*,#219,.T.);
#130=ORIENTED_EDGE('',*,*,#266,.F.);
#131=ORIENTED_EDGE('',*,*,#276,.F.);
#132=ORIENTED_EDGE('',*,*,#277,.F.);
#133=ORIENTED_EDGE('',*,*,#268,.F.);
#134=ORIENTED_EDGE('',*,*,#274,.T.);
#135=ORIENTED_EDGE('',*,*,#278,.T.);
#136=ORIENTED_EDGE('',*,*,#265,.F.);
#137=ORIENTED_EDGE('',*,*,#279,.F.);
#138=ORIENTED_EDGE('',*,*,#260,.F.);
#139=ORIENTED_EDGE('',*,*,#263,.F.);
#140=ORIENTED_EDGE('',*,*,#258,.F.);
#141=ORIENTED_EDGE('',*,*,#280,.F.);
#142=ORIENTED_EDGE('',*,*,#261,.F.);
#143=ORIENTED_EDGE('',*,*,#279,.T.);
#144=ORIENTED_EDGE('',*,*,#264,.T.);
#145=ORIENTED_EDGE('',*,*,#253,.F.);
#146=ORIENTED_EDGE('',*,*,#281,.F.);
#147=ORIENTED_EDGE('',*,*,#282,.F.);
#148=ORIENTED_EDGE('',*,*,#255,.F.);
#149=ORIENTED_EDGE('',*,*,#280,.T.);
#150=ORIENTED_EDGE('',*,*,#283,.T.);
#151=ORIENTED_EDGE('',*,*,#252,.F.);
#152=ORIENTED_EDGE('',*,*,#284,.F.);
#153=ORIENTED_EDGE('',*,*,#247,.F.);
#154=ORIENTED_EDGE('',*,*,#250,.F.);
#155=ORIENTED_EDGE('',*,*,#245,.F.);
#156=ORIENTED_EDGE('',*,*,#243,.F.);
#157=ORIENTED_EDGE('',*,*,#248,.F.);
#158=ORIENTED_EDGE('',*,*,#284,.T.);
#159=ORIENTED_EDGE('',*,*,#251,.T.);
#160=ORIENTED_EDGE('',*,*,#238,.F.);
#161=ORIENTED_EDGE('',*,*,#244,.T.);
#162=ORIENTED_EDGE('',*,*,#240,.F.);
#163=ORIENTED_EDGE('',*,*,#285,.F.);
#164=ORIENTED_EDGE('',*,*,#237,.F.);
#165=ORIENTED_EDGE('',*,*,#233,.F.);
#166=ORIENTED_EDGE('',*,*,#285,.T.);
#167=ORIENTED_EDGE('',*,*,#239,.T.);
#168=ORIENTED_EDGE('',*,*,#235,.F.);
#169=ORIENTED_EDGE('',*,*,#231,.F.);
#170=ORIENTED_EDGE('',*,*,#286,.F.);
#171=ORIENTED_EDGE('',*,*,#229,.F.);
#172=ORIENTED_EDGE('',*,*,#234,.T.);
#173=ORIENTED_EDGE('',*,*,#286,.T.);
#174=ORIENTED_EDGE('',*,*,#230,.F.);
#175=ORIENTED_EDGE('',*,*,#228,.F.);
#176=ORIENTED_EDGE('',*,*,#221,.F.);
#177=ORIENTED_EDGE('',*,*,#287,.F.);
#178=ORIENTED_EDGE('',*,*,#288,.F.);
#179=ORIENTED_EDGE('',*,*,#223,.F.);
#180=ORIENTED_EDGE('',*,*,#226,.T.);
#181=ORIENTED_EDGE('',*,*,#289,.T.);
#182=ORIENTED_EDGE('',*,*,#220,.F.);
#183=ORIENTED_EDGE('',*,*,#275,.F.);
#184=ORIENTED_EDGE('',*,*,#272,.F.);
#185=ORIENTED_EDGE('',*,*,#217,.F.);
#186=ORIENTED_EDGE('',*,*,#289,.F.);
#187=ORIENTED_EDGE('',*,*,#290,.F.);
#188=ORIENTED_EDGE('',*,*,#224,.T.);
#189=ORIENTED_EDGE('',*,*,#288,.T.);
#190=ORIENTED_EDGE('',*,*,#291,.F.);
#191=ORIENTED_EDGE('',*,*,#283,.F.);
#192=ORIENTED_EDGE('',*,*,#292,.F.);
#193=ORIENTED_EDGE('',*,*,#256,.T.);
#194=ORIENTED_EDGE('',*,*,#282,.T.);
#195=ORIENTED_EDGE('',*,*,#293,.F.);
#196=ORIENTED_EDGE('',*,*,#278,.F.);
#197=ORIENTED_EDGE('',*,*,#294,.F.);
#198=ORIENTED_EDGE('',*,*,#269,.T.);
#199=ORIENTED_EDGE('',*,*,#277,.T.);
#200=ORIENTED_EDGE('',*,*,#295,.F.);
#201=ORIENTED_EDGE('',*,*,#262,.F.);
#202=ORIENTED_EDGE('',*,*,#295,.T.);
#203=ORIENTED_EDGE('',*,*,#276,.T.);
#204=ORIENTED_EDGE('',*,*,#270,.T.);
#205=ORIENTED_EDGE('',*,*,#294,.T.);
#206=ORIENTED_EDGE('',*,*,#249,.F.);
#207=ORIENTED_EDGE('',*,*,#293,.T.);
#208=ORIENTED_EDGE('',*,*,#281,.T.);
#209=ORIENTED_EDGE('',*,*,#257,.T.);
#210=ORIENTED_EDGE('',*,*,#292,.T.);
#211=ORIENTED_EDGE('',*,*,#216,.F.);
#212=ORIENTED_EDGE('',*,*,#291,.T.);
#213=ORIENTED_EDGE('',*,*,#287,.T.);
#214=ORIENTED_EDGE('',*,*,#225,.T.);
#215=ORIENTED_EDGE('',*,*,#290,.T.);
#216=EDGE_CURVE('',#296,#297,#346,.T.);
#217=EDGE_CURVE('',#297,#298,#347,.T.);
#218=EDGE_CURVE('',#299,#298,#348,.T.);
#219=EDGE_CURVE('',#300,#299,#349,.T.);
#220=EDGE_CURVE('',#300,#296,#350,.T.);
#221=EDGE_CURVE('',#301,#302,#18,.T.);
#222=EDGE_CURVE('',#302,#303,#351,.T.);
#223=EDGE_CURVE('',#303,#304,#19,.T.);
#224=EDGE_CURVE('',#305,#304,#352,.T.);
#225=EDGE_CURVE('',#301,#305,#353,.T.);
#226=EDGE_CURVE('',#303,#302,#354,.T.);
#227=EDGE_CURVE('',#306,#307,#355,.T.);
#228=EDGE_CURVE('',#307,#306,#356,.T.);
#229=EDGE_CURVE('',#308,#307,#357,.T.);
#230=EDGE_CURVE('',#306,#309,#358,.T.);
#231=EDGE_CURVE('',#309,#310,#359,.T.);
#232=EDGE_CURVE('',#310,#308,#360,.T.);
#233=EDGE_CURVE('',#311,#312,#20,.T.);
#234=EDGE_CURVE('',#308,#312,#361,.T.);
#235=EDGE_CURVE('',#310,#313,#21,.T.);
#236=EDGE_CURVE('',#313,#314,#362,.T.);
#237=EDGE_CURVE('',#314,#311,#363,.T.);
#238=EDGE_CURVE('',#315,#314,#364,.T.);
#239=EDGE_CURVE('',#316,#313,#365,.T.);
#240=EDGE_CURVE('',#316,#317,#366,.T.);
#241=EDGE_CURVE('',#317,#315,#367,.T.);
#242=EDGE_CURVE('',#318,#319,#368,.T.);
#243=EDGE_CURVE('',#319,#318,#369,.T.);
#244=EDGE_CURVE('',#315,#317,#370,.T.);
#245=EDGE_CURVE('',#318,#320,#22,.T.);
#246=EDGE_CURVE('',#320,#321,#371,.T.);
#247=EDGE_CURVE('',#321,#322,#372,.T.);
#248=EDGE_CURVE('',#322,#319,#23,.T.);
#249=EDGE_CURVE('',#323,#324,#373,.T.);
#250=EDGE_CURVE('',#324,#321,#374,.T.);
#251=EDGE_CURVE('',#325,#320,#375,.T.);
#252=EDGE_CURVE('',#325,#323,#376,.T.);
#253=EDGE_CURVE('',#326,#327,#24,.T.);
#254=EDGE_CURVE('',#327,#328,#377,.T.);
#255=EDGE_CURVE('',#328,#329,#25,.T.);
#256=EDGE_CURVE('',#330,#329,#378,.T.);
#257=EDGE_CURVE('',#326,#330,#379,.T.);
#258=EDGE_CURVE('',#327,#331,#26,.T.);
#259=EDGE_CURVE('',#331,#332,#380,.T.);
#260=EDGE_CURVE('',#332,#333,#381,.T.);
#261=EDGE_CURVE('',#333,#328,#27,.T.);
#262=EDGE_CURVE('',#334,#335,#382,.T.);
#263=EDGE_CURVE('',#335,#332,#383,.T.);
#264=EDGE_CURVE('',#336,#331,#384,.T.);
#265=EDGE_CURVE('',#336,#334,#385,.T.);
#266=EDGE_CURVE('',#337,#338,#28,.T.);
#267=EDGE_CURVE('',#338,#339,#386,.T.);
#268=EDGE_CURVE('',#339,#340,#29,.T.);
#269=EDGE_CURVE('',#341,#340,#387,.T.);
#270=EDGE_CURVE('',#337,#341,#388,.T.);
#271=EDGE_CURVE('',#338,#299,#30,.T.);
#272=EDGE_CURVE('',#298,#342,#389,.T.);
#273=EDGE_CURVE('',#342,#339,#31,.T.);
#274=EDGE_CURVE('',#339,#338,#390,.T.);
#275=EDGE_CURVE('',#342,#300,#391,.T.);
#276=EDGE_CURVE('',#343,#337,#392,.T.);
#277=EDGE_CURVE('',#340,#343,#393,.T.);
#278=EDGE_CURVE('',#335,#334,#394,.T.);
#279=EDGE_CURVE('',#333,#336,#395,.T.);
#280=EDGE_CURVE('',#328,#327,#396,.T.);
#281=EDGE_CURVE('',#344,#326,#397,.T.);
#282=EDGE_CURVE('',#329,#344,#398,.T.);
#283=EDGE_CURVE('',#324,#323,#399,.T.);
#284=EDGE_CURVE('',#322,#325,#400,.T.);
#285=EDGE_CURVE('',#311,#316,#401,.T.);
#286=EDGE_CURVE('',#312,#309,#402,.T.);
#287=EDGE_CURVE('',#345,#301,#403,.T.);
#288=EDGE_CURVE('',#304,#345,#404,.T.);
#289=EDGE_CURVE('',#297,#296,#405,.T.);
#290=EDGE_CURVE('',#305,#297,#406,.T.);
#291=EDGE_CURVE('',#296,#345,#407,.T.);
#292=EDGE_CURVE('',#330,#324,#408,.T.);
#293=EDGE_CURVE('',#323,#344,#409,.T.);
#294=EDGE_CURVE('',#341,#335,#410,.T.);
#295=EDGE_CURVE('',#334,#343,#411,.T.);
#296=VERTEX_POINT('',#854);
#297=VERTEX_POINT('',#855);
#298=VERTEX_POINT('',#857);
#299=VERTEX_POINT('',#859);
#300=VERTEX_POINT('',#861);
#301=VERTEX_POINT('',#865);
#302=VERTEX_POINT('',#866);
#303=VERTEX_POINT('',#868);
#304=VERTEX_POINT('',#870);
#305=VERTEX_POINT('',#872);
#306=VERTEX_POINT('',#877);
#307=VERTEX_POINT('',#878);
#308=VERTEX_POINT('',#882);
#309=VERTEX_POINT('',#884);
#310=VERTEX_POINT('',#886);
#311=VERTEX_POINT('',#890);
#312=VERTEX_POINT('',#891);
#313=VERTEX_POINT('',#894);
#314=VERTEX_POINT('',#896);
#315=VERTEX_POINT('',#900);
#316=VERTEX_POINT('',#902);
#317=VERTEX_POINT('',#904);
#318=VERTEX_POINT('',#908);
#319=VERTEX_POINT('',#909);
#320=VERTEX_POINT('',#914);
#321=VERTEX_POINT('',#916);
#322=VERTEX_POINT('',#918);
#323=VERTEX_POINT('',#922);
#324=VERTEX_POINT('',#923);
#325=VERTEX_POINT('',#926);
#326=VERTEX_POINT('',#930);
#327=VERTEX_POINT('',#931);
#328=VERTEX_POINT('',#933);
#329=VERTEX_POINT('',#935);
#330=VERTEX_POINT('',#937);
#331=VERTEX_POINT('',#941);
#332=VERTEX_POINT('',#943);
#333=VERTEX_POINT('',#945);
#334=VERTEX_POINT('',#949);
#335=VERTEX_POINT('',#950);
#336=VERTEX_POINT('',#953);
#337=VERTEX_POINT('',#957);
#338=VERTEX_POINT('',#958);
#339=VERTEX_POINT('',#960);
#340=VERTEX_POINT('',#962);
#341=VERTEX_POINT('',#964);
#342=VERTEX_POINT('',#969);
#343=VERTEX_POINT('',#976);
#344=VERTEX_POINT('',#985);
#345=VERTEX_POINT('',#998);
#346=CIRCLE('',#542,21.54);
#347=CIRCLE('',#543,0.44);
#348=CIRCLE('',#544,21.1764051981735);
#349=CIRCLE('',#545,21.1764051981735);
#350=CIRCLE('',#546,0.44);
#351=CIRCLE('',#548,21.1);
#352=CIRCLE('',#549,21.1);
#353=CIRCLE('',#550,21.1);
#354=CIRCLE('',#552,21.1);
#355=CIRCLE('',#553,22.9);
#356=CIRCLE('',#554,22.9);
#357=CIRCLE('',#556,0.6);
#358=CIRCLE('',#557,0.6);
#359=CIRCLE('',#558,23.5);
#360=CIRCLE('',#559,23.5);
#361=CIRCLE('',#561,23.5);
#362=CIRCLE('',#562,23.5);
#363=CIRCLE('',#563,23.5);
#364=CIRCLE('',#565,0.6);
#365=CIRCLE('',#566,23.5);
#366=CIRCLE('',#567,0.6);
#367=CIRCLE('',#568,22.9);
#368=CIRCLE('',#570,21.1);
#369=CIRCLE('',#571,21.1);
#370=CIRCLE('',#572,22.9);
#371=CIRCLE('',#574,21.1);
#372=CIRCLE('',#575,21.1);
#373=CIRCLE('',#577,21.54);
#374=CIRCLE('',#578,0.44);
#375=CIRCLE('',#579,21.1);
#376=CIRCLE('',#580,0.44);
#377=CIRCLE('',#582,20.);
#378=CIRCLE('',#583,21.1764051981735);
#379=CIRCLE('',#584,21.1764051981735);
#380=CIRCLE('',#586,20.);
#381=CIRCLE('',#587,20.);
#382=CIRCLE('',#589,21.3735);
#383=CIRCLE('',#590,3.3735);
#384=CIRCLE('',#591,20.);
#385=CIRCLE('',#592,3.3735);
#386=CIRCLE('',#594,20.);
#387=CIRCLE('',#595,20.);
#388=CIRCLE('',#596,20.);
#389=CIRCLE('',#598,21.1764051981735);
#390=CIRCLE('',#600,20.);
#391=CIRCLE('',#601,21.1764051981735);
#392=CIRCLE('',#603,20.);
#393=CIRCLE('',#604,20.);
#394=CIRCLE('',#606,21.3735);
#395=CIRCLE('',#607,20.);
#396=CIRCLE('',#609,20.);
#397=CIRCLE('',#611,21.1764051981735);
#398=CIRCLE('',#612,21.1764051981735);
#399=CIRCLE('',#614,21.54);
#400=CIRCLE('',#615,21.1);
#401=CIRCLE('',#618,23.5);
#402=CIRCLE('',#620,23.5);
#403=CIRCLE('',#623,21.1);
#404=CIRCLE('',#624,21.1);
#405=CIRCLE('',#626,21.54);
#406=CIRCLE('',#628,0.44);
#407=CIRCLE('',#629,0.44);
#408=CIRCLE('',#631,0.44);
#409=CIRCLE('',#632,0.44);
#410=CIRCLE('',#634,3.3735);
#411=CIRCLE('',#635,3.3735);
#412=EDGE_LOOP('',(#56,#57,#58,#59,#60));
#413=EDGE_LOOP('',(#61,#62,#63,#64,#65));
#414=EDGE_LOOP('',(#66,#67));
#415=EDGE_LOOP('',(#68,#69));
#416=EDGE_LOOP('',(#70,#71,#72,#73,#74));
#417=EDGE_LOOP('',(#75,#76,#77,#78,#79,#80));
#418=EDGE_LOOP('',(#81,#82,#83,#84,#85));
#419=EDGE_LOOP('',(#86,#87));
#420=EDGE_LOOP('',(#88,#89));
#421=EDGE_LOOP('',(#90,#91,#92,#93,#94));
#422=EDGE_LOOP('',(#95,#96,#97,#98,#99));
#423=EDGE_LOOP('',(#100,#101,#102,#103,#104));
#424=EDGE_LOOP('',(#105,#106,#107,#108,#109));
#425=EDGE_LOOP('',(#110,#111,#112,#113,#114));
#426=EDGE_LOOP('',(#115,#116,#117,#118,#119));
#427=EDGE_LOOP('',(#120,#121,#122,#123,#124));
#428=EDGE_LOOP('',(#125,#126,#127,#128,#129));
#429=EDGE_LOOP('',(#130,#131,#132,#133,#134));
#430=EDGE_LOOP('',(#135,#136,#137,#138,#139));
#431=EDGE_LOOP('',(#140,#141,#142,#143,#144));
#432=EDGE_LOOP('',(#145,#146,#147,#148,#149));
#433=EDGE_LOOP('',(#150,#151,#152,#153,#154));
#434=EDGE_LOOP('',(#155,#156,#157,#158,#159));
#435=EDGE_LOOP('',(#160,#161,#162,#163,#164));
#436=EDGE_LOOP('',(#165,#166,#167,#168,#169,#170));
#437=EDGE_LOOP('',(#171,#172,#173,#174,#175));
#438=EDGE_LOOP('',(#176,#177,#178,#179,#180));
#439=EDGE_LOOP('',(#181,#182,#183,#184,#185));
#440=EDGE_LOOP('',(#186,#187,#188,#189,#190));
#441=EDGE_LOOP('',(#191,#192,#193,#194,#195));
#442=EDGE_LOOP('',(#196,#197,#198,#199,#200));
#443=EDGE_LOOP('',(#201,#202,#203,#204,#205));
#444=EDGE_LOOP('',(#206,#207,#208,#209,#210));
#445=EDGE_LOOP('',(#211,#212,#213,#214,#215));
#446=FACE_BOUND('',#412,.T.);
#447=FACE_BOUND('',#413,.T.);
#448=FACE_BOUND('',#414,.T.);
#449=FACE_BOUND('',#415,.T.);
#450=FACE_BOUND('',#416,.T.);
#451=FACE_BOUND('',#417,.T.);
#452=FACE_BOUND('',#418,.T.);
#453=FACE_BOUND('',#419,.T.);
#454=FACE_BOUND('',#420,.T.);
#455=FACE_BOUND('',#421,.T.);
#456=FACE_BOUND('',#422,.T.);
#457=FACE_BOUND('',#423,.T.);
#458=FACE_BOUND('',#424,.T.);
#459=FACE_BOUND('',#425,.T.);
#460=FACE_BOUND('',#426,.T.);
#461=FACE_BOUND('',#427,.T.);
#462=FACE_BOUND('',#428,.T.);
#463=FACE_BOUND('',#429,.T.);
#464=FACE_BOUND('',#430,.T.);
#465=FACE_BOUND('',#431,.T.);
#466=FACE_BOUND('',#432,.T.);
#467=FACE_BOUND('',#433,.T.);
#468=FACE_BOUND('',#434,.T.);
#469=FACE_BOUND('',#435,.T.);
#470=FACE_BOUND('',#436,.T.);
#471=FACE_BOUND('',#437,.T.);
#472=FACE_BOUND('',#438,.T.);
#473=FACE_BOUND('',#439,.T.);
#474=FACE_BOUND('',#440,.T.);
#475=FACE_BOUND('',#441,.T.);
#476=FACE_BOUND('',#442,.T.);
#477=FACE_BOUND('',#443,.T.);
#478=FACE_BOUND('',#444,.T.);
#479=FACE_BOUND('',#445,.T.);
#480=TOROIDAL_SURFACE('',#541,21.1,0.44);
#481=TOROIDAL_SURFACE('',#555,22.9,0.6);
#482=TOROIDAL_SURFACE('',#564,22.9,0.6);
#483=TOROIDAL_SURFACE('',#576,21.1,0.44);
#484=TOROIDAL_SURFACE('',#588,18.,3.3735);
#485=TOROIDAL_SURFACE('',#605,18.,3.3735);
#486=TOROIDAL_SURFACE('',#613,21.1,0.44);
#487=TOROIDAL_SURFACE('',#617,22.9,0.6);
#488=TOROIDAL_SURFACE('',#621,22.9,0.6);
#489=TOROIDAL_SURFACE('',#625,21.1,0.44);
#490=TOROIDAL_SURFACE('',#627,21.1,0.44);
#491=TOROIDAL_SURFACE('',#630,21.1,0.44);
#492=TOROIDAL_SURFACE('',#633,18.,3.3735);
#493=TOROIDAL_SURFACE('',#636,18.,3.3735);
#494=TOROIDAL_SURFACE('',#637,21.1,0.44);
#495=TOROIDAL_SURFACE('',#638,21.1,0.44);
#496=ADVANCED_FACE('',(#446),#480,.F.);
#497=ADVANCED_FACE('',(#447),#46,.F.);
#498=ADVANCED_FACE('',(#448,#449),#16,.T.);
#499=ADVANCED_FACE('',(#450),#481,.T.);
#500=ADVANCED_FACE('',(#451),#47,.T.);
#501=ADVANCED_FACE('',(#452),#482,.T.);
#502=ADVANCED_FACE('',(#453,#454),#17,.T.);
#503=ADVANCED_FACE('',(#455),#48,.F.);
#504=ADVANCED_FACE('',(#456),#483,.F.);
#505=ADVANCED_FACE('',(#457),#12,.F.);
#506=ADVANCED_FACE('',(#458),#49,.F.);
#507=ADVANCED_FACE('',(#459),#484,.F.);
#508=ADVANCED_FACE('',(#460),#50,.F.);
#509=ADVANCED_FACE('',(#461),#13,.F.);
#510=ADVANCED_FACE('',(#462),#14,.F.);
#511=ADVANCED_FACE('',(#463),#51,.F.);
#512=ADVANCED_FACE('',(#464),#485,.F.);
#513=ADVANCED_FACE('',(#465),#52,.F.);
#514=ADVANCED_FACE('',(#466),#15,.F.);
#515=ADVANCED_FACE('',(#467),#486,.F.);
#516=ADVANCED_FACE('',(#468),#53,.F.);
#517=ADVANCED_FACE('',(#469),#487,.T.);
#518=ADVANCED_FACE('',(#470),#54,.T.);
#519=ADVANCED_FACE('',(#471),#488,.T.);
#520=ADVANCED_FACE('',(#472),#55,.F.);
#521=ADVANCED_FACE('',(#473),#489,.F.);
#522=ADVANCED_FACE('',(#474),#490,.F.);
#523=ADVANCED_FACE('',(#475),#491,.F.);
#524=ADVANCED_FACE('',(#476),#492,.F.);
#525=ADVANCED_FACE('',(#477),#493,.F.);
#526=ADVANCED_FACE('',(#478),#494,.F.);
#527=ADVANCED_FACE('',(#479),#495,.F.);
#528=CLOSED_SHELL('',(#496,#497,#498,#499,#500,#501,#502,#503,#504,#505,
#506,#507,#508,#509,#510,#511,#512,#513,#514,#515,#516,#517,#518,#519,#520,
#521,#522,#523,#524,#525,#526,#527));
#529=STYLED_ITEM('',(#530),#537);
#530=PRESENTATION_STYLE_ASSIGNMENT((#531));
#531=SURFACE_STYLE_USAGE(.BOTH.,#532);
#532=SURFACE_SIDE_STYLE('',(#533));
#533=SURFACE_STYLE_FILL_AREA(#534);
#534=FILL_AREA_STYLE('',(#535));
#535=FILL_AREA_STYLE_COLOUR('',#536);
#536=COLOUR_RGB('',0.796078431372549,0.823529411764706,0.937254901960784);
#537=MANIFOLD_SOLID_BREP('Part 1',#528);
#538=SHAPE_DEFINITION_REPRESENTATION(#1020,#539);
#539=SHAPE_REPRESENTATION('Part 1',(#540),#1015);
#540=AXIS2_PLACEMENT_3D('',#851,#639,#640);
#541=AXIS2_PLACEMENT_3D('',#852,#641,#642);
#542=AXIS2_PLACEMENT_3D('',#853,#643,#644);
#543=AXIS2_PLACEMENT_3D('',#856,#645,#646);
#544=AXIS2_PLACEMENT_3D('',#858,#647,#648);
#545=AXIS2_PLACEMENT_3D('',#860,#649,#650);
#546=AXIS2_PLACEMENT_3D('',#862,#651,#652);
#547=AXIS2_PLACEMENT_3D('',#863,#653,#654);
#548=AXIS2_PLACEMENT_3D('',#867,#656,#657);
#549=AXIS2_PLACEMENT_3D('',#871,#659,#660);
#550=AXIS2_PLACEMENT_3D('',#873,#661,#662);
#551=AXIS2_PLACEMENT_3D('',#874,#663,#664);
#552=AXIS2_PLACEMENT_3D('',#875,#665,#666);
#553=AXIS2_PLACEMENT_3D('',#876,#667,#668);
#554=AXIS2_PLACEMENT_3D('',#879,#669,#670);
#555=AXIS2_PLACEMENT_3D('',#880,#671,#672);
#556=AXIS2_PLACEMENT_3D('',#881,#673,#674);
#557=AXIS2_PLACEMENT_3D('',#883,#675,#676);
#558=AXIS2_PLACEMENT_3D('',#885,#677,#678);
#559=AXIS2_PLACEMENT_3D('',#887,#679,#680);
#560=AXIS2_PLACEMENT_3D('',#888,#681,#682);
#561=AXIS2_PLACEMENT_3D('',#892,#684,#685);
#562=AXIS2_PLACEMENT_3D('',#895,#687,#688);
#563=AXIS2_PLACEMENT_3D('',#897,#689,#690);
#564=AXIS2_PLACEMENT_3D('',#898,#691,#692);
#565=AXIS2_PLACEMENT_3D('',#899,#693,#694);
#566=AXIS2_PLACEMENT_3D('',#901,#695,#696);
#567=AXIS2_PLACEMENT_3D('',#903,#697,#698);
#568=AXIS2_PLACEMENT_3D('',#905,#699,#700);
#569=AXIS2_PLACEMENT_3D('',#906,#701,#702);
#570=AXIS2_PLACEMENT_3D('',#907,#703,#704);
#571=AXIS2_PLACEMENT_3D('',#910,#705,#706);
#572=AXIS2_PLACEMENT_3D('',#911,#707,#708);
#573=AXIS2_PLACEMENT_3D('',#912,#709,#710);
#574=AXIS2_PLACEMENT_3D('',#915,#712,#713);
#575=AXIS2_PLACEMENT_3D('',#917,#714,#715);
#576=AXIS2_PLACEMENT_3D('',#920,#717,#718);
#577=AXIS2_PLACEMENT_3D('',#921,#719,#720);
#578=AXIS2_PLACEMENT_3D('',#924,#721,#722);
#579=AXIS2_PLACEMENT_3D('',#925,#723,#724);
#580=AXIS2_PLACEMENT_3D('',#927,#725,#726);
#581=AXIS2_PLACEMENT_3D('',#928,#727,#728);
#582=AXIS2_PLACEMENT_3D('',#932,#730,#731);
#583=AXIS2_PLACEMENT_3D('',#936,#733,#734);
#584=AXIS2_PLACEMENT_3D('',#938,#735,#736);
#585=AXIS2_PLACEMENT_3D('',#939,#737,#738);
#586=AXIS2_PLACEMENT_3D('',#942,#740,#741);
#587=AXIS2_PLACEMENT_3D('',#944,#742,#743);
#588=AXIS2_PLACEMENT_3D('',#947,#745,#746);
#589=AXIS2_PLACEMENT_3D('',#948,#747,#748);
#590=AXIS2_PLACEMENT_3D('',#951,#749,#750);
#591=AXIS2_PLACEMENT_3D('',#952,#751,#752);
#592=AXIS2_PLACEMENT_3D('',#954,#753,#754);
#593=AXIS2_PLACEMENT_3D('',#955,#755,#756);
#594=AXIS2_PLACEMENT_3D('',#959,#758,#759);
#595=AXIS2_PLACEMENT_3D('',#963,#761,#762);
#596=AXIS2_PLACEMENT_3D('',#965,#763,#764);
#597=AXIS2_PLACEMENT_3D('',#966,#765,#766);
#598=AXIS2_PLACEMENT_3D('',#968,#768,#769);
#599=AXIS2_PLACEMENT_3D('',#971,#771,#772);
#600=AXIS2_PLACEMENT_3D('',#972,#773,#774);
#601=AXIS2_PLACEMENT_3D('',#973,#775,#776);
#602=AXIS2_PLACEMENT_3D('',#974,#777,#778);
#603=AXIS2_PLACEMENT_3D('',#975,#779,#780);
#604=AXIS2_PLACEMENT_3D('',#977,#781,#782);
#605=AXIS2_PLACEMENT_3D('',#978,#783,#784);
#606=AXIS2_PLACEMENT_3D('',#979,#785,#786);
#607=AXIS2_PLACEMENT_3D('',#980,#787,#788);
#608=AXIS2_PLACEMENT_3D('',#981,#789,#790);
#609=AXIS2_PLACEMENT_3D('',#982,#791,#792);
#610=AXIS2_PLACEMENT_3D('',#983,#793,#794);
#611=AXIS2_PLACEMENT_3D('',#984,#795,#796);
#612=AXIS2_PLACEMENT_3D('',#986,#797,#798);
#613=AXIS2_PLACEMENT_3D('',#987,#799,#800);
#614=AXIS2_PLACEMENT_3D('',#988,#801,#802);
#615=AXIS2_PLACEMENT_3D('',#989,#803,#804);
#616=AXIS2_PLACEMENT_3D('',#990,#805,#806);
#617=AXIS2_PLACEMENT_3D('',#991,#807,#808);
#618=AXIS2_PLACEMENT_3D('',#992,#809,#810);
#619=AXIS2_PLACEMENT_3D('',#993,#811,#812);
#620=AXIS2_PLACEMENT_3D('',#994,#813,#814);
#621=AXIS2_PLACEMENT_3D('',#995,#815,#816);
#622=AXIS2_PLACEMENT_3D('',#996,#817,#818);
#623=AXIS2_PLACEMENT_3D('',#997,#819,#820);
#624=AXIS2_PLACEMENT_3D('',#999,#821,#822);
#625=AXIS2_PLACEMENT_3D('',#1000,#823,#824);
#626=AXIS2_PLACEMENT_3D('',#1001,#825,#826);
#627=AXIS2_PLACEMENT_3D('',#1002,#827,#828);
#628=AXIS2_PLACEMENT_3D('',#1003,#829,#830);
#629=AXIS2_PLACEMENT_3D('',#1004,#831,#832);
#630=AXIS2_PLACEMENT_3D('',#1005,#833,#834);
#631=AXIS2_PLACEMENT_3D('',#1006,#835,#836);
#632=AXIS2_PLACEMENT_3D('',#1007,#837,#838);
#633=AXIS2_PLACEMENT_3D('',#1008,#839,#840);
#634=AXIS2_PLACEMENT_3D('',#1009,#841,#842);
#635=AXIS2_PLACEMENT_3D('',#1010,#843,#844);
#636=AXIS2_PLACEMENT_3D('',#1011,#845,#846);
#637=AXIS2_PLACEMENT_3D('',#1012,#847,#848);
#638=AXIS2_PLACEMENT_3D('',#1013,#849,#850);
#639=DIRECTION('',(0.,0.,1.));
#640=DIRECTION('',(1.,0.,0.));
#641=DIRECTION('',(1.,0.,0.));
#642=DIRECTION('',(0.,0.,-1.));
#643=DIRECTION('',(1.,0.,0.));
#644=DIRECTION('',(0.,0.,1.));
#645=DIRECTION('',(0.,-1.,1.22460635382238E-16));
#646=DIRECTION('',(0.,1.22460635382238E-16,1.));
#647=DIRECTION('',(1.,0.,0.));
#648=DIRECTION('',(0.,1.,0.));
#649=DIRECTION('',(1.,0.,0.));
#650=DIRECTION('',(0.,1.,0.));
#651=DIRECTION('',(0.,-1.,1.22460635382238E-16));
#652=DIRECTION('',(0.,-1.22460635382238E-16,-1.));
#653=DIRECTION('',(1.,0.,0.));
#654=DIRECTION('',(0.,1.,0.));
#655=DIRECTION('',(1.,0.,0.));
#656=DIRECTION('',(1.,0.,0.));
#657=DIRECTION('',(0.,1.,0.));
#658=DIRECTION('',(-1.,0.,0.));
#659=DIRECTION('',(1.,0.,0.));
#660=DIRECTION('',(0.,1.,0.));
#661=DIRECTION('',(1.,0.,0.));
#662=DIRECTION('',(0.,1.,0.));
#663=DIRECTION('',(1.,0.,0.));
#664=DIRECTION('',(0.,1.,0.));
#665=DIRECTION('',(1.,0.,0.));
#666=DIRECTION('',(0.,1.,0.));
#667=DIRECTION('',(1.,0.,0.));
#668=DIRECTION('',(0.,1.,0.));
#669=DIRECTION('',(1.,0.,0.));
#670=DIRECTION('',(0.,1.,0.));
#671=DIRECTION('',(1.,0.,0.));
#672=DIRECTION('',(0.,0.,-1.));
#673=DIRECTION('',(0.,-1.,1.22460635382238E-16));
#674=DIRECTION('',(0.,-1.22460635382238E-16,-1.));
#675=DIRECTION('',(0.,-1.,1.22460635382238E-16));
#676=DIRECTION('',(0.,1.22460635382238E-16,1.));
#677=DIRECTION('',(1.,0.,0.));
#678=DIRECTION('',(0.,1.,0.));
#679=DIRECTION('',(1.,0.,0.));
#680=DIRECTION('',(0.,1.,0.));
#681=DIRECTION('',(1.,0.,0.));
#682=DIRECTION('',(0.,1.,0.));
#683=DIRECTION('',(1.,0.,0.));
#684=DIRECTION('',(1.,0.,0.));
#685=DIRECTION('',(0.,1.,0.));
#686=DIRECTION('',(-1.,0.,0.));
#687=DIRECTION('',(1.,0.,0.));
#688=DIRECTION('',(0.,1.,0.));
#689=DIRECTION('',(1.,0.,0.));
#690=DIRECTION('',(0.,1.,0.));
#691=DIRECTION('',(1.,0.,0.));
#692=DIRECTION('',(0.,0.,-1.));
#693=DIRECTION('',(0.,-1.,1.22460635382238E-16));
#694=DIRECTION('',(0.,-1.22460635382238E-16,-1.));
#695=DIRECTION('',(1.,0.,0.));
#696=DIRECTION('',(0.,1.,0.));
#697=DIRECTION('',(0.,-1.,1.22460635382238E-16));
#698=DIRECTION('',(0.,1.22460635382238E-16,1.));
#699=DIRECTION('',(1.,0.,0.));
#700=DIRECTION('',(0.,1.,0.));
#701=DIRECTION('',(-1.,6.12303176911189E-17,0.));
#702=DIRECTION('',(0.,0.,1.));
#703=DIRECTION('',(1.,0.,0.));
#704=DIRECTION('',(0.,1.,0.));
#705=DIRECTION('',(1.,0.,0.));
#706=DIRECTION('',(0.,1.,0.));
#707=DIRECTION('',(1.,0.,0.));
#708=DIRECTION('',(0.,1.,0.));
#709=DIRECTION('',(1.,0.,0.));
#710=DIRECTION('',(0.,1.,0.));
#711=DIRECTION('',(1.,0.,0.));
#712=DIRECTION('',(1.,0.,0.));
#713=DIRECTION('',(0.,1.,0.));
#714=DIRECTION('',(1.,0.,0.));
#715=DIRECTION('',(0.,1.,0.));
#716=DIRECTION('',(-1.,0.,0.));
#717=DIRECTION('',(1.,0.,0.));
#718=DIRECTION('',(0.,0.,-1.));
#719=DIRECTION('',(1.,0.,0.));
#720=DIRECTION('',(0.,0.,1.));
#721=DIRECTION('',(0.,-1.,1.22460635382238E-16));
#722=DIRECTION('',(0.,1.22460635382238E-16,1.));
#723=DIRECTION('',(1.,0.,0.));
#724=DIRECTION('',(0.,1.,0.));
#725=DIRECTION('',(0.,-1.,1.22460635382238E-16));
#726=DIRECTION('',(0.,-1.22460635382238E-16,-1.));
#727=DIRECTION('',(-1.,0.,0.));
#728=DIRECTION('',(0.,1.,0.));
#729=DIRECTION('',(0.17364817766693,-0.984807753012208,1.20600183163229E-16));
#730=DIRECTION('',(1.,0.,0.));
#731=DIRECTION('',(0.,1.,0.));
#732=DIRECTION('',(-0.17364817766693,-0.984807753012208,1.20600183163229E-16));
#733=DIRECTION('',(1.,0.,0.));
#734=DIRECTION('',(0.,1.,0.));
#735=DIRECTION('',(1.,0.,0.));
#736=DIRECTION('',(0.,1.,0.));
#737=DIRECTION('',(1.,0.,0.));
#738=DIRECTION('',(0.,1.,0.));
#739=DIRECTION('',(1.,0.,0.));
#740=DIRECTION('',(1.,0.,0.));
#741=DIRECTION('',(0.,1.,0.));
#742=DIRECTION('',(1.,0.,0.));
#743=DIRECTION('',(0.,1.,0.));
#744=DIRECTION('',(-1.,0.,0.));
#745=DIRECTION('',(1.,0.,0.));
#746=DIRECTION('',(0.,0.,-1.));
#747=DIRECTION('',(1.,0.,0.));
#748=DIRECTION('',(0.,0.,1.));
#749=DIRECTION('',(0.,-1.,1.22460635382238E-16));
#750=DIRECTION('',(0.,1.22460635382238E-16,1.));
#751=DIRECTION('',(1.,0.,0.));
#752=DIRECTION('',(0.,1.,0.));
#753=DIRECTION('',(0.,-1.,1.22460635382238E-16));
#754=DIRECTION('',(0.,-1.22460635382238E-16,-1.));
#755=DIRECTION('',(1.,0.,0.));
#756=DIRECTION('',(0.,1.,0.));
#757=DIRECTION('',(1.,0.,0.));
#758=DIRECTION('',(1.,0.,0.));
#759=DIRECTION('',(0.,1.,0.));
#760=DIRECTION('',(-1.,0.,0.));
#761=DIRECTION('',(1.,0.,0.));
#762=DIRECTION('',(0.,1.,0.));
#763=DIRECTION('',(1.,0.,0.));
#764=DIRECTION('',(0.,1.,0.));
#765=DIRECTION('',(1.,0.,0.));
#766=DIRECTION('',(0.,1.,0.));
#767=DIRECTION('',(0.173648177666931,0.984807753012208,-1.20600183163229E-16));
#768=DIRECTION('',(1.,0.,0.));
#769=DIRECTION('',(0.,1.,0.));
#770=DIRECTION('',(-0.173648177666931,0.984807753012208,-1.20600183163229E-16));
#771=DIRECTION('',(1.,0.,0.));
#772=DIRECTION('',(0.,1.,0.));
#773=DIRECTION('',(1.,0.,0.));
#774=DIRECTION('',(0.,1.,0.));
#775=DIRECTION('',(1.,0.,0.));
#776=DIRECTION('',(0.,1.,0.));
#777=DIRECTION('',(1.,0.,0.));
#778=DIRECTION('',(0.,1.,0.));
#779=DIRECTION('',(1.,0.,0.));
#780=DIRECTION('',(0.,1.,0.));
#781=DIRECTION('',(1.,0.,0.));
#782=DIRECTION('',(0.,1.,0.));
#783=DIRECTION('',(1.,0.,0.));
#784=DIRECTION('',(0.,0.,-1.));
#785=DIRECTION('',(1.,0.,0.));
#786=DIRECTION('',(0.,0.,1.));
#787=DIRECTION('',(1.,0.,0.));
#788=DIRECTION('',(0.,1.,0.));
#789=DIRECTION('',(1.,0.,0.));
#790=DIRECTION('',(0.,1.,0.));
#791=DIRECTION('',(1.,0.,0.));
#792=DIRECTION('',(0.,1.,0.));
#793=DIRECTION('',(-1.,0.,0.));
#794=DIRECTION('',(0.,1.,0.));
#795=DIRECTION('',(1.,0.,0.));
#796=DIRECTION('',(0.,1.,0.));
#797=DIRECTION('',(1.,0.,0.));
#798=DIRECTION('',(0.,1.,0.));
#799=DIRECTION('',(1.,0.,0.));
#800=DIRECTION('',(0.,0.,-1.));
#801=DIRECTION('',(1.,0.,0.));
#802=DIRECTION('',(0.,0.,1.));
#803=DIRECTION('',(1.,0.,0.));
#804=DIRECTION('',(0.,1.,0.));
#805=DIRECTION('',(1.,0.,0.));
#806=DIRECTION('',(0.,1.,0.));
#807=DIRECTION('',(1.,0.,0.));
#808=DIRECTION('',(0.,0.,-1.));
#809=DIRECTION('',(1.,0.,0.));
#810=DIRECTION('',(0.,1.,0.));
#811=DIRECTION('',(1.,0.,0.));
#812=DIRECTION('',(0.,1.,0.));
#813=DIRECTION('',(1.,0.,0.));
#814=DIRECTION('',(0.,1.,0.));
#815=DIRECTION('',(1.,0.,0.));
#816=DIRECTION('',(0.,0.,-1.));
#817=DIRECTION('',(1.,0.,0.));
#818=DIRECTION('',(0.,1.,0.));
#819=DIRECTION('',(1.,0.,0.));
#820=DIRECTION('',(0.,1.,0.));
#821=DIRECTION('',(1.,0.,0.));
#822=DIRECTION('',(0.,1.,0.));
#823=DIRECTION('',(1.,0.,0.));
#824=DIRECTION('',(0.,0.,-1.));
#825=DIRECTION('',(1.,0.,0.));
#826=DIRECTION('',(0.,0.,1.));
#827=DIRECTION('',(1.,0.,0.));
#828=DIRECTION('',(0.,0.,-1.));
#829=DIRECTION('',(0.,-1.,1.22460635382238E-16));
#830=DIRECTION('',(0.,1.22460635382238E-16,1.));
#831=DIRECTION('',(0.,-1.,1.22460635382238E-16));
#832=DIRECTION('',(0.,-1.22460635382238E-16,-1.));
#833=DIRECTION('',(1.,0.,0.));
#834=DIRECTION('',(0.,0.,-1.));
#835=DIRECTION('',(0.,-1.,1.22460635382238E-16));
#836=DIRECTION('',(0.,1.22460635382238E-16,1.));
#837=DIRECTION('',(0.,-1.,1.22460635382238E-16));
#838=DIRECTION('',(0.,-1.22460635382238E-16,-1.));
#839=DIRECTION('',(1.,0.,0.));
#840=DIRECTION('',(0.,0.,-1.));
#841=DIRECTION('',(0.,-1.,1.22460635382238E-16));
#842=DIRECTION('',(0.,1.22460635382238E-16,1.));
#843=DIRECTION('',(0.,-1.,1.22460635382238E-16));
#844=DIRECTION('',(0.,-1.22460635382238E-16,-1.));
#845=DIRECTION('',(1.,0.,0.));
#846=DIRECTION('',(0.,0.,-1.));
#847=DIRECTION('',(1.,0.,0.));
#848=DIRECTION('',(0.,0.,-1.));
#849=DIRECTION('',(1.,0.,0.));
#850=DIRECTION('',(0.,0.,-1.));
#851=CARTESIAN_POINT('',(0.,0.,0.));
#852=CARTESIAN_POINT('',(11.34,0.,0.));
#853=CARTESIAN_POINT('',(11.34,0.,0.));
#854=CARTESIAN_POINT('',(11.34,-2.23402080255092E-15,-21.54));
#855=CARTESIAN_POINT('',(11.34,2.23402080255092E-15,21.54));
#856=CARTESIAN_POINT('',(11.34,2.58391940656522E-15,21.1));
#857=CARTESIAN_POINT('',(10.9066845886746,2.59327603568004E-15,21.1764051981735));
#858=CARTESIAN_POINT('',(10.9066845886746,0.,0.));
#859=CARTESIAN_POINT('',(10.9066845886746,21.1764051981735,0.));
#860=CARTESIAN_POINT('',(10.9066845886746,0.,0.));
#861=CARTESIAN_POINT('',(10.9066845886746,-2.59327603568004E-15,-21.1764051981735));
#862=CARTESIAN_POINT('',(11.34,-2.58391940656522E-15,-21.1));
#863=CARTESIAN_POINT('',(11.89,0.,0.));
#864=CARTESIAN_POINT('',(11.89,21.1,-2.58391940656522E-15));
#865=CARTESIAN_POINT('',(11.78,21.1,0.));
#866=CARTESIAN_POINT('',(12.,21.1,0.));
#867=CARTESIAN_POINT('',(12.,0.,0.));
#868=CARTESIAN_POINT('',(12.,-21.1,2.58391940656522E-15));
#869=CARTESIAN_POINT('',(11.89,-21.1,2.58391940656522E-15));
#870=CARTESIAN_POINT('',(11.78,-21.1,2.58391940656522E-15));
#871=CARTESIAN_POINT('',(11.78,0.,0.));
#872=CARTESIAN_POINT('',(11.78,2.58391940656522E-15,21.1));
#873=CARTESIAN_POINT('',(11.78,0.,0.));
#874=CARTESIAN_POINT('',(12.,22.,0.));
#875=CARTESIAN_POINT('',(12.,0.,0.));
#876=CARTESIAN_POINT('',(12.,0.,0.));
#877=CARTESIAN_POINT('',(12.,2.80434855025324E-15,22.9));
#878=CARTESIAN_POINT('',(12.,-2.80434855025324E-15,-22.9));
#879=CARTESIAN_POINT('',(12.,0.,0.));
#880=CARTESIAN_POINT('',(11.4,0.,0.));
#881=CARTESIAN_POINT('',(11.4,-2.80434855025324E-15,-22.9));
#882=CARTESIAN_POINT('',(11.4,-2.87782493148259E-15,-23.5));
#883=CARTESIAN_POINT('',(11.4,2.80434855025324E-15,22.9));
#884=CARTESIAN_POINT('',(11.4,2.87782493148259E-15,23.5));
#885=CARTESIAN_POINT('',(11.4,0.,0.));
#886=CARTESIAN_POINT('',(11.4,-23.5,2.87782493148259E-15));
#887=CARTESIAN_POINT('',(11.4,0.,0.));
#888=CARTESIAN_POINT('',(6.,0.,0.));
#889=CARTESIAN_POINT('',(6.,23.5,-2.87782493148259E-15));
#890=CARTESIAN_POINT('',(0.6,23.5,0.));
#891=CARTESIAN_POINT('',(11.4,23.5,0.));
#892=CARTESIAN_POINT('',(11.4,0.,0.));
#893=CARTESIAN_POINT('',(6.,-23.5,2.87782493148259E-15));
#894=CARTESIAN_POINT('',(0.6,-23.5,2.87782493148259E-15));
#895=CARTESIAN_POINT('',(0.6,0.,0.));
#896=CARTESIAN_POINT('',(0.6,-2.87782493148259E-15,-23.5));
#897=CARTESIAN_POINT('',(0.6,0.,0.));
#898=CARTESIAN_POINT('',(0.6,0.,0.));
#899=CARTESIAN_POINT('',(0.6,-2.80434855025324E-15,-22.9));
#900=CARTESIAN_POINT('',(0.,-2.80434855025324E-15,-22.9));
#901=CARTESIAN_POINT('',(0.6,0.,0.));
#902=CARTESIAN_POINT('',(0.6,2.87782493148259E-15,23.5));
#903=CARTESIAN_POINT('',(0.6,2.80434855025324E-15,22.9));
#904=CARTESIAN_POINT('',(0.,2.80434855025324E-15,22.9));
#905=CARTESIAN_POINT('',(0.,0.,0.));
#906=CARTESIAN_POINT('',(-3.88174193309554E-16,22.,0.));
#907=CARTESIAN_POINT('',(0.,0.,0.));
#908=CARTESIAN_POINT('',(-4.43281479231561E-16,21.1,0.));
#909=CARTESIAN_POINT('',(0.,-21.1,2.58391940656522E-15));
#910=CARTESIAN_POINT('',(0.,0.,0.));
#911=CARTESIAN_POINT('',(0.,0.,0.));
#912=CARTESIAN_POINT('',(0.11,0.,0.));
#913=CARTESIAN_POINT('',(0.11,21.1,-2.58391940656522E-15));
#914=CARTESIAN_POINT('',(0.22,21.1,0.));
#915=CARTESIAN_POINT('',(0.22,0.,0.));
#916=CARTESIAN_POINT('',(0.22,2.58391940656522E-15,21.1));
#917=CARTESIAN_POINT('',(0.22,0.,0.));
#918=CARTESIAN_POINT('',(0.22,-21.1,2.58391940656522E-15));
#919=CARTESIAN_POINT('',(0.11,-21.1,2.58391940656522E-15));
#920=CARTESIAN_POINT('',(0.66,0.,0.));
#921=CARTESIAN_POINT('',(0.66,0.,0.));
#922=CARTESIAN_POINT('',(0.66,-2.23402080255092E-15,-21.54));
#923=CARTESIAN_POINT('',(0.66,2.23402080255092E-15,21.54));
#924=CARTESIAN_POINT('',(0.66,2.58391940656522E-15,21.1));
#925=CARTESIAN_POINT('',(0.22,0.,0.));
#926=CARTESIAN_POINT('',(0.22,-2.58391940656522E-15,-21.1));
#927=CARTESIAN_POINT('',(0.66,-2.58391940656522E-15,-21.1));
#928=CARTESIAN_POINT('',(1.19703139966721,0.,0.));
#929=CARTESIAN_POINT('',(1.19703139966721,20.5882025990867,-2.5212443716624E-15));
#930=CARTESIAN_POINT('',(1.09331541132537,21.1764051981735,0.));
#931=CARTESIAN_POINT('',(1.30074738800904,20.,0.));
#932=CARTESIAN_POINT('',(1.30074738800904,0.,0.));
#933=CARTESIAN_POINT('',(1.30074738800904,-20.,2.44921270764475E-15));
#934=CARTESIAN_POINT('',(1.19703139966721,-20.5882025990867,2.5212443716624E-15));
#935=CARTESIAN_POINT('',(1.09331541132537,-21.1764051981735,2.59327603568004E-15));
#936=CARTESIAN_POINT('',(1.09331541132537,0.,0.));
#937=CARTESIAN_POINT('',(1.09331541132537,2.59327603568004E-15,21.1764051981735));
#938=CARTESIAN_POINT('',(1.09331541132537,0.,0.));
#939=CARTESIAN_POINT('',(2.29201970387529,0.,0.));
#940=CARTESIAN_POINT('',(2.29201970387529,20.,-2.44921270764476E-15));
#941=CARTESIAN_POINT('',(3.28329201974155,20.,0.));
#942=CARTESIAN_POINT('',(3.28329201974155,0.,0.));
#943=CARTESIAN_POINT('',(3.28329201974155,2.44921270764476E-15,20.));
#944=CARTESIAN_POINT('',(3.28329201974155,0.,0.));
#945=CARTESIAN_POINT('',(3.28329201974155,-20.,2.44921270764476E-15));
#946=CARTESIAN_POINT('',(2.29201970387529,-20.,2.44921270764476E-15));
#947=CARTESIAN_POINT('',(6.,0.,0.));
#948=CARTESIAN_POINT('',(6.,0.,0.));
#949=CARTESIAN_POINT('',(6.,-2.40344509160224E-15,-21.3735));
#950=CARTESIAN_POINT('',(6.,2.40344509160224E-15,21.3735));
#951=CARTESIAN_POINT('',(6.,2.20429143688028E-15,18.));
#952=CARTESIAN_POINT('',(3.28329201974155,0.,0.));
#953=CARTESIAN_POINT('',(3.28329201974155,-2.44921270764476E-15,-20.));
#954=CARTESIAN_POINT('',(6.,-2.20429143688028E-15,-18.));
#955=CARTESIAN_POINT('',(9.70798029612471,0.,0.));
#956=CARTESIAN_POINT('',(9.70798029612471,20.,-2.44921270764476E-15));
#957=CARTESIAN_POINT('',(8.71670798025845,20.,0.));
#958=CARTESIAN_POINT('',(10.699252611991,20.,0.));
#959=CARTESIAN_POINT('',(10.699252611991,0.,0.));
#960=CARTESIAN_POINT('',(10.699252611991,-20.,2.44921270764476E-15));
#961=CARTESIAN_POINT('',(9.70798029612471,-20.,2.44921270764476E-15));
#962=CARTESIAN_POINT('',(8.71670798025845,-20.,2.44921270764476E-15));
#963=CARTESIAN_POINT('',(8.71670798025845,0.,0.));
#964=CARTESIAN_POINT('',(8.71670798025845,2.44921270764476E-15,20.));
#965=CARTESIAN_POINT('',(8.71670798025845,0.,0.));
#966=CARTESIAN_POINT('',(10.8029686003328,0.,0.));
#967=CARTESIAN_POINT('',(10.8029686003328,20.5882025990867,-2.5212443716624E-15));
#968=CARTESIAN_POINT('',(10.9066845886746,0.,0.));
#969=CARTESIAN_POINT('',(10.9066845886746,-21.1764051981735,2.59327603568004E-15));
#970=CARTESIAN_POINT('',(10.8029686003328,-20.5882025990867,2.5212443716624E-15));
#971=CARTESIAN_POINT('',(10.8029686003328,0.,0.));
#972=CARTESIAN_POINT('',(10.699252611991,0.,0.));
#973=CARTESIAN_POINT('',(10.9066845886746,0.,0.));
#974=CARTESIAN_POINT('',(9.70798029612471,0.,0.));
#975=CARTESIAN_POINT('',(8.71670798025845,0.,0.));
#976=CARTESIAN_POINT('',(8.71670798025845,-2.44921270764476E-15,-20.));
#977=CARTESIAN_POINT('',(8.71670798025845,0.,0.));
#978=CARTESIAN_POINT('',(6.,0.,0.));
#979=CARTESIAN_POINT('',(6.,0.,0.));
#980=CARTESIAN_POINT('',(3.28329201974155,0.,0.));
#981=CARTESIAN_POINT('',(2.29201970387529,0.,0.));
#982=CARTESIAN_POINT('',(1.30074738800904,0.,0.));
#983=CARTESIAN_POINT('',(1.19703139966721,0.,0.));
#984=CARTESIAN_POINT('',(1.09331541132537,0.,0.));
#985=CARTESIAN_POINT('',(1.09331541132537,-2.59327603568004E-15,-21.1764051981735));
#986=CARTESIAN_POINT('',(1.09331541132537,0.,0.));
#987=CARTESIAN_POINT('',(0.66,0.,0.));
#988=CARTESIAN_POINT('',(0.66,0.,0.));
#989=CARTESIAN_POINT('',(0.22,0.,0.));
#990=CARTESIAN_POINT('',(0.11,0.,0.));
#991=CARTESIAN_POINT('',(0.6,0.,0.));
#992=CARTESIAN_POINT('',(0.6,0.,0.));
#993=CARTESIAN_POINT('',(6.,0.,0.));
#994=CARTESIAN_POINT('',(11.4,0.,0.));
#995=CARTESIAN_POINT('',(11.4,0.,0.));
#996=CARTESIAN_POINT('',(11.89,0.,0.));
#997=CARTESIAN_POINT('',(11.78,0.,0.));
#998=CARTESIAN_POINT('',(11.78,-2.58391940656522E-15,-21.1));
#999=CARTESIAN_POINT('',(11.78,0.,0.));
#1000=CARTESIAN_POINT('',(11.34,0.,0.));
#1001=CARTESIAN_POINT('',(11.34,0.,0.));
#1002=CARTESIAN_POINT('',(11.34,0.,0.));
#1003=CARTESIAN_POINT('',(11.34,2.58391940656522E-15,21.1));
#1004=CARTESIAN_POINT('',(11.34,-2.58391940656522E-15,-21.1));
#1005=CARTESIAN_POINT('',(0.66,0.,0.));
#1006=CARTESIAN_POINT('',(0.66,2.58391940656522E-15,21.1));
#1007=CARTESIAN_POINT('',(0.66,-2.58391940656522E-15,-21.1));
#1008=CARTESIAN_POINT('',(6.,0.,0.));
#1009=CARTESIAN_POINT('',(6.,2.20429143688028E-15,18.));
#1010=CARTESIAN_POINT('',(6.,-2.20429143688028E-15,-18.));
#1011=CARTESIAN_POINT('',(6.,0.,0.));
#1012=CARTESIAN_POINT('',(0.66,0.,0.));
#1013=CARTESIAN_POINT('',(11.34,0.,0.));
#1014=MECHANICAL_DESIGN_GEOMETRIC_PRESENTATION_REPRESENTATION('',(#529),
#1015);
#1015=(
GEOMETRIC_REPRESENTATION_CONTEXT(3)
GLOBAL_UNCERTAINTY_ASSIGNED_CONTEXT((#1016))
GLOBAL_UNIT_ASSIGNED_CONTEXT((#1019,#1018,#1017))
REPRESENTATION_CONTEXT('Part 1','TOP_LEVEL_ASSEMBLY_PART')
);
#1016=UNCERTAINTY_MEASURE_WITH_UNIT(LENGTH_MEASURE(1.E-5),#1019,
'DISTANCE_ACCURACY_VALUE','Maximum Tolerance applied to model');
#1017=(
NAMED_UNIT(*)
SI_UNIT($,.STERADIAN.)
SOLID_ANGLE_UNIT()
);
#1018=(
NAMED_UNIT(*)
PLANE_ANGLE_UNIT()
SI_UNIT($,.RADIAN.)
);
#1019=(
LENGTH_UNIT()
NAMED_UNIT(*)
SI_UNIT(.MILLI.,.METRE.)
);
#1020=PRODUCT_DEFINITION_SHAPE('','',#1021);
#1021=PRODUCT_DEFINITION('','',#1023,#1022);
#1022=PRODUCT_DEFINITION_CONTEXT('',#1029,'design');
#1023=PRODUCT_DEFINITION_FORMATION_WITH_SPECIFIED_SOURCE('','',#1025,
 .NOT_KNOWN.);
#1024=PRODUCT_RELATED_PRODUCT_CATEGORY('','',(#1025));
#1025=PRODUCT('Part 1','Part 1','Part 1',(#1027));
#1026=PRODUCT_CATEGORY('','');
#1027=PRODUCT_CONTEXT('',#1029,'mechanical');
#1028=APPLICATION_PROTOCOL_DEFINITION('international standard',
'ap242_managed_model_based_3d_engineering',2020,#1029);
#1029=APPLICATION_CONTEXT('managed model based 3d engineering');
ENDSEC;
END-ISO-10303-21;
