ISO-10303-21;
HEADER;
/* Generated by software containing ST-Developer
 * from STEP Tools, Inc. (www.steptools.com) 
 */
/* OPTION: using custom renumber hook */

FILE_DESCRIPTION(
/* description */ ('STEP AP242 Edition 2',
'CAx-IF Rec.Pracs.---Representation and Presentation of Product Manufa
cturing Information (PMI)---4.0---2014-10-13',
'CAx-IF Rec.Pracs.---3D Tessellated Geometry---0.4---2014-09-14','2;1',
'CAx-IF Rec.Pracs.---User Defined Attributes---1.5---2016-08-15'),
/* implementation_level */ '2;1');

FILE_NAME(
/* name */ '6005-2z_02',
/* time_stamp */ '2026-06-03T07:08:14Z',
/* author */ (''),
/* organization */ (''),
/* preprocessor_version */ 'ST-DEVELOPER v20',
/* originating_system */ 'ONSHAPE BY PTC INC, 1.215',
/* authorisation */ '  ');

FILE_SCHEMA (('AP242_MANAGED_MODEL_BASED_3D_ENGINEERING_MIM_LF { 1 0 10303 442 3 1 4 }'));
ENDSEC;

DATA;
#10=SHAPE_REPRESENTATION_RELATIONSHIP('','',#283,#11);
#11=ADVANCED_BREP_SHAPE_REPRESENTATION('',(#281),#527);
#12=PLANE('',#298);
#13=PLANE('',#316);
#14=TOROIDAL_SURFACE('',#289,18.,3.3735);
#15=TOROIDAL_SURFACE('',#302,13.1,0.6);
#16=TOROIDAL_SURFACE('',#311,13.1,0.6);
#17=TOROIDAL_SURFACE('',#319,13.1,0.6);
#18=TOROIDAL_SURFACE('',#323,13.1,0.6);
#19=TOROIDAL_SURFACE('',#326,18.,3.3735);
#20=TOROIDAL_SURFACE('',#331,18.,3.3735);
#21=TOROIDAL_SURFACE('',#334,18.,3.3735);
#22=CIRCLE('',#286,16.);
#23=CIRCLE('',#287,16.);
#24=CIRCLE('',#288,16.);
#25=CIRCLE('',#290,14.6265);
#26=CIRCLE('',#291,3.3735);
#27=CIRCLE('',#292,16.);
#28=CIRCLE('',#293,16.);
#29=CIRCLE('',#294,3.3735);
#30=CIRCLE('',#296,16.);
#31=CIRCLE('',#297,16.);
#32=CIRCLE('',#299,13.1);
#33=CIRCLE('',#300,13.1);
#34=CIRCLE('',#301,16.);
#35=CIRCLE('',#303,0.6);
#36=CIRCLE('',#304,0.6);
#37=CIRCLE('',#305,12.5);
#38=CIRCLE('',#306,12.5);
#39=CIRCLE('',#308,12.5);
#40=CIRCLE('',#309,12.5);
#41=CIRCLE('',#310,12.5);
#42=CIRCLE('',#312,0.6);
#43=CIRCLE('',#313,12.5);
#44=CIRCLE('',#314,0.6);
#45=CIRCLE('',#315,13.1);
#46=CIRCLE('',#317,13.1);
#47=CIRCLE('',#318,16.);
#48=CIRCLE('',#320,12.5);
#49=CIRCLE('',#322,12.5);
#50=CIRCLE('',#325,16.);
#51=CIRCLE('',#327,14.6265);
#52=CIRCLE('',#329,16.);
#53=CIRCLE('',#330,16.);
#54=CIRCLE('',#332,3.3735);
#55=CIRCLE('',#333,3.3735);
#56=ORIENTED_EDGE('',*,*,#136,.T.);
#57=ORIENTED_EDGE('',*,*,#137,.F.);
#58=ORIENTED_EDGE('',*,*,#138,.T.);
#59=ORIENTED_EDGE('',*,*,#139,.T.);
#60=ORIENTED_EDGE('',*,*,#140,.T.);
#61=ORIENTED_EDGE('',*,*,#141,.T.);
#62=ORIENTED_EDGE('',*,*,#142,.T.);
#63=ORIENTED_EDGE('',*,*,#143,.T.);
#64=ORIENTED_EDGE('',*,*,#144,.T.);
#65=ORIENTED_EDGE('',*,*,#145,.T.);
#66=ORIENTED_EDGE('',*,*,#146,.T.);
#67=ORIENTED_EDGE('',*,*,#143,.F.);
#68=ORIENTED_EDGE('',*,*,#147,.F.);
#69=ORIENTED_EDGE('',*,*,#148,.T.);
#70=ORIENTED_EDGE('',*,*,#149,.T.);
#71=ORIENTED_EDGE('',*,*,#150,.T.);
#72=ORIENTED_EDGE('',*,*,#151,.T.);
#73=ORIENTED_EDGE('',*,*,#152,.F.);
#74=ORIENTED_EDGE('',*,*,#149,.F.);
#75=ORIENTED_EDGE('',*,*,#153,.T.);
#76=ORIENTED_EDGE('',*,*,#150,.F.);
#77=ORIENTED_EDGE('',*,*,#154,.T.);
#78=ORIENTED_EDGE('',*,*,#155,.T.);
#79=ORIENTED_EDGE('',*,*,#156,.T.);
#80=ORIENTED_EDGE('',*,*,#157,.T.);
#81=ORIENTED_EDGE('',*,*,#158,.T.);
#82=ORIENTED_EDGE('',*,*,#159,.T.);
#83=ORIENTED_EDGE('',*,*,#160,.T.);
#84=ORIENTED_EDGE('',*,*,#155,.F.);
#85=ORIENTED_EDGE('',*,*,#161,.F.);
#86=ORIENTED_EDGE('',*,*,#162,.T.);
#87=ORIENTED_EDGE('',*,*,#163,.F.);
#88=ORIENTED_EDGE('',*,*,#159,.F.);
#89=ORIENTED_EDGE('',*,*,#164,.T.);
#90=ORIENTED_EDGE('',*,*,#165,.T.);
#91=ORIENTED_EDGE('',*,*,#166,.F.);
#92=ORIENTED_EDGE('',*,*,#165,.F.);
#93=ORIENTED_EDGE('',*,*,#167,.T.);
#94=ORIENTED_EDGE('',*,*,#137,.T.);
#95=ORIENTED_EDGE('',*,*,#162,.F.);
#96=ORIENTED_EDGE('',*,*,#166,.T.);
#97=ORIENTED_EDGE('',*,*,#164,.F.);
#98=ORIENTED_EDGE('',*,*,#158,.F.);
#99=ORIENTED_EDGE('',*,*,#168,.F.);
#100=ORIENTED_EDGE('',*,*,#157,.F.);
#101=ORIENTED_EDGE('',*,*,#169,.F.);
#102=ORIENTED_EDGE('',*,*,#156,.F.);
#103=ORIENTED_EDGE('',*,*,#160,.F.);
#104=ORIENTED_EDGE('',*,*,#163,.T.);
#105=ORIENTED_EDGE('',*,*,#168,.T.);
#106=ORIENTED_EDGE('',*,*,#153,.F.);
#107=ORIENTED_EDGE('',*,*,#169,.T.);
#108=ORIENTED_EDGE('',*,*,#161,.T.);
#109=ORIENTED_EDGE('',*,*,#154,.F.);
#110=ORIENTED_EDGE('',*,*,#151,.F.);
#111=ORIENTED_EDGE('',*,*,#146,.F.);
#112=ORIENTED_EDGE('',*,*,#152,.T.);
#113=ORIENTED_EDGE('',*,*,#148,.F.);
#114=ORIENTED_EDGE('',*,*,#170,.F.);
#115=ORIENTED_EDGE('',*,*,#144,.F.);
#116=ORIENTED_EDGE('',*,*,#171,.T.);
#117=ORIENTED_EDGE('',*,*,#145,.F.);
#118=ORIENTED_EDGE('',*,*,#170,.T.);
#119=ORIENTED_EDGE('',*,*,#147,.T.);
#120=ORIENTED_EDGE('',*,*,#142,.F.);
#121=ORIENTED_EDGE('',*,*,#136,.F.);
#122=ORIENTED_EDGE('',*,*,#172,.T.);
#123=ORIENTED_EDGE('',*,*,#173,.T.);
#124=ORIENTED_EDGE('',*,*,#138,.F.);
#125=ORIENTED_EDGE('',*,*,#167,.F.);
#126=ORIENTED_EDGE('',*,*,#171,.F.);
#127=ORIENTED_EDGE('',*,*,#174,.F.);
#128=ORIENTED_EDGE('',*,*,#139,.F.);
#129=ORIENTED_EDGE('',*,*,#173,.F.);
#130=ORIENTED_EDGE('',*,*,#175,.F.);
#131=ORIENTED_EDGE('',*,*,#141,.F.);
#132=ORIENTED_EDGE('',*,*,#175,.T.);
#133=ORIENTED_EDGE('',*,*,#172,.F.);
#134=ORIENTED_EDGE('',*,*,#140,.F.);
#135=ORIENTED_EDGE('',*,*,#174,.T.);
#136=EDGE_CURVE('',#176,#177,#202,.T.);
#137=EDGE_CURVE('',#178,#177,#22,.T.);
#138=EDGE_CURVE('',#178,#179,#203,.T.);
#139=EDGE_CURVE('',#179,#180,#23,.T.);
#140=EDGE_CURVE('',#180,#176,#24,.T.);
#141=EDGE_CURVE('',#181,#182,#25,.T.);
#142=EDGE_CURVE('',#182,#183,#26,.T.);
#143=EDGE_CURVE('',#183,#184,#27,.T.);
#144=EDGE_CURVE('',#184,#185,#28,.T.);
#145=EDGE_CURVE('',#185,#181,#29,.T.);
#146=EDGE_CURVE('',#186,#184,#204,.T.);
#147=EDGE_CURVE('',#187,#183,#30,.T.);
#148=EDGE_CURVE('',#187,#188,#205,.T.);
#149=EDGE_CURVE('',#188,#186,#31,.T.);
#150=EDGE_CURVE('',#189,#190,#32,.T.);
#151=EDGE_CURVE('',#190,#189,#33,.T.);
#152=EDGE_CURVE('',#186,#188,#34,.T.);
#153=EDGE_CURVE('',#191,#190,#35,.T.);
#154=EDGE_CURVE('',#189,#192,#36,.T.);
#155=EDGE_CURVE('',#192,#193,#37,.T.);
#156=EDGE_CURVE('',#193,#191,#38,.T.);
#157=EDGE_CURVE('',#194,#195,#206,.T.);
#158=EDGE_CURVE('',#195,#196,#39,.T.);
#159=EDGE_CURVE('',#196,#197,#40,.T.);
#160=EDGE_CURVE('',#197,#193,#207,.T.);
#161=EDGE_CURVE('',#194,#192,#41,.T.);
#162=EDGE_CURVE('',#198,#199,#42,.T.);
#163=EDGE_CURVE('',#197,#199,#43,.T.);
#164=EDGE_CURVE('',#196,#200,#44,.T.);
#165=EDGE_CURVE('',#200,#198,#45,.T.);
#166=EDGE_CURVE('',#198,#200,#46,.T.);
#167=EDGE_CURVE('',#177,#178,#47,.T.);
#168=EDGE_CURVE('',#199,#195,#48,.T.);
#169=EDGE_CURVE('',#191,#194,#49,.T.);
#170=EDGE_CURVE('',#185,#187,#50,.T.);
#171=EDGE_CURVE('',#182,#181,#51,.T.);
#172=EDGE_CURVE('',#176,#201,#52,.T.);
#173=EDGE_CURVE('',#201,#179,#53,.T.);
#174=EDGE_CURVE('',#180,#182,#54,.T.);
#175=EDGE_CURVE('',#181,#201,#55,.T.);
#176=VERTEX_POINT('',#446);
#177=VERTEX_POINT('',#447);
#178=VERTEX_POINT('',#449);
#179=VERTEX_POINT('',#451);
#180=VERTEX_POINT('',#453);
#181=VERTEX_POINT('',#457);
#182=VERTEX_POINT('',#458);
#183=VERTEX_POINT('',#460);
#184=VERTEX_POINT('',#462);
#185=VERTEX_POINT('',#464);
#186=VERTEX_POINT('',#468);
#187=VERTEX_POINT('',#470);
#188=VERTEX_POINT('',#472);
#189=VERTEX_POINT('',#476);
#190=VERTEX_POINT('',#477);
#191=VERTEX_POINT('',#482);
#192=VERTEX_POINT('',#484);
#193=VERTEX_POINT('',#486);
#194=VERTEX_POINT('',#490);
#195=VERTEX_POINT('',#491);
#196=VERTEX_POINT('',#493);
#197=VERTEX_POINT('',#495);
#198=VERTEX_POINT('',#500);
#199=VERTEX_POINT('',#501);
#200=VERTEX_POINT('',#504);
#201=VERTEX_POINT('',#520);
#202=LINE('',#445,#208);
#203=LINE('',#450,#209);
#204=LINE('',#467,#210);
#205=LINE('',#471,#211);
#206=LINE('',#489,#212);
#207=LINE('',#496,#213);
#208=VECTOR('',#339,1000.);
#209=VECTOR('',#342,1000.);
#210=VECTOR('',#361,1000.);
#211=VECTOR('',#364,1000.);
#212=VECTOR('',#387,1000.);
#213=VECTOR('',#392,1000.);
#214=EDGE_LOOP('',(#56,#57,#58,#59,#60));
#215=EDGE_LOOP('',(#61,#62,#63,#64,#65));
#216=EDGE_LOOP('',(#66,#67,#68,#69,#70));
#217=EDGE_LOOP('',(#71,#72));
#218=EDGE_LOOP('',(#73,#74));
#219=EDGE_LOOP('',(#75,#76,#77,#78,#79));
#220=EDGE_LOOP('',(#80,#81,#82,#83,#84,#85));
#221=EDGE_LOOP('',(#86,#87,#88,#89,#90));
#222=EDGE_LOOP('',(#91,#92));
#223=EDGE_LOOP('',(#93,#94));
#224=EDGE_LOOP('',(#95,#96,#97,#98,#99));
#225=EDGE_LOOP('',(#100,#101,#102,#103,#104,#105));
#226=EDGE_LOOP('',(#106,#107,#108,#109,#110));
#227=EDGE_LOOP('',(#111,#112,#113,#114,#115));
#228=EDGE_LOOP('',(#116,#117,#118,#119,#120));
#229=EDGE_LOOP('',(#121,#122,#123,#124,#125));
#230=EDGE_LOOP('',(#126,#127,#128,#129,#130));
#231=EDGE_LOOP('',(#131,#132,#133,#134,#135));
#232=FACE_BOUND('',#214,.T.);
#233=FACE_BOUND('',#215,.T.);
#234=FACE_BOUND('',#216,.T.);
#235=FACE_BOUND('',#217,.T.);
#236=FACE_BOUND('',#218,.T.);
#237=FACE_BOUND('',#219,.T.);
#238=FACE_BOUND('',#220,.T.);
#239=FACE_BOUND('',#221,.T.);
#240=FACE_BOUND('',#222,.T.);
#241=FACE_BOUND('',#223,.T.);
#242=FACE_BOUND('',#224,.T.);
#243=FACE_BOUND('',#225,.T.);
#244=FACE_BOUND('',#226,.T.);
#245=FACE_BOUND('',#227,.T.);
#246=FACE_BOUND('',#228,.T.);
#247=FACE_BOUND('',#229,.T.);
#248=FACE_BOUND('',#230,.T.);
#249=FACE_BOUND('',#231,.T.);
#250=CYLINDRICAL_SURFACE('',#285,16.);
#251=CYLINDRICAL_SURFACE('',#295,16.);
#252=CYLINDRICAL_SURFACE('',#307,12.5);
#253=CYLINDRICAL_SURFACE('',#321,12.5);
#254=CYLINDRICAL_SURFACE('',#324,16.);
#255=CYLINDRICAL_SURFACE('',#328,16.);
#256=ADVANCED_FACE('',(#232),#250,.T.);
#257=ADVANCED_FACE('',(#233),#14,.F.);
#258=ADVANCED_FACE('',(#234),#251,.T.);
#259=ADVANCED_FACE('',(#235,#236),#12,.T.);
#260=ADVANCED_FACE('',(#237),#15,.T.);
#261=ADVANCED_FACE('',(#238),#252,.F.);
#262=ADVANCED_FACE('',(#239),#16,.T.);
#263=ADVANCED_FACE('',(#240,#241),#13,.T.);
#264=ADVANCED_FACE('',(#242),#17,.T.);
#265=ADVANCED_FACE('',(#243),#253,.F.);
#266=ADVANCED_FACE('',(#244),#18,.T.);
#267=ADVANCED_FACE('',(#245),#254,.T.);
#268=ADVANCED_FACE('',(#246),#19,.F.);
#269=ADVANCED_FACE('',(#247),#255,.T.);
#270=ADVANCED_FACE('',(#248),#20,.F.);
#271=ADVANCED_FACE('',(#249),#21,.F.);
#272=CLOSED_SHELL('',(#256,#257,#258,#259,#260,#261,#262,#263,#264,#265,
#266,#267,#268,#269,#270,#271));
#273=STYLED_ITEM('',(#274),#281);
#274=PRESENTATION_STYLE_ASSIGNMENT((#275));
#275=SURFACE_STYLE_USAGE(.BOTH.,#276);
#276=SURFACE_SIDE_STYLE('',(#277));
#277=SURFACE_STYLE_FILL_AREA(#278);
#278=FILL_AREA_STYLE('',(#279));
#279=FILL_AREA_STYLE_COLOUR('',#280);
#280=COLOUR_RGB('',0.796078431372549,0.823529411764706,0.937254901960784);
#281=MANIFOLD_SOLID_BREP('Part 1',#272);
#282=SHAPE_DEFINITION_REPRESENTATION(#532,#283);
#283=SHAPE_REPRESENTATION('Part 1',(#284),#527);
#284=AXIS2_PLACEMENT_3D('',#443,#335,#336);
#285=AXIS2_PLACEMENT_3D('',#444,#337,#338);
#286=AXIS2_PLACEMENT_3D('',#448,#340,#341);
#287=AXIS2_PLACEMENT_3D('',#452,#343,#344);
#288=AXIS2_PLACEMENT_3D('',#454,#345,#346);
#289=AXIS2_PLACEMENT_3D('',#455,#347,#348);
#290=AXIS2_PLACEMENT_3D('',#456,#349,#350);
#291=AXIS2_PLACEMENT_3D('',#459,#351,#352);
#292=AXIS2_PLACEMENT_3D('',#461,#353,#354);
#293=AXIS2_PLACEMENT_3D('',#463,#355,#356);
#294=AXIS2_PLACEMENT_3D('',#465,#357,#358);
#295=AXIS2_PLACEMENT_3D('',#466,#359,#360);
#296=AXIS2_PLACEMENT_3D('',#469,#362,#363);
#297=AXIS2_PLACEMENT_3D('',#473,#365,#366);
#298=AXIS2_PLACEMENT_3D('',#474,#367,#368);
#299=AXIS2_PLACEMENT_3D('',#475,#369,#370);
#300=AXIS2_PLACEMENT_3D('',#478,#371,#372);
#301=AXIS2_PLACEMENT_3D('',#479,#373,#374);
#302=AXIS2_PLACEMENT_3D('',#480,#375,#376);
#303=AXIS2_PLACEMENT_3D('',#481,#377,#378);
#304=AXIS2_PLACEMENT_3D('',#483,#379,#380);
#305=AXIS2_PLACEMENT_3D('',#485,#381,#382);
#306=AXIS2_PLACEMENT_3D('',#487,#383,#384);
#307=AXIS2_PLACEMENT_3D('',#488,#385,#386);
#308=AXIS2_PLACEMENT_3D('',#492,#388,#389);
#309=AXIS2_PLACEMENT_3D('',#494,#390,#391);
#310=AXIS2_PLACEMENT_3D('',#497,#393,#394);
#311=AXIS2_PLACEMENT_3D('',#498,#395,#396);
#312=AXIS2_PLACEMENT_3D('',#499,#397,#398);
#313=AXIS2_PLACEMENT_3D('',#502,#399,#400);
#314=AXIS2_PLACEMENT_3D('',#503,#401,#402);
#315=AXIS2_PLACEMENT_3D('',#505,#403,#404);
#316=AXIS2_PLACEMENT_3D('',#506,#405,#406);
#317=AXIS2_PLACEMENT_3D('',#507,#407,#408);
#318=AXIS2_PLACEMENT_3D('',#508,#409,#410);
#319=AXIS2_PLACEMENT_3D('',#509,#411,#412);
#320=AXIS2_PLACEMENT_3D('',#510,#413,#414);
#321=AXIS2_PLACEMENT_3D('',#511,#415,#416);
#322=AXIS2_PLACEMENT_3D('',#512,#417,#418);
#323=AXIS2_PLACEMENT_3D('',#513,#419,#420);
#324=AXIS2_PLACEMENT_3D('',#514,#421,#422);
#325=AXIS2_PLACEMENT_3D('',#515,#423,#424);
#326=AXIS2_PLACEMENT_3D('',#516,#425,#426);
#327=AXIS2_PLACEMENT_3D('',#517,#427,#428);
#328=AXIS2_PLACEMENT_3D('',#518,#429,#430);
#329=AXIS2_PLACEMENT_3D('',#519,#431,#432);
#330=AXIS2_PLACEMENT_3D('',#521,#433,#434);
#331=AXIS2_PLACEMENT_3D('',#522,#435,#436);
#332=AXIS2_PLACEMENT_3D('',#523,#437,#438);
#333=AXIS2_PLACEMENT_3D('',#524,#439,#440);
#334=AXIS2_PLACEMENT_3D('',#525,#441,#442);
#335=DIRECTION('',(0.,0.,1.));
#336=DIRECTION('',(1.,0.,0.));
#337=DIRECTION('',(1.,0.,0.));
#338=DIRECTION('',(0.,1.,0.));
#339=DIRECTION('',(1.,0.,0.));
#340=DIRECTION('',(1.,0.,0.));
#341=DIRECTION('',(0.,1.,0.));
#342=DIRECTION('',(-1.,0.,0.));
#343=DIRECTION('',(1.,0.,0.));
#344=DIRECTION('',(0.,1.,0.));
#345=DIRECTION('',(1.,0.,0.));
#346=DIRECTION('',(0.,1.,0.));
#347=DIRECTION('',(1.,0.,0.));
#348=DIRECTION('',(0.,0.,-1.));
#349=DIRECTION('',(-1.,0.,0.));
#350=DIRECTION('',(0.,0.,1.));
#351=DIRECTION('',(0.,-1.,1.22460635382238E-16));
#352=DIRECTION('',(0.,-1.22460635382238E-16,-1.));
#353=DIRECTION('',(1.,0.,0.));
#354=DIRECTION('',(0.,1.,0.));
#355=DIRECTION('',(1.,0.,0.));
#356=DIRECTION('',(0.,1.,0.));
#357=DIRECTION('',(0.,-1.,1.22460635382238E-16));
#358=DIRECTION('',(0.,1.22460635382238E-16,1.));
#359=DIRECTION('',(1.,0.,0.));
#360=DIRECTION('',(0.,1.,0.));
#361=DIRECTION('',(1.,0.,0.));
#362=DIRECTION('',(1.,0.,0.));
#363=DIRECTION('',(0.,1.,0.));
#364=DIRECTION('',(-1.,0.,0.));
#365=DIRECTION('',(1.,0.,0.));
#366=DIRECTION('',(0.,1.,0.));
#367=DIRECTION('',(-1.,6.12303176911189E-17,0.));
#368=DIRECTION('',(0.,0.,1.));
#369=DIRECTION('',(1.,0.,0.));
#370=DIRECTION('',(0.,1.,0.));
#371=DIRECTION('',(1.,0.,0.));
#372=DIRECTION('',(0.,1.,0.));
#373=DIRECTION('',(1.,0.,0.));
#374=DIRECTION('',(0.,1.,0.));
#375=DIRECTION('',(1.,0.,0.));
#376=DIRECTION('',(0.,0.,-1.));
#377=DIRECTION('',(0.,-1.,1.22460635382238E-16));
#378=DIRECTION('',(0.,-1.22460635382238E-16,-1.));
#379=DIRECTION('',(0.,-1.,1.22460635382238E-16));
#380=DIRECTION('',(0.,1.22460635382238E-16,1.));
#381=DIRECTION('',(1.,0.,0.));
#382=DIRECTION('',(0.,1.,0.));
#383=DIRECTION('',(1.,0.,0.));
#384=DIRECTION('',(0.,1.,0.));
#385=DIRECTION('',(1.,0.,0.));
#386=DIRECTION('',(0.,1.,0.));
#387=DIRECTION('',(1.,0.,0.));
#388=DIRECTION('',(1.,0.,0.));
#389=DIRECTION('',(0.,1.,0.));
#390=DIRECTION('',(1.,0.,0.));
#391=DIRECTION('',(0.,1.,0.));
#392=DIRECTION('',(-1.,0.,0.));
#393=DIRECTION('',(1.,0.,0.));
#394=DIRECTION('',(0.,1.,0.));
#395=DIRECTION('',(1.,0.,0.));
#396=DIRECTION('',(0.,0.,-1.));
#397=DIRECTION('',(0.,-1.,1.22460635382238E-16));
#398=DIRECTION('',(0.,-1.22460635382238E-16,-1.));
#399=DIRECTION('',(1.,0.,0.));
#400=DIRECTION('',(0.,1.,0.));
#401=DIRECTION('',(0.,-1.,1.22460635382238E-16));
#402=DIRECTION('',(0.,1.22460635382238E-16,1.));
#403=DIRECTION('',(1.,0.,0.));
#404=DIRECTION('',(0.,1.,0.));
#405=DIRECTION('',(1.,0.,0.));
#406=DIRECTION('',(0.,1.,0.));
#407=DIRECTION('',(1.,0.,0.));
#408=DIRECTION('',(0.,1.,0.));
#409=DIRECTION('',(1.,0.,0.));
#410=DIRECTION('',(0.,1.,0.));
#411=DIRECTION('',(1.,0.,0.));
#412=DIRECTION('',(0.,0.,-1.));
#413=DIRECTION('',(1.,0.,0.));
#414=DIRECTION('',(0.,1.,0.));
#415=DIRECTION('',(1.,0.,0.));
#416=DIRECTION('',(0.,1.,0.));
#417=DIRECTION('',(1.,0.,0.));
#418=DIRECTION('',(0.,1.,0.));
#419=DIRECTION('',(1.,0.,0.));
#420=DIRECTION('',(0.,0.,-1.));
#421=DIRECTION('',(1.,0.,0.));
#422=DIRECTION('',(0.,1.,0.));
#423=DIRECTION('',(1.,0.,0.));
#424=DIRECTION('',(0.,1.,0.));
#425=DIRECTION('',(1.,0.,0.));
#426=DIRECTION('',(0.,0.,-1.));
#427=DIRECTION('',(-1.,0.,0.));
#428=DIRECTION('',(0.,0.,1.));
#429=DIRECTION('',(1.,0.,0.));
#430=DIRECTION('',(0.,1.,0.));
#431=DIRECTION('',(1.,0.,0.));
#432=DIRECTION('',(0.,1.,0.));
#433=DIRECTION('',(1.,0.,0.));
#434=DIRECTION('',(0.,1.,0.));
#435=DIRECTION('',(1.,0.,0.));
#436=DIRECTION('',(0.,0.,-1.));
#437=DIRECTION('',(0.,-1.,1.22460635382238E-16));
#438=DIRECTION('',(0.,-1.22460635382238E-16,-1.));
#439=DIRECTION('',(0.,-1.,1.22460635382238E-16));
#440=DIRECTION('',(0.,1.22460635382238E-16,1.));
#441=DIRECTION('',(1.,0.,0.));
#442=DIRECTION('',(0.,0.,-1.));
#443=CARTESIAN_POINT('',(0.,0.,0.));
#444=CARTESIAN_POINT('',(10.3583539901292,0.,0.));
#445=CARTESIAN_POINT('',(10.3583539901292,16.,-1.9593701661158E-15));
#446=CARTESIAN_POINT('',(8.71670798025846,16.,0.));
#447=CARTESIAN_POINT('',(12.,16.,0.));
#448=CARTESIAN_POINT('',(12.,0.,0.));
#449=CARTESIAN_POINT('',(12.,-16.,1.9593701661158E-15));
#450=CARTESIAN_POINT('',(10.3583539901292,-16.,1.9593701661158E-15));
#451=CARTESIAN_POINT('',(8.71670798025846,-16.,1.9593701661158E-15));
#452=CARTESIAN_POINT('',(8.71670798025846,0.,0.));
#453=CARTESIAN_POINT('',(8.71670798025846,-1.9593701661158E-15,-16.));
#454=CARTESIAN_POINT('',(8.71670798025846,0.,0.));
#455=CARTESIAN_POINT('',(6.,0.,0.));
#456=CARTESIAN_POINT('',(6.,0.,0.));
#457=CARTESIAN_POINT('',(6.,2.02129239452835E-15,14.6265));
#458=CARTESIAN_POINT('',(6.,-2.02129239452835E-15,-14.6265));
#459=CARTESIAN_POINT('',(6.,-2.20429143688028E-15,-18.));
#460=CARTESIAN_POINT('',(3.28329201974154,-1.9593701661158E-15,-16.));
#461=CARTESIAN_POINT('',(3.28329201974154,0.,0.));
#462=CARTESIAN_POINT('',(3.28329201974154,16.,0.));
#463=CARTESIAN_POINT('',(3.28329201974154,0.,0.));
#464=CARTESIAN_POINT('',(3.28329201974154,1.9593701661158E-15,16.));
#465=CARTESIAN_POINT('',(6.,2.20429143688028E-15,18.));
#466=CARTESIAN_POINT('',(1.64164600987077,0.,0.));
#467=CARTESIAN_POINT('',(1.64164600987077,16.,-1.9593701661158E-15));
#468=CARTESIAN_POINT('',(-1.55498986083302E-16,16.,0.));
#469=CARTESIAN_POINT('',(3.28329201974154,0.,0.));
#470=CARTESIAN_POINT('',(3.28329201974154,-16.,1.9593701661158E-15));
#471=CARTESIAN_POINT('',(1.64164600987077,-16.,1.9593701661158E-15));
#472=CARTESIAN_POINT('',(0.,-16.,1.9593701661158E-15));
#473=CARTESIAN_POINT('',(0.,0.,0.));
#474=CARTESIAN_POINT('',(-2.44282946735425E-16,14.55,0.));
#475=CARTESIAN_POINT('',(0.,0.,0.));
#476=CARTESIAN_POINT('',(0.,1.60423432350731E-15,13.1));
#477=CARTESIAN_POINT('',(0.,-1.60423432350731E-15,-13.1));
#478=CARTESIAN_POINT('',(0.,0.,0.));
#479=CARTESIAN_POINT('',(0.,0.,0.));
#480=CARTESIAN_POINT('',(0.6,0.,0.));
#481=CARTESIAN_POINT('',(0.6,-1.60423432350731E-15,-13.1));
#482=CARTESIAN_POINT('',(0.6,-1.53075794227797E-15,-12.5));
#483=CARTESIAN_POINT('',(0.6,1.60423432350731E-15,13.1));
#484=CARTESIAN_POINT('',(0.6,1.53075794227797E-15,12.5));
#485=CARTESIAN_POINT('',(0.6,0.,0.));
#486=CARTESIAN_POINT('',(0.6,-12.5,1.53075794227797E-15));
#487=CARTESIAN_POINT('',(0.6,0.,0.));
#488=CARTESIAN_POINT('',(6.,0.,0.));
#489=CARTESIAN_POINT('',(6.,12.5,-1.53075794227797E-15));
#490=CARTESIAN_POINT('',(0.6,12.5,0.));
#491=CARTESIAN_POINT('',(11.4,12.5,0.));
#492=CARTESIAN_POINT('',(11.4,0.,0.));
#493=CARTESIAN_POINT('',(11.4,1.53075794227797E-15,12.5));
#494=CARTESIAN_POINT('',(11.4,0.,0.));
#495=CARTESIAN_POINT('',(11.4,-12.5,1.53075794227797E-15));
#496=CARTESIAN_POINT('',(6.,-12.5,1.53075794227797E-15));
#497=CARTESIAN_POINT('',(0.6,0.,0.));
#498=CARTESIAN_POINT('',(11.4,0.,0.));
#499=CARTESIAN_POINT('',(11.4,-1.60423432350731E-15,-13.1));
#500=CARTESIAN_POINT('',(12.,-1.60423432350731E-15,-13.1));
#501=CARTESIAN_POINT('',(11.4,-1.53075794227797E-15,-12.5));
#502=CARTESIAN_POINT('',(11.4,0.,0.));
#503=CARTESIAN_POINT('',(11.4,1.60423432350731E-15,13.1));
#504=CARTESIAN_POINT('',(12.,1.60423432350731E-15,13.1));
#505=CARTESIAN_POINT('',(12.,0.,0.));
#506=CARTESIAN_POINT('',(12.,14.55,0.));
#507=CARTESIAN_POINT('',(12.,0.,0.));
#508=CARTESIAN_POINT('',(12.,0.,0.));
#509=CARTESIAN_POINT('',(11.4,0.,0.));
#510=CARTESIAN_POINT('',(11.4,0.,0.));
#511=CARTESIAN_POINT('',(6.,0.,0.));
#512=CARTESIAN_POINT('',(0.6,0.,0.));
#513=CARTESIAN_POINT('',(0.6,0.,0.));
#514=CARTESIAN_POINT('',(1.64164600987077,0.,0.));
#515=CARTESIAN_POINT('',(3.28329201974154,0.,0.));
#516=CARTESIAN_POINT('',(6.,0.,0.));
#517=CARTESIAN_POINT('',(6.,0.,0.));
#518=CARTESIAN_POINT('',(10.3583539901292,0.,0.));
#519=CARTESIAN_POINT('',(8.71670798025846,0.,0.));
#520=CARTESIAN_POINT('',(8.71670798025846,1.9593701661158E-15,16.));
#521=CARTESIAN_POINT('',(8.71670798025846,0.,0.));
#522=CARTESIAN_POINT('',(6.,0.,0.));
#523=CARTESIAN_POINT('',(6.,-2.20429143688028E-15,-18.));
#524=CARTESIAN_POINT('',(6.,2.20429143688028E-15,18.));
#525=CARTESIAN_POINT('',(6.,0.,0.));
#526=MECHANICAL_DESIGN_GEOMETRIC_PRESENTATION_REPRESENTATION('',(#273),
#527);
#527=(
GEOMETRIC_REPRESENTATION_CONTEXT(3)
GLOBAL_UNCERTAINTY_ASSIGNED_CONTEXT((#528))
GLOBAL_UNIT_ASSIGNED_CONTEXT((#531,#530,#529))
REPRESENTATION_CONTEXT('Part 1','TOP_LEVEL_ASSEMBLY_PART')
);
#528=UNCERTAINTY_MEASURE_WITH_UNIT(LENGTH_MEASURE(1.E-5),#531,
'DISTANCE_ACCURACY_VALUE','Maximum Tolerance applied to model');
#529=(
NAMED_UNIT(*)
SI_UNIT($,.STERADIAN.)
SOLID_ANGLE_UNIT()
);
#530=(
NAMED_UNIT(*)
PLANE_ANGLE_UNIT()
SI_UNIT($,.RADIAN.)
);
#531=(
LENGTH_UNIT()
NAMED_UNIT(*)
SI_UNIT(.MILLI.,.METRE.)
);
#532=PRODUCT_DEFINITION_SHAPE('','',#533);
#533=PRODUCT_DEFINITION('','',#535,#534);
#534=PRODUCT_DEFINITION_CONTEXT('',#541,'design');
#535=PRODUCT_DEFINITION_FORMATION_WITH_SPECIFIED_SOURCE('','',#537,
 .NOT_KNOWN.);
#536=PRODUCT_RELATED_PRODUCT_CATEGORY('','',(#537));
#537=PRODUCT('Part 1','Part 1','Part 1',(#539));
#538=PRODUCT_CATEGORY('','');
#539=PRODUCT_CONTEXT('',#541,'mechanical');
#540=APPLICATION_PROTOCOL_DEFINITION('international standard',
'ap242_managed_model_based_3d_engineering',2020,#541);
#541=APPLICATION_CONTEXT('managed model based 3d engineering');
ENDSEC;
END-ISO-10303-21;
