ISO-10303-21;
HEADER;
/* Generated by software containing ST-Developer
 * from STEP Tools, Inc. (www.steptools.com) 
 */
/* OPTION: using custom renumber hook */

FILE_DESCRIPTION(
/* description */ ('STEP AP242 Edition 2',
'CAx-IF Rec.Pracs.---Representation and Presentation of Product Manufa
cturing Information (PMI)---4.0---2014-10-13',
'CAx-IF Rec.Pracs.---3D Tessellated Geometry---0.4---2014-09-14','2;1',
'CAx-IF Rec.Pracs.---User Defined Attributes---1.5---2016-08-15'),
/* implementation_level */ '2;1');

FILE_NAME(
/* name */ '6005-2z_05',
/* time_stamp */ '2026-06-03T07:06:41Z',
/* author */ (''),
/* organization */ (''),
/* preprocessor_version */ 'ST-DEVELOPER v20',
/* originating_system */ 'ONSHAPE BY PTC INC, 1.215',
/* authorisation */ '  ');

FILE_SCHEMA (('AP242_MANAGED_MODEL_BASED_3D_ENGINEERING_MIM_LF { 1 0 10303 442 3 1 4 }'));
ENDSEC;

DATA;
#10=SHAPE_REPRESENTATION_RELATIONSHIP('','',#655,#11);
#11=ADVANCED_BREP_SHAPE_REPRESENTATION('',(#653),#1253);
#12=SPHERICAL_SURFACE('',#695,3.3735);
#13=SPHERICAL_SURFACE('',#698,3.3735);
#14=SPHERICAL_SURFACE('',#701,3.3735);
#15=SPHERICAL_SURFACE('',#704,3.3735);
#16=SPHERICAL_SURFACE('',#707,3.3735);
#17=SPHERICAL_SURFACE('',#710,3.3735);
#18=SPHERICAL_SURFACE('',#713,3.3735);
#19=SPHERICAL_SURFACE('',#716,3.3735);
#20=SPHERICAL_SURFACE('',#719,3.3735);
#21=SPHERICAL_SURFACE('',#722,3.3735);
#22=SPHERICAL_SURFACE('',#725,3.3735);
#23=SPHERICAL_SURFACE('',#726,3.3735);
#24=SPHERICAL_SURFACE('',#727,3.3735);
#25=SPHERICAL_SURFACE('',#728,3.3735);
#26=SPHERICAL_SURFACE('',#729,3.3735);
#27=SPHERICAL_SURFACE('',#730,3.3735);
#28=SPHERICAL_SURFACE('',#731,3.3735);
#29=SPHERICAL_SURFACE('',#732,3.3735);
#30=SPHERICAL_SURFACE('',#733,3.3735);
#31=SPHERICAL_SURFACE('',#734,3.3735);
#32=B_SPLINE_CURVE_WITH_KNOTS('',3,(#940,#941,#942,#943),.UNSPECIFIED.,
 .F.,.F.,(4,4),(0.,1.),.UNSPECIFIED.);
#33=B_SPLINE_CURVE_WITH_KNOTS('',3,(#947,#948,#949,#950),.UNSPECIFIED.,
 .F.,.F.,(4,4),(0.,1.),.UNSPECIFIED.);
#34=B_SPLINE_CURVE_WITH_KNOTS('',3,(#955,#956,#957,#958),.UNSPECIFIED.,
 .F.,.F.,(4,4),(0.,1.),.UNSPECIFIED.);
#35=B_SPLINE_CURVE_WITH_KNOTS('',3,(#962,#963,#964,#965),.UNSPECIFIED.,
 .F.,.F.,(4,4),(0.,1.),.UNSPECIFIED.);
#36=B_SPLINE_CURVE_WITH_KNOTS('',3,(#970,#971,#972,#973),.UNSPECIFIED.,
 .F.,.F.,(4,4),(0.,1.),.UNSPECIFIED.);
#37=B_SPLINE_CURVE_WITH_KNOTS('',3,(#977,#978,#979,#980),.UNSPECIFIED.,
 .F.,.F.,(4,4),(0.,1.),.UNSPECIFIED.);
#38=B_SPLINE_CURVE_WITH_KNOTS('',3,(#985,#986,#987,#988),.UNSPECIFIED.,
 .F.,.F.,(4,4),(0.,1.),.UNSPECIFIED.);
#39=B_SPLINE_CURVE_WITH_KNOTS('',3,(#992,#993,#994,#995),.UNSPECIFIED.,
 .F.,.F.,(4,4),(0.,1.),.UNSPECIFIED.);
#40=B_SPLINE_CURVE_WITH_KNOTS('',3,(#1000,#1001,#1002,#1003),
 .UNSPECIFIED.,.F.,.F.,(4,4),(0.,1.),.UNSPECIFIED.);
#41=B_SPLINE_CURVE_WITH_KNOTS('',3,(#1007,#1008,#1009,#1010),
 .UNSPECIFIED.,.F.,.F.,(4,4),(0.,1.),.UNSPECIFIED.);
#42=B_SPLINE_CURVE_WITH_KNOTS('',3,(#1015,#1016,#1017,#1018),
 .UNSPECIFIED.,.F.,.F.,(4,4),(0.,1.),.UNSPECIFIED.);
#43=B_SPLINE_CURVE_WITH_KNOTS('',3,(#1022,#1023,#1024,#1025),
 .UNSPECIFIED.,.F.,.F.,(4,4),(0.,1.),.UNSPECIFIED.);
#44=B_SPLINE_CURVE_WITH_KNOTS('',3,(#1034,#1035,#1036,#1037),
 .UNSPECIFIED.,.F.,.F.,(4,4),(0.,1.),.UNSPECIFIED.);
#45=B_SPLINE_CURVE_WITH_KNOTS('',3,(#1041,#1042,#1043,#1044),
 .UNSPECIFIED.,.F.,.F.,(4,4),(0.,1.),.UNSPECIFIED.);
#46=B_SPLINE_CURVE_WITH_KNOTS('',3,(#1051,#1052,#1053,#1054),
 .UNSPECIFIED.,.F.,.F.,(4,4),(0.,1.),.UNSPECIFIED.);
#47=B_SPLINE_CURVE_WITH_KNOTS('',3,(#1058,#1059,#1060,#1061),
 .UNSPECIFIED.,.F.,.F.,(4,4),(0.,1.),.UNSPECIFIED.);
#48=B_SPLINE_CURVE_WITH_KNOTS('',3,(#1066,#1067,#1068,#1069),
 .UNSPECIFIED.,.F.,.F.,(4,4),(0.,1.),.UNSPECIFIED.);
#49=B_SPLINE_CURVE_WITH_KNOTS('',3,(#1073,#1074,#1075,#1076),
 .UNSPECIFIED.,.F.,.F.,(4,4),(0.,1.),.UNSPECIFIED.);
#50=B_SPLINE_CURVE_WITH_KNOTS('',3,(#1081,#1082,#1083,#1084),
 .UNSPECIFIED.,.F.,.F.,(4,4),(0.,1.),.UNSPECIFIED.);
#51=B_SPLINE_CURVE_WITH_KNOTS('',3,(#1094,#1095,#1096,#1097),
 .UNSPECIFIED.,.F.,.F.,(4,4),(0.,1.),.UNSPECIFIED.);
#52=B_SPLINE_CURVE_WITH_KNOTS('',3,(#1099,#1100,#1101,#1102),
 .UNSPECIFIED.,.F.,.F.,(4,4),(0.,1.),.UNSPECIFIED.);
#53=B_SPLINE_CURVE_WITH_KNOTS('',3,(#1103,#1104,#1105,#1106),
 .UNSPECIFIED.,.F.,.F.,(4,4),(0.,1.),.UNSPECIFIED.);
#54=B_SPLINE_CURVE_WITH_KNOTS('',3,(#1112,#1113,#1114,#1115),
 .UNSPECIFIED.,.F.,.F.,(4,4),(0.,1.),.UNSPECIFIED.);
#55=B_SPLINE_CURVE_WITH_KNOTS('',3,(#1116,#1117,#1118,#1119),
 .UNSPECIFIED.,.F.,.F.,(4,4),(0.,1.),.UNSPECIFIED.);
#56=B_SPLINE_CURVE_WITH_KNOTS('',3,(#1125,#1126,#1127,#1128),
 .UNSPECIFIED.,.F.,.F.,(4,4),(0.,1.),.UNSPECIFIED.);
#57=B_SPLINE_CURVE_WITH_KNOTS('',3,(#1129,#1130,#1131,#1132),
 .UNSPECIFIED.,.F.,.F.,(4,4),(0.,1.),.UNSPECIFIED.);
#58=B_SPLINE_CURVE_WITH_KNOTS('',3,(#1138,#1139,#1140,#1141),
 .UNSPECIFIED.,.F.,.F.,(4,4),(0.,1.),.UNSPECIFIED.);
#59=B_SPLINE_CURVE_WITH_KNOTS('',3,(#1142,#1143,#1144,#1145),
 .UNSPECIFIED.,.F.,.F.,(4,4),(0.,1.),.UNSPECIFIED.);
#60=B_SPLINE_CURVE_WITH_KNOTS('',3,(#1151,#1152,#1153,#1154),
 .UNSPECIFIED.,.F.,.F.,(4,4),(0.,1.),.UNSPECIFIED.);
#61=B_SPLINE_CURVE_WITH_KNOTS('',3,(#1155,#1156,#1157,#1158),
 .UNSPECIFIED.,.F.,.F.,(4,4),(0.,1.),.UNSPECIFIED.);
#62=B_SPLINE_CURVE_WITH_KNOTS('',3,(#1164,#1165,#1166,#1167),
 .UNSPECIFIED.,.F.,.F.,(4,4),(0.,1.),.UNSPECIFIED.);
#63=B_SPLINE_CURVE_WITH_KNOTS('',3,(#1168,#1169,#1170,#1171),
 .UNSPECIFIED.,.F.,.F.,(4,4),(0.,1.),.UNSPECIFIED.);
#64=B_SPLINE_CURVE_WITH_KNOTS('',3,(#1177,#1178,#1179,#1180),
 .UNSPECIFIED.,.F.,.F.,(4,4),(0.,1.),.UNSPECIFIED.);
#65=B_SPLINE_CURVE_WITH_KNOTS('',3,(#1181,#1182,#1183,#1184),
 .UNSPECIFIED.,.F.,.F.,(4,4),(0.,1.),.UNSPECIFIED.);
#66=B_SPLINE_CURVE_WITH_KNOTS('',3,(#1190,#1191,#1192,#1193),
 .UNSPECIFIED.,.F.,.F.,(4,4),(0.,1.),.UNSPECIFIED.);
#67=B_SPLINE_CURVE_WITH_KNOTS('',3,(#1194,#1195,#1196,#1197),
 .UNSPECIFIED.,.F.,.F.,(4,4),(0.,1.),.UNSPECIFIED.);
#68=B_SPLINE_CURVE_WITH_KNOTS('',3,(#1203,#1204,#1205,#1206),
 .UNSPECIFIED.,.F.,.F.,(4,4),(0.,1.),.UNSPECIFIED.);
#69=B_SPLINE_CURVE_WITH_KNOTS('',3,(#1207,#1208,#1209,#1210),
 .UNSPECIFIED.,.F.,.F.,(4,4),(0.,1.),.UNSPECIFIED.);
#70=B_SPLINE_CURVE_WITH_KNOTS('',3,(#1216,#1217,#1218,#1219),
 .UNSPECIFIED.,.F.,.F.,(4,4),(0.,1.),.UNSPECIFIED.);
#71=B_SPLINE_CURVE_WITH_KNOTS('',3,(#1220,#1221,#1222,#1223),
 .UNSPECIFIED.,.F.,.F.,(4,4),(0.,1.),.UNSPECIFIED.);
#72=ORIENTED_EDGE('',*,*,#248,.T.);
#73=ORIENTED_EDGE('',*,*,#249,.T.);
#74=ORIENTED_EDGE('',*,*,#250,.T.);
#75=ORIENTED_EDGE('',*,*,#251,.T.);
#76=ORIENTED_EDGE('',*,*,#252,.T.);
#77=ORIENTED_EDGE('',*,*,#253,.T.);
#78=ORIENTED_EDGE('',*,*,#254,.T.);
#79=ORIENTED_EDGE('',*,*,#255,.T.);
#80=ORIENTED_EDGE('',*,*,#256,.T.);
#81=ORIENTED_EDGE('',*,*,#257,.T.);
#82=ORIENTED_EDGE('',*,*,#258,.T.);
#83=ORIENTED_EDGE('',*,*,#259,.T.);
#84=ORIENTED_EDGE('',*,*,#260,.T.);
#85=ORIENTED_EDGE('',*,*,#261,.T.);
#86=ORIENTED_EDGE('',*,*,#262,.T.);
#87=ORIENTED_EDGE('',*,*,#263,.T.);
#88=ORIENTED_EDGE('',*,*,#264,.T.);
#89=ORIENTED_EDGE('',*,*,#265,.T.);
#90=ORIENTED_EDGE('',*,*,#266,.T.);
#91=ORIENTED_EDGE('',*,*,#267,.T.);
#92=ORIENTED_EDGE('',*,*,#268,.T.);
#93=ORIENTED_EDGE('',*,*,#269,.T.);
#94=ORIENTED_EDGE('',*,*,#270,.T.);
#95=ORIENTED_EDGE('',*,*,#271,.T.);
#96=ORIENTED_EDGE('',*,*,#272,.T.);
#97=ORIENTED_EDGE('',*,*,#273,.T.);
#98=ORIENTED_EDGE('',*,*,#274,.T.);
#99=ORIENTED_EDGE('',*,*,#275,.T.);
#100=ORIENTED_EDGE('',*,*,#276,.T.);
#101=ORIENTED_EDGE('',*,*,#277,.T.);
#102=ORIENTED_EDGE('',*,*,#278,.T.);
#103=ORIENTED_EDGE('',*,*,#273,.F.);
#104=ORIENTED_EDGE('',*,*,#279,.T.);
#105=ORIENTED_EDGE('',*,*,#280,.T.);
#106=ORIENTED_EDGE('',*,*,#281,.T.);
#107=ORIENTED_EDGE('',*,*,#282,.T.);
#108=ORIENTED_EDGE('',*,*,#283,.T.);
#109=ORIENTED_EDGE('',*,*,#284,.T.);
#110=ORIENTED_EDGE('',*,*,#285,.T.);
#111=ORIENTED_EDGE('',*,*,#286,.T.);
#112=ORIENTED_EDGE('',*,*,#287,.T.);
#113=ORIENTED_EDGE('',*,*,#288,.T.);
#114=ORIENTED_EDGE('',*,*,#289,.T.);
#115=ORIENTED_EDGE('',*,*,#290,.T.);
#116=ORIENTED_EDGE('',*,*,#291,.T.);
#117=ORIENTED_EDGE('',*,*,#290,.F.);
#118=ORIENTED_EDGE('',*,*,#292,.T.);
#119=ORIENTED_EDGE('',*,*,#293,.T.);
#120=ORIENTED_EDGE('',*,*,#294,.F.);
#121=ORIENTED_EDGE('',*,*,#251,.F.);
#122=ORIENTED_EDGE('',*,*,#284,.F.);
#123=ORIENTED_EDGE('',*,*,#295,.F.);
#124=ORIENTED_EDGE('',*,*,#296,.T.);
#125=ORIENTED_EDGE('',*,*,#297,.T.);
#126=ORIENTED_EDGE('',*,*,#298,.F.);
#127=ORIENTED_EDGE('',*,*,#255,.F.);
#128=ORIENTED_EDGE('',*,*,#249,.F.);
#129=ORIENTED_EDGE('',*,*,#299,.F.);
#130=ORIENTED_EDGE('',*,*,#300,.T.);
#131=ORIENTED_EDGE('',*,*,#301,.T.);
#132=ORIENTED_EDGE('',*,*,#302,.F.);
#133=ORIENTED_EDGE('',*,*,#293,.F.);
#134=ORIENTED_EDGE('',*,*,#253,.F.);
#135=ORIENTED_EDGE('',*,*,#303,.F.);
#136=ORIENTED_EDGE('',*,*,#304,.T.);
#137=ORIENTED_EDGE('',*,*,#305,.T.);
#138=ORIENTED_EDGE('',*,*,#306,.F.);
#139=ORIENTED_EDGE('',*,*,#259,.F.);
#140=ORIENTED_EDGE('',*,*,#288,.F.);
#141=ORIENTED_EDGE('',*,*,#307,.F.);
#142=ORIENTED_EDGE('',*,*,#308,.T.);
#143=ORIENTED_EDGE('',*,*,#309,.T.);
#144=ORIENTED_EDGE('',*,*,#310,.F.);
#145=ORIENTED_EDGE('',*,*,#263,.F.);
#146=ORIENTED_EDGE('',*,*,#257,.F.);
#147=ORIENTED_EDGE('',*,*,#311,.F.);
#148=ORIENTED_EDGE('',*,*,#312,.T.);
#149=ORIENTED_EDGE('',*,*,#313,.T.);
#150=ORIENTED_EDGE('',*,*,#314,.F.);
#151=ORIENTED_EDGE('',*,*,#267,.F.);
#152=ORIENTED_EDGE('',*,*,#261,.F.);
#153=ORIENTED_EDGE('',*,*,#315,.F.);
#154=ORIENTED_EDGE('',*,*,#316,.T.);
#155=ORIENTED_EDGE('',*,*,#317,.T.);
#156=ORIENTED_EDGE('',*,*,#318,.F.);
#157=ORIENTED_EDGE('',*,*,#271,.F.);
#158=ORIENTED_EDGE('',*,*,#265,.F.);
#159=ORIENTED_EDGE('',*,*,#319,.F.);
#160=ORIENTED_EDGE('',*,*,#320,.T.);
#161=ORIENTED_EDGE('',*,*,#321,.T.);
#162=ORIENTED_EDGE('',*,*,#322,.F.);
#163=ORIENTED_EDGE('',*,*,#275,.F.);
#164=ORIENTED_EDGE('',*,*,#269,.F.);
#165=ORIENTED_EDGE('',*,*,#323,.F.);
#166=ORIENTED_EDGE('',*,*,#324,.T.);
#167=ORIENTED_EDGE('',*,*,#325,.T.);
#168=ORIENTED_EDGE('',*,*,#326,.F.);
#169=ORIENTED_EDGE('',*,*,#282,.F.);
#170=ORIENTED_EDGE('',*,*,#277,.F.);
#171=ORIENTED_EDGE('',*,*,#327,.F.);
#172=ORIENTED_EDGE('',*,*,#328,.T.);
#173=ORIENTED_EDGE('',*,*,#329,.T.);
#174=ORIENTED_EDGE('',*,*,#330,.F.);
#175=ORIENTED_EDGE('',*,*,#286,.F.);
#176=ORIENTED_EDGE('',*,*,#280,.F.);
#177=ORIENTED_EDGE('',*,*,#331,.F.);
#178=ORIENTED_EDGE('',*,*,#332,.T.);
#179=ORIENTED_EDGE('',*,*,#333,.T.);
#180=ORIENTED_EDGE('',*,*,#332,.F.);
#181=ORIENTED_EDGE('',*,*,#333,.F.);
#182=ORIENTED_EDGE('',*,*,#328,.F.);
#183=ORIENTED_EDGE('',*,*,#329,.F.);
#184=ORIENTED_EDGE('',*,*,#324,.F.);
#185=ORIENTED_EDGE('',*,*,#325,.F.);
#186=ORIENTED_EDGE('',*,*,#320,.F.);
#187=ORIENTED_EDGE('',*,*,#321,.F.);
#188=ORIENTED_EDGE('',*,*,#316,.F.);
#189=ORIENTED_EDGE('',*,*,#317,.F.);
#190=ORIENTED_EDGE('',*,*,#312,.F.);
#191=ORIENTED_EDGE('',*,*,#313,.F.);
#192=ORIENTED_EDGE('',*,*,#308,.F.);
#193=ORIENTED_EDGE('',*,*,#309,.F.);
#194=ORIENTED_EDGE('',*,*,#304,.F.);
#195=ORIENTED_EDGE('',*,*,#305,.F.);
#196=ORIENTED_EDGE('',*,*,#300,.F.);
#197=ORIENTED_EDGE('',*,*,#301,.F.);
#198=ORIENTED_EDGE('',*,*,#296,.F.);
#199=ORIENTED_EDGE('',*,*,#297,.F.);
#200=ORIENTED_EDGE('',*,*,#291,.F.);
#201=ORIENTED_EDGE('',*,*,#302,.T.);
#202=ORIENTED_EDGE('',*,*,#292,.F.);
#203=ORIENTED_EDGE('',*,*,#334,.F.);
#204=ORIENTED_EDGE('',*,*,#287,.F.);
#205=ORIENTED_EDGE('',*,*,#334,.T.);
#206=ORIENTED_EDGE('',*,*,#289,.F.);
#207=ORIENTED_EDGE('',*,*,#307,.T.);
#208=ORIENTED_EDGE('',*,*,#283,.F.);
#209=ORIENTED_EDGE('',*,*,#330,.T.);
#210=ORIENTED_EDGE('',*,*,#285,.F.);
#211=ORIENTED_EDGE('',*,*,#295,.T.);
#212=ORIENTED_EDGE('',*,*,#279,.F.);
#213=ORIENTED_EDGE('',*,*,#326,.T.);
#214=ORIENTED_EDGE('',*,*,#281,.F.);
#215=ORIENTED_EDGE('',*,*,#331,.T.);
#216=ORIENTED_EDGE('',*,*,#276,.F.);
#217=ORIENTED_EDGE('',*,*,#335,.F.);
#218=ORIENTED_EDGE('',*,*,#278,.F.);
#219=ORIENTED_EDGE('',*,*,#327,.T.);
#220=ORIENTED_EDGE('',*,*,#272,.F.);
#221=ORIENTED_EDGE('',*,*,#322,.T.);
#222=ORIENTED_EDGE('',*,*,#274,.F.);
#223=ORIENTED_EDGE('',*,*,#335,.T.);
#224=ORIENTED_EDGE('',*,*,#268,.F.);
#225=ORIENTED_EDGE('',*,*,#318,.T.);
#226=ORIENTED_EDGE('',*,*,#270,.F.);
#227=ORIENTED_EDGE('',*,*,#323,.T.);
#228=ORIENTED_EDGE('',*,*,#264,.F.);
#229=ORIENTED_EDGE('',*,*,#314,.T.);
#230=ORIENTED_EDGE('',*,*,#266,.F.);
#231=ORIENTED_EDGE('',*,*,#319,.T.);
#232=ORIENTED_EDGE('',*,*,#260,.F.);
#233=ORIENTED_EDGE('',*,*,#310,.T.);
#234=ORIENTED_EDGE('',*,*,#262,.F.);
#235=ORIENTED_EDGE('',*,*,#315,.T.);
#236=ORIENTED_EDGE('',*,*,#256,.F.);
#237=ORIENTED_EDGE('',*,*,#306,.T.);
#238=ORIENTED_EDGE('',*,*,#258,.F.);
#239=ORIENTED_EDGE('',*,*,#311,.T.);
#240=ORIENTED_EDGE('',*,*,#252,.F.);
#241=ORIENTED_EDGE('',*,*,#298,.T.);
#242=ORIENTED_EDGE('',*,*,#254,.F.);
#243=ORIENTED_EDGE('',*,*,#303,.T.);
#244=ORIENTED_EDGE('',*,*,#248,.F.);
#245=ORIENTED_EDGE('',*,*,#294,.T.);
#246=ORIENTED_EDGE('',*,*,#250,.F.);
#247=ORIENTED_EDGE('',*,*,#299,.T.);
#248=EDGE_CURVE('',#336,#337,#400,.T.);
#249=EDGE_CURVE('',#337,#338,#32,.F.);
#250=EDGE_CURVE('',#338,#339,#401,.T.);
#251=EDGE_CURVE('',#339,#336,#33,.F.);
#252=EDGE_CURVE('',#340,#341,#402,.T.);
#253=EDGE_CURVE('',#341,#342,#34,.F.);
#254=EDGE_CURVE('',#342,#343,#403,.T.);
#255=EDGE_CURVE('',#343,#340,#35,.F.);
#256=EDGE_CURVE('',#344,#345,#404,.T.);
#257=EDGE_CURVE('',#345,#346,#36,.F.);
#258=EDGE_CURVE('',#346,#347,#405,.T.);
#259=EDGE_CURVE('',#347,#344,#37,.F.);
#260=EDGE_CURVE('',#348,#349,#406,.T.);
#261=EDGE_CURVE('',#349,#350,#38,.F.);
#262=EDGE_CURVE('',#350,#351,#407,.T.);
#263=EDGE_CURVE('',#351,#348,#39,.F.);
#264=EDGE_CURVE('',#352,#353,#408,.T.);
#265=EDGE_CURVE('',#353,#354,#40,.F.);
#266=EDGE_CURVE('',#354,#355,#409,.T.);
#267=EDGE_CURVE('',#355,#352,#41,.F.);
#268=EDGE_CURVE('',#356,#357,#410,.T.);
#269=EDGE_CURVE('',#357,#358,#42,.F.);
#270=EDGE_CURVE('',#358,#359,#411,.T.);
#271=EDGE_CURVE('',#359,#356,#43,.F.);
#272=EDGE_CURVE('',#360,#361,#412,.T.);
#273=EDGE_CURVE('',#361,#362,#413,.T.);
#274=EDGE_CURVE('',#362,#363,#414,.T.);
#275=EDGE_CURVE('',#363,#360,#44,.F.);
#276=EDGE_CURVE('',#361,#364,#415,.T.);
#277=EDGE_CURVE('',#364,#365,#45,.F.);
#278=EDGE_CURVE('',#365,#362,#416,.T.);
#279=EDGE_CURVE('',#366,#367,#417,.T.);
#280=EDGE_CURVE('',#367,#368,#46,.F.);
#281=EDGE_CURVE('',#368,#369,#418,.T.);
#282=EDGE_CURVE('',#369,#366,#47,.F.);
#283=EDGE_CURVE('',#370,#371,#419,.T.);
#284=EDGE_CURVE('',#371,#372,#48,.F.);
#285=EDGE_CURVE('',#372,#373,#420,.T.);
#286=EDGE_CURVE('',#373,#370,#49,.F.);
#287=EDGE_CURVE('',#374,#375,#421,.T.);
#288=EDGE_CURVE('',#375,#376,#50,.F.);
#289=EDGE_CURVE('',#376,#377,#422,.T.);
#290=EDGE_CURVE('',#377,#374,#423,.T.);
#291=EDGE_CURVE('',#378,#374,#424,.T.);
#292=EDGE_CURVE('',#377,#379,#425,.T.);
#293=EDGE_CURVE('',#379,#378,#51,.F.);
#294=EDGE_CURVE('',#336,#339,#52,.F.);
#295=EDGE_CURVE('',#372,#371,#53,.F.);
#296=EDGE_CURVE('',#380,#381,#426,.T.);
#297=EDGE_CURVE('',#381,#380,#427,.T.);
#298=EDGE_CURVE('',#340,#343,#54,.F.);
#299=EDGE_CURVE('',#338,#337,#55,.F.);
#300=EDGE_CURVE('',#382,#383,#428,.T.);
#301=EDGE_CURVE('',#383,#382,#429,.T.);
#302=EDGE_CURVE('',#378,#379,#56,.F.);
#303=EDGE_CURVE('',#342,#341,#57,.F.);
#304=EDGE_CURVE('',#384,#385,#430,.T.);
#305=EDGE_CURVE('',#385,#384,#431,.T.);
#306=EDGE_CURVE('',#344,#347,#58,.F.);
#307=EDGE_CURVE('',#376,#375,#59,.F.);
#308=EDGE_CURVE('',#386,#387,#432,.T.);
#309=EDGE_CURVE('',#387,#386,#433,.T.);
#310=EDGE_CURVE('',#348,#351,#60,.F.);
#311=EDGE_CURVE('',#346,#345,#61,.F.);
#312=EDGE_CURVE('',#388,#389,#434,.T.);
#313=EDGE_CURVE('',#389,#388,#435,.T.);
#314=EDGE_CURVE('',#352,#355,#62,.F.);
#315=EDGE_CURVE('',#350,#349,#63,.F.);
#316=EDGE_CURVE('',#390,#391,#436,.T.);
#317=EDGE_CURVE('',#391,#390,#437,.T.);
#318=EDGE_CURVE('',#356,#359,#64,.F.);
#319=EDGE_CURVE('',#354,#353,#65,.F.);
#320=EDGE_CURVE('',#392,#393,#438,.T.);
#321=EDGE_CURVE('',#393,#392,#439,.T.);
#322=EDGE_CURVE('',#360,#363,#66,.F.);
#323=EDGE_CURVE('',#358,#357,#67,.F.);
#324=EDGE_CURVE('',#394,#395,#440,.T.);
#325=EDGE_CURVE('',#395,#394,#441,.T.);
#326=EDGE_CURVE('',#366,#369,#68,.F.);
#327=EDGE_CURVE('',#365,#364,#69,.F.);
#328=EDGE_CURVE('',#396,#397,#442,.T.);
#329=EDGE_CURVE('',#397,#396,#443,.T.);
#330=EDGE_CURVE('',#370,#373,#70,.F.);
#331=EDGE_CURVE('',#368,#367,#71,.F.);
#332=EDGE_CURVE('',#398,#399,#444,.T.);
#333=EDGE_CURVE('',#399,#398,#445,.T.);
#334=EDGE_CURVE('',#374,#377,#446,.T.);
#335=EDGE_CURVE('',#362,#361,#447,.T.);
#336=VERTEX_POINT('',#938);
#337=VERTEX_POINT('',#939);
#338=VERTEX_POINT('',#944);
#339=VERTEX_POINT('',#946);
#340=VERTEX_POINT('',#953);
#341=VERTEX_POINT('',#954);
#342=VERTEX_POINT('',#959);
#343=VERTEX_POINT('',#961);
#344=VERTEX_POINT('',#968);
#345=VERTEX_POINT('',#969);
#346=VERTEX_POINT('',#974);
#347=VERTEX_POINT('',#976);
#348=VERTEX_POINT('',#983);
#349=VERTEX_POINT('',#984);
#350=VERTEX_POINT('',#989);
#351=VERTEX_POINT('',#991);
#352=VERTEX_POINT('',#998);
#353=VERTEX_POINT('',#999);
#354=VERTEX_POINT('',#1004);
#355=VERTEX_POINT('',#1006);
#356=VERTEX_POINT('',#1013);
#357=VERTEX_POINT('',#1014);
#358=VERTEX_POINT('',#1019);
#359=VERTEX_POINT('',#1021);
#360=VERTEX_POINT('',#1028);
#361=VERTEX_POINT('',#1029);
#362=VERTEX_POINT('',#1031);
#363=VERTEX_POINT('',#1033);
#364=VERTEX_POINT('',#1040);
#365=VERTEX_POINT('',#1045);
#366=VERTEX_POINT('',#1049);
#367=VERTEX_POINT('',#1050);
#368=VERTEX_POINT('',#1055);
#369=VERTEX_POINT('',#1057);
#370=VERTEX_POINT('',#1064);
#371=VERTEX_POINT('',#1065);
#372=VERTEX_POINT('',#1070);
#373=VERTEX_POINT('',#1072);
#374=VERTEX_POINT('',#1079);
#375=VERTEX_POINT('',#1080);
#376=VERTEX_POINT('',#1085);
#377=VERTEX_POINT('',#1087);
#378=VERTEX_POINT('',#1091);
#379=VERTEX_POINT('',#1093);
#380=VERTEX_POINT('',#1108);
#381=VERTEX_POINT('',#1109);
#382=VERTEX_POINT('',#1121);
#383=VERTEX_POINT('',#1122);
#384=VERTEX_POINT('',#1134);
#385=VERTEX_POINT('',#1135);
#386=VERTEX_POINT('',#1147);
#387=VERTEX_POINT('',#1148);
#388=VERTEX_POINT('',#1160);
#389=VERTEX_POINT('',#1161);
#390=VERTEX_POINT('',#1173);
#391=VERTEX_POINT('',#1174);
#392=VERTEX_POINT('',#1186);
#393=VERTEX_POINT('',#1187);
#394=VERTEX_POINT('',#1199);
#395=VERTEX_POINT('',#1200);
#396=VERTEX_POINT('',#1212);
#397=VERTEX_POINT('',#1213);
#398=VERTEX_POINT('',#1225);
#399=VERTEX_POINT('',#1226);
#400=CIRCLE('',#658,18.01);
#401=CIRCLE('',#659,17.99);
#402=CIRCLE('',#661,18.01);
#403=CIRCLE('',#662,17.99);
#404=CIRCLE('',#664,18.01);
#405=CIRCLE('',#665,17.99);
#406=CIRCLE('',#667,18.01);
#407=CIRCLE('',#668,17.99);
#408=CIRCLE('',#670,18.01);
#409=CIRCLE('',#671,17.99);
#410=CIRCLE('',#673,18.01);
#411=CIRCLE('',#674,17.99);
#412=CIRCLE('',#676,18.01);
#413=CIRCLE('',#677,0.01);
#414=CIRCLE('',#678,17.99);
#415=CIRCLE('',#680,18.01);
#416=CIRCLE('',#681,17.99);
#417=CIRCLE('',#683,18.01);
#418=CIRCLE('',#684,17.99);
#419=CIRCLE('',#686,18.01);
#420=CIRCLE('',#687,17.99);
#421=CIRCLE('',#689,18.01);
#422=CIRCLE('',#690,17.99);
#423=CIRCLE('',#691,0.01);
#424=CIRCLE('',#693,18.01);
#425=CIRCLE('',#694,17.99);
#426=CIRCLE('',#696,3.3735);
#427=CIRCLE('',#697,3.3735);
#428=CIRCLE('',#699,3.3735);
#429=CIRCLE('',#700,3.3735);
#430=CIRCLE('',#702,3.3735);
#431=CIRCLE('',#703,3.3735);
#432=CIRCLE('',#705,3.3735);
#433=CIRCLE('',#706,3.3735);
#434=CIRCLE('',#708,3.3735);
#435=CIRCLE('',#709,3.3735);
#436=CIRCLE('',#711,3.3735);
#437=CIRCLE('',#712,3.3735);
#438=CIRCLE('',#714,3.3735);
#439=CIRCLE('',#715,3.3735);
#440=CIRCLE('',#717,3.3735);
#441=CIRCLE('',#718,3.3735);
#442=CIRCLE('',#720,3.3735);
#443=CIRCLE('',#721,3.3735);
#444=CIRCLE('',#723,3.3735);
#445=CIRCLE('',#724,3.3735);
#446=CIRCLE('',#736,0.01);
#447=CIRCLE('',#741,0.01);
#448=EDGE_LOOP('',(#72,#73,#74,#75));
#449=EDGE_LOOP('',(#76,#77,#78,#79));
#450=EDGE_LOOP('',(#80,#81,#82,#83));
#451=EDGE_LOOP('',(#84,#85,#86,#87));
#452=EDGE_LOOP('',(#88,#89,#90,#91));
#453=EDGE_LOOP('',(#92,#93,#94,#95));
#454=EDGE_LOOP('',(#96,#97,#98,#99));
#455=EDGE_LOOP('',(#100,#101,#102,#103));
#456=EDGE_LOOP('',(#104,#105,#106,#107));
#457=EDGE_LOOP('',(#108,#109,#110,#111));
#458=EDGE_LOOP('',(#112,#113,#114,#115));
#459=EDGE_LOOP('',(#116,#117,#118,#119));
#460=EDGE_LOOP('',(#120,#121));
#461=EDGE_LOOP('',(#122,#123));
#462=EDGE_LOOP('',(#124,#125));
#463=EDGE_LOOP('',(#126,#127));
#464=EDGE_LOOP('',(#128,#129));
#465=EDGE_LOOP('',(#130,#131));
#466=EDGE_LOOP('',(#132,#133));
#467=EDGE_LOOP('',(#134,#135));
#468=EDGE_LOOP('',(#136,#137));
#469=EDGE_LOOP('',(#138,#139));
#470=EDGE_LOOP('',(#140,#141));
#471=EDGE_LOOP('',(#142,#143));
#472=EDGE_LOOP('',(#144,#145));
#473=EDGE_LOOP('',(#146,#147));
#474=EDGE_LOOP('',(#148,#149));
#475=EDGE_LOOP('',(#150,#151));
#476=EDGE_LOOP('',(#152,#153));
#477=EDGE_LOOP('',(#154,#155));
#478=EDGE_LOOP('',(#156,#157));
#479=EDGE_LOOP('',(#158,#159));
#480=EDGE_LOOP('',(#160,#161));
#481=EDGE_LOOP('',(#162,#163));
#482=EDGE_LOOP('',(#164,#165));
#483=EDGE_LOOP('',(#166,#167));
#484=EDGE_LOOP('',(#168,#169));
#485=EDGE_LOOP('',(#170,#171));
#486=EDGE_LOOP('',(#172,#173));
#487=EDGE_LOOP('',(#174,#175));
#488=EDGE_LOOP('',(#176,#177));
#489=EDGE_LOOP('',(#178,#179));
#490=EDGE_LOOP('',(#180,#181));
#491=EDGE_LOOP('',(#182,#183));
#492=EDGE_LOOP('',(#184,#185));
#493=EDGE_LOOP('',(#186,#187));
#494=EDGE_LOOP('',(#188,#189));
#495=EDGE_LOOP('',(#190,#191));
#496=EDGE_LOOP('',(#192,#193));
#497=EDGE_LOOP('',(#194,#195));
#498=EDGE_LOOP('',(#196,#197));
#499=EDGE_LOOP('',(#198,#199));
#500=EDGE_LOOP('',(#200,#201,#202,#203));
#501=EDGE_LOOP('',(#204,#205,#206,#207));
#502=EDGE_LOOP('',(#208,#209,#210,#211));
#503=EDGE_LOOP('',(#212,#213,#214,#215));
#504=EDGE_LOOP('',(#216,#217,#218,#219));
#505=EDGE_LOOP('',(#220,#221,#222,#223));
#506=EDGE_LOOP('',(#224,#225,#226,#227));
#507=EDGE_LOOP('',(#228,#229,#230,#231));
#508=EDGE_LOOP('',(#232,#233,#234,#235));
#509=EDGE_LOOP('',(#236,#237,#238,#239));
#510=EDGE_LOOP('',(#240,#241,#242,#243));
#511=EDGE_LOOP('',(#244,#245,#246,#247));
#512=FACE_BOUND('',#448,.T.);
#513=FACE_BOUND('',#449,.T.);
#514=FACE_BOUND('',#450,.T.);
#515=FACE_BOUND('',#451,.T.);
#516=FACE_BOUND('',#452,.T.);
#517=FACE_BOUND('',#453,.T.);
#518=FACE_BOUND('',#454,.T.);
#519=FACE_BOUND('',#455,.T.);
#520=FACE_BOUND('',#456,.T.);
#521=FACE_BOUND('',#457,.T.);
#522=FACE_BOUND('',#458,.T.);
#523=FACE_BOUND('',#459,.T.);
#524=FACE_BOUND('',#460,.T.);
#525=FACE_BOUND('',#461,.T.);
#526=FACE_BOUND('',#462,.T.);
#527=FACE_BOUND('',#463,.T.);
#528=FACE_BOUND('',#464,.T.);
#529=FACE_BOUND('',#465,.T.);
#530=FACE_BOUND('',#466,.T.);
#531=FACE_BOUND('',#467,.T.);
#532=FACE_BOUND('',#468,.T.);
#533=FACE_BOUND('',#469,.T.);
#534=FACE_BOUND('',#470,.T.);
#535=FACE_BOUND('',#471,.T.);
#536=FACE_BOUND('',#472,.T.);
#537=FACE_BOUND('',#473,.T.);
#538=FACE_BOUND('',#474,.T.);
#539=FACE_BOUND('',#475,.T.);
#540=FACE_BOUND('',#476,.T.);
#541=FACE_BOUND('',#477,.T.);
#542=FACE_BOUND('',#478,.T.);
#543=FACE_BOUND('',#479,.T.);
#544=FACE_BOUND('',#480,.T.);
#545=FACE_BOUND('',#481,.T.);
#546=FACE_BOUND('',#482,.T.);
#547=FACE_BOUND('',#483,.T.);
#548=FACE_BOUND('',#484,.T.);
#549=FACE_BOUND('',#485,.T.);
#550=FACE_BOUND('',#486,.T.);
#551=FACE_BOUND('',#487,.T.);
#552=FACE_BOUND('',#488,.T.);
#553=FACE_BOUND('',#489,.T.);
#554=FACE_BOUND('',#490,.T.);
#555=FACE_BOUND('',#491,.T.);
#556=FACE_BOUND('',#492,.T.);
#557=FACE_BOUND('',#493,.T.);
#558=FACE_BOUND('',#494,.T.);
#559=FACE_BOUND('',#495,.T.);
#560=FACE_BOUND('',#496,.T.);
#561=FACE_BOUND('',#497,.T.);
#562=FACE_BOUND('',#498,.T.);
#563=FACE_BOUND('',#499,.T.);
#564=FACE_BOUND('',#500,.T.);
#565=FACE_BOUND('',#501,.T.);
#566=FACE_BOUND('',#502,.T.);
#567=FACE_BOUND('',#503,.T.);
#568=FACE_BOUND('',#504,.T.);
#569=FACE_BOUND('',#505,.T.);
#570=FACE_BOUND('',#506,.T.);
#571=FACE_BOUND('',#507,.T.);
#572=FACE_BOUND('',#508,.T.);
#573=FACE_BOUND('',#509,.T.);
#574=FACE_BOUND('',#510,.T.);
#575=FACE_BOUND('',#511,.T.);
#576=TOROIDAL_SURFACE('',#657,18.,0.01);
#577=TOROIDAL_SURFACE('',#660,18.,0.01);
#578=TOROIDAL_SURFACE('',#663,18.,0.01);
#579=TOROIDAL_SURFACE('',#666,18.,0.01);
#580=TOROIDAL_SURFACE('',#669,18.,0.01);
#581=TOROIDAL_SURFACE('',#672,18.,0.01);
#582=TOROIDAL_SURFACE('',#675,18.,0.01);
#583=TOROIDAL_SURFACE('',#679,18.,0.01);
#584=TOROIDAL_SURFACE('',#682,18.,0.01);
#585=TOROIDAL_SURFACE('',#685,18.,0.01);
#586=TOROIDAL_SURFACE('',#688,18.,0.01);
#587=TOROIDAL_SURFACE('',#692,18.,0.01);
#588=TOROIDAL_SURFACE('',#735,18.,0.01);
#589=TOROIDAL_SURFACE('',#737,18.,0.01);
#590=TOROIDAL_SURFACE('',#738,18.,0.01);
#591=TOROIDAL_SURFACE('',#739,18.,0.01);
#592=TOROIDAL_SURFACE('',#740,18.,0.01);
#593=TOROIDAL_SURFACE('',#742,18.,0.01);
#594=TOROIDAL_SURFACE('',#743,18.,0.01);
#595=TOROIDAL_SURFACE('',#744,18.,0.01);
#596=TOROIDAL_SURFACE('',#745,18.,0.01);
#597=TOROIDAL_SURFACE('',#746,18.,0.01);
#598=TOROIDAL_SURFACE('',#747,18.,0.01);
#599=TOROIDAL_SURFACE('',#748,18.,0.01);
#600=ADVANCED_FACE('',(#512),#576,.T.);
#601=ADVANCED_FACE('',(#513),#577,.T.);
#602=ADVANCED_FACE('',(#514),#578,.T.);
#603=ADVANCED_FACE('',(#515),#579,.T.);
#604=ADVANCED_FACE('',(#516),#580,.T.);
#605=ADVANCED_FACE('',(#517),#581,.T.);
#606=ADVANCED_FACE('',(#518),#582,.T.);
#607=ADVANCED_FACE('',(#519),#583,.T.);
#608=ADVANCED_FACE('',(#520),#584,.T.);
#609=ADVANCED_FACE('',(#521),#585,.T.);
#610=ADVANCED_FACE('',(#522),#586,.T.);
#611=ADVANCED_FACE('',(#523),#587,.T.);
#612=ADVANCED_FACE('',(#524,#525,#526),#12,.T.);
#613=ADVANCED_FACE('',(#527,#528,#529),#13,.T.);
#614=ADVANCED_FACE('',(#530,#531,#532),#14,.T.);
#615=ADVANCED_FACE('',(#533,#534,#535),#15,.T.);
#616=ADVANCED_FACE('',(#536,#537,#538),#16,.T.);
#617=ADVANCED_FACE('',(#539,#540,#541),#17,.T.);
#618=ADVANCED_FACE('',(#542,#543,#544),#18,.T.);
#619=ADVANCED_FACE('',(#545,#546,#547),#19,.T.);
#620=ADVANCED_FACE('',(#548,#549,#550),#20,.T.);
#621=ADVANCED_FACE('',(#551,#552,#553),#21,.T.);
#622=ADVANCED_FACE('',(#554),#22,.T.);
#623=ADVANCED_FACE('',(#555),#23,.T.);
#624=ADVANCED_FACE('',(#556),#24,.T.);
#625=ADVANCED_FACE('',(#557),#25,.T.);
#626=ADVANCED_FACE('',(#558),#26,.T.);
#627=ADVANCED_FACE('',(#559),#27,.T.);
#628=ADVANCED_FACE('',(#560),#28,.T.);
#629=ADVANCED_FACE('',(#561),#29,.T.);
#630=ADVANCED_FACE('',(#562),#30,.T.);
#631=ADVANCED_FACE('',(#563),#31,.T.);
#632=ADVANCED_FACE('',(#564),#588,.T.);
#633=ADVANCED_FACE('',(#565),#589,.T.);
#634=ADVANCED_FACE('',(#566),#590,.T.);
#635=ADVANCED_FACE('',(#567),#591,.T.);
#636=ADVANCED_FACE('',(#568),#592,.T.);
#637=ADVANCED_FACE('',(#569),#593,.T.);
#638=ADVANCED_FACE('',(#570),#594,.T.);
#639=ADVANCED_FACE('',(#571),#595,.T.);
#640=ADVANCED_FACE('',(#572),#596,.T.);
#641=ADVANCED_FACE('',(#573),#597,.T.);
#642=ADVANCED_FACE('',(#574),#598,.T.);
#643=ADVANCED_FACE('',(#575),#599,.T.);
#644=CLOSED_SHELL('',(#600,#601,#602,#603,#604,#605,#606,#607,#608,#609,
#610,#611,#612,#613,#614,#615,#616,#617,#618,#619,#620,#621,#622,#623,#624,
#625,#626,#627,#628,#629,#630,#631,#632,#633,#634,#635,#636,#637,#638,#639,
#640,#641,#642,#643));
#645=STYLED_ITEM('',(#646),#653);
#646=PRESENTATION_STYLE_ASSIGNMENT((#647));
#647=SURFACE_STYLE_USAGE(.BOTH.,#648);
#648=SURFACE_SIDE_STYLE('',(#649));
#649=SURFACE_STYLE_FILL_AREA(#650);
#650=FILL_AREA_STYLE('',(#651));
#651=FILL_AREA_STYLE_COLOUR('',#652);
#652=COLOUR_RGB('',0.796078431372549,0.823529411764706,0.937254901960784);
#653=MANIFOLD_SOLID_BREP('Part 1',#644);
#654=SHAPE_DEFINITION_REPRESENTATION(#1258,#655);
#655=SHAPE_REPRESENTATION('Part 1',(#656),#1253);
#656=AXIS2_PLACEMENT_3D('',#935,#749,#750);
#657=AXIS2_PLACEMENT_3D('',#936,#751,#752);
#658=AXIS2_PLACEMENT_3D('',#937,#753,#754);
#659=AXIS2_PLACEMENT_3D('',#945,#755,#756);
#660=AXIS2_PLACEMENT_3D('',#951,#757,#758);
#661=AXIS2_PLACEMENT_3D('',#952,#759,#760);
#662=AXIS2_PLACEMENT_3D('',#960,#761,#762);
#663=AXIS2_PLACEMENT_3D('',#966,#763,#764);
#664=AXIS2_PLACEMENT_3D('',#967,#765,#766);
#665=AXIS2_PLACEMENT_3D('',#975,#767,#768);
#666=AXIS2_PLACEMENT_3D('',#981,#769,#770);
#667=AXIS2_PLACEMENT_3D('',#982,#771,#772);
#668=AXIS2_PLACEMENT_3D('',#990,#773,#774);
#669=AXIS2_PLACEMENT_3D('',#996,#775,#776);
#670=AXIS2_PLACEMENT_3D('',#997,#777,#778);
#671=AXIS2_PLACEMENT_3D('',#1005,#779,#780);
#672=AXIS2_PLACEMENT_3D('',#1011,#781,#782);
#673=AXIS2_PLACEMENT_3D('',#1012,#783,#784);
#674=AXIS2_PLACEMENT_3D('',#1020,#785,#786);
#675=AXIS2_PLACEMENT_3D('',#1026,#787,#788);
#676=AXIS2_PLACEMENT_3D('',#1027,#789,#790);
#677=AXIS2_PLACEMENT_3D('',#1030,#791,#792);
#678=AXIS2_PLACEMENT_3D('',#1032,#793,#794);
#679=AXIS2_PLACEMENT_3D('',#1038,#795,#796);
#680=AXIS2_PLACEMENT_3D('',#1039,#797,#798);
#681=AXIS2_PLACEMENT_3D('',#1046,#799,#800);
#682=AXIS2_PLACEMENT_3D('',#1047,#801,#802);
#683=AXIS2_PLACEMENT_3D('',#1048,#803,#804);
#684=AXIS2_PLACEMENT_3D('',#1056,#805,#806);
#685=AXIS2_PLACEMENT_3D('',#1062,#807,#808);
#686=AXIS2_PLACEMENT_3D('',#1063,#809,#810);
#687=AXIS2_PLACEMENT_3D('',#1071,#811,#812);
#688=AXIS2_PLACEMENT_3D('',#1077,#813,#814);
#689=AXIS2_PLACEMENT_3D('',#1078,#815,#816);
#690=AXIS2_PLACEMENT_3D('',#1086,#817,#818);
#691=AXIS2_PLACEMENT_3D('',#1088,#819,#820);
#692=AXIS2_PLACEMENT_3D('',#1089,#821,#822);
#693=AXIS2_PLACEMENT_3D('',#1090,#823,#824);
#694=AXIS2_PLACEMENT_3D('',#1092,#825,#826);
#695=AXIS2_PLACEMENT_3D('',#1098,#827,#828);
#696=AXIS2_PLACEMENT_3D('',#1107,#829,#830);
#697=AXIS2_PLACEMENT_3D('',#1110,#831,#832);
#698=AXIS2_PLACEMENT_3D('',#1111,#833,#834);
#699=AXIS2_PLACEMENT_3D('',#1120,#835,#836);
#700=AXIS2_PLACEMENT_3D('',#1123,#837,#838);
#701=AXIS2_PLACEMENT_3D('',#1124,#839,#840);
#702=AXIS2_PLACEMENT_3D('',#1133,#841,#842);
#703=AXIS2_PLACEMENT_3D('',#1136,#843,#844);
#704=AXIS2_PLACEMENT_3D('',#1137,#845,#846);
#705=AXIS2_PLACEMENT_3D('',#1146,#847,#848);
#706=AXIS2_PLACEMENT_3D('',#1149,#849,#850);
#707=AXIS2_PLACEMENT_3D('',#1150,#851,#852);
#708=AXIS2_PLACEMENT_3D('',#1159,#853,#854);
#709=AXIS2_PLACEMENT_3D('',#1162,#855,#856);
#710=AXIS2_PLACEMENT_3D('',#1163,#857,#858);
#711=AXIS2_PLACEMENT_3D('',#1172,#859,#860);
#712=AXIS2_PLACEMENT_3D('',#1175,#861,#862);
#713=AXIS2_PLACEMENT_3D('',#1176,#863,#864);
#714=AXIS2_PLACEMENT_3D('',#1185,#865,#866);
#715=AXIS2_PLACEMENT_3D('',#1188,#867,#868);
#716=AXIS2_PLACEMENT_3D('',#1189,#869,#870);
#717=AXIS2_PLACEMENT_3D('',#1198,#871,#872);
#718=AXIS2_PLACEMENT_3D('',#1201,#873,#874);
#719=AXIS2_PLACEMENT_3D('',#1202,#875,#876);
#720=AXIS2_PLACEMENT_3D('',#1211,#877,#878);
#721=AXIS2_PLACEMENT_3D('',#1214,#879,#880);
#722=AXIS2_PLACEMENT_3D('',#1215,#881,#882);
#723=AXIS2_PLACEMENT_3D('',#1224,#883,#884);
#724=AXIS2_PLACEMENT_3D('',#1227,#885,#886);
#725=AXIS2_PLACEMENT_3D('',#1228,#887,#888);
#726=AXIS2_PLACEMENT_3D('',#1229,#889,#890);
#727=AXIS2_PLACEMENT_3D('',#1230,#891,#892);
#728=AXIS2_PLACEMENT_3D('',#1231,#893,#894);
#729=AXIS2_PLACEMENT_3D('',#1232,#895,#896);
#730=AXIS2_PLACEMENT_3D('',#1233,#897,#898);
#731=AXIS2_PLACEMENT_3D('',#1234,#899,#900);
#732=AXIS2_PLACEMENT_3D('',#1235,#901,#902);
#733=AXIS2_PLACEMENT_3D('',#1236,#903,#904);
#734=AXIS2_PLACEMENT_3D('',#1237,#905,#906);
#735=AXIS2_PLACEMENT_3D('',#1238,#907,#908);
#736=AXIS2_PLACEMENT_3D('',#1239,#909,#910);
#737=AXIS2_PLACEMENT_3D('',#1240,#911,#912);
#738=AXIS2_PLACEMENT_3D('',#1241,#913,#914);
#739=AXIS2_PLACEMENT_3D('',#1242,#915,#916);
#740=AXIS2_PLACEMENT_3D('',#1243,#917,#918);
#741=AXIS2_PLACEMENT_3D('',#1244,#919,#920);
#742=AXIS2_PLACEMENT_3D('',#1245,#921,#922);
#743=AXIS2_PLACEMENT_3D('',#1246,#923,#924);
#744=AXIS2_PLACEMENT_3D('',#1247,#925,#926);
#745=AXIS2_PLACEMENT_3D('',#1248,#927,#928);
#746=AXIS2_PLACEMENT_3D('',#1249,#929,#930);
#747=AXIS2_PLACEMENT_3D('',#1250,#931,#932);
#748=AXIS2_PLACEMENT_3D('',#1251,#933,#934);
#749=DIRECTION('',(0.,0.,1.));
#750=DIRECTION('',(1.,0.,0.));
#751=DIRECTION('',(1.,0.,6.12303176911189E-17));
#752=DIRECTION('',(6.12303176911189E-17,0.,-1.));
#753=DIRECTION('',(1.,0.,6.12303176911189E-17));
#754=DIRECTION('',(6.12303176911189E-17,0.,-1.));
#755=DIRECTION('',(-1.,0.,-6.12303176911189E-17));
#756=DIRECTION('',(6.12303176911189E-17,0.,-1.));
#757=DIRECTION('',(1.,0.,6.12303176911189E-17));
#758=DIRECTION('',(6.12303176911189E-17,0.,-1.));
#759=DIRECTION('',(1.,0.,6.12303176911189E-17));
#760=DIRECTION('',(6.12303176911189E-17,0.,-1.));
#761=DIRECTION('',(-1.,0.,-6.12303176911189E-17));
#762=DIRECTION('',(6.12303176911189E-17,0.,-1.));
#763=DIRECTION('',(1.,0.,6.12303176911189E-17));
#764=DIRECTION('',(6.12303176911189E-17,0.,-1.));
#765=DIRECTION('',(1.,0.,6.12303176911189E-17));
#766=DIRECTION('',(6.12303176911189E-17,0.,-1.));
#767=DIRECTION('',(-1.,0.,-6.12303176911189E-17));
#768=DIRECTION('',(6.12303176911189E-17,0.,-1.));
#769=DIRECTION('',(1.,0.,6.12303176911189E-17));
#770=DIRECTION('',(6.12303176911189E-17,0.,-1.));
#771=DIRECTION('',(1.,0.,6.12303176911189E-17));
#772=DIRECTION('',(6.12303176911189E-17,0.,-1.));
#773=DIRECTION('',(-1.,0.,-6.12303176911189E-17));
#774=DIRECTION('',(6.12303176911189E-17,0.,-1.));
#775=DIRECTION('',(1.,0.,6.12303176911189E-17));
#776=DIRECTION('',(6.12303176911189E-17,0.,-1.));
#777=DIRECTION('',(1.,0.,6.12303176911189E-17));
#778=DIRECTION('',(6.12303176911189E-17,0.,-1.));
#779=DIRECTION('',(-1.,0.,-6.12303176911189E-17));
#780=DIRECTION('',(6.12303176911189E-17,0.,-1.));
#781=DIRECTION('',(1.,0.,6.12303176911189E-17));
#782=DIRECTION('',(6.12303176911189E-17,0.,-1.));
#783=DIRECTION('',(1.,0.,6.12303176911189E-17));
#784=DIRECTION('',(6.12303176911189E-17,0.,-1.));
#785=DIRECTION('',(-1.,0.,-6.12303176911189E-17));
#786=DIRECTION('',(6.12303176911189E-17,0.,-1.));
#787=DIRECTION('',(1.,0.,6.12303176911189E-17));
#788=DIRECTION('',(6.12303176911189E-17,0.,-1.));
#789=DIRECTION('',(1.,0.,6.12303176911189E-17));
#790=DIRECTION('',(6.12303176911189E-17,0.,-1.));
#791=DIRECTION('',(-7.49830360911069E-33,-1.,1.22460635382238E-16));
#792=DIRECTION('',(6.12303176911189E-17,-1.22460635382238E-16,-1.));
#793=DIRECTION('',(-1.,0.,-6.12303176911189E-17));
#794=DIRECTION('',(6.12303176911189E-17,0.,-1.));
#795=DIRECTION('',(1.,0.,6.12303176911189E-17));
#796=DIRECTION('',(6.12303176911189E-17,0.,-1.));
#797=DIRECTION('',(1.,0.,6.12303176911189E-17));
#798=DIRECTION('',(6.12303176911189E-17,0.,-1.));
#799=DIRECTION('',(-1.,0.,-6.12303176911189E-17));
#800=DIRECTION('',(6.12303176911189E-17,0.,-1.));
#801=DIRECTION('',(1.,0.,6.12303176911189E-17));
#802=DIRECTION('',(6.12303176911189E-17,0.,-1.));
#803=DIRECTION('',(1.,0.,6.12303176911189E-17));
#804=DIRECTION('',(6.12303176911189E-17,0.,-1.));
#805=DIRECTION('',(-1.,0.,-6.12303176911189E-17));
#806=DIRECTION('',(6.12303176911189E-17,0.,-1.));
#807=DIRECTION('',(1.,0.,6.12303176911189E-17));
#808=DIRECTION('',(6.12303176911189E-17,0.,-1.));
#809=DIRECTION('',(1.,0.,6.12303176911189E-17));
#810=DIRECTION('',(6.12303176911189E-17,0.,-1.));
#811=DIRECTION('',(-1.,0.,-6.12303176911189E-17));
#812=DIRECTION('',(6.12303176911189E-17,0.,-1.));
#813=DIRECTION('',(1.,0.,6.12303176911189E-17));
#814=DIRECTION('',(6.12303176911189E-17,0.,-1.));
#815=DIRECTION('',(1.,0.,6.12303176911189E-17));
#816=DIRECTION('',(6.12303176911189E-17,0.,-1.));
#817=DIRECTION('',(-1.,0.,-6.12303176911189E-17));
#818=DIRECTION('',(6.12303176911189E-17,0.,-1.));
#819=DIRECTION('',(-7.49830360911069E-33,-1.,1.22460635382238E-16));
#820=DIRECTION('',(-6.12303176911189E-17,1.22460635382238E-16,1.));
#821=DIRECTION('',(1.,0.,6.12303176911189E-17));
#822=DIRECTION('',(6.12303176911189E-17,0.,-1.));
#823=DIRECTION('',(1.,0.,6.12303176911189E-17));
#824=DIRECTION('',(6.12303176911189E-17,0.,-1.));
#825=DIRECTION('',(-1.,0.,-6.12303176911189E-17));
#826=DIRECTION('',(6.12303176911189E-17,0.,-1.));
#827=DIRECTION('',(0.,0.,1.));
#828=DIRECTION('',(1.,0.,0.));
#829=DIRECTION('',(0.,-1.,0.));
#830=DIRECTION('',(0.,0.,1.));
#831=DIRECTION('',(0.,-1.,0.));
#832=DIRECTION('',(0.,0.,1.));
#833=DIRECTION('',(0.,-0.587785252292473,0.809016994374947));
#834=DIRECTION('',(1.,0.,0.));
#835=DIRECTION('',(0.,-0.809016994374947,-0.587785252292473));
#836=DIRECTION('',(0.,-0.587785252292473,0.809016994374947));
#837=DIRECTION('',(0.,-0.809016994374947,-0.587785252292473));
#838=DIRECTION('',(0.,-0.587785252292473,0.809016994374947));
#839=DIRECTION('',(0.,-0.951056516295154,0.309016994374948));
#840=DIRECTION('',(1.,0.,0.));
#841=DIRECTION('',(0.,-0.309016994374948,-0.951056516295153));
#842=DIRECTION('',(0.,-0.951056516295154,0.309016994374948));
#843=DIRECTION('',(0.,-0.309016994374948,-0.951056516295153));
#844=DIRECTION('',(0.,-0.951056516295154,0.309016994374948));
#845=DIRECTION('',(0.,-0.951056516295154,-0.309016994374947));
#846=DIRECTION('',(1.,0.,0.));
#847=DIRECTION('',(0.,0.309016994374947,-0.951056516295154));
#848=DIRECTION('',(0.,-0.951056516295154,-0.309016994374947));
#849=DIRECTION('',(0.,0.309016994374947,-0.951056516295154));
#850=DIRECTION('',(0.,-0.951056516295154,-0.309016994374947));
#851=DIRECTION('',(0.,-0.587785252292473,-0.809016994374947));
#852=DIRECTION('',(1.,0.,0.));
#853=DIRECTION('',(0.,0.809016994374947,-0.587785252292473));
#854=DIRECTION('',(0.,-0.587785252292473,-0.809016994374947));
#855=DIRECTION('',(0.,0.809016994374947,-0.587785252292473));
#856=DIRECTION('',(0.,-0.587785252292473,-0.809016994374947));
#857=DIRECTION('',(0.,-1.22460635382238E-16,-1.));
#858=DIRECTION('',(1.,0.,0.));
#859=DIRECTION('',(0.,1.,-1.22460635382238E-16));
#860=DIRECTION('',(0.,-1.22460635382238E-16,-1.));
#861=DIRECTION('',(0.,1.,-1.22460635382238E-16));
#862=DIRECTION('',(0.,-1.22460635382238E-16,-1.));
#863=DIRECTION('',(0.,0.587785252292473,-0.809016994374948));
#864=DIRECTION('',(1.,0.,0.));
#865=DIRECTION('',(0.,0.809016994374948,0.587785252292473));
#866=DIRECTION('',(0.,0.587785252292473,-0.809016994374948));
#867=DIRECTION('',(0.,0.809016994374948,0.587785252292473));
#868=DIRECTION('',(0.,0.587785252292473,-0.809016994374948));
#869=DIRECTION('',(0.,0.951056516295154,-0.309016994374948));
#870=DIRECTION('',(1.,0.,0.));
#871=DIRECTION('',(0.,0.309016994374948,0.951056516295153));
#872=DIRECTION('',(0.,0.951056516295154,-0.309016994374948));
#873=DIRECTION('',(0.,0.309016994374948,0.951056516295153));
#874=DIRECTION('',(0.,0.951056516295154,-0.309016994374948));
#875=DIRECTION('',(0.,0.951056516295154,0.309016994374947));
#876=DIRECTION('',(1.,0.,0.));
#877=DIRECTION('',(0.,-0.309016994374947,0.951056516295154));
#878=DIRECTION('',(0.,0.951056516295154,0.309016994374947));
#879=DIRECTION('',(0.,-0.309016994374947,0.951056516295154));
#880=DIRECTION('',(0.,0.951056516295154,0.309016994374947));
#881=DIRECTION('',(0.,0.587785252292473,0.809016994374947));
#882=DIRECTION('',(1.,0.,0.));
#883=DIRECTION('',(0.,-0.809016994374947,0.587785252292473));
#884=DIRECTION('',(0.,0.587785252292473,0.809016994374947));
#885=DIRECTION('',(0.,-0.809016994374947,0.587785252292473));
#886=DIRECTION('',(0.,0.587785252292473,0.809016994374947));
#887=DIRECTION('',(0.,0.587785252292473,0.809016994374947));
#888=DIRECTION('',(1.,0.,0.));
#889=DIRECTION('',(0.,0.951056516295154,0.309016994374947));
#890=DIRECTION('',(1.,0.,0.));
#891=DIRECTION('',(0.,0.951056516295154,-0.309016994374948));
#892=DIRECTION('',(1.,0.,0.));
#893=DIRECTION('',(0.,0.587785252292473,-0.809016994374948));
#894=DIRECTION('',(1.,0.,0.));
#895=DIRECTION('',(0.,-1.22460635382238E-16,-1.));
#896=DIRECTION('',(1.,0.,0.));
#897=DIRECTION('',(0.,-0.587785252292473,-0.809016994374947));
#898=DIRECTION('',(1.,0.,0.));
#899=DIRECTION('',(0.,-0.951056516295154,-0.309016994374947));
#900=DIRECTION('',(1.,0.,0.));
#901=DIRECTION('',(0.,-0.951056516295154,0.309016994374948));
#902=DIRECTION('',(1.,0.,0.));
#903=DIRECTION('',(0.,-0.587785252292473,0.809016994374947));
#904=DIRECTION('',(1.,0.,0.));
#905=DIRECTION('',(0.,0.,1.));
#906=DIRECTION('',(1.,0.,0.));
#907=DIRECTION('',(1.,0.,6.12303176911189E-17));
#908=DIRECTION('',(6.12303176911189E-17,0.,-1.));
#909=DIRECTION('',(-7.49830360911069E-33,-1.,1.22460635382238E-16));
#910=DIRECTION('',(-6.12303176911189E-17,1.22460635382238E-16,1.));
#911=DIRECTION('',(1.,0.,6.12303176911189E-17));
#912=DIRECTION('',(6.12303176911189E-17,0.,-1.));
#913=DIRECTION('',(1.,0.,6.12303176911189E-17));
#914=DIRECTION('',(6.12303176911189E-17,0.,-1.));
#915=DIRECTION('',(1.,0.,6.12303176911189E-17));
#916=DIRECTION('',(6.12303176911189E-17,0.,-1.));
#917=DIRECTION('',(1.,0.,6.12303176911189E-17));
#918=DIRECTION('',(6.12303176911189E-17,0.,-1.));
#919=DIRECTION('',(-7.49830360911069E-33,-1.,1.22460635382238E-16));
#920=DIRECTION('',(6.12303176911189E-17,-1.22460635382238E-16,-1.));
#921=DIRECTION('',(1.,0.,6.12303176911189E-17));
#922=DIRECTION('',(6.12303176911189E-17,0.,-1.));
#923=DIRECTION('',(1.,0.,6.12303176911189E-17));
#924=DIRECTION('',(6.12303176911189E-17,0.,-1.));
#925=DIRECTION('',(1.,0.,6.12303176911189E-17));
#926=DIRECTION('',(6.12303176911189E-17,0.,-1.));
#927=DIRECTION('',(1.,0.,6.12303176911189E-17));
#928=DIRECTION('',(6.12303176911189E-17,0.,-1.));
#929=DIRECTION('',(1.,0.,6.12303176911189E-17));
#930=DIRECTION('',(6.12303176911189E-17,0.,-1.));
#931=DIRECTION('',(1.,0.,6.12303176911189E-17));
#932=DIRECTION('',(6.12303176911189E-17,0.,-1.));
#933=DIRECTION('',(1.,0.,6.12303176911189E-17));
#934=DIRECTION('',(6.12303176911189E-17,0.,-1.));
#935=CARTESIAN_POINT('',(0.,0.,0.));
#936=CARTESIAN_POINT('',(6.,0.,0.));
#937=CARTESIAN_POINT('',(6.,0.,2.06952073298417E-32));
#938=CARTESIAN_POINT('',(6.,17.6938777152778,3.35958202709749));
#939=CARTESIAN_POINT('',(6.,16.2893605374466,7.68224142298822));
#940=CARTESIAN_POINT('',(6.,16.2720737260571,7.67200864531323));
#941=CARTESIAN_POINT('',(6.01102911961559,16.2720737260571,7.67200864531323));
#942=CARTESIAN_POINT('',(6.01110761233552,16.2893605374466,7.68224142298816));
#943=CARTESIAN_POINT('',(6.,16.2893605374466,7.68224142298816));
#944=CARTESIAN_POINT('',(6.,16.2720737260571,7.67200864531327));
#945=CARTESIAN_POINT('',(6.,0.,2.06952073298417E-32));
#946=CARTESIAN_POINT('',(6.,17.6738777152778,3.35769958534226));
#947=CARTESIAN_POINT('',(6.,17.6938777152778,3.35958202709749));
#948=CARTESIAN_POINT('',(6.01109918727338,17.6938777152778,3.35958202709749));
#949=CARTESIAN_POINT('',(6.01103493437188,17.6738777152778,3.35769958534226));
#950=CARTESIAN_POINT('',(6.,17.6738777152778,3.35769958534226));
#951=CARTESIAN_POINT('',(6.,0.,0.));
#952=CARTESIAN_POINT('',(6.,0.,-2.18343779537487E-34));
#953=CARTESIAN_POINT('',(6.,12.3399349986571,13.1181593308252));
#954=CARTESIAN_POINT('',(6.,8.66286128931214,15.7897097592748));
#955=CARTESIAN_POINT('',(6.,8.65489064092679,15.7712703354422));
#956=CARTESIAN_POINT('',(6.01102911982663,8.65489064092679,15.7712703354422));
#957=CARTESIAN_POINT('',(6.01110501564165,8.66286128931214,15.7897097592748));
#958=CARTESIAN_POINT('',(6.,8.66286128931214,15.7897097592748));
#959=CARTESIAN_POINT('',(6.,8.65489064092679,15.7712703354422));
#960=CARTESIAN_POINT('',(6.,0.,-2.18343779537487E-34));
#961=CARTESIAN_POINT('',(6.,12.3248611302717,13.1048806984085));
#962=CARTESIAN_POINT('',(6.,12.3399349986571,13.1181593308252));
#963=CARTESIAN_POINT('',(6.01110179986492,12.3399349986571,13.1181593308252));
#964=CARTESIAN_POINT('',(6.01103493413304,12.3248611302717,13.1048806984085));
#965=CARTESIAN_POINT('',(6.,12.3248611302717,13.1048806984085));
#966=CARTESIAN_POINT('',(6.,0.,0.));
#967=CARTESIAN_POINT('',(6.,0.,-2.18343826479199E-34));
#968=CARTESIAN_POINT('',(6.,-8.66286128931214,15.7897097592748));
#969=CARTESIAN_POINT('',(6.,-12.3399349986571,13.1181593308252));
#970=CARTESIAN_POINT('',(6.,-12.3248611302717,13.1048806984085));
#971=CARTESIAN_POINT('',(6.01102911960783,-12.3248611302717,13.1048806984085));
#972=CARTESIAN_POINT('',(6.01110761235331,-12.3399349986571,13.1181593308252));
#973=CARTESIAN_POINT('',(6.,-12.3399349986571,13.1181593308252));
#974=CARTESIAN_POINT('',(6.,-12.3248611302717,13.1048806984085));
#975=CARTESIAN_POINT('',(6.,0.,-2.18343826479199E-34));
#976=CARTESIAN_POINT('',(6.,-8.65489064092679,15.7712703354422));
#977=CARTESIAN_POINT('',(6.,-8.66286128931214,15.7897097592748));
#978=CARTESIAN_POINT('',(6.01110179988638,-8.66286128931214,15.7897097592748));
#979=CARTESIAN_POINT('',(6.01103493414909,-8.65489064092679,15.7712703354422));
#980=CARTESIAN_POINT('',(6.,-8.65489064092679,15.7712703354422));
#981=CARTESIAN_POINT('',(6.,0.,0.));
#982=CARTESIAN_POINT('',(6.,0.,2.06952073767834E-32));
#983=CARTESIAN_POINT('',(6.,-16.2893605374466,7.68224142298822));
#984=CARTESIAN_POINT('',(6.,-17.6938777152778,3.35958202709749));
#985=CARTESIAN_POINT('',(6.,-17.6738777152778,3.35769958534226));
#986=CARTESIAN_POINT('',(6.01102911963052,-17.6738777152778,3.35769958534226));
#987=CARTESIAN_POINT('',(6.01110761231179,-17.6938777152778,3.35958202709749));
#988=CARTESIAN_POINT('',(6.,-17.6938777152778,3.35958202709749));
#989=CARTESIAN_POINT('',(6.,-17.6738777152778,3.35769958534226));
#990=CARTESIAN_POINT('',(6.,0.,2.06952073767834E-32));
#991=CARTESIAN_POINT('',(6.,-16.2720737260571,7.67200864531327));
#992=CARTESIAN_POINT('',(6.,-16.2893605374466,7.68224142298816));
#993=CARTESIAN_POINT('',(6.01110179988424,-16.2893605374466,7.68224142298816));
#994=CARTESIAN_POINT('',(6.0110349341464,-16.2720737260571,7.67200864531323));
#995=CARTESIAN_POINT('',(6.,-16.2720737260571,7.67200864531323));
#996=CARTESIAN_POINT('',(6.,0.,0.));
#997=CARTESIAN_POINT('',(6.,0.,-2.06952073767834E-32));
#998=CARTESIAN_POINT('',(6.,-17.6938777152778,-3.35958202709748));
#999=CARTESIAN_POINT('',(6.,-16.2893605374466,-7.68224142298821));
#1000=CARTESIAN_POINT('',(6.,-16.2720737260571,-7.67200864531322));
#1001=CARTESIAN_POINT('',(6.01102911964146,-16.2720737260571,-7.67200864531322));
#1002=CARTESIAN_POINT('',(6.01110761235844,-16.2893605374466,-7.68224142298815));
#1003=CARTESIAN_POINT('',(6.,-16.2893605374466,-7.68224142298815));
#1004=CARTESIAN_POINT('',(6.,-16.2720737260571,-7.67200864531327));
#1005=CARTESIAN_POINT('',(6.,0.,-2.06952073767834E-32));
#1006=CARTESIAN_POINT('',(6.,-17.6738777152778,-3.35769958534225));
#1007=CARTESIAN_POINT('',(6.,-17.6938777152778,-3.35958202709748));
#1008=CARTESIAN_POINT('',(6.0111017998781,-17.6938777152778,-3.35958202709749));
#1009=CARTESIAN_POINT('',(6.01103493415196,-17.6738777152778,-3.35769958534225));
#1010=CARTESIAN_POINT('',(6.,-17.6738777152778,-3.35769958534226));
#1011=CARTESIAN_POINT('',(6.,0.,0.));
#1012=CARTESIAN_POINT('',(6.,0.,2.18343826479223E-34));
#1013=CARTESIAN_POINT('',(6.,-12.3399349986571,-13.1181593308252));
#1014=CARTESIAN_POINT('',(6.,-8.66286128931215,-15.7897097592748));
#1015=CARTESIAN_POINT('',(6.,-8.6548906409268,-15.7712703354422));
#1016=CARTESIAN_POINT('',(6.01102911960839,-8.6548906409268,-15.7712703354422));
#1017=CARTESIAN_POINT('',(6.01110761234154,-8.66286128931215,-15.7897097592748));
#1018=CARTESIAN_POINT('',(6.,-8.66286128931215,-15.7897097592748));
#1019=CARTESIAN_POINT('',(6.,-8.65489064092679,-15.7712703354422));
#1020=CARTESIAN_POINT('',(6.,0.,2.18343826479223E-34));
#1021=CARTESIAN_POINT('',(6.,-12.3248611302717,-13.1048806984085));
#1022=CARTESIAN_POINT('',(6.,-12.3399349986571,-13.1181593308252));
#1023=CARTESIAN_POINT('',(6.01110179989067,-12.3399349986571,-13.1181593308252));
#1024=CARTESIAN_POINT('',(6.01103493413196,-12.3248611302717,-13.1048806984085));
#1025=CARTESIAN_POINT('',(6.,-12.3248611302717,-13.1048806984085));
#1026=CARTESIAN_POINT('',(6.,0.,0.));
#1027=CARTESIAN_POINT('',(6.,0.,-1.28319672896971E-32));
#1028=CARTESIAN_POINT('',(6.,-2.27255653151386,-17.8660456400143));
#1029=CARTESIAN_POINT('',(6.,-2.20551604295356E-15,-18.01));
#1030=CARTESIAN_POINT('',(6.,-2.20429143688028E-15,-18.));
#1031=CARTESIAN_POINT('',(6.,-2.20306683052646E-15,-17.99));
#1032=CARTESIAN_POINT('',(6.,0.,-1.28319672896971E-32));
#1033=CARTESIAN_POINT('',(6.,-2.26816650012422,-17.8464428031951));
#1034=CARTESIAN_POINT('',(6.,-2.27255653151385,-17.8660456400143));
#1035=CARTESIAN_POINT('',(6.01110179985642,-2.27255653151385,-17.8660456400143));
#1036=CARTESIAN_POINT('',(6.01103493418975,-2.26816650012421,-17.8464428031951));
#1037=CARTESIAN_POINT('',(6.,-2.26816650012421,-17.8464428031951));
#1038=CARTESIAN_POINT('',(6.,0.,0.));
#1039=CARTESIAN_POINT('',(6.,0.,-1.28319672427554E-32));
#1040=CARTESIAN_POINT('',(6.,2.27255653151385,-17.8660456400143));
#1041=CARTESIAN_POINT('',(6.,2.2681665001242,-17.8464428031951));
#1042=CARTESIAN_POINT('',(6.01102911980916,2.2681665001242,-17.8464428031951));
#1043=CARTESIAN_POINT('',(6.01110501564315,2.27255653151385,-17.8660456400143));
#1044=CARTESIAN_POINT('',(6.,2.27255653151385,-17.8660456400143));
#1045=CARTESIAN_POINT('',(6.,2.26816650012421,-17.8464428031951));
#1046=CARTESIAN_POINT('',(6.,0.,-1.28319672427554E-32));
#1047=CARTESIAN_POINT('',(6.,0.,0.));
#1048=CARTESIAN_POINT('',(6.,0.,2.18343826610624E-34));
#1049=CARTESIAN_POINT('',(6.,8.66286128931214,-15.7897097592748));
#1050=CARTESIAN_POINT('',(6.,12.3399349986571,-13.1181593308252));
#1051=CARTESIAN_POINT('',(6.,12.3248611302717,-13.1048806984085));
#1052=CARTESIAN_POINT('',(6.01102631972368,12.3248611302717,-13.1048806984085));
#1053=CARTESIAN_POINT('',(6.01110501584854,12.3399349986571,-13.1181593308252));
#1054=CARTESIAN_POINT('',(6.,12.3399349986571,-13.1181593308252));
#1055=CARTESIAN_POINT('',(6.,12.3248611302717,-13.1048806984085));
#1056=CARTESIAN_POINT('',(6.,0.,2.18343826610624E-34));
#1057=CARTESIAN_POINT('',(6.,8.65489064092679,-15.7712703354422));
#1058=CARTESIAN_POINT('',(6.,8.66286128931214,-15.7897097592748));
#1059=CARTESIAN_POINT('',(6.01109918725934,8.66286128931214,-15.7897097592748));
#1060=CARTESIAN_POINT('',(6.01103493436323,8.65489064092679,-15.7712703354422));
#1061=CARTESIAN_POINT('',(6.,8.65489064092679,-15.7712703354422));
#1062=CARTESIAN_POINT('',(6.,0.,0.));
#1063=CARTESIAN_POINT('',(6.,0.,-4.16189305539029E-33));
#1064=CARTESIAN_POINT('',(6.,16.2893605374466,-7.68224142298822));
#1065=CARTESIAN_POINT('',(6.,17.6938777152778,-3.35958202709749));
#1066=CARTESIAN_POINT('',(6.,17.6738777152778,-3.35769958534226));
#1067=CARTESIAN_POINT('',(6.01102911982677,17.6738777152778,-3.35769958534226));
#1068=CARTESIAN_POINT('',(6.01110501562157,17.6938777152778,-3.35958202709749));
#1069=CARTESIAN_POINT('',(6.,17.6938777152778,-3.35958202709749));
#1070=CARTESIAN_POINT('',(6.,17.6738777152778,-3.35769958534226));
#1071=CARTESIAN_POINT('',(6.,0.,-4.16189305539029E-33));
#1072=CARTESIAN_POINT('',(6.,16.2720737260571,-7.67200864531327));
#1073=CARTESIAN_POINT('',(6.,16.2893605374466,-7.68224142298816));
#1074=CARTESIAN_POINT('',(6.01109918749722,16.2893605374466,-7.68224142298816));
#1075=CARTESIAN_POINT('',(6.01103215131451,16.2720737260571,-7.67200864531323));
#1076=CARTESIAN_POINT('',(6.,16.2720737260571,-7.67200864531323));
#1077=CARTESIAN_POINT('',(6.,0.,0.));
#1078=CARTESIAN_POINT('',(6.,0.,1.28319672896971E-32));
#1079=CARTESIAN_POINT('',(6.,2.2055160432341E-15,18.01));
#1080=CARTESIAN_POINT('',(6.,-2.27255653151385,17.8660456400143));
#1081=CARTESIAN_POINT('',(6.,-2.2681665001242,17.8464428031951));
#1082=CARTESIAN_POINT('',(6.01102911959533,-2.2681665001242,17.8464428031951));
#1083=CARTESIAN_POINT('',(6.01110761234481,-2.27255653151385,17.8660456400143));
#1084=CARTESIAN_POINT('',(6.,-2.27255653151385,17.8660456400143));
#1085=CARTESIAN_POINT('',(6.,-2.26816650012421,17.8464428031951));
#1086=CARTESIAN_POINT('',(6.,0.,1.28319672896971E-32));
#1087=CARTESIAN_POINT('',(6.,2.20306683052646E-15,17.99));
#1088=CARTESIAN_POINT('',(6.,2.20429143688028E-15,18.));
#1089=CARTESIAN_POINT('',(6.,0.,0.));
#1090=CARTESIAN_POINT('',(6.,0.,-2.03891797725535E-64));
#1091=CARTESIAN_POINT('',(6.,2.27255653151386,17.8660456400143));
#1092=CARTESIAN_POINT('',(6.,0.,-2.03891797725535E-64));
#1093=CARTESIAN_POINT('',(6.,2.26816650012421,17.8464428031951));
#1094=CARTESIAN_POINT('',(6.,2.27255653151385,17.8660456400143));
#1095=CARTESIAN_POINT('',(6.01109918725593,2.27255653151385,17.8660456400143));
#1096=CARTESIAN_POINT('',(6.01103493435383,2.2681665001242,17.8464428031951));
#1097=CARTESIAN_POINT('',(6.,2.2681665001242,17.8464428031951));
#1098=CARTESIAN_POINT('',(6.,18.,0.));
#1099=CARTESIAN_POINT('',(6.,17.6738777152778,3.35769958534226));
#1100=CARTESIAN_POINT('',(5.98897088037915,17.6738777152778,3.35769958534226));
#1101=CARTESIAN_POINT('',(5.98889238767769,17.6938777152778,3.35958202709749));
#1102=CARTESIAN_POINT('',(6.,17.6938777152778,3.35958202709749));
#1103=CARTESIAN_POINT('',(6.,17.6938777152778,-3.35958202709749));
#1104=CARTESIAN_POINT('',(5.98889820012938,17.6938777152778,-3.35958202709749));
#1105=CARTESIAN_POINT('',(5.98896506584159,17.6738777152778,-3.35769958534226));
#1106=CARTESIAN_POINT('',(6.,17.6738777152778,-3.35769958534226));
#1107=CARTESIAN_POINT('',(6.,18.,0.));
#1108=CARTESIAN_POINT('',(6.,18.,-3.3735));
#1109=CARTESIAN_POINT('',(6.,18.,3.3735));
#1110=CARTESIAN_POINT('',(6.,18.,0.));
#1111=CARTESIAN_POINT('',(6.,14.5623058987491,10.5801345412645));
#1112=CARTESIAN_POINT('',(6.,12.3248611302717,13.1048806984085));
#1113=CARTESIAN_POINT('',(5.9889708803716,12.3248611302717,13.1048806984085));
#1114=CARTESIAN_POINT('',(5.98889238765459,12.3399349986571,13.1181593308252));
#1115=CARTESIAN_POINT('',(6.,12.3399349986571,13.1181593308252));
#1116=CARTESIAN_POINT('',(6.,16.2893605374466,7.68224142298816));
#1117=CARTESIAN_POINT('',(5.98889820013912,16.2893605374466,7.68224142298816));
#1118=CARTESIAN_POINT('',(5.98896506587548,16.2720737260571,7.67200864531323));
#1119=CARTESIAN_POINT('',(6.,16.2720737260571,7.67200864531323));
#1120=CARTESIAN_POINT('',(6.,14.5623058987491,10.5801345412645));
#1121=CARTESIAN_POINT('',(6.,16.5451994473577,7.85091571074063));
#1122=CARTESIAN_POINT('',(6.,12.5794123501404,13.3093533717884));
#1123=CARTESIAN_POINT('',(6.,14.5623058987491,10.5801345412645));
#1124=CARTESIAN_POINT('',(6.,5.56230589874905,17.1190172933128));
#1125=CARTESIAN_POINT('',(6.,2.2681665001242,17.8464428031951));
#1126=CARTESIAN_POINT('',(5.98897088043103,2.2681665001242,17.8464428031951));
#1127=CARTESIAN_POINT('',(5.98889238764204,2.27255653151385,17.8660456400143));
#1128=CARTESIAN_POINT('',(6.,2.27255653151385,17.8660456400143));
#1129=CARTESIAN_POINT('',(6.,8.66286128931214,15.7897097592748));
#1130=CARTESIAN_POINT('',(5.98889820016249,8.66286128931214,15.7897097592748));
#1131=CARTESIAN_POINT('',(5.98896506584767,8.65489064092679,15.7712703354422));
#1132=CARTESIAN_POINT('',(6.,8.65489064092679,15.7712703354422));
#1133=CARTESIAN_POINT('',(6.,5.56230589874905,17.1190172933128));
#1134=CARTESIAN_POINT('',(6.,8.77069505647076,16.0765484627889));
#1135=CARTESIAN_POINT('',(6.,2.35391674102735,18.1614861238366));
#1136=CARTESIAN_POINT('',(6.,5.56230589874905,17.1190172933128));
#1137=CARTESIAN_POINT('',(6.,-5.56230589874905,17.1190172933128));
#1138=CARTESIAN_POINT('',(6.,-8.65489064092679,15.7712703354422));
#1139=CARTESIAN_POINT('',(5.98897088040999,-8.65489064092679,15.7712703354422));
#1140=CARTESIAN_POINT('',(5.98889238765217,-8.66286128931214,15.7897097592748));
#1141=CARTESIAN_POINT('',(6.,-8.66286128931214,15.7897097592748));
#1142=CARTESIAN_POINT('',(6.,-2.27255653151385,17.8660456400143));
#1143=CARTESIAN_POINT('',(5.98889820012635,-2.27255653151385,17.8660456400143));
#1144=CARTESIAN_POINT('',(5.98896506585059,-2.2681665001242,17.8464428031951));
#1145=CARTESIAN_POINT('',(6.,-2.2681665001242,17.8464428031951));
#1146=CARTESIAN_POINT('',(6.,-5.56230589874905,17.1190172933128));
#1147=CARTESIAN_POINT('',(6.,-2.35391674102735,18.1614861238366));
#1148=CARTESIAN_POINT('',(6.,-8.77069505647075,16.0765484627889));
#1149=CARTESIAN_POINT('',(6.,-5.56230589874905,17.1190172933128));
#1150=CARTESIAN_POINT('',(6.,-14.5623058987491,10.5801345412645));
#1151=CARTESIAN_POINT('',(6.,-16.2720737260571,7.67200864531323));
#1152=CARTESIAN_POINT('',(5.98897088039559,-16.2720737260571,7.67200864531323));
#1153=CARTESIAN_POINT('',(5.98889238764862,-16.2893605374466,7.68224142298816));
#1154=CARTESIAN_POINT('',(6.,-16.2893605374466,7.68224142298816));
#1155=CARTESIAN_POINT('',(6.,-12.3399349986571,13.1181593308252));
#1156=CARTESIAN_POINT('',(5.98889820012784,-12.3399349986571,13.1181593308252));
#1157=CARTESIAN_POINT('',(5.98896506584588,-12.3248611302717,13.1048806984085));
#1158=CARTESIAN_POINT('',(6.,-12.3248611302717,13.1048806984085));
#1159=CARTESIAN_POINT('',(6.,-14.5623058987491,10.5801345412645));
#1160=CARTESIAN_POINT('',(6.,-12.5794123501404,13.3093533717884));
#1161=CARTESIAN_POINT('',(6.,-16.5451994473577,7.85091571074063));
#1162=CARTESIAN_POINT('',(6.,-14.5623058987491,10.5801345412645));
#1163=CARTESIAN_POINT('',(6.,-18.,2.20429143688028E-15));
#1164=CARTESIAN_POINT('',(6.,-17.6738777152778,-3.35769958534226));
#1165=CARTESIAN_POINT('',(5.98897088036518,-17.6738777152778,-3.35769958534225));
#1166=CARTESIAN_POINT('',(5.98889238767199,-17.6938777152778,-3.35958202709749));
#1167=CARTESIAN_POINT('',(6.,-17.6938777152778,-3.35958202709748));
#1168=CARTESIAN_POINT('',(6.,-17.6938777152778,3.35958202709749));
#1169=CARTESIAN_POINT('',(5.98889820012292,-17.6938777152778,3.35958202709749));
#1170=CARTESIAN_POINT('',(5.98896506585645,-17.6738777152778,3.35769958534226));
#1171=CARTESIAN_POINT('',(6.,-17.6738777152778,3.35769958534226));
#1172=CARTESIAN_POINT('',(6.,-18.,2.20429143688028E-15));
#1173=CARTESIAN_POINT('',(6.,-18.,3.3735));
#1174=CARTESIAN_POINT('',(6.,-18.,-3.3735));
#1175=CARTESIAN_POINT('',(6.,-18.,2.20429143688028E-15));
#1176=CARTESIAN_POINT('',(6.,-14.5623058987491,-10.5801345412645));
#1177=CARTESIAN_POINT('',(6.,-12.3248611302717,-13.1048806984085));
#1178=CARTESIAN_POINT('',(5.98897088038936,-12.3248611302717,-13.1048806984085));
#1179=CARTESIAN_POINT('',(5.98889238765866,-12.3399349986571,-13.1181593308252));
#1180=CARTESIAN_POINT('',(6.,-12.3399349986571,-13.1181593308252));
#1181=CARTESIAN_POINT('',(6.,-16.2893605374466,-7.68224142298815));
#1182=CARTESIAN_POINT('',(5.98889820013911,-16.2893605374466,-7.68224142298815));
#1183=CARTESIAN_POINT('',(5.9889650658591,-16.2720737260571,-7.67200864531322));
#1184=CARTESIAN_POINT('',(6.,-16.2720737260571,-7.67200864531322));
#1185=CARTESIAN_POINT('',(6.,-14.5623058987491,-10.5801345412645));
#1186=CARTESIAN_POINT('',(6.,-16.5451994473577,-7.85091571074063));
#1187=CARTESIAN_POINT('',(6.,-12.5794123501404,-13.3093533717884));
#1188=CARTESIAN_POINT('',(6.,-14.5623058987491,-10.5801345412645));
#1189=CARTESIAN_POINT('',(6.,-5.56230589874906,-17.1190172933128));
#1190=CARTESIAN_POINT('',(6.,-2.26816650012421,-17.8464428031951));
#1191=CARTESIAN_POINT('',(5.98897088037774,-2.26816650012421,-17.8464428031951));
#1192=CARTESIAN_POINT('',(5.9888923876799,-2.27255653151385,-17.8660456400143));
#1193=CARTESIAN_POINT('',(6.,-2.27255653151385,-17.8660456400143));
#1194=CARTESIAN_POINT('',(6.,-8.66286128931215,-15.7897097592748));
#1195=CARTESIAN_POINT('',(5.98889820011584,-8.66286128931215,-15.7897097592748));
#1196=CARTESIAN_POINT('',(5.98896506584736,-8.6548906409268,-15.7712703354422));
#1197=CARTESIAN_POINT('',(6.,-8.6548906409268,-15.7712703354422));
#1198=CARTESIAN_POINT('',(6.,-5.56230589874906,-17.1190172933128));
#1199=CARTESIAN_POINT('',(6.,-8.77069505647076,-16.0765484627889));
#1200=CARTESIAN_POINT('',(6.,-2.35391674102736,-18.1614861238366));
#1201=CARTESIAN_POINT('',(6.,-5.56230589874906,-17.1190172933128));
#1202=CARTESIAN_POINT('',(6.,5.56230589874905,-17.1190172933128));
#1203=CARTESIAN_POINT('',(6.,8.65489064092679,-15.7712703354422));
#1204=CARTESIAN_POINT('',(5.98897088038107,8.65489064092679,-15.7712703354422));
#1205=CARTESIAN_POINT('',(5.9888923876481,8.66286128931214,-15.7897097592748));
#1206=CARTESIAN_POINT('',(6.,8.66286128931214,-15.7897097592748));
#1207=CARTESIAN_POINT('',(6.,2.27255653151385,-17.8660456400143));
#1208=CARTESIAN_POINT('',(5.98889820013043,2.27255653151385,-17.8660456400143));
#1209=CARTESIAN_POINT('',(5.988965065859,2.2681665001242,-17.8464428031951));
#1210=CARTESIAN_POINT('',(6.,2.2681665001242,-17.8464428031951));
#1211=CARTESIAN_POINT('',(6.,5.56230589874905,-17.1190172933128));
#1212=CARTESIAN_POINT('',(6.,2.35391674102735,-18.1614861238366));
#1213=CARTESIAN_POINT('',(6.,8.77069505647075,-16.0765484627889));
#1214=CARTESIAN_POINT('',(6.,5.56230589874905,-17.1190172933128));
#1215=CARTESIAN_POINT('',(6.,14.5623058987491,-10.5801345412645));
#1216=CARTESIAN_POINT('',(6.,16.2720737260571,-7.67200864531323));
#1217=CARTESIAN_POINT('',(5.98897088038852,16.2720737260571,-7.67200864531323));
#1218=CARTESIAN_POINT('',(5.98889238765473,16.2893605374466,-7.68224142298816));
#1219=CARTESIAN_POINT('',(6.,16.2893605374466,-7.68224142298816));
#1220=CARTESIAN_POINT('',(6.,12.3399349986571,-13.1181593308252));
#1221=CARTESIAN_POINT('',(5.98889820014018,12.3399349986571,-13.1181593308252));
#1222=CARTESIAN_POINT('',(5.98896506584405,12.3248611302717,-13.1048806984085));
#1223=CARTESIAN_POINT('',(6.,12.3248611302717,-13.1048806984085));
#1224=CARTESIAN_POINT('',(6.,14.5623058987491,-10.5801345412645));
#1225=CARTESIAN_POINT('',(6.,12.5794123501404,-13.3093533717884));
#1226=CARTESIAN_POINT('',(6.,16.5451994473577,-7.85091571074064));
#1227=CARTESIAN_POINT('',(6.,14.5623058987491,-10.5801345412645));
#1228=CARTESIAN_POINT('',(6.,14.5623058987491,-10.5801345412645));
#1229=CARTESIAN_POINT('',(6.,5.56230589874905,-17.1190172933128));
#1230=CARTESIAN_POINT('',(6.,-5.56230589874906,-17.1190172933128));
#1231=CARTESIAN_POINT('',(6.,-14.5623058987491,-10.5801345412645));
#1232=CARTESIAN_POINT('',(6.,-18.,2.20429143688028E-15));
#1233=CARTESIAN_POINT('',(6.,-14.5623058987491,10.5801345412645));
#1234=CARTESIAN_POINT('',(6.,-5.56230589874905,17.1190172933128));
#1235=CARTESIAN_POINT('',(6.,5.56230589874905,17.1190172933128));
#1236=CARTESIAN_POINT('',(6.,14.5623058987491,10.5801345412645));
#1237=CARTESIAN_POINT('',(6.,18.,0.));
#1238=CARTESIAN_POINT('',(6.,0.,0.));
#1239=CARTESIAN_POINT('',(6.,2.20429143688028E-15,18.));
#1240=CARTESIAN_POINT('',(6.,0.,0.));
#1241=CARTESIAN_POINT('',(6.,0.,0.));
#1242=CARTESIAN_POINT('',(6.,0.,0.));
#1243=CARTESIAN_POINT('',(6.,0.,0.));
#1244=CARTESIAN_POINT('',(6.,-2.20429143688028E-15,-18.));
#1245=CARTESIAN_POINT('',(6.,0.,0.));
#1246=CARTESIAN_POINT('',(6.,0.,0.));
#1247=CARTESIAN_POINT('',(6.,0.,0.));
#1248=CARTESIAN_POINT('',(6.,0.,0.));
#1249=CARTESIAN_POINT('',(6.,0.,0.));
#1250=CARTESIAN_POINT('',(6.,0.,0.));
#1251=CARTESIAN_POINT('',(6.,0.,0.));
#1252=MECHANICAL_DESIGN_GEOMETRIC_PRESENTATION_REPRESENTATION('',(#645),
#1253);
#1253=(
GEOMETRIC_REPRESENTATION_CONTEXT(3)
GLOBAL_UNCERTAINTY_ASSIGNED_CONTEXT((#1254))
GLOBAL_UNIT_ASSIGNED_CONTEXT((#1257,#1256,#1255))
REPRESENTATION_CONTEXT('Part 1','TOP_LEVEL_ASSEMBLY_PART')
);
#1254=UNCERTAINTY_MEASURE_WITH_UNIT(LENGTH_MEASURE(1.E-5),#1257,
'DISTANCE_ACCURACY_VALUE','Maximum Tolerance applied to model');
#1255=(
NAMED_UNIT(*)
SI_UNIT($,.STERADIAN.)
SOLID_ANGLE_UNIT()
);
#1256=(
NAMED_UNIT(*)
PLANE_ANGLE_UNIT()
SI_UNIT($,.RADIAN.)
);
#1257=(
LENGTH_UNIT()
NAMED_UNIT(*)
SI_UNIT(.MILLI.,.METRE.)
);
#1258=PRODUCT_DEFINITION_SHAPE('','',#1259);
#1259=PRODUCT_DEFINITION('','',#1261,#1260);
#1260=PRODUCT_DEFINITION_CONTEXT('',#1267,'design');
#1261=PRODUCT_DEFINITION_FORMATION_WITH_SPECIFIED_SOURCE('','',#1263,
 .NOT_KNOWN.);
#1262=PRODUCT_RELATED_PRODUCT_CATEGORY('','',(#1263));
#1263=PRODUCT('Part 1','Part 1','Part 1',(#1265));
#1264=PRODUCT_CATEGORY('','');
#1265=PRODUCT_CONTEXT('',#1267,'mechanical');
#1266=APPLICATION_PROTOCOL_DEFINITION('international standard',
'ap242_managed_model_based_3d_engineering',2020,#1267);
#1267=APPLICATION_CONTEXT('managed model based 3d engineering');
ENDSEC;
END-ISO-10303-21;
