ISO-10303-21;
HEADER;
/* Generated by software containing ST-Developer
 * from STEP Tools, Inc. (www.steptools.com) 
 */
/* OPTION: using custom renumber hook */

FILE_DESCRIPTION(
/* description */ ('STEP AP242 Edition 2',
'CAx-IF Rec.Pracs.---Representation and Presentation of Product Manufa
cturing Information (PMI)---4.0---2014-10-13',
'CAx-IF Rec.Pracs.---3D Tessellated Geometry---0.4---2014-09-14','2;1',
'CAx-IF Rec.Pracs.---User Defined Attributes---1.5---2016-08-15'),
/* implementation_level */ '2;1');

FILE_NAME(
/* name */ '6800ZZ',
/* time_stamp */ '2026-06-03T07:06:30Z',
/* author */ (''),
/* organization */ (''),
/* preprocessor_version */ 'ST-DEVELOPER v20',
/* originating_system */ 'ONSHAPE BY PTC INC, 1.215',
/* authorisation */ '  ');

FILE_SCHEMA (('AP242_MANAGED_MODEL_BASED_3D_ENGINEERING_MIM_LF { 1 0 10303 442 3 1 4 }'));
ENDSEC;

DATA;
#10=B_SPLINE_CURVE_WITH_KNOTS('',3,(#1063,#1064,#1065,#1066,#1067,#1068,
#1069,#1070,#1071,#1072,#1073,#1074,#1075,#1076,#1077,#1078,#1079,#1080,
#1081,#1082,#1083,#1084,#1085,#1086,#1087,#1088,#1089,#1090,#1091,#1092,
#1093,#1094,#1095,#1096,#1097),.UNSPECIFIED.,.T.,.F.,(1,1,1,1,1,1,1,1,1,
1,1,1,1,1,1,1,1,1,1,1,1,1,1,1,1,1,1,1,1,1,1,1,1,1,1,1,1,1,1),(-0.0953947368421053,
-0.0641447368421053,-0.0328947368421053,0.,0.0296875,0.060859375,0.09210546875,
0.1233552734375,0.154605263671875,0.185855263183594,0.21710526315918,0.248355263157959,
0.279605263157898,0.310855263157895,0.342105263157895,0.373355263157895,
0.404605263157895,0.435855263157895,0.467105263157895,0.498355263157895,
0.529605263157895,0.560855263157895,0.592105263157895,0.623355263157895,
0.654605263157895,0.685855263157895,0.717105263157895,0.748355263157895,
0.779605263157895,0.810855263157895,0.842105263157895,0.873355263157895,
0.904605263157895,0.935855263157895,0.967105263157895,1.,1.0296875,1.060859375,
1.09210546875),.UNSPECIFIED.);
#11=B_SPLINE_CURVE_WITH_KNOTS('',3,(#1100,#1101,#1102,#1103,#1104,#1105,
#1106,#1107,#1108,#1109,#1110,#1111,#1112,#1113,#1114,#1115,#1116,#1117,
#1118,#1119,#1120,#1121,#1122,#1123,#1124,#1125,#1126,#1127,#1128,#1129,
#1130,#1131,#1132,#1133,#1134),.UNSPECIFIED.,.T.,.F.,(1,1,1,1,1,1,1,1,1,
1,1,1,1,1,1,1,1,1,1,1,1,1,1,1,1,1,1,1,1,1,1,1,1,1,1,1,1,1,1),(-0.0953947368421053,
-0.0641447368421053,-0.0328947368421053,0.,0.0296875,0.060859375,0.09210546875,
0.1233552734375,0.154605263671875,0.185855263183594,0.21710526315918,0.248355263157959,
0.279605263157898,0.310855263157895,0.342105263157895,0.373355263157895,
0.404605263157895,0.435855263157895,0.467105263157895,0.498355263157895,
0.529605263157895,0.560855263157895,0.592105263157895,0.623355263157895,
0.654605263157895,0.685855263157895,0.717105263157895,0.748355263157895,
0.779605263157895,0.810855263157895,0.842105263157895,0.873355263157895,
0.904605263157895,0.935855263157895,0.967105263157895,1.,1.0296875,1.060859375,
1.09210546875),.UNSPECIFIED.);
#12=B_SPLINE_CURVE_WITH_KNOTS('',3,(#1171,#1172,#1173,#1174,#1175,#1176,
#1177,#1178,#1179,#1180,#1181,#1182,#1183,#1184,#1185,#1186,#1187,#1188,
#1189,#1190,#1191,#1192,#1193,#1194,#1195,#1196,#1197,#1198,#1199,#1200,
#1201,#1202,#1203,#1204,#1205,#1206,#1207,#1208,#1209,#1210,#1211,#1212),
 .UNSPECIFIED.,.T.,.F.,(1,1,1,1,1,1,1,1,1,1,1,1,1,1,1,1,1,1,1,1,1,1,1,1,
1,1,1,1,1,1,1,1,1,1,1,1,1,1,1,1,1,1,1,1,1,1),(-0.0485197368421053,-0.0328947368421053,
-0.0164473684210527,0.,0.01484375,0.0296875,0.0452734375,0.060859375,0.09210546875,
0.1233552734375,0.154605263671875,0.185855263183594,0.201480263171387,0.21710526315918,
0.248355263157959,0.279605263157898,0.310855263157895,0.342105263157895,
0.373355263157895,0.404605263157895,0.435855263157895,0.451480263157895,
0.467105263157895,0.498355263157895,0.529605263157895,0.560855263157895,
0.592105263157895,0.623355263157895,0.654605263157895,0.685855263157895,
0.701480263157895,0.717105263157895,0.748355263157895,0.779605263157895,
0.810855263157895,0.842105263157895,0.873355263157895,0.904605263157895,
0.935855263157895,0.951480263157895,0.967105263157895,0.983552631578947,
1.,1.01484375,1.0296875,1.0452734375),.UNSPECIFIED.);
#13=B_SPLINE_CURVE_WITH_KNOTS('',3,(#1215,#1216,#1217,#1218,#1219,#1220,
#1221,#1222,#1223,#1224,#1225,#1226,#1227,#1228,#1229,#1230,#1231,#1232,
#1233,#1234,#1235,#1236,#1237,#1238,#1239,#1240,#1241,#1242,#1243,#1244,
#1245,#1246,#1247,#1248,#1249,#1250,#1251,#1252,#1253,#1254,#1255,#1256),
 .UNSPECIFIED.,.T.,.F.,(1,1,1,1,1,1,1,1,1,1,1,1,1,1,1,1,1,1,1,1,1,1,1,1,
1,1,1,1,1,1,1,1,1,1,1,1,1,1,1,1,1,1,1,1,1,1),(-0.0485197368421053,-0.0328947368421053,
-0.0164473684210527,0.,0.01484375,0.0296875,0.0452734375,0.060859375,0.09210546875,
0.1233552734375,0.154605263671875,0.185855263183594,0.201480263171387,0.21710526315918,
0.248355263157959,0.279605263157898,0.310855263157895,0.342105263157895,
0.373355263157895,0.404605263157895,0.435855263157895,0.451480263157895,
0.467105263157895,0.498355263157895,0.529605263157895,0.560855263157895,
0.592105263157895,0.623355263157895,0.654605263157895,0.685855263157895,
0.701480263157895,0.717105263157895,0.748355263157895,0.779605263157895,
0.810855263157895,0.842105263157895,0.873355263157895,0.904605263157895,
0.935855263157895,0.951480263157895,0.967105263157895,0.983552631578947,
1.,1.01484375,1.0296875,1.0452734375),.UNSPECIFIED.);
#14=PLANE('',#829);
#15=PLANE('',#830);
#16=PLANE('',#846);
#17=PLANE('',#848);
#18=PLANE('',#854);
#19=PLANE('',#855);
#20=PLANE('',#864);
#21=PLANE('',#871);
#22=PLANE('',#875);
#23=PLANE('',#882);
#24=CYLINDRICAL_SURFACE('',#825,6.44);
#25=CYLINDRICAL_SURFACE('',#827,6.44);
#26=CYLINDRICAL_SURFACE('',#835,5.);
#27=CYLINDRICAL_SURFACE('',#842,8.06);
#28=CYLINDRICAL_SURFACE('',#844,8.06);
#29=CYLINDRICAL_SURFACE('',#850,8.460005);
#30=CYLINDRICAL_SURFACE('',#852,8.460005);
#31=CYLINDRICAL_SURFACE('',#860,9.5);
#32=CYLINDRICAL_SURFACE('',#867,8.460005);
#33=CYLINDRICAL_SURFACE('',#869,6.44);
#34=CYLINDRICAL_SURFACE('',#878,8.460005);
#35=CYLINDRICAL_SURFACE('',#880,6.44);
#36=ORIENTED_EDGE('',*,*,#92,.F.);
#37=ORIENTED_EDGE('',*,*,#93,.F.);
#38=ORIENTED_EDGE('',*,*,#94,.F.);
#39=ORIENTED_EDGE('',*,*,#93,.T.);
#40=ORIENTED_EDGE('',*,*,#92,.T.);
#41=ORIENTED_EDGE('',*,*,#95,.F.);
#42=ORIENTED_EDGE('',*,*,#96,.F.);
#43=ORIENTED_EDGE('',*,*,#94,.T.);
#44=ORIENTED_EDGE('',*,*,#95,.T.);
#45=ORIENTED_EDGE('',*,*,#97,.F.);
#46=ORIENTED_EDGE('',*,*,#98,.T.);
#47=ORIENTED_EDGE('',*,*,#96,.T.);
#48=ORIENTED_EDGE('',*,*,#97,.T.);
#49=ORIENTED_EDGE('',*,*,#99,.T.);
#50=ORIENTED_EDGE('',*,*,#99,.F.);
#51=ORIENTED_EDGE('',*,*,#98,.F.);
#52=ORIENTED_EDGE('',*,*,#100,.T.);
#53=ORIENTED_EDGE('',*,*,#101,.T.);
#54=ORIENTED_EDGE('',*,*,#102,.T.);
#55=ORIENTED_EDGE('',*,*,#101,.F.);
#56=ORIENTED_EDGE('',*,*,#100,.F.);
#57=ORIENTED_EDGE('',*,*,#103,.T.);
#58=ORIENTED_EDGE('',*,*,#102,.F.);
#59=ORIENTED_EDGE('',*,*,#104,.T.);
#60=ORIENTED_EDGE('',*,*,#105,.T.);
#61=ORIENTED_EDGE('',*,*,#103,.F.);
#62=ORIENTED_EDGE('',*,*,#104,.F.);
#63=ORIENTED_EDGE('',*,*,#106,.F.);
#64=ORIENTED_EDGE('',*,*,#107,.F.);
#65=ORIENTED_EDGE('',*,*,#105,.F.);
#66=ORIENTED_EDGE('',*,*,#108,.F.);
#67=ORIENTED_EDGE('',*,*,#106,.T.);
#68=ORIENTED_EDGE('',*,*,#107,.T.);
#69=ORIENTED_EDGE('',*,*,#109,.F.);
#70=ORIENTED_EDGE('',*,*,#110,.F.);
#71=ORIENTED_EDGE('',*,*,#108,.T.);
#72=ORIENTED_EDGE('',*,*,#109,.T.);
#73=ORIENTED_EDGE('',*,*,#111,.F.);
#74=ORIENTED_EDGE('',*,*,#111,.T.);
#75=ORIENTED_EDGE('',*,*,#110,.T.);
#76=ORIENTED_EDGE('',*,*,#112,.F.);
#77=ORIENTED_EDGE('',*,*,#113,.T.);
#78=ORIENTED_EDGE('',*,*,#114,.F.);
#79=ORIENTED_EDGE('',*,*,#112,.T.);
#80=ORIENTED_EDGE('',*,*,#113,.F.);
#81=ORIENTED_EDGE('',*,*,#115,.F.);
#82=ORIENTED_EDGE('',*,*,#115,.T.);
#83=ORIENTED_EDGE('',*,*,#114,.T.);
#84=ORIENTED_EDGE('',*,*,#116,.F.);
#85=ORIENTED_EDGE('',*,*,#117,.T.);
#86=ORIENTED_EDGE('',*,*,#118,.F.);
#87=ORIENTED_EDGE('',*,*,#116,.T.);
#88=ORIENTED_EDGE('',*,*,#117,.F.);
#89=ORIENTED_EDGE('',*,*,#119,.F.);
#90=ORIENTED_EDGE('',*,*,#119,.T.);
#91=ORIENTED_EDGE('',*,*,#118,.T.);
#92=EDGE_CURVE('',#235,#235,#120,.T.);
#93=EDGE_CURVE('',#236,#236,#121,.F.);
#94=EDGE_CURVE('',#237,#237,#122,.F.);
#95=EDGE_CURVE('',#238,#238,#123,.T.);
#96=EDGE_CURVE('',#239,#239,#10,.F.);
#97=EDGE_CURVE('',#240,#240,#11,.F.);
#98=EDGE_CURVE('',#241,#241,#124,.T.);
#99=EDGE_CURVE('',#242,#242,#125,.F.);
#100=EDGE_CURVE('',#244,#244,#126,.F.);
#101=EDGE_CURVE('',#245,#245,#127,.T.);
#102=EDGE_CURVE('',#246,#246,#128,.T.);
#103=EDGE_CURVE('',#247,#247,#129,.F.);
#104=EDGE_CURVE('',#248,#248,#130,.T.);
#105=EDGE_CURVE('',#249,#249,#131,.F.);
#106=EDGE_CURVE('',#250,#250,#132,.F.);
#107=EDGE_CURVE('',#251,#251,#133,.T.);
#108=EDGE_CURVE('',#252,#252,#12,.F.);
#109=EDGE_CURVE('',#253,#253,#13,.F.);
#110=EDGE_CURVE('',#254,#254,#134,.F.);
#111=EDGE_CURVE('',#255,#255,#135,.T.);
#112=EDGE_CURVE('',#257,#257,#136,.F.);
#113=EDGE_CURVE('',#258,#258,#137,.F.);
#114=EDGE_CURVE('',#259,#259,#138,.F.);
#115=EDGE_CURVE('',#260,#260,#139,.T.);
#116=EDGE_CURVE('',#262,#262,#140,.F.);
#117=EDGE_CURVE('',#263,#263,#141,.F.);
#118=EDGE_CURVE('',#264,#264,#142,.F.);
#119=EDGE_CURVE('',#265,#265,#143,.T.);
#120=CIRCLE('',#823,6.44);
#121=CIRCLE('',#824,6.44);
#122=CIRCLE('',#826,6.44);
#123=CIRCLE('',#828,6.44);
#124=CIRCLE('',#832,5.);
#125=CIRCLE('',#834,5.);
#126=CIRCLE('',#840,8.06);
#127=CIRCLE('',#841,8.06);
#128=CIRCLE('',#843,8.06);
#129=CIRCLE('',#845,8.06);
#130=CIRCLE('',#847,8.460005);
#131=CIRCLE('',#849,8.460005);
#132=CIRCLE('',#851,8.460005);
#133=CIRCLE('',#853,8.460005);
#134=CIRCLE('',#857,9.5);
#135=CIRCLE('',#859,9.5);
#136=CIRCLE('',#865,8.460005);
#137=CIRCLE('',#866,6.44);
#138=CIRCLE('',#868,8.460005);
#139=CIRCLE('',#870,6.44);
#140=CIRCLE('',#876,8.460005);
#141=CIRCLE('',#877,6.44);
#142=CIRCLE('',#879,8.460005);
#143=CIRCLE('',#881,6.44);
#144=EDGE_LOOP('',(#36));
#145=EDGE_LOOP('',(#37));
#146=EDGE_LOOP('',(#38));
#147=EDGE_LOOP('',(#39));
#148=EDGE_LOOP('',(#40));
#149=EDGE_LOOP('',(#41));
#150=EDGE_LOOP('',(#42));
#151=EDGE_LOOP('',(#43));
#152=EDGE_LOOP('',(#44));
#153=EDGE_LOOP('',(#45));
#154=EDGE_LOOP('',(#46));
#155=EDGE_LOOP('',(#47));
#156=EDGE_LOOP('',(#48));
#157=EDGE_LOOP('',(#49));
#158=EDGE_LOOP('',(#50));
#159=EDGE_LOOP('',(#51));
#160=EDGE_LOOP('',(#52));
#161=EDGE_LOOP('',(#53));
#162=EDGE_LOOP('',(#54));
#163=EDGE_LOOP('',(#55));
#164=EDGE_LOOP('',(#56));
#165=EDGE_LOOP('',(#57));
#166=EDGE_LOOP('',(#58));
#167=EDGE_LOOP('',(#59));
#168=EDGE_LOOP('',(#60));
#169=EDGE_LOOP('',(#61));
#170=EDGE_LOOP('',(#62));
#171=EDGE_LOOP('',(#63));
#172=EDGE_LOOP('',(#64));
#173=EDGE_LOOP('',(#65));
#174=EDGE_LOOP('',(#66));
#175=EDGE_LOOP('',(#67));
#176=EDGE_LOOP('',(#68));
#177=EDGE_LOOP('',(#69));
#178=EDGE_LOOP('',(#70));
#179=EDGE_LOOP('',(#71));
#180=EDGE_LOOP('',(#72));
#181=EDGE_LOOP('',(#73));
#182=EDGE_LOOP('',(#74));
#183=EDGE_LOOP('',(#75));
#184=EDGE_LOOP('',(#76));
#185=EDGE_LOOP('',(#77));
#186=EDGE_LOOP('',(#78));
#187=EDGE_LOOP('',(#79));
#188=EDGE_LOOP('',(#80));
#189=EDGE_LOOP('',(#81));
#190=EDGE_LOOP('',(#82));
#191=EDGE_LOOP('',(#83));
#192=EDGE_LOOP('',(#84));
#193=EDGE_LOOP('',(#85));
#194=EDGE_LOOP('',(#86));
#195=EDGE_LOOP('',(#87));
#196=EDGE_LOOP('',(#88));
#197=EDGE_LOOP('',(#89));
#198=EDGE_LOOP('',(#90));
#199=EDGE_LOOP('',(#91));
#200=TOROIDAL_SURFACE('',#822,7.25,1.35);
#201=TOROIDAL_SURFACE('',#831,5.3,0.3);
#202=TOROIDAL_SURFACE('',#833,5.3,0.3);
#203=TOROIDAL_SURFACE('',#839,7.25,1.35);
#204=TOROIDAL_SURFACE('',#856,9.2,0.3);
#205=TOROIDAL_SURFACE('',#858,9.2,0.3);
#206=SHAPE_REPRESENTATION_RELATIONSHIP('','',#805,#220);
#207=SHAPE_REPRESENTATION_RELATIONSHIP('','',#806,#221);
#208=SHAPE_REPRESENTATION_RELATIONSHIP('','',#807,#222);
#209=SHAPE_REPRESENTATION_RELATIONSHIP('','',#808,#223);
#210=SHAPE_REPRESENTATION_RELATIONSHIP('','',#809,#224);
#211=SHAPE_REPRESENTATION_RELATIONSHIP('','',#810,#225);
#212=SHAPE_REPRESENTATION_RELATIONSHIP('','',#811,#226);
#213=SHAPE_REPRESENTATION_RELATIONSHIP('','',#812,#227);
#214=SHAPE_REPRESENTATION_RELATIONSHIP('','',#813,#228);
#215=SHAPE_REPRESENTATION_RELATIONSHIP('','',#814,#229);
#216=SHAPE_REPRESENTATION_RELATIONSHIP('','',#815,#230);
#217=SHAPE_REPRESENTATION_RELATIONSHIP('','',#816,#231);
#218=SHAPE_REPRESENTATION_RELATIONSHIP('','',#817,#232);
#219=SHAPE_REPRESENTATION_RELATIONSHIP('','',#818,#233);
#220=ADVANCED_BREP_SHAPE_REPRESENTATION('',(#777),#1329);
#221=ADVANCED_BREP_SHAPE_REPRESENTATION('',(#778),#1330);
#222=ADVANCED_BREP_SHAPE_REPRESENTATION('',(#779),#1331);
#223=ADVANCED_BREP_SHAPE_REPRESENTATION('',(#780),#1332);
#224=ADVANCED_BREP_SHAPE_REPRESENTATION('',(#781),#1333);
#225=ADVANCED_BREP_SHAPE_REPRESENTATION('',(#782),#1334);
#226=ADVANCED_BREP_SHAPE_REPRESENTATION('',(#783),#1335);
#227=ADVANCED_BREP_SHAPE_REPRESENTATION('',(#784),#1336);
#228=ADVANCED_BREP_SHAPE_REPRESENTATION('',(#785),#1337);
#229=ADVANCED_BREP_SHAPE_REPRESENTATION('',(#786),#1338);
#230=ADVANCED_BREP_SHAPE_REPRESENTATION('',(#787),#1339);
#231=ADVANCED_BREP_SHAPE_REPRESENTATION('',(#788),#1340);
#232=ADVANCED_BREP_SHAPE_REPRESENTATION('',(#789),#1341);
#233=ADVANCED_BREP_SHAPE_REPRESENTATION('',(#790),#1342);
#234=VERTEX_POINT('',#1049);
#235=VERTEX_POINT('',#1053);
#236=VERTEX_POINT('',#1055);
#237=VERTEX_POINT('',#1058);
#238=VERTEX_POINT('',#1061);
#239=VERTEX_POINT('',#1098);
#240=VERTEX_POINT('',#1135);
#241=VERTEX_POINT('',#1138);
#242=VERTEX_POINT('',#1141);
#243=VERTEX_POINT('',#1145);
#244=VERTEX_POINT('',#1149);
#245=VERTEX_POINT('',#1151);
#246=VERTEX_POINT('',#1154);
#247=VERTEX_POINT('',#1157);
#248=VERTEX_POINT('',#1160);
#249=VERTEX_POINT('',#1163);
#250=VERTEX_POINT('',#1166);
#251=VERTEX_POINT('',#1169);
#252=VERTEX_POINT('',#1213);
#253=VERTEX_POINT('',#1257);
#254=VERTEX_POINT('',#1260);
#255=VERTEX_POINT('',#1263);
#256=VERTEX_POINT('',#1267);
#257=VERTEX_POINT('',#1271);
#258=VERTEX_POINT('',#1273);
#259=VERTEX_POINT('',#1276);
#260=VERTEX_POINT('',#1279);
#261=VERTEX_POINT('',#1283);
#262=VERTEX_POINT('',#1287);
#263=VERTEX_POINT('',#1289);
#264=VERTEX_POINT('',#1292);
#265=VERTEX_POINT('',#1295);
#266=VERTEX_POINT('',#1299);
#267=VERTEX_POINT('',#1302);
#268=VERTEX_POINT('',#1305);
#269=VERTEX_POINT('',#1308);
#270=VERTEX_POINT('',#1311);
#271=VERTEX_POINT('',#1314);
#272=VERTEX_LOOP('',#234);
#273=VERTEX_LOOP('',#243);
#274=VERTEX_LOOP('',#256);
#275=VERTEX_LOOP('',#261);
#276=VERTEX_LOOP('',#266);
#277=VERTEX_LOOP('',#267);
#278=VERTEX_LOOP('',#268);
#279=VERTEX_LOOP('',#269);
#280=VERTEX_LOOP('',#270);
#281=VERTEX_LOOP('',#271);
#282=FACE_BOUND('',#272,.T.);
#283=FACE_BOUND('',#144,.T.);
#284=FACE_BOUND('',#145,.T.);
#285=FACE_BOUND('',#146,.T.);
#286=FACE_BOUND('',#147,.T.);
#287=FACE_BOUND('',#148,.T.);
#288=FACE_BOUND('',#149,.T.);
#289=FACE_BOUND('',#150,.T.);
#290=FACE_BOUND('',#151,.T.);
#291=FACE_BOUND('',#152,.T.);
#292=FACE_BOUND('',#153,.T.);
#293=FACE_BOUND('',#154,.T.);
#294=FACE_BOUND('',#155,.T.);
#295=FACE_BOUND('',#156,.T.);
#296=FACE_BOUND('',#157,.T.);
#297=FACE_BOUND('',#158,.T.);
#298=FACE_BOUND('',#159,.T.);
#299=FACE_BOUND('',#273,.T.);
#300=FACE_BOUND('',#160,.T.);
#301=FACE_BOUND('',#161,.T.);
#302=FACE_BOUND('',#162,.T.);
#303=FACE_BOUND('',#163,.T.);
#304=FACE_BOUND('',#164,.T.);
#305=FACE_BOUND('',#165,.T.);
#306=FACE_BOUND('',#166,.T.);
#307=FACE_BOUND('',#167,.T.);
#308=FACE_BOUND('',#168,.T.);
#309=FACE_BOUND('',#169,.T.);
#310=FACE_BOUND('',#170,.T.);
#311=FACE_BOUND('',#171,.T.);
#312=FACE_BOUND('',#172,.T.);
#313=FACE_BOUND('',#173,.T.);
#314=FACE_BOUND('',#174,.T.);
#315=FACE_BOUND('',#175,.T.);
#316=FACE_BOUND('',#176,.T.);
#317=FACE_BOUND('',#177,.T.);
#318=FACE_BOUND('',#178,.T.);
#319=FACE_BOUND('',#179,.T.);
#320=FACE_BOUND('',#180,.T.);
#321=FACE_BOUND('',#181,.T.);
#322=FACE_BOUND('',#182,.T.);
#323=FACE_BOUND('',#183,.T.);
#324=FACE_BOUND('',#274,.T.);
#325=FACE_BOUND('',#184,.T.);
#326=FACE_BOUND('',#185,.T.);
#327=FACE_BOUND('',#186,.T.);
#328=FACE_BOUND('',#187,.T.);
#329=FACE_BOUND('',#188,.T.);
#330=FACE_BOUND('',#189,.T.);
#331=FACE_BOUND('',#190,.T.);
#332=FACE_BOUND('',#191,.T.);
#333=FACE_BOUND('',#275,.T.);
#334=FACE_BOUND('',#192,.T.);
#335=FACE_BOUND('',#193,.T.);
#336=FACE_BOUND('',#194,.T.);
#337=FACE_BOUND('',#195,.T.);
#338=FACE_BOUND('',#196,.T.);
#339=FACE_BOUND('',#197,.T.);
#340=FACE_BOUND('',#198,.T.);
#341=FACE_BOUND('',#199,.T.);
#342=FACE_BOUND('',#276,.T.);
#343=FACE_BOUND('',#277,.T.);
#344=FACE_BOUND('',#278,.T.);
#345=FACE_BOUND('',#279,.T.);
#346=FACE_BOUND('',#280,.T.);
#347=FACE_BOUND('',#281,.T.);
#348=SPHERICAL_SURFACE('',#820,1.3275);
#349=SPHERICAL_SURFACE('',#837,1.3275);
#350=SPHERICAL_SURFACE('',#862,1.3275);
#351=SPHERICAL_SURFACE('',#873,1.3275);
#352=SPHERICAL_SURFACE('',#884,1.3275);
#353=SPHERICAL_SURFACE('',#886,1.3275);
#354=SPHERICAL_SURFACE('',#888,1.3275);
#355=SPHERICAL_SURFACE('',#890,1.3275);
#356=SPHERICAL_SURFACE('',#892,1.3275);
#357=SPHERICAL_SURFACE('',#894,1.3275);
#358=OVER_RIDING_STYLED_ITEM('',(#463),#396,#448);
#359=OVER_RIDING_STYLED_ITEM('',(#465),#397,#449);
#360=OVER_RIDING_STYLED_ITEM('',(#466),#398,#449);
#361=OVER_RIDING_STYLED_ITEM('',(#467),#399,#449);
#362=OVER_RIDING_STYLED_ITEM('',(#468),#400,#449);
#363=OVER_RIDING_STYLED_ITEM('',(#469),#401,#449);
#364=OVER_RIDING_STYLED_ITEM('',(#470),#402,#449);
#365=OVER_RIDING_STYLED_ITEM('',(#471),#403,#449);
#366=OVER_RIDING_STYLED_ITEM('',(#472),#404,#449);
#367=OVER_RIDING_STYLED_ITEM('',(#474),#405,#450);
#368=OVER_RIDING_STYLED_ITEM('',(#476),#406,#451);
#369=OVER_RIDING_STYLED_ITEM('',(#477),#407,#451);
#370=OVER_RIDING_STYLED_ITEM('',(#478),#408,#451);
#371=OVER_RIDING_STYLED_ITEM('',(#479),#409,#451);
#372=OVER_RIDING_STYLED_ITEM('',(#480),#410,#451);
#373=OVER_RIDING_STYLED_ITEM('',(#481),#411,#451);
#374=OVER_RIDING_STYLED_ITEM('',(#482),#412,#451);
#375=OVER_RIDING_STYLED_ITEM('',(#483),#413,#451);
#376=OVER_RIDING_STYLED_ITEM('',(#484),#414,#451);
#377=OVER_RIDING_STYLED_ITEM('',(#485),#415,#451);
#378=OVER_RIDING_STYLED_ITEM('',(#486),#416,#451);
#379=OVER_RIDING_STYLED_ITEM('',(#487),#417,#451);
#380=OVER_RIDING_STYLED_ITEM('',(#489),#418,#452);
#381=OVER_RIDING_STYLED_ITEM('',(#491),#419,#453);
#382=OVER_RIDING_STYLED_ITEM('',(#492),#420,#453);
#383=OVER_RIDING_STYLED_ITEM('',(#493),#421,#453);
#384=OVER_RIDING_STYLED_ITEM('',(#494),#422,#453);
#385=OVER_RIDING_STYLED_ITEM('',(#496),#423,#454);
#386=OVER_RIDING_STYLED_ITEM('',(#498),#424,#455);
#387=OVER_RIDING_STYLED_ITEM('',(#499),#425,#455);
#388=OVER_RIDING_STYLED_ITEM('',(#500),#426,#455);
#389=OVER_RIDING_STYLED_ITEM('',(#501),#427,#455);
#390=OVER_RIDING_STYLED_ITEM('',(#503),#428,#456);
#391=OVER_RIDING_STYLED_ITEM('',(#505),#429,#457);
#392=OVER_RIDING_STYLED_ITEM('',(#507),#430,#458);
#393=OVER_RIDING_STYLED_ITEM('',(#509),#431,#459);
#394=OVER_RIDING_STYLED_ITEM('',(#511),#432,#460);
#395=OVER_RIDING_STYLED_ITEM('',(#513),#433,#461);
#396=ADVANCED_FACE('',(#282),#348,.T.);
#397=ADVANCED_FACE('',(#283,#284),#200,.F.);
#398=ADVANCED_FACE('',(#285,#286),#24,.T.);
#399=ADVANCED_FACE('',(#287,#288),#25,.T.);
#400=ADVANCED_FACE('',(#289,#290),#14,.T.);
#401=ADVANCED_FACE('',(#291,#292),#15,.T.);
#402=ADVANCED_FACE('',(#293,#294),#201,.T.);
#403=ADVANCED_FACE('',(#295,#296),#202,.T.);
#404=ADVANCED_FACE('',(#297,#298),#26,.F.);
#405=ADVANCED_FACE('',(#299),#349,.T.);
#406=ADVANCED_FACE('',(#300,#301),#203,.F.);
#407=ADVANCED_FACE('',(#302,#303),#27,.F.);
#408=ADVANCED_FACE('',(#304,#305),#28,.F.);
#409=ADVANCED_FACE('',(#306,#307),#16,.F.);
#410=ADVANCED_FACE('',(#308,#309),#17,.F.);
#411=ADVANCED_FACE('',(#310,#311),#29,.F.);
#412=ADVANCED_FACE('',(#312,#313),#30,.F.);
#413=ADVANCED_FACE('',(#314,#315),#18,.T.);
#414=ADVANCED_FACE('',(#316,#317),#19,.T.);
#415=ADVANCED_FACE('',(#318,#319),#204,.T.);
#416=ADVANCED_FACE('',(#320,#321),#205,.T.);
#417=ADVANCED_FACE('',(#322,#323),#31,.T.);
#418=ADVANCED_FACE('',(#324),#350,.T.);
#419=ADVANCED_FACE('',(#325,#326),#20,.T.);
#420=ADVANCED_FACE('',(#327,#328),#32,.T.);
#421=ADVANCED_FACE('',(#329,#330),#33,.F.);
#422=ADVANCED_FACE('',(#331,#332),#21,.T.);
#423=ADVANCED_FACE('',(#333),#351,.T.);
#424=ADVANCED_FACE('',(#334,#335),#22,.T.);
#425=ADVANCED_FACE('',(#336,#337),#34,.T.);
#426=ADVANCED_FACE('',(#338,#339),#35,.F.);
#427=ADVANCED_FACE('',(#340,#341),#23,.T.);
#428=ADVANCED_FACE('',(#342),#352,.T.);
#429=ADVANCED_FACE('',(#343),#353,.T.);
#430=ADVANCED_FACE('',(#344),#354,.T.);
#431=ADVANCED_FACE('',(#345),#355,.T.);
#432=ADVANCED_FACE('',(#346),#356,.T.);
#433=ADVANCED_FACE('',(#347),#357,.T.);
#434=CLOSED_SHELL('',(#396));
#435=CLOSED_SHELL('',(#397,#398,#399,#400,#401,#402,#403,#404));
#436=CLOSED_SHELL('',(#405));
#437=CLOSED_SHELL('',(#406,#407,#408,#409,#410,#411,#412,#413,#414,#415,
#416,#417));
#438=CLOSED_SHELL('',(#418));
#439=CLOSED_SHELL('',(#419,#420,#421,#422));
#440=CLOSED_SHELL('',(#423));
#441=CLOSED_SHELL('',(#424,#425,#426,#427));
#442=CLOSED_SHELL('',(#428));
#443=CLOSED_SHELL('',(#429));
#444=CLOSED_SHELL('',(#430));
#445=CLOSED_SHELL('',(#431));
#446=CLOSED_SHELL('',(#432));
#447=CLOSED_SHELL('',(#433));
#448=STYLED_ITEM('',(#462),#777);
#449=STYLED_ITEM('',(#464),#778);
#450=STYLED_ITEM('',(#473),#779);
#451=STYLED_ITEM('',(#475),#780);
#452=STYLED_ITEM('',(#488),#781);
#453=STYLED_ITEM('',(#490),#782);
#454=STYLED_ITEM('',(#495),#783);
#455=STYLED_ITEM('',(#497),#784);
#456=STYLED_ITEM('',(#502),#785);
#457=STYLED_ITEM('',(#504),#786);
#458=STYLED_ITEM('',(#506),#787);
#459=STYLED_ITEM('',(#508),#788);
#460=STYLED_ITEM('',(#510),#789);
#461=STYLED_ITEM('',(#512),#790);
#462=PRESENTATION_STYLE_ASSIGNMENT((#514));
#463=PRESENTATION_STYLE_ASSIGNMENT((#515));
#464=PRESENTATION_STYLE_ASSIGNMENT((#516));
#465=PRESENTATION_STYLE_ASSIGNMENT((#517));
#466=PRESENTATION_STYLE_ASSIGNMENT((#518));
#467=PRESENTATION_STYLE_ASSIGNMENT((#519));
#468=PRESENTATION_STYLE_ASSIGNMENT((#520));
#469=PRESENTATION_STYLE_ASSIGNMENT((#521));
#470=PRESENTATION_STYLE_ASSIGNMENT((#522));
#471=PRESENTATION_STYLE_ASSIGNMENT((#523));
#472=PRESENTATION_STYLE_ASSIGNMENT((#524));
#473=PRESENTATION_STYLE_ASSIGNMENT((#525));
#474=PRESENTATION_STYLE_ASSIGNMENT((#526));
#475=PRESENTATION_STYLE_ASSIGNMENT((#527));
#476=PRESENTATION_STYLE_ASSIGNMENT((#528));
#477=PRESENTATION_STYLE_ASSIGNMENT((#529));
#478=PRESENTATION_STYLE_ASSIGNMENT((#530));
#479=PRESENTATION_STYLE_ASSIGNMENT((#531));
#480=PRESENTATION_STYLE_ASSIGNMENT((#532));
#481=PRESENTATION_STYLE_ASSIGNMENT((#533));
#482=PRESENTATION_STYLE_ASSIGNMENT((#534));
#483=PRESENTATION_STYLE_ASSIGNMENT((#535));
#484=PRESENTATION_STYLE_ASSIGNMENT((#536));
#485=PRESENTATION_STYLE_ASSIGNMENT((#537));
#486=PRESENTATION_STYLE_ASSIGNMENT((#538));
#487=PRESENTATION_STYLE_ASSIGNMENT((#539));
#488=PRESENTATION_STYLE_ASSIGNMENT((#540));
#489=PRESENTATION_STYLE_ASSIGNMENT((#541));
#490=PRESENTATION_STYLE_ASSIGNMENT((#542));
#491=PRESENTATION_STYLE_ASSIGNMENT((#543));
#492=PRESENTATION_STYLE_ASSIGNMENT((#544));
#493=PRESENTATION_STYLE_ASSIGNMENT((#545));
#494=PRESENTATION_STYLE_ASSIGNMENT((#546));
#495=PRESENTATION_STYLE_ASSIGNMENT((#547));
#496=PRESENTATION_STYLE_ASSIGNMENT((#548));
#497=PRESENTATION_STYLE_ASSIGNMENT((#549));
#498=PRESENTATION_STYLE_ASSIGNMENT((#550));
#499=PRESENTATION_STYLE_ASSIGNMENT((#551));
#500=PRESENTATION_STYLE_ASSIGNMENT((#552));
#501=PRESENTATION_STYLE_ASSIGNMENT((#553));
#502=PRESENTATION_STYLE_ASSIGNMENT((#554));
#503=PRESENTATION_STYLE_ASSIGNMENT((#555));
#504=PRESENTATION_STYLE_ASSIGNMENT((#556));
#505=PRESENTATION_STYLE_ASSIGNMENT((#557));
#506=PRESENTATION_STYLE_ASSIGNMENT((#558));
#507=PRESENTATION_STYLE_ASSIGNMENT((#559));
#508=PRESENTATION_STYLE_ASSIGNMENT((#560));
#509=PRESENTATION_STYLE_ASSIGNMENT((#561));
#510=PRESENTATION_STYLE_ASSIGNMENT((#562));
#511=PRESENTATION_STYLE_ASSIGNMENT((#563));
#512=PRESENTATION_STYLE_ASSIGNMENT((#564));
#513=PRESENTATION_STYLE_ASSIGNMENT((#565));
#514=SURFACE_STYLE_USAGE(.BOTH.,#566);
#515=SURFACE_STYLE_USAGE(.BOTH.,#567);
#516=SURFACE_STYLE_USAGE(.BOTH.,#568);
#517=SURFACE_STYLE_USAGE(.BOTH.,#569);
#518=SURFACE_STYLE_USAGE(.BOTH.,#570);
#519=SURFACE_STYLE_USAGE(.BOTH.,#571);
#520=SURFACE_STYLE_USAGE(.BOTH.,#572);
#521=SURFACE_STYLE_USAGE(.BOTH.,#573);
#522=SURFACE_STYLE_USAGE(.BOTH.,#574);
#523=SURFACE_STYLE_USAGE(.BOTH.,#575);
#524=SURFACE_STYLE_USAGE(.BOTH.,#576);
#525=SURFACE_STYLE_USAGE(.BOTH.,#577);
#526=SURFACE_STYLE_USAGE(.BOTH.,#578);
#527=SURFACE_STYLE_USAGE(.BOTH.,#579);
#528=SURFACE_STYLE_USAGE(.BOTH.,#580);
#529=SURFACE_STYLE_USAGE(.BOTH.,#581);
#530=SURFACE_STYLE_USAGE(.BOTH.,#582);
#531=SURFACE_STYLE_USAGE(.BOTH.,#583);
#532=SURFACE_STYLE_USAGE(.BOTH.,#584);
#533=SURFACE_STYLE_USAGE(.BOTH.,#585);
#534=SURFACE_STYLE_USAGE(.BOTH.,#586);
#535=SURFACE_STYLE_USAGE(.BOTH.,#587);
#536=SURFACE_STYLE_USAGE(.BOTH.,#588);
#537=SURFACE_STYLE_USAGE(.BOTH.,#589);
#538=SURFACE_STYLE_USAGE(.BOTH.,#590);
#539=SURFACE_STYLE_USAGE(.BOTH.,#591);
#540=SURFACE_STYLE_USAGE(.BOTH.,#592);
#541=SURFACE_STYLE_USAGE(.BOTH.,#593);
#542=SURFACE_STYLE_USAGE(.BOTH.,#594);
#543=SURFACE_STYLE_USAGE(.BOTH.,#595);
#544=SURFACE_STYLE_USAGE(.BOTH.,#596);
#545=SURFACE_STYLE_USAGE(.BOTH.,#597);
#546=SURFACE_STYLE_USAGE(.BOTH.,#598);
#547=SURFACE_STYLE_USAGE(.BOTH.,#599);
#548=SURFACE_STYLE_USAGE(.BOTH.,#600);
#549=SURFACE_STYLE_USAGE(.BOTH.,#601);
#550=SURFACE_STYLE_USAGE(.BOTH.,#602);
#551=SURFACE_STYLE_USAGE(.BOTH.,#603);
#552=SURFACE_STYLE_USAGE(.BOTH.,#604);
#553=SURFACE_STYLE_USAGE(.BOTH.,#605);
#554=SURFACE_STYLE_USAGE(.BOTH.,#606);
#555=SURFACE_STYLE_USAGE(.BOTH.,#607);
#556=SURFACE_STYLE_USAGE(.BOTH.,#608);
#557=SURFACE_STYLE_USAGE(.BOTH.,#609);
#558=SURFACE_STYLE_USAGE(.BOTH.,#610);
#559=SURFACE_STYLE_USAGE(.BOTH.,#611);
#560=SURFACE_STYLE_USAGE(.BOTH.,#612);
#561=SURFACE_STYLE_USAGE(.BOTH.,#613);
#562=SURFACE_STYLE_USAGE(.BOTH.,#614);
#563=SURFACE_STYLE_USAGE(.BOTH.,#615);
#564=SURFACE_STYLE_USAGE(.BOTH.,#616);
#565=SURFACE_STYLE_USAGE(.BOTH.,#617);
#566=SURFACE_SIDE_STYLE('',(#618));
#567=SURFACE_SIDE_STYLE('',(#619));
#568=SURFACE_SIDE_STYLE('',(#620));
#569=SURFACE_SIDE_STYLE('',(#621));
#570=SURFACE_SIDE_STYLE('',(#622));
#571=SURFACE_SIDE_STYLE('',(#623));
#572=SURFACE_SIDE_STYLE('',(#624));
#573=SURFACE_SIDE_STYLE('',(#625));
#574=SURFACE_SIDE_STYLE('',(#626));
#575=SURFACE_SIDE_STYLE('',(#627));
#576=SURFACE_SIDE_STYLE('',(#628));
#577=SURFACE_SIDE_STYLE('',(#629));
#578=SURFACE_SIDE_STYLE('',(#630));
#579=SURFACE_SIDE_STYLE('',(#631));
#580=SURFACE_SIDE_STYLE('',(#632));
#581=SURFACE_SIDE_STYLE('',(#633));
#582=SURFACE_SIDE_STYLE('',(#634));
#583=SURFACE_SIDE_STYLE('',(#635));
#584=SURFACE_SIDE_STYLE('',(#636));
#585=SURFACE_SIDE_STYLE('',(#637));
#586=SURFACE_SIDE_STYLE('',(#638));
#587=SURFACE_SIDE_STYLE('',(#639));
#588=SURFACE_SIDE_STYLE('',(#640));
#589=SURFACE_SIDE_STYLE('',(#641));
#590=SURFACE_SIDE_STYLE('',(#642));
#591=SURFACE_SIDE_STYLE('',(#643));
#592=SURFACE_SIDE_STYLE('',(#644));
#593=SURFACE_SIDE_STYLE('',(#645));
#594=SURFACE_SIDE_STYLE('',(#646));
#595=SURFACE_SIDE_STYLE('',(#647));
#596=SURFACE_SIDE_STYLE('',(#648));
#597=SURFACE_SIDE_STYLE('',(#649));
#598=SURFACE_SIDE_STYLE('',(#650));
#599=SURFACE_SIDE_STYLE('',(#651));
#600=SURFACE_SIDE_STYLE('',(#652));
#601=SURFACE_SIDE_STYLE('',(#653));
#602=SURFACE_SIDE_STYLE('',(#654));
#603=SURFACE_SIDE_STYLE('',(#655));
#604=SURFACE_SIDE_STYLE('',(#656));
#605=SURFACE_SIDE_STYLE('',(#657));
#606=SURFACE_SIDE_STYLE('',(#658));
#607=SURFACE_SIDE_STYLE('',(#659));
#608=SURFACE_SIDE_STYLE('',(#660));
#609=SURFACE_SIDE_STYLE('',(#661));
#610=SURFACE_SIDE_STYLE('',(#662));
#611=SURFACE_SIDE_STYLE('',(#663));
#612=SURFACE_SIDE_STYLE('',(#664));
#613=SURFACE_SIDE_STYLE('',(#665));
#614=SURFACE_SIDE_STYLE('',(#666));
#615=SURFACE_SIDE_STYLE('',(#667));
#616=SURFACE_SIDE_STYLE('',(#668));
#617=SURFACE_SIDE_STYLE('',(#669));
#618=SURFACE_STYLE_FILL_AREA(#670);
#619=SURFACE_STYLE_FILL_AREA(#671);
#620=SURFACE_STYLE_FILL_AREA(#672);
#621=SURFACE_STYLE_FILL_AREA(#673);
#622=SURFACE_STYLE_FILL_AREA(#674);
#623=SURFACE_STYLE_FILL_AREA(#675);
#624=SURFACE_STYLE_FILL_AREA(#676);
#625=SURFACE_STYLE_FILL_AREA(#677);
#626=SURFACE_STYLE_FILL_AREA(#678);
#627=SURFACE_STYLE_FILL_AREA(#679);
#628=SURFACE_STYLE_FILL_AREA(#680);
#629=SURFACE_STYLE_FILL_AREA(#681);
#630=SURFACE_STYLE_FILL_AREA(#682);
#631=SURFACE_STYLE_FILL_AREA(#683);
#632=SURFACE_STYLE_FILL_AREA(#684);
#633=SURFACE_STYLE_FILL_AREA(#685);
#634=SURFACE_STYLE_FILL_AREA(#686);
#635=SURFACE_STYLE_FILL_AREA(#687);
#636=SURFACE_STYLE_FILL_AREA(#688);
#637=SURFACE_STYLE_FILL_AREA(#689);
#638=SURFACE_STYLE_FILL_AREA(#690);
#639=SURFACE_STYLE_FILL_AREA(#691);
#640=SURFACE_STYLE_FILL_AREA(#692);
#641=SURFACE_STYLE_FILL_AREA(#693);
#642=SURFACE_STYLE_FILL_AREA(#694);
#643=SURFACE_STYLE_FILL_AREA(#695);
#644=SURFACE_STYLE_FILL_AREA(#696);
#645=SURFACE_STYLE_FILL_AREA(#697);
#646=SURFACE_STYLE_FILL_AREA(#698);
#647=SURFACE_STYLE_FILL_AREA(#699);
#648=SURFACE_STYLE_FILL_AREA(#700);
#649=SURFACE_STYLE_FILL_AREA(#701);
#650=SURFACE_STYLE_FILL_AREA(#702);
#651=SURFACE_STYLE_FILL_AREA(#703);
#652=SURFACE_STYLE_FILL_AREA(#704);
#653=SURFACE_STYLE_FILL_AREA(#705);
#654=SURFACE_STYLE_FILL_AREA(#706);
#655=SURFACE_STYLE_FILL_AREA(#707);
#656=SURFACE_STYLE_FILL_AREA(#708);
#657=SURFACE_STYLE_FILL_AREA(#709);
#658=SURFACE_STYLE_FILL_AREA(#710);
#659=SURFACE_STYLE_FILL_AREA(#711);
#660=SURFACE_STYLE_FILL_AREA(#712);
#661=SURFACE_STYLE_FILL_AREA(#713);
#662=SURFACE_STYLE_FILL_AREA(#714);
#663=SURFACE_STYLE_FILL_AREA(#715);
#664=SURFACE_STYLE_FILL_AREA(#716);
#665=SURFACE_STYLE_FILL_AREA(#717);
#666=SURFACE_STYLE_FILL_AREA(#718);
#667=SURFACE_STYLE_FILL_AREA(#719);
#668=SURFACE_STYLE_FILL_AREA(#720);
#669=SURFACE_STYLE_FILL_AREA(#721);
#670=FILL_AREA_STYLE('',(#722));
#671=FILL_AREA_STYLE('',(#723));
#672=FILL_AREA_STYLE('',(#724));
#673=FILL_AREA_STYLE('',(#725));
#674=FILL_AREA_STYLE('',(#726));
#675=FILL_AREA_STYLE('',(#727));
#676=FILL_AREA_STYLE('',(#728));
#677=FILL_AREA_STYLE('',(#729));
#678=FILL_AREA_STYLE('',(#730));
#679=FILL_AREA_STYLE('',(#731));
#680=FILL_AREA_STYLE('',(#732));
#681=FILL_AREA_STYLE('',(#733));
#682=FILL_AREA_STYLE('',(#734));
#683=FILL_AREA_STYLE('',(#735));
#684=FILL_AREA_STYLE('',(#736));
#685=FILL_AREA_STYLE('',(#737));
#686=FILL_AREA_STYLE('',(#738));
#687=FILL_AREA_STYLE('',(#739));
#688=FILL_AREA_STYLE('',(#740));
#689=FILL_AREA_STYLE('',(#741));
#690=FILL_AREA_STYLE('',(#742));
#691=FILL_AREA_STYLE('',(#743));
#692=FILL_AREA_STYLE('',(#744));
#693=FILL_AREA_STYLE('',(#745));
#694=FILL_AREA_STYLE('',(#746));
#695=FILL_AREA_STYLE('',(#747));
#696=FILL_AREA_STYLE('',(#748));
#697=FILL_AREA_STYLE('',(#749));
#698=FILL_AREA_STYLE('',(#750));
#699=FILL_AREA_STYLE('',(#751));
#700=FILL_AREA_STYLE('',(#752));
#701=FILL_AREA_STYLE('',(#753));
#702=FILL_AREA_STYLE('',(#754));
#703=FILL_AREA_STYLE('',(#755));
#704=FILL_AREA_STYLE('',(#756));
#705=FILL_AREA_STYLE('',(#757));
#706=FILL_AREA_STYLE('',(#758));
#707=FILL_AREA_STYLE('',(#759));
#708=FILL_AREA_STYLE('',(#760));
#709=FILL_AREA_STYLE('',(#761));
#710=FILL_AREA_STYLE('',(#762));
#711=FILL_AREA_STYLE('',(#763));
#712=FILL_AREA_STYLE('',(#764));
#713=FILL_AREA_STYLE('',(#765));
#714=FILL_AREA_STYLE('',(#766));
#715=FILL_AREA_STYLE('',(#767));
#716=FILL_AREA_STYLE('',(#768));
#717=FILL_AREA_STYLE('',(#769));
#718=FILL_AREA_STYLE('',(#770));
#719=FILL_AREA_STYLE('',(#771));
#720=FILL_AREA_STYLE('',(#772));
#721=FILL_AREA_STYLE('',(#773));
#722=FILL_AREA_STYLE_COLOUR('',#774);
#723=FILL_AREA_STYLE_COLOUR('',#775);
#724=FILL_AREA_STYLE_COLOUR('',#774);
#725=FILL_AREA_STYLE_COLOUR('',#775);
#726=FILL_AREA_STYLE_COLOUR('',#775);
#727=FILL_AREA_STYLE_COLOUR('',#775);
#728=FILL_AREA_STYLE_COLOUR('',#775);
#729=FILL_AREA_STYLE_COLOUR('',#775);
#730=FILL_AREA_STYLE_COLOUR('',#775);
#731=FILL_AREA_STYLE_COLOUR('',#775);
#732=FILL_AREA_STYLE_COLOUR('',#775);
#733=FILL_AREA_STYLE_COLOUR('',#774);
#734=FILL_AREA_STYLE_COLOUR('',#775);
#735=FILL_AREA_STYLE_COLOUR('',#774);
#736=FILL_AREA_STYLE_COLOUR('',#775);
#737=FILL_AREA_STYLE_COLOUR('',#775);
#738=FILL_AREA_STYLE_COLOUR('',#775);
#739=FILL_AREA_STYLE_COLOUR('',#775);
#740=FILL_AREA_STYLE_COLOUR('',#775);
#741=FILL_AREA_STYLE_COLOUR('',#775);
#742=FILL_AREA_STYLE_COLOUR('',#775);
#743=FILL_AREA_STYLE_COLOUR('',#775);
#744=FILL_AREA_STYLE_COLOUR('',#775);
#745=FILL_AREA_STYLE_COLOUR('',#775);
#746=FILL_AREA_STYLE_COLOUR('',#775);
#747=FILL_AREA_STYLE_COLOUR('',#775);
#748=FILL_AREA_STYLE_COLOUR('',#774);
#749=FILL_AREA_STYLE_COLOUR('',#775);
#750=FILL_AREA_STYLE_COLOUR('',#774);
#751=FILL_AREA_STYLE_COLOUR('',#776);
#752=FILL_AREA_STYLE_COLOUR('',#776);
#753=FILL_AREA_STYLE_COLOUR('',#776);
#754=FILL_AREA_STYLE_COLOUR('',#776);
#755=FILL_AREA_STYLE_COLOUR('',#774);
#756=FILL_AREA_STYLE_COLOUR('',#775);
#757=FILL_AREA_STYLE_COLOUR('',#774);
#758=FILL_AREA_STYLE_COLOUR('',#776);
#759=FILL_AREA_STYLE_COLOUR('',#776);
#760=FILL_AREA_STYLE_COLOUR('',#776);
#761=FILL_AREA_STYLE_COLOUR('',#776);
#762=FILL_AREA_STYLE_COLOUR('',#774);
#763=FILL_AREA_STYLE_COLOUR('',#775);
#764=FILL_AREA_STYLE_COLOUR('',#774);
#765=FILL_AREA_STYLE_COLOUR('',#775);
#766=FILL_AREA_STYLE_COLOUR('',#774);
#767=FILL_AREA_STYLE_COLOUR('',#775);
#768=FILL_AREA_STYLE_COLOUR('',#774);
#769=FILL_AREA_STYLE_COLOUR('',#775);
#770=FILL_AREA_STYLE_COLOUR('',#774);
#771=FILL_AREA_STYLE_COLOUR('',#775);
#772=FILL_AREA_STYLE_COLOUR('',#774);
#773=FILL_AREA_STYLE_COLOUR('',#775);
#774=COLOUR_RGB('',0.796078431372549,0.823529411764706,0.937254901960784);
#775=COLOUR_RGB('',0.752941176470588,0.752941176470588,0.752941176470588);
#776=COLOUR_RGB('',0.501960784313726,0.501960784313726,0.501960784313726);
#777=MANIFOLD_SOLID_BREP('Part 7',#434);
#778=MANIFOLD_SOLID_BREP('Part 1',#435);
#779=MANIFOLD_SOLID_BREP('Part 8',#436);
#780=MANIFOLD_SOLID_BREP('Part 2',#437);
#781=MANIFOLD_SOLID_BREP('Part 9',#438);
#782=MANIFOLD_SOLID_BREP('Part 3',#439);
#783=MANIFOLD_SOLID_BREP('Part 10',#440);
#784=MANIFOLD_SOLID_BREP('Part 4',#441);
#785=MANIFOLD_SOLID_BREP('Part 14',#442);
#786=MANIFOLD_SOLID_BREP('Part 11',#443);
#787=MANIFOLD_SOLID_BREP('Part 5',#444);
#788=MANIFOLD_SOLID_BREP('Part 12',#445);
#789=MANIFOLD_SOLID_BREP('Part 6',#446);
#790=MANIFOLD_SOLID_BREP('Part 13',#447);
#791=SHAPE_DEFINITION_REPRESENTATION(#1399,#805);
#792=SHAPE_DEFINITION_REPRESENTATION(#1400,#806);
#793=SHAPE_DEFINITION_REPRESENTATION(#1401,#807);
#794=SHAPE_DEFINITION_REPRESENTATION(#1402,#808);
#795=SHAPE_DEFINITION_REPRESENTATION(#1403,#809);
#796=SHAPE_DEFINITION_REPRESENTATION(#1404,#810);
#797=SHAPE_DEFINITION_REPRESENTATION(#1405,#811);
#798=SHAPE_DEFINITION_REPRESENTATION(#1406,#812);
#799=SHAPE_DEFINITION_REPRESENTATION(#1407,#813);
#800=SHAPE_DEFINITION_REPRESENTATION(#1408,#814);
#801=SHAPE_DEFINITION_REPRESENTATION(#1409,#815);
#802=SHAPE_DEFINITION_REPRESENTATION(#1410,#816);
#803=SHAPE_DEFINITION_REPRESENTATION(#1411,#817);
#804=SHAPE_DEFINITION_REPRESENTATION(#1412,#818);
#805=SHAPE_REPRESENTATION('Part 7',(#819),#1329);
#806=SHAPE_REPRESENTATION('Part 1',(#821),#1330);
#807=SHAPE_REPRESENTATION('Part 8',(#836),#1331);
#808=SHAPE_REPRESENTATION('Part 2',(#838),#1332);
#809=SHAPE_REPRESENTATION('Part 9',(#861),#1333);
#810=SHAPE_REPRESENTATION('Part 3',(#863),#1334);
#811=SHAPE_REPRESENTATION('Part 10',(#872),#1335);
#812=SHAPE_REPRESENTATION('Part 4',(#874),#1336);
#813=SHAPE_REPRESENTATION('Part 14',(#883),#1337);
#814=SHAPE_REPRESENTATION('Part 11',(#885),#1338);
#815=SHAPE_REPRESENTATION('Part 5',(#887),#1339);
#816=SHAPE_REPRESENTATION('Part 12',(#889),#1340);
#817=SHAPE_REPRESENTATION('Part 6',(#891),#1341);
#818=SHAPE_REPRESENTATION('Part 13',(#893),#1342);
#819=AXIS2_PLACEMENT_3D('',#1047,#895,#896);
#820=AXIS2_PLACEMENT_3D('',#1048,#897,#898);
#821=AXIS2_PLACEMENT_3D('',#1050,#899,#900);
#822=AXIS2_PLACEMENT_3D('',#1051,#901,#902);
#823=AXIS2_PLACEMENT_3D('',#1052,#903,#904);
#824=AXIS2_PLACEMENT_3D('',#1054,#905,#906);
#825=AXIS2_PLACEMENT_3D('',#1056,#907,#908);
#826=AXIS2_PLACEMENT_3D('',#1057,#909,#910);
#827=AXIS2_PLACEMENT_3D('',#1059,#911,#912);
#828=AXIS2_PLACEMENT_3D('',#1060,#913,#914);
#829=AXIS2_PLACEMENT_3D('',#1062,#915,#916);
#830=AXIS2_PLACEMENT_3D('',#1099,#917,#918);
#831=AXIS2_PLACEMENT_3D('',#1136,#919,#920);
#832=AXIS2_PLACEMENT_3D('',#1137,#921,#922);
#833=AXIS2_PLACEMENT_3D('',#1139,#923,#924);
#834=AXIS2_PLACEMENT_3D('',#1140,#925,#926);
#835=AXIS2_PLACEMENT_3D('',#1142,#927,#928);
#836=AXIS2_PLACEMENT_3D('',#1143,#929,#930);
#837=AXIS2_PLACEMENT_3D('',#1144,#931,#932);
#838=AXIS2_PLACEMENT_3D('',#1146,#933,#934);
#839=AXIS2_PLACEMENT_3D('',#1147,#935,#936);
#840=AXIS2_PLACEMENT_3D('',#1148,#937,#938);
#841=AXIS2_PLACEMENT_3D('',#1150,#939,#940);
#842=AXIS2_PLACEMENT_3D('',#1152,#941,#942);
#843=AXIS2_PLACEMENT_3D('',#1153,#943,#944);
#844=AXIS2_PLACEMENT_3D('',#1155,#945,#946);
#845=AXIS2_PLACEMENT_3D('',#1156,#947,#948);
#846=AXIS2_PLACEMENT_3D('',#1158,#949,#950);
#847=AXIS2_PLACEMENT_3D('',#1159,#951,#952);
#848=AXIS2_PLACEMENT_3D('',#1161,#953,#954);
#849=AXIS2_PLACEMENT_3D('',#1162,#955,#956);
#850=AXIS2_PLACEMENT_3D('',#1164,#957,#958);
#851=AXIS2_PLACEMENT_3D('',#1165,#959,#960);
#852=AXIS2_PLACEMENT_3D('',#1167,#961,#962);
#853=AXIS2_PLACEMENT_3D('',#1168,#963,#964);
#854=AXIS2_PLACEMENT_3D('',#1170,#965,#966);
#855=AXIS2_PLACEMENT_3D('',#1214,#967,#968);
#856=AXIS2_PLACEMENT_3D('',#1258,#969,#970);
#857=AXIS2_PLACEMENT_3D('',#1259,#971,#972);
#858=AXIS2_PLACEMENT_3D('',#1261,#973,#974);
#859=AXIS2_PLACEMENT_3D('',#1262,#975,#976);
#860=AXIS2_PLACEMENT_3D('',#1264,#977,#978);
#861=AXIS2_PLACEMENT_3D('',#1265,#979,#980);
#862=AXIS2_PLACEMENT_3D('',#1266,#981,#982);
#863=AXIS2_PLACEMENT_3D('',#1268,#983,#984);
#864=AXIS2_PLACEMENT_3D('',#1269,#985,#986);
#865=AXIS2_PLACEMENT_3D('',#1270,#987,#988);
#866=AXIS2_PLACEMENT_3D('',#1272,#989,#990);
#867=AXIS2_PLACEMENT_3D('',#1274,#991,#992);
#868=AXIS2_PLACEMENT_3D('',#1275,#993,#994);
#869=AXIS2_PLACEMENT_3D('',#1277,#995,#996);
#870=AXIS2_PLACEMENT_3D('',#1278,#997,#998);
#871=AXIS2_PLACEMENT_3D('',#1280,#999,#1000);
#872=AXIS2_PLACEMENT_3D('',#1281,#1001,#1002);
#873=AXIS2_PLACEMENT_3D('',#1282,#1003,#1004);
#874=AXIS2_PLACEMENT_3D('',#1284,#1005,#1006);
#875=AXIS2_PLACEMENT_3D('',#1285,#1007,#1008);
#876=AXIS2_PLACEMENT_3D('',#1286,#1009,#1010);
#877=AXIS2_PLACEMENT_3D('',#1288,#1011,#1012);
#878=AXIS2_PLACEMENT_3D('',#1290,#1013,#1014);
#879=AXIS2_PLACEMENT_3D('',#1291,#1015,#1016);
#880=AXIS2_PLACEMENT_3D('',#1293,#1017,#1018);
#881=AXIS2_PLACEMENT_3D('',#1294,#1019,#1020);
#882=AXIS2_PLACEMENT_3D('',#1296,#1021,#1022);
#883=AXIS2_PLACEMENT_3D('',#1297,#1023,#1024);
#884=AXIS2_PLACEMENT_3D('',#1298,#1025,#1026);
#885=AXIS2_PLACEMENT_3D('',#1300,#1027,#1028);
#886=AXIS2_PLACEMENT_3D('',#1301,#1029,#1030);
#887=AXIS2_PLACEMENT_3D('',#1303,#1031,#1032);
#888=AXIS2_PLACEMENT_3D('',#1304,#1033,#1034);
#889=AXIS2_PLACEMENT_3D('',#1306,#1035,#1036);
#890=AXIS2_PLACEMENT_3D('',#1307,#1037,#1038);
#891=AXIS2_PLACEMENT_3D('',#1309,#1039,#1040);
#892=AXIS2_PLACEMENT_3D('',#1310,#1041,#1042);
#893=AXIS2_PLACEMENT_3D('',#1312,#1043,#1044);
#894=AXIS2_PLACEMENT_3D('',#1313,#1045,#1046);
#895=DIRECTION('',(0.,0.,1.));
#896=DIRECTION('',(1.,0.,0.));
#897=DIRECTION('',(0.,-1.,0.));
#898=DIRECTION('',(0.,0.,-1.));
#899=DIRECTION('',(0.,0.,1.));
#900=DIRECTION('',(1.,0.,0.));
#901=DIRECTION('',(1.,0.,0.));
#902=DIRECTION('',(0.,0.,-1.));
#903=DIRECTION('',(-1.,0.,0.));
#904=DIRECTION('',(0.,0.,1.));
#905=DIRECTION('',(-1.,0.,0.));
#906=DIRECTION('',(0.,0.,1.));
#907=DIRECTION('',(-1.,0.,0.));
#908=DIRECTION('',(0.,0.,1.));
#909=DIRECTION('',(-1.,0.,0.));
#910=DIRECTION('',(0.,0.,1.));
#911=DIRECTION('',(-1.,0.,0.));
#912=DIRECTION('',(0.,0.,1.));
#913=DIRECTION('',(-1.,0.,0.));
#914=DIRECTION('',(0.,0.,1.));
#915=DIRECTION('',(1.,0.,0.));
#916=DIRECTION('',(0.,0.,-1.));
#917=DIRECTION('',(-1.,0.,0.));
#918=DIRECTION('',(0.,0.,1.));
#919=DIRECTION('',(1.,0.,0.));
#920=DIRECTION('',(0.,0.,-1.));
#921=DIRECTION('',(-1.,0.,0.));
#922=DIRECTION('',(0.,0.,1.));
#923=DIRECTION('',(1.,0.,0.));
#924=DIRECTION('',(0.,0.,-1.));
#925=DIRECTION('',(-1.,0.,0.));
#926=DIRECTION('',(0.,0.,1.));
#927=DIRECTION('',(-1.,0.,0.));
#928=DIRECTION('',(0.,0.,1.));
#929=DIRECTION('',(0.,0.,1.));
#930=DIRECTION('',(1.,0.,0.));
#931=DIRECTION('',(0.,-1.,0.));
#932=DIRECTION('',(0.,0.,-1.));
#933=DIRECTION('',(0.,0.,1.));
#934=DIRECTION('',(1.,0.,0.));
#935=DIRECTION('',(1.,0.,0.));
#936=DIRECTION('',(0.,0.,-1.));
#937=DIRECTION('',(-1.,0.,0.));
#938=DIRECTION('',(0.,0.,1.));
#939=DIRECTION('',(-1.,0.,0.));
#940=DIRECTION('',(0.,0.,1.));
#941=DIRECTION('',(-1.,0.,0.));
#942=DIRECTION('',(0.,0.,1.));
#943=DIRECTION('',(-1.,0.,0.));
#944=DIRECTION('',(0.,0.,1.));
#945=DIRECTION('',(-1.,0.,0.));
#946=DIRECTION('',(0.,0.,1.));
#947=DIRECTION('',(-1.,0.,0.));
#948=DIRECTION('',(0.,0.,1.));
#949=DIRECTION('',(1.,0.,0.));
#950=DIRECTION('',(0.,0.,-1.));
#951=DIRECTION('',(-1.,0.,0.));
#952=DIRECTION('',(0.,0.,1.));
#953=DIRECTION('',(-1.,0.,0.));
#954=DIRECTION('',(0.,0.,1.));
#955=DIRECTION('',(-1.,0.,0.));
#956=DIRECTION('',(0.,0.,1.));
#957=DIRECTION('',(-1.,0.,0.));
#958=DIRECTION('',(0.,0.,1.));
#959=DIRECTION('',(-1.,0.,0.));
#960=DIRECTION('',(0.,0.,1.));
#961=DIRECTION('',(-1.,0.,0.));
#962=DIRECTION('',(0.,0.,1.));
#963=DIRECTION('',(-1.,0.,0.));
#964=DIRECTION('',(0.,0.,1.));
#965=DIRECTION('',(-1.,0.,0.));
#966=DIRECTION('',(0.,0.,1.));
#967=DIRECTION('',(1.,0.,0.));
#968=DIRECTION('',(0.,0.,-1.));
#969=DIRECTION('',(1.,0.,0.));
#970=DIRECTION('',(0.,0.,-1.));
#971=DIRECTION('',(-1.,0.,0.));
#972=DIRECTION('',(0.,0.,1.));
#973=DIRECTION('',(1.,0.,0.));
#974=DIRECTION('',(0.,0.,-1.));
#975=DIRECTION('',(-1.,0.,0.));
#976=DIRECTION('',(0.,0.,1.));
#977=DIRECTION('',(-1.,0.,0.));
#978=DIRECTION('',(0.,0.,1.));
#979=DIRECTION('',(0.,0.,1.));
#980=DIRECTION('',(1.,0.,0.));
#981=DIRECTION('',(0.,-1.,0.));
#982=DIRECTION('',(0.,0.,-1.));
#983=DIRECTION('',(0.,0.,1.));
#984=DIRECTION('',(1.,0.,0.));
#985=DIRECTION('',(-1.,0.,0.));
#986=DIRECTION('',(0.,0.,1.));
#987=DIRECTION('',(-1.,0.,0.));
#988=DIRECTION('',(0.,0.,1.));
#989=DIRECTION('',(-1.,0.,0.));
#990=DIRECTION('',(0.,0.,1.));
#991=DIRECTION('',(-1.,0.,0.));
#992=DIRECTION('',(0.,0.,1.));
#993=DIRECTION('',(-1.,0.,0.));
#994=DIRECTION('',(0.,0.,1.));
#995=DIRECTION('',(-1.,0.,0.));
#996=DIRECTION('',(0.,0.,1.));
#997=DIRECTION('',(-1.,0.,0.));
#998=DIRECTION('',(0.,0.,1.));
#999=DIRECTION('',(1.,0.,0.));
#1000=DIRECTION('',(0.,0.,-1.));
#1001=DIRECTION('',(0.,0.,1.));
#1002=DIRECTION('',(1.,0.,0.));
#1003=DIRECTION('',(0.,-1.,0.));
#1004=DIRECTION('',(0.,0.,-1.));
#1005=DIRECTION('',(0.,0.,1.));
#1006=DIRECTION('',(1.,0.,0.));
#1007=DIRECTION('',(1.,0.,0.));
#1008=DIRECTION('',(0.,0.,1.));
#1009=DIRECTION('',(1.,0.,0.));
#1010=DIRECTION('',(0.,0.,1.));
#1011=DIRECTION('',(1.,0.,0.));
#1012=DIRECTION('',(0.,0.,1.));
#1013=DIRECTION('',(1.,0.,0.));
#1014=DIRECTION('',(0.,0.,1.));
#1015=DIRECTION('',(1.,0.,0.));
#1016=DIRECTION('',(0.,0.,1.));
#1017=DIRECTION('',(1.,0.,0.));
#1018=DIRECTION('',(0.,0.,1.));
#1019=DIRECTION('',(1.,0.,0.));
#1020=DIRECTION('',(0.,0.,1.));
#1021=DIRECTION('',(-1.,0.,0.));
#1022=DIRECTION('',(0.,0.,-1.));
#1023=DIRECTION('',(0.,0.,1.));
#1024=DIRECTION('',(1.,0.,0.));
#1025=DIRECTION('',(0.,-1.,0.));
#1026=DIRECTION('',(0.,0.,-1.));
#1027=DIRECTION('',(0.,0.,1.));
#1028=DIRECTION('',(1.,0.,0.));
#1029=DIRECTION('',(0.,-1.,0.));
#1030=DIRECTION('',(0.,0.,-1.));
#1031=DIRECTION('',(0.,0.,1.));
#1032=DIRECTION('',(1.,0.,0.));
#1033=DIRECTION('',(0.,-1.,0.));
#1034=DIRECTION('',(0.,0.,-1.));
#1035=DIRECTION('',(0.,0.,1.));
#1036=DIRECTION('',(1.,0.,0.));
#1037=DIRECTION('',(0.,-1.,0.));
#1038=DIRECTION('',(0.,0.,-1.));
#1039=DIRECTION('',(0.,0.,1.));
#1040=DIRECTION('',(1.,0.,0.));
#1041=DIRECTION('',(0.,-1.,0.));
#1042=DIRECTION('',(0.,0.,-1.));
#1043=DIRECTION('',(0.,0.,1.));
#1044=DIRECTION('',(1.,0.,0.));
#1045=DIRECTION('',(0.,-1.,0.));
#1046=DIRECTION('',(0.,0.,-1.));
#1047=CARTESIAN_POINT('',(0.,0.,0.));
#1048=CARTESIAN_POINT('',(2.5,2.24037320921837,6.89515974313986));
#1049=CARTESIAN_POINT('',(2.5,3.56787320921837,6.89515974313986));
#1050=CARTESIAN_POINT('',(0.,0.,0.));
#1051=CARTESIAN_POINT('',(2.5,0.,0.));
#1052=CARTESIAN_POINT('',(1.42,0.,0.));
#1053=CARTESIAN_POINT('',(1.42,7.88672538650895E-16,-6.44));
#1054=CARTESIAN_POINT('',(3.58,0.,0.));
#1055=CARTESIAN_POINT('',(3.58,7.88672538650895E-16,-6.44));
#1056=CARTESIAN_POINT('',(5.,0.,0.));
#1057=CARTESIAN_POINT('',(5.,0.,0.));
#1058=CARTESIAN_POINT('',(5.,0.,6.44));
#1059=CARTESIAN_POINT('',(5.,0.,0.));
#1060=CARTESIAN_POINT('',(0.,0.,0.));
#1061=CARTESIAN_POINT('',(0.,0.,6.44));
#1062=CARTESIAN_POINT('',(5.,5.3,0.));
#1063=CARTESIAN_POINT('',(5.,0.994022541230281,-5.23964527050898));
#1064=CARTESIAN_POINT('',(5.,0.0321921951286095,-5.32790760284236));
#1065=CARTESIAN_POINT('',(5.,-0.925130119743244,-5.24841282031655));
#1066=CARTESIAN_POINT('',(5.,-1.90741082472059,-4.98252669871266));
#1067=CARTESIAN_POINT('',(5.,-2.86913298251995,-4.50043774629227));
#1068=CARTESIAN_POINT('',(5.,-3.73323369194269,-3.81585425944237));
#1069=CARTESIAN_POINT('',(5.,-4.43743415697053,-2.96595133140662));
#1070=CARTESIAN_POINT('',(5.,-4.94214715985677,-2.01080239874974));
#1071=CARTESIAN_POINT('',(5.,-5.23458680602226,-1.01122914970225));
#1072=CARTESIAN_POINT('',(5.,-5.32767266225854,-0.0507894937272532));
#1073=CARTESIAN_POINT('',(5.,-5.25322279165018,0.907092916818622));
#1074=CARTESIAN_POINT('',(5.,-4.98298844437685,1.90640596724681));
#1075=CARTESIAN_POINT('',(5.,-4.50046340358611,2.86912351639022));
#1076=CARTESIAN_POINT('',(5.,-3.8158577525735,3.73322385190987));
#1077=CARTESIAN_POINT('',(5.,-2.9659510295877,4.43743629583464));
#1078=CARTESIAN_POINT('',(5.,-2.01080251491194,4.94214656924187));
#1079=CARTESIAN_POINT('',(5.,-1.01122912040394,5.23458696378821));
#1080=CARTESIAN_POINT('',(5.,-0.0507895016661371,5.32767261997864));
#1081=CARTESIAN_POINT('',(5.,0.907092918944931,5.25322280298015));
#1082=CARTESIAN_POINT('',(5.,1.90640596666519,4.98298844133862));
#1083=CARTESIAN_POINT('',(5.,2.86912351658584,4.50046340440986));
#1084=CARTESIAN_POINT('',(5.,3.73322385170436,3.8158577523194));
#1085=CARTESIAN_POINT('',(5.,4.43743629646116,2.96595102978063));
#1086=CARTESIAN_POINT('',(5.,4.94214656694156,2.01080251439373));
#1087=CARTESIAN_POINT('',(5.,5.23458697236139,1.01122912228643));
#1088=CARTESIAN_POINT('',(5.,5.32767258798544,0.0507894946575549));
#1089=CARTESIAN_POINT('',(5.,5.25322292237979,-0.907092892792036));
#1090=CARTESIAN_POINT('',(5.,4.98298799573331,-1.90640606426667));
#1091=CARTESIAN_POINT('',(5.,4.50046506743198,-2.86912315233152));
#1092=CARTESIAN_POINT('',(5.,3.81585154583682,-3.73322521111865));
#1093=CARTESIAN_POINT('',(5.,2.96597419269005,-4.4374312230571));
#1094=CARTESIAN_POINT('',(5.,2.01071606924156,-4.94216550114058));
#1095=CARTESIAN_POINT('',(5.,0.994022541230281,-5.23964527050898));
#1096=CARTESIAN_POINT('',(5.,0.0321921951286095,-5.32790760284236));
#1097=CARTESIAN_POINT('',(5.,-0.925130119743244,-5.24841282031655));
#1098=CARTESIAN_POINT('',(5.,0.,-5.3));
#1099=CARTESIAN_POINT('',(0.,6.44,0.));
#1100=CARTESIAN_POINT('',(0.,-0.99402254122968,-5.23964527050899));
#1101=CARTESIAN_POINT('',(0.,-0.0321921951286366,-5.32790760284238));
#1102=CARTESIAN_POINT('',(0.,0.925130119742853,-5.24841282031648));
#1103=CARTESIAN_POINT('',(0.,1.90741082471954,-4.98252669871293));
#1104=CARTESIAN_POINT('',(0.,2.86913298251907,-4.50043774629276));
#1105=CARTESIAN_POINT('',(0.,3.73323369194254,-3.81585425944265));
#1106=CARTESIAN_POINT('',(0.,4.43743415696995,-2.965951331407));
#1107=CARTESIAN_POINT('',(0.,4.94214715985555,-2.01080239875182));
#1108=CARTESIAN_POINT('',(0.,5.2345868060223,-1.01122914970347));
#1109=CARTESIAN_POINT('',(0.,5.3276726622586,-0.0507894937266521));
#1110=CARTESIAN_POINT('',(0.,5.25322279165013,0.907092916818721));
#1111=CARTESIAN_POINT('',(0.,4.98298844437697,1.90640596724577));
#1112=CARTESIAN_POINT('',(0.,4.50046340358676,2.86912351638923));
#1113=CARTESIAN_POINT('',(0.,3.81585775257343,3.73322385191019));
#1114=CARTESIAN_POINT('',(0.,2.96595102958762,4.43743629583443));
#1115=CARTESIAN_POINT('',(0.,2.01080251491301,4.94214656924132));
#1116=CARTESIAN_POINT('',(0.,1.01122912040423,5.23458696378828));
#1117=CARTESIAN_POINT('',(0.,0.0507895016659365,5.32767261997862));
#1118=CARTESIAN_POINT('',(0.,-0.907092918944889,5.25322280298014));
#1119=CARTESIAN_POINT('',(0.,-1.90640596666491,4.98298844133866));
#1120=CARTESIAN_POINT('',(0.,-2.86912351658603,4.5004634044099));
#1121=CARTESIAN_POINT('',(0.,-3.73322385170455,3.81585775231909));
#1122=CARTESIAN_POINT('',(0.,-4.43743629646087,2.96595102978107));
#1123=CARTESIAN_POINT('',(0.,-4.9421465669425,2.01080251439272));
#1124=CARTESIAN_POINT('',(0.,-5.23458697236162,1.0112291222846));
#1125=CARTESIAN_POINT('',(0.,-5.32767258798546,0.050789494657122));
#1126=CARTESIAN_POINT('',(0.,-5.25322292237969,-0.907092892792328));
#1127=CARTESIAN_POINT('',(0.,-4.98298799573318,-1.90640606426767));
#1128=CARTESIAN_POINT('',(0.,-4.50046506743152,-2.86912315233214));
#1129=CARTESIAN_POINT('',(0.,-3.81585154583694,-3.73322521111849));
#1130=CARTESIAN_POINT('',(0.,-2.9659741926896,-4.4374312230577));
#1131=CARTESIAN_POINT('',(0.,-2.01071606924022,-4.94216550114125));
#1132=CARTESIAN_POINT('',(0.,-0.99402254122968,-5.23964527050899));
#1133=CARTESIAN_POINT('',(0.,-0.0321921951286366,-5.32790760284238));
#1134=CARTESIAN_POINT('',(0.,0.925130119742853,-5.24841282031648));
#1135=CARTESIAN_POINT('',(0.,-1.29812560709619E-15,-5.3));
#1136=CARTESIAN_POINT('',(4.7,0.,0.));
#1137=CARTESIAN_POINT('',(4.7,0.,0.));
#1138=CARTESIAN_POINT('',(4.7,6.12323399573677E-16,-5.));
#1139=CARTESIAN_POINT('',(0.3,0.,0.));
#1140=CARTESIAN_POINT('',(0.3,0.,0.));
#1141=CARTESIAN_POINT('',(0.3,6.12323399573677E-16,-5.));
#1142=CARTESIAN_POINT('',(5.,0.,0.));
#1143=CARTESIAN_POINT('',(0.,0.,0.));
#1144=CARTESIAN_POINT('',(2.5,-2.24037320921837,6.89515974313986));
#1145=CARTESIAN_POINT('',(2.5,-0.91287320921837,6.89515974313986));
#1146=CARTESIAN_POINT('',(0.,0.,0.));
#1147=CARTESIAN_POINT('',(2.5,0.,0.));
#1148=CARTESIAN_POINT('',(3.58,0.,0.));
#1149=CARTESIAN_POINT('',(3.58,9.87065320112767E-16,-8.06));
#1150=CARTESIAN_POINT('',(1.42,0.,0.));
#1151=CARTESIAN_POINT('',(1.42,9.87065320112767E-16,-8.06));
#1152=CARTESIAN_POINT('',(5.,0.,0.));
#1153=CARTESIAN_POINT('',(0.23,0.,0.));
#1154=CARTESIAN_POINT('',(0.23,0.,8.06));
#1155=CARTESIAN_POINT('',(5.,0.,0.));
#1156=CARTESIAN_POINT('',(4.77,0.,0.));
#1157=CARTESIAN_POINT('',(4.77,0.,8.06));
#1158=CARTESIAN_POINT('',(0.23,7.925,0.));
#1159=CARTESIAN_POINT('',(0.23,0.,0.));
#1160=CARTESIAN_POINT('',(0.23,0.,8.460005));
#1161=CARTESIAN_POINT('',(4.77,8.460005,0.));
#1162=CARTESIAN_POINT('',(4.77,0.,0.));
#1163=CARTESIAN_POINT('',(4.77,0.,8.460005));
#1164=CARTESIAN_POINT('',(5.,0.,0.));
#1165=CARTESIAN_POINT('',(0.,0.,0.));
#1166=CARTESIAN_POINT('',(0.,0.,8.460005));
#1167=CARTESIAN_POINT('',(5.,0.,0.));
#1168=CARTESIAN_POINT('',(5.,0.,0.));
#1169=CARTESIAN_POINT('',(5.,0.,8.460005));
#1170=CARTESIAN_POINT('',(1.89735380184963E-16,9.2,0.));
#1171=CARTESIAN_POINT('',(1.89735380184963E-16,0.887954732808635,-9.17094470888892));
#1172=CARTESIAN_POINT('',(1.89735380184963E-16,0.0292161535502568,-9.21316022824155));
#1173=CARTESIAN_POINT('',(1.89735380184963E-16,-0.80264848776215,-9.1761602649797));
#1174=CARTESIAN_POINT('',(1.89735380184963E-16,-1.59403821670484,-9.07388487197664));
#1175=CARTESIAN_POINT('',(1.89735380184963E-16,-2.46154782549098,-8.8798377198328));
#1176=CARTESIAN_POINT('',(1.89735380184963E-16,-3.57866933992424,-8.51179791017256));
#1177=CARTESIAN_POINT('',(1.89735380184963E-16,-4.983806731827,-7.81155873949147));
#1178=CARTESIAN_POINT('',(1.89735380184963E-16,-6.47963898971526,-6.62306654953719));
#1179=CARTESIAN_POINT('',(1.89735380184963E-16,-7.70223965249266,-5.15153822916226));
#1180=CARTESIAN_POINT('',(1.89735380184963E-16,-8.43501247958546,-3.75739656986553));
#1181=CARTESIAN_POINT('',(1.89735380184963E-16,-8.828810021726,-2.63906683876782));
#1182=CARTESIAN_POINT('',(1.89735380184963E-16,-9.1156108273806,-1.46808348372143));
#1183=CARTESIAN_POINT('',(1.89735380184963E-16,-9.24728119803194,-0.0913017225261842));
#1184=CARTESIAN_POINT('',(1.89735380184963E-16,-9.11901657018857,1.57546354622245));
#1185=CARTESIAN_POINT('',(1.89735380184963E-16,-8.64958979681766,3.309056353419));
#1186=CARTESIAN_POINT('',(1.89735380184963E-16,-7.81235028251673,4.98040687107278));
#1187=CARTESIAN_POINT('',(1.89735380184963E-16,-6.62287213489477,6.48052996385017));
#1188=CARTESIAN_POINT('',(1.89735380184963E-16,-5.15159259214205,7.70199476547163));
#1189=CARTESIAN_POINT('',(1.89735380184963E-16,-3.75738987391205,8.43504277880172));
#1190=CARTESIAN_POINT('',(1.89735380184963E-16,-2.63906807616365,8.8288044333353));
#1191=CARTESIAN_POINT('',(1.89735380184963E-16,-1.46808277001999,9.11561405369561));
#1192=CARTESIAN_POINT('',(1.89735380184963E-16,-0.0913019651167127,9.24728010189751));
#1193=CARTESIAN_POINT('',(1.89735380184963E-16,1.57546361121326,9.11901686389693));
#1194=CARTESIAN_POINT('',(1.89735380184963E-16,3.30905633602615,8.64958971812161));
#1195=CARTESIAN_POINT('',(1.89735380184963E-16,4.9804068756521,7.81235030359103));
#1196=CARTESIAN_POINT('',(1.89735380184963E-16,6.48052996291233,6.62287212930064));
#1197=CARTESIAN_POINT('',(1.89735380184963E-16,7.70199476463615,5.1515925934511));
#1198=CARTESIAN_POINT('',(1.89735380184963E-16,8.43504278222345,3.75738987443485));
#1199=CARTESIAN_POINT('',(1.89735380184963E-16,8.82880442734146,2.63906807496494));
#1200=CARTESIAN_POINT('',(1.89735380184963E-16,9.115614086245,1.46808277667585));
#1201=CARTESIAN_POINT('',(1.89735380184963E-16,9.24727983892525,0.0913019112026832));
#1202=CARTESIAN_POINT('',(1.89735380184963E-16,9.11901782413229,-1.57546341433126));
#1203=CARTESIAN_POINT('',(1.89735380184963E-16,8.64958614015248,-3.30905706964052));
#1204=CARTESIAN_POINT('',(1.89735380184963E-16,7.81236365523191,-4.98040413807765));
#1205=CARTESIAN_POINT('',(1.89735380184963E-16,6.62282230070809,-6.4805401795908));
#1206=CARTESIAN_POINT('',(1.89735380184963E-16,5.15177855618295,-7.70195663549514));
#1207=CARTESIAN_POINT('',(1.89735380184963E-16,3.75684251627575,-8.43515501060583));
#1208=CARTESIAN_POINT('',(1.89735380184963E-16,2.64001612710467,-8.8286100420816));
#1209=CARTESIAN_POINT('',(1.89735380184963E-16,1.74172257847282,-9.04844387610208));
#1210=CARTESIAN_POINT('',(1.89735380184963E-16,0.887954732808635,-9.17094470888892));
#1211=CARTESIAN_POINT('',(1.89735380184963E-16,0.0292161535502568,-9.21316022824155));
#1212=CARTESIAN_POINT('',(1.89735380184963E-16,-0.80264848776215,-9.1761602649797));
#1213=CARTESIAN_POINT('',(-1.62630325872826E-16,0.,-9.2));
#1214=CARTESIAN_POINT('',(5.,8.06,0.));
#1215=CARTESIAN_POINT('',(5.,-0.887954732806509,-9.17094470888898));
#1216=CARTESIAN_POINT('',(5.,-0.029216153548012,-9.21316022824147));
#1217=CARTESIAN_POINT('',(5.,0.80264848775251,-9.17616026497996));
#1218=CARTESIAN_POINT('',(5.,1.59403821670862,-9.07388487197566));
#1219=CARTESIAN_POINT('',(5.,2.46154782547925,-8.87983771983669));
#1220=CARTESIAN_POINT('',(5.,3.57866933992874,-8.51179791017106));
#1221=CARTESIAN_POINT('',(5.,4.9838067318243,-7.81155873949279));
#1222=CARTESIAN_POINT('',(5.,6.47963898971724,-6.62306654953567));
#1223=CARTESIAN_POINT('',(5.,7.70223965249227,-5.15153822916419));
#1224=CARTESIAN_POINT('',(5.,8.43501247958439,-3.75739656985978));
#1225=CARTESIAN_POINT('',(5.,8.8288100217227,-2.63906683878685));
#1226=CARTESIAN_POINT('',(5.,9.11561082738163,-1.4680834837148));
#1227=CARTESIAN_POINT('',(5.,9.24728119803153,-0.0913017225292401));
#1228=CARTESIAN_POINT('',(5.,9.11901657018892,1.57546354622541));
#1229=CARTESIAN_POINT('',(5.,8.64958979681657,3.30905635341947));
#1230=CARTESIAN_POINT('',(5.,7.8123502825185,4.98040687106911));
#1231=CARTESIAN_POINT('',(5.,6.62287213489653,6.48052996384872));
#1232=CARTESIAN_POINT('',(5.,5.15159259214228,7.70199476547135));
#1233=CARTESIAN_POINT('',(5.,3.75738987391469,8.43504277879979));
#1234=CARTESIAN_POINT('',(5.,2.63906807616279,8.82880443333684));
#1235=CARTESIAN_POINT('',(5.,1.46808277002064,9.115614053695));
#1236=CARTESIAN_POINT('',(5.,0.0913019651147322,9.24728010189775));
#1237=CARTESIAN_POINT('',(5.,-1.57546361121138,9.11901686389674));
#1238=CARTESIAN_POINT('',(5.,-3.30905633602639,8.64958971812215));
#1239=CARTESIAN_POINT('',(5.,-4.98040687565302,7.81235030359008));
#1240=CARTESIAN_POINT('',(5.,-6.48052996291278,6.62287212930105));
#1241=CARTESIAN_POINT('',(5.,-7.70199476463724,5.15159259344782));
#1242=CARTESIAN_POINT('',(5.,-8.43504278222407,3.75738987443936));
#1243=CARTESIAN_POINT('',(5.,-8.82880442734387,2.63906807495125));
#1244=CARTESIAN_POINT('',(5.,-9.11561408624424,1.46808277668059));
#1245=CARTESIAN_POINT('',(5.,-9.24727983892551,0.0913019112008957));
#1246=CARTESIAN_POINT('',(5.,-9.11901782413219,-1.57546341433074));
#1247=CARTESIAN_POINT('',(5.,-8.64958614015272,-3.30905706964011));
#1248=CARTESIAN_POINT('',(5.,-7.81236365523167,-4.98040413807845));
#1249=CARTESIAN_POINT('',(5.,-6.62282230070773,-6.48054017959121));
#1250=CARTESIAN_POINT('',(5.,-5.15177855618151,-7.70195663549558));
#1251=CARTESIAN_POINT('',(5.,-3.75684251627888,-8.43515501060577));
#1252=CARTESIAN_POINT('',(5.,-2.6400161270957,-8.82861004208358));
#1253=CARTESIAN_POINT('',(5.,-1.74172257847396,-9.04844387610196));
#1254=CARTESIAN_POINT('',(5.,-0.887954732806509,-9.17094470888898));
#1255=CARTESIAN_POINT('',(5.,-0.029216153548012,-9.21316022824147));
#1256=CARTESIAN_POINT('',(5.,0.80264848775251,-9.17616026497996));
#1257=CARTESIAN_POINT('',(5.,-2.25335011043113E-15,-9.2));
#1258=CARTESIAN_POINT('',(0.3,0.,0.));
#1259=CARTESIAN_POINT('',(0.3,0.,0.));
#1260=CARTESIAN_POINT('',(0.3,1.16341445918999E-15,-9.5));
#1261=CARTESIAN_POINT('',(4.7,0.,0.));
#1262=CARTESIAN_POINT('',(4.7,0.,0.));
#1263=CARTESIAN_POINT('',(4.7,1.16341445918999E-15,-9.5));
#1264=CARTESIAN_POINT('',(5.,0.,0.));
#1265=CARTESIAN_POINT('',(0.,0.,0.));
#1266=CARTESIAN_POINT('',(2.5,-5.86537320921837,4.26144307912043));
#1267=CARTESIAN_POINT('',(2.5,-4.53787320921837,4.26144307912043));
#1268=CARTESIAN_POINT('',(0.,0.,0.));
#1269=CARTESIAN_POINT('',(0.06,8.460005,0.));
#1270=CARTESIAN_POINT('',(0.06,0.,0.));
#1271=CARTESIAN_POINT('',(0.06,0.,8.460005));
#1272=CARTESIAN_POINT('',(0.06,0.,0.));
#1273=CARTESIAN_POINT('',(0.06,0.,6.44));
#1274=CARTESIAN_POINT('',(0.23,0.,0.));
#1275=CARTESIAN_POINT('',(0.23,0.,0.));
#1276=CARTESIAN_POINT('',(0.23,0.,8.460005));
#1277=CARTESIAN_POINT('',(0.23,0.,0.));
#1278=CARTESIAN_POINT('',(0.23,0.,0.));
#1279=CARTESIAN_POINT('',(0.23,0.,6.44));
#1280=CARTESIAN_POINT('',(0.23,6.44,0.));
#1281=CARTESIAN_POINT('',(0.,0.,0.));
#1282=CARTESIAN_POINT('',(2.5,-7.25,-4.57122515353807E-17));
#1283=CARTESIAN_POINT('',(2.5,-5.9225,-1.26998182828786E-16));
#1284=CARTESIAN_POINT('',(0.,0.,0.));
#1285=CARTESIAN_POINT('',(4.94,-8.460005,0.));
#1286=CARTESIAN_POINT('',(4.94,0.,0.));
#1287=CARTESIAN_POINT('',(4.94,0.,8.460005));
#1288=CARTESIAN_POINT('',(4.94,0.,0.));
#1289=CARTESIAN_POINT('',(4.94,0.,6.44));
#1290=CARTESIAN_POINT('',(4.77,0.,0.));
#1291=CARTESIAN_POINT('',(4.77,0.,0.));
#1292=CARTESIAN_POINT('',(4.77,0.,8.460005));
#1293=CARTESIAN_POINT('',(4.77,0.,0.));
#1294=CARTESIAN_POINT('',(4.77,0.,0.));
#1295=CARTESIAN_POINT('',(4.77,0.,6.44));
#1296=CARTESIAN_POINT('',(4.77,-6.44,0.));
#1297=CARTESIAN_POINT('',(0.,0.,0.));
#1298=CARTESIAN_POINT('',(2.5,5.86537320921837,-4.26144307912043));
#1299=CARTESIAN_POINT('',(2.5,7.19287320921837,-4.26144307912043));
#1300=CARTESIAN_POINT('',(0.,0.,0.));
#1301=CARTESIAN_POINT('',(2.5,-5.86537320921837,-4.26144307912043));
#1302=CARTESIAN_POINT('',(2.5,-4.53787320921837,-4.26144307912043));
#1303=CARTESIAN_POINT('',(0.,0.,0.));
#1304=CARTESIAN_POINT('',(2.5,7.25,-4.09509316832966E-17));
#1305=CARTESIAN_POINT('',(2.5,8.5775,-1.22236862976702E-16));
#1306=CARTESIAN_POINT('',(0.,0.,0.));
#1307=CARTESIAN_POINT('',(2.5,-2.24037320921837,-6.89515974313986));
#1308=CARTESIAN_POINT('',(2.5,-0.91287320921837,-6.89515974313986));
#1309=CARTESIAN_POINT('',(0.,0.,0.));
#1310=CARTESIAN_POINT('',(2.5,5.86537320921837,4.26144307912043));
#1311=CARTESIAN_POINT('',(2.5,7.19287320921837,4.26144307912043));
#1312=CARTESIAN_POINT('',(0.,0.,0.));
#1313=CARTESIAN_POINT('',(2.5,2.24037320921837,-6.89515974313986));
#1314=CARTESIAN_POINT('',(2.5,3.56787320921837,-6.89515974313986));
#1315=MECHANICAL_DESIGN_GEOMETRIC_PRESENTATION_REPRESENTATION('',(#448,
#358),#1329);
#1316=MECHANICAL_DESIGN_GEOMETRIC_PRESENTATION_REPRESENTATION('',(#449,
#359,#360,#361,#362,#363,#364,#365,#366),#1330);
#1317=MECHANICAL_DESIGN_GEOMETRIC_PRESENTATION_REPRESENTATION('',(#450,
#367),#1331);
#1318=MECHANICAL_DESIGN_GEOMETRIC_PRESENTATION_REPRESENTATION('',(#451,
#368,#369,#370,#371,#372,#373,#374,#375,#376,#377,#378,#379),#1332);
#1319=MECHANICAL_DESIGN_GEOMETRIC_PRESENTATION_REPRESENTATION('',(#452,
#380),#1333);
#1320=MECHANICAL_DESIGN_GEOMETRIC_PRESENTATION_REPRESENTATION('',(#453,
#381,#382,#383,#384),#1334);
#1321=MECHANICAL_DESIGN_GEOMETRIC_PRESENTATION_REPRESENTATION('',(#454,
#385),#1335);
#1322=MECHANICAL_DESIGN_GEOMETRIC_PRESENTATION_REPRESENTATION('',(#455,
#386,#387,#388,#389),#1336);
#1323=MECHANICAL_DESIGN_GEOMETRIC_PRESENTATION_REPRESENTATION('',(#456,
#390),#1337);
#1324=MECHANICAL_DESIGN_GEOMETRIC_PRESENTATION_REPRESENTATION('',(#457,
#391),#1338);
#1325=MECHANICAL_DESIGN_GEOMETRIC_PRESENTATION_REPRESENTATION('',(#458,
#392),#1339);
#1326=MECHANICAL_DESIGN_GEOMETRIC_PRESENTATION_REPRESENTATION('',(#459,
#393),#1340);
#1327=MECHANICAL_DESIGN_GEOMETRIC_PRESENTATION_REPRESENTATION('',(#460,
#394),#1341);
#1328=MECHANICAL_DESIGN_GEOMETRIC_PRESENTATION_REPRESENTATION('',(#461,
#395),#1342);
#1329=(
GEOMETRIC_REPRESENTATION_CONTEXT(3)
GLOBAL_UNCERTAINTY_ASSIGNED_CONTEXT((#1343))
GLOBAL_UNIT_ASSIGNED_CONTEXT((#1385,#1371,#1357))
REPRESENTATION_CONTEXT('Part 7','TOP_LEVEL_ASSEMBLY_PART')
);
#1330=(
GEOMETRIC_REPRESENTATION_CONTEXT(3)
GLOBAL_UNCERTAINTY_ASSIGNED_CONTEXT((#1344))
GLOBAL_UNIT_ASSIGNED_CONTEXT((#1386,#1372,#1358))
REPRESENTATION_CONTEXT('Part 1','TOP_LEVEL_ASSEMBLY_PART')
);
#1331=(
GEOMETRIC_REPRESENTATION_CONTEXT(3)
GLOBAL_UNCERTAINTY_ASSIGNED_CONTEXT((#1345))
GLOBAL_UNIT_ASSIGNED_CONTEXT((#1387,#1373,#1359))
REPRESENTATION_CONTEXT('Part 8','TOP_LEVEL_ASSEMBLY_PART')
);
#1332=(
GEOMETRIC_REPRESENTATION_CONTEXT(3)
GLOBAL_UNCERTAINTY_ASSIGNED_CONTEXT((#1346))
GLOBAL_UNIT_ASSIGNED_CONTEXT((#1388,#1374,#1360))
REPRESENTATION_CONTEXT('Part 2','TOP_LEVEL_ASSEMBLY_PART')
);
#1333=(
GEOMETRIC_REPRESENTATION_CONTEXT(3)
GLOBAL_UNCERTAINTY_ASSIGNED_CONTEXT((#1347))
GLOBAL_UNIT_ASSIGNED_CONTEXT((#1389,#1375,#1361))
REPRESENTATION_CONTEXT('Part 9','TOP_LEVEL_ASSEMBLY_PART')
);
#1334=(
GEOMETRIC_REPRESENTATION_CONTEXT(3)
GLOBAL_UNCERTAINTY_ASSIGNED_CONTEXT((#1348))
GLOBAL_UNIT_ASSIGNED_CONTEXT((#1390,#1376,#1362))
REPRESENTATION_CONTEXT('Part 3','TOP_LEVEL_ASSEMBLY_PART')
);
#1335=(
GEOMETRIC_REPRESENTATION_CONTEXT(3)
GLOBAL_UNCERTAINTY_ASSIGNED_CONTEXT((#1349))
GLOBAL_UNIT_ASSIGNED_CONTEXT((#1391,#1377,#1363))
REPRESENTATION_CONTEXT('Part 10','TOP_LEVEL_ASSEMBLY_PART')
);
#1336=(
GEOMETRIC_REPRESENTATION_CONTEXT(3)
GLOBAL_UNCERTAINTY_ASSIGNED_CONTEXT((#1350))
GLOBAL_UNIT_ASSIGNED_CONTEXT((#1392,#1378,#1364))
REPRESENTATION_CONTEXT('Part 4','TOP_LEVEL_ASSEMBLY_PART')
);
#1337=(
GEOMETRIC_REPRESENTATION_CONTEXT(3)
GLOBAL_UNCERTAINTY_ASSIGNED_CONTEXT((#1351))
GLOBAL_UNIT_ASSIGNED_CONTEXT((#1393,#1379,#1365))
REPRESENTATION_CONTEXT('Part 14','TOP_LEVEL_ASSEMBLY_PART')
);
#1338=(
GEOMETRIC_REPRESENTATION_CONTEXT(3)
GLOBAL_UNCERTAINTY_ASSIGNED_CONTEXT((#1352))
GLOBAL_UNIT_ASSIGNED_CONTEXT((#1394,#1380,#1366))
REPRESENTATION_CONTEXT('Part 11','TOP_LEVEL_ASSEMBLY_PART')
);
#1339=(
GEOMETRIC_REPRESENTATION_CONTEXT(3)
GLOBAL_UNCERTAINTY_ASSIGNED_CONTEXT((#1353))
GLOBAL_UNIT_ASSIGNED_CONTEXT((#1395,#1381,#1367))
REPRESENTATION_CONTEXT('Part 5','TOP_LEVEL_ASSEMBLY_PART')
);
#1340=(
GEOMETRIC_REPRESENTATION_CONTEXT(3)
GLOBAL_UNCERTAINTY_ASSIGNED_CONTEXT((#1354))
GLOBAL_UNIT_ASSIGNED_CONTEXT((#1396,#1382,#1368))
REPRESENTATION_CONTEXT('Part 12','TOP_LEVEL_ASSEMBLY_PART')
);
#1341=(
GEOMETRIC_REPRESENTATION_CONTEXT(3)
GLOBAL_UNCERTAINTY_ASSIGNED_CONTEXT((#1355))
GLOBAL_UNIT_ASSIGNED_CONTEXT((#1397,#1383,#1369))
REPRESENTATION_CONTEXT('Part 6','TOP_LEVEL_ASSEMBLY_PART')
);
#1342=(
GEOMETRIC_REPRESENTATION_CONTEXT(3)
GLOBAL_UNCERTAINTY_ASSIGNED_CONTEXT((#1356))
GLOBAL_UNIT_ASSIGNED_CONTEXT((#1398,#1384,#1370))
REPRESENTATION_CONTEXT('Part 13','TOP_LEVEL_ASSEMBLY_PART')
);
#1343=UNCERTAINTY_MEASURE_WITH_UNIT(LENGTH_MEASURE(1.E-5),#1385,
'DISTANCE_ACCURACY_VALUE','Maximum Tolerance applied to model');
#1344=UNCERTAINTY_MEASURE_WITH_UNIT(LENGTH_MEASURE(1.E-5),#1386,
'DISTANCE_ACCURACY_VALUE','Maximum Tolerance applied to model');
#1345=UNCERTAINTY_MEASURE_WITH_UNIT(LENGTH_MEASURE(1.E-5),#1387,
'DISTANCE_ACCURACY_VALUE','Maximum Tolerance applied to model');
#1346=UNCERTAINTY_MEASURE_WITH_UNIT(LENGTH_MEASURE(1.E-5),#1388,
'DISTANCE_ACCURACY_VALUE','Maximum Tolerance applied to model');
#1347=UNCERTAINTY_MEASURE_WITH_UNIT(LENGTH_MEASURE(1.E-5),#1389,
'DISTANCE_ACCURACY_VALUE','Maximum Tolerance applied to model');
#1348=UNCERTAINTY_MEASURE_WITH_UNIT(LENGTH_MEASURE(1.E-5),#1390,
'DISTANCE_ACCURACY_VALUE','Maximum Tolerance applied to model');
#1349=UNCERTAINTY_MEASURE_WITH_UNIT(LENGTH_MEASURE(1.E-5),#1391,
'DISTANCE_ACCURACY_VALUE','Maximum Tolerance applied to model');
#1350=UNCERTAINTY_MEASURE_WITH_UNIT(LENGTH_MEASURE(1.E-5),#1392,
'DISTANCE_ACCURACY_VALUE','Maximum Tolerance applied to model');
#1351=UNCERTAINTY_MEASURE_WITH_UNIT(LENGTH_MEASURE(1.E-5),#1393,
'DISTANCE_ACCURACY_VALUE','Maximum Tolerance applied to model');
#1352=UNCERTAINTY_MEASURE_WITH_UNIT(LENGTH_MEASURE(1.E-5),#1394,
'DISTANCE_ACCURACY_VALUE','Maximum Tolerance applied to model');
#1353=UNCERTAINTY_MEASURE_WITH_UNIT(LENGTH_MEASURE(1.E-5),#1395,
'DISTANCE_ACCURACY_VALUE','Maximum Tolerance applied to model');
#1354=UNCERTAINTY_MEASURE_WITH_UNIT(LENGTH_MEASURE(1.E-5),#1396,
'DISTANCE_ACCURACY_VALUE','Maximum Tolerance applied to model');
#1355=UNCERTAINTY_MEASURE_WITH_UNIT(LENGTH_MEASURE(1.E-5),#1397,
'DISTANCE_ACCURACY_VALUE','Maximum Tolerance applied to model');
#1356=UNCERTAINTY_MEASURE_WITH_UNIT(LENGTH_MEASURE(1.E-5),#1398,
'DISTANCE_ACCURACY_VALUE','Maximum Tolerance applied to model');
#1357=(
NAMED_UNIT(*)
SI_UNIT($,.STERADIAN.)
SOLID_ANGLE_UNIT()
);
#1358=(
NAMED_UNIT(*)
SI_UNIT($,.STERADIAN.)
SOLID_ANGLE_UNIT()
);
#1359=(
NAMED_UNIT(*)
SI_UNIT($,.STERADIAN.)
SOLID_ANGLE_UNIT()
);
#1360=(
NAMED_UNIT(*)
SI_UNIT($,.STERADIAN.)
SOLID_ANGLE_UNIT()
);
#1361=(
NAMED_UNIT(*)
SI_UNIT($,.STERADIAN.)
SOLID_ANGLE_UNIT()
);
#1362=(
NAMED_UNIT(*)
SI_UNIT($,.STERADIAN.)
SOLID_ANGLE_UNIT()
);
#1363=(
NAMED_UNIT(*)
SI_UNIT($,.STERADIAN.)
SOLID_ANGLE_UNIT()
);
#1364=(
NAMED_UNIT(*)
SI_UNIT($,.STERADIAN.)
SOLID_ANGLE_UNIT()
);
#1365=(
NAMED_UNIT(*)
SI_UNIT($,.STERADIAN.)
SOLID_ANGLE_UNIT()
);
#1366=(
NAMED_UNIT(*)
SI_UNIT($,.STERADIAN.)
SOLID_ANGLE_UNIT()
);
#1367=(
NAMED_UNIT(*)
SI_UNIT($,.STERADIAN.)
SOLID_ANGLE_UNIT()
);
#1368=(
NAMED_UNIT(*)
SI_UNIT($,.STERADIAN.)
SOLID_ANGLE_UNIT()
);
#1369=(
NAMED_UNIT(*)
SI_UNIT($,.STERADIAN.)
SOLID_ANGLE_UNIT()
);
#1370=(
NAMED_UNIT(*)
SI_UNIT($,.STERADIAN.)
SOLID_ANGLE_UNIT()
);
#1371=(
NAMED_UNIT(*)
PLANE_ANGLE_UNIT()
SI_UNIT($,.RADIAN.)
);
#1372=(
NAMED_UNIT(*)
PLANE_ANGLE_UNIT()
SI_UNIT($,.RADIAN.)
);
#1373=(
NAMED_UNIT(*)
PLANE_ANGLE_UNIT()
SI_UNIT($,.RADIAN.)
);
#1374=(
NAMED_UNIT(*)
PLANE_ANGLE_UNIT()
SI_UNIT($,.RADIAN.)
);
#1375=(
NAMED_UNIT(*)
PLANE_ANGLE_UNIT()
SI_UNIT($,.RADIAN.)
);
#1376=(
NAMED_UNIT(*)
PLANE_ANGLE_UNIT()
SI_UNIT($,.RADIAN.)
);
#1377=(
NAMED_UNIT(*)
PLANE_ANGLE_UNIT()
SI_UNIT($,.RADIAN.)
);
#1378=(
NAMED_UNIT(*)
PLANE_ANGLE_UNIT()
SI_UNIT($,.RADIAN.)
);
#1379=(
NAMED_UNIT(*)
PLANE_ANGLE_UNIT()
SI_UNIT($,.RADIAN.)
);
#1380=(
NAMED_UNIT(*)
PLANE_ANGLE_UNIT()
SI_UNIT($,.RADIAN.)
);
#1381=(
NAMED_UNIT(*)
PLANE_ANGLE_UNIT()
SI_UNIT($,.RADIAN.)
);
#1382=(
NAMED_UNIT(*)
PLANE_ANGLE_UNIT()
SI_UNIT($,.RADIAN.)
);
#1383=(
NAMED_UNIT(*)
PLANE_ANGLE_UNIT()
SI_UNIT($,.RADIAN.)
);
#1384=(
NAMED_UNIT(*)
PLANE_ANGLE_UNIT()
SI_UNIT($,.RADIAN.)
);
#1385=(
LENGTH_UNIT()
NAMED_UNIT(*)
SI_UNIT(.MILLI.,.METRE.)
);
#1386=(
LENGTH_UNIT()
NAMED_UNIT(*)
SI_UNIT(.MILLI.,.METRE.)
);
#1387=(
LENGTH_UNIT()
NAMED_UNIT(*)
SI_UNIT(.MILLI.,.METRE.)
);
#1388=(
LENGTH_UNIT()
NAMED_UNIT(*)
SI_UNIT(.MILLI.,.METRE.)
);
#1389=(
LENGTH_UNIT()
NAMED_UNIT(*)
SI_UNIT(.MILLI.,.METRE.)
);
#1390=(
LENGTH_UNIT()
NAMED_UNIT(*)
SI_UNIT(.MILLI.,.METRE.)
);
#1391=(
LENGTH_UNIT()
NAMED_UNIT(*)
SI_UNIT(.MILLI.,.METRE.)
);
#1392=(
LENGTH_UNIT()
NAMED_UNIT(*)
SI_UNIT(.MILLI.,.METRE.)
);
#1393=(
LENGTH_UNIT()
NAMED_UNIT(*)
SI_UNIT(.MILLI.,.METRE.)
);
#1394=(
LENGTH_UNIT()
NAMED_UNIT(*)
SI_UNIT(.MILLI.,.METRE.)
);
#1395=(
LENGTH_UNIT()
NAMED_UNIT(*)
SI_UNIT(.MILLI.,.METRE.)
);
#1396=(
LENGTH_UNIT()
NAMED_UNIT(*)
SI_UNIT(.MILLI.,.METRE.)
);
#1397=(
LENGTH_UNIT()
NAMED_UNIT(*)
SI_UNIT(.MILLI.,.METRE.)
);
#1398=(
LENGTH_UNIT()
NAMED_UNIT(*)
SI_UNIT(.MILLI.,.METRE.)
);
#1399=PRODUCT_DEFINITION_SHAPE('','',#1413);
#1400=PRODUCT_DEFINITION_SHAPE('','',#1414);
#1401=PRODUCT_DEFINITION_SHAPE('','',#1415);
#1402=PRODUCT_DEFINITION_SHAPE('','',#1416);
#1403=PRODUCT_DEFINITION_SHAPE('','',#1417);
#1404=PRODUCT_DEFINITION_SHAPE('','',#1418);
#1405=PRODUCT_DEFINITION_SHAPE('','',#1419);
#1406=PRODUCT_DEFINITION_SHAPE('','',#1420);
#1407=PRODUCT_DEFINITION_SHAPE('','',#1421);
#1408=PRODUCT_DEFINITION_SHAPE('','',#1422);
#1409=PRODUCT_DEFINITION_SHAPE('','',#1423);
#1410=PRODUCT_DEFINITION_SHAPE('','',#1424);
#1411=PRODUCT_DEFINITION_SHAPE('','',#1425);
#1412=PRODUCT_DEFINITION_SHAPE('','',#1426);
#1413=PRODUCT_DEFINITION('','',#1441,#1427);
#1414=PRODUCT_DEFINITION('','',#1442,#1428);
#1415=PRODUCT_DEFINITION('','',#1443,#1429);
#1416=PRODUCT_DEFINITION('','',#1444,#1430);
#1417=PRODUCT_DEFINITION('','',#1445,#1431);
#1418=PRODUCT_DEFINITION('','',#1446,#1432);
#1419=PRODUCT_DEFINITION('','',#1447,#1433);
#1420=PRODUCT_DEFINITION('','',#1448,#1434);
#1421=PRODUCT_DEFINITION('','',#1449,#1435);
#1422=PRODUCT_DEFINITION('','',#1450,#1436);
#1423=PRODUCT_DEFINITION('','',#1451,#1437);
#1424=PRODUCT_DEFINITION('','',#1452,#1438);
#1425=PRODUCT_DEFINITION('','',#1453,#1439);
#1426=PRODUCT_DEFINITION('','',#1454,#1440);
#1427=PRODUCT_DEFINITION_CONTEXT('',#1525,'design');
#1428=PRODUCT_DEFINITION_CONTEXT('',#1526,'design');
#1429=PRODUCT_DEFINITION_CONTEXT('',#1527,'design');
#1430=PRODUCT_DEFINITION_CONTEXT('',#1528,'design');
#1431=PRODUCT_DEFINITION_CONTEXT('',#1529,'design');
#1432=PRODUCT_DEFINITION_CONTEXT('',#1530,'design');
#1433=PRODUCT_DEFINITION_CONTEXT('',#1531,'design');
#1434=PRODUCT_DEFINITION_CONTEXT('',#1532,'design');
#1435=PRODUCT_DEFINITION_CONTEXT('',#1533,'design');
#1436=PRODUCT_DEFINITION_CONTEXT('',#1534,'design');
#1437=PRODUCT_DEFINITION_CONTEXT('',#1535,'design');
#1438=PRODUCT_DEFINITION_CONTEXT('',#1536,'design');
#1439=PRODUCT_DEFINITION_CONTEXT('',#1537,'design');
#1440=PRODUCT_DEFINITION_CONTEXT('',#1538,'design');
#1441=PRODUCT_DEFINITION_FORMATION_WITH_SPECIFIED_SOURCE('','',#1469,
 .NOT_KNOWN.);
#1442=PRODUCT_DEFINITION_FORMATION_WITH_SPECIFIED_SOURCE('','',#1470,
 .NOT_KNOWN.);
#1443=PRODUCT_DEFINITION_FORMATION_WITH_SPECIFIED_SOURCE('','',#1471,
 .NOT_KNOWN.);
#1444=PRODUCT_DEFINITION_FORMATION_WITH_SPECIFIED_SOURCE('','',#1472,
 .NOT_KNOWN.);
#1445=PRODUCT_DEFINITION_FORMATION_WITH_SPECIFIED_SOURCE('','',#1473,
 .NOT_KNOWN.);
#1446=PRODUCT_DEFINITION_FORMATION_WITH_SPECIFIED_SOURCE('','',#1474,
 .NOT_KNOWN.);
#1447=PRODUCT_DEFINITION_FORMATION_WITH_SPECIFIED_SOURCE('','',#1475,
 .NOT_KNOWN.);
#1448=PRODUCT_DEFINITION_FORMATION_WITH_SPECIFIED_SOURCE('','',#1476,
 .NOT_KNOWN.);
#1449=PRODUCT_DEFINITION_FORMATION_WITH_SPECIFIED_SOURCE('','',#1477,
 .NOT_KNOWN.);
#1450=PRODUCT_DEFINITION_FORMATION_WITH_SPECIFIED_SOURCE('','',#1478,
 .NOT_KNOWN.);
#1451=PRODUCT_DEFINITION_FORMATION_WITH_SPECIFIED_SOURCE('','',#1479,
 .NOT_KNOWN.);
#1452=PRODUCT_DEFINITION_FORMATION_WITH_SPECIFIED_SOURCE('','',#1480,
 .NOT_KNOWN.);
#1453=PRODUCT_DEFINITION_FORMATION_WITH_SPECIFIED_SOURCE('','',#1481,
 .NOT_KNOWN.);
#1454=PRODUCT_DEFINITION_FORMATION_WITH_SPECIFIED_SOURCE('','',#1482,
 .NOT_KNOWN.);
#1455=PRODUCT_RELATED_PRODUCT_CATEGORY('','',(#1469));
#1456=PRODUCT_RELATED_PRODUCT_CATEGORY('','',(#1470));
#1457=PRODUCT_RELATED_PRODUCT_CATEGORY('','',(#1471));
#1458=PRODUCT_RELATED_PRODUCT_CATEGORY('','',(#1472));
#1459=PRODUCT_RELATED_PRODUCT_CATEGORY('','',(#1473));
#1460=PRODUCT_RELATED_PRODUCT_CATEGORY('','',(#1474));
#1461=PRODUCT_RELATED_PRODUCT_CATEGORY('','',(#1475));
#1462=PRODUCT_RELATED_PRODUCT_CATEGORY('','',(#1476));
#1463=PRODUCT_RELATED_PRODUCT_CATEGORY('','',(#1477));
#1464=PRODUCT_RELATED_PRODUCT_CATEGORY('','',(#1478));
#1465=PRODUCT_RELATED_PRODUCT_CATEGORY('','',(#1479));
#1466=PRODUCT_RELATED_PRODUCT_CATEGORY('','',(#1480));
#1467=PRODUCT_RELATED_PRODUCT_CATEGORY('','',(#1481));
#1468=PRODUCT_RELATED_PRODUCT_CATEGORY('','',(#1482));
#1469=PRODUCT('Part 7','Part 7','Part 7',(#1497));
#1470=PRODUCT('Part 1','Part 1','Part 1',(#1498));
#1471=PRODUCT('Part 8','Part 8','Part 8',(#1499));
#1472=PRODUCT('Part 2','Part 2','Part 2',(#1500));
#1473=PRODUCT('Part 9','Part 9','Part 9',(#1501));
#1474=PRODUCT('Part 3','Part 3','Part 3',(#1502));
#1475=PRODUCT('Part 10','Part 10','Part 10',(#1503));
#1476=PRODUCT('Part 4','Part 4','Part 4',(#1504));
#1477=PRODUCT('Part 14','Part 14','Part 14',(#1505));
#1478=PRODUCT('Part 11','Part 11','Part 11',(#1506));
#1479=PRODUCT('Part 5','Part 5','Part 5',(#1507));
#1480=PRODUCT('Part 12','Part 12','Part 12',(#1508));
#1481=PRODUCT('Part 6','Part 6','Part 6',(#1509));
#1482=PRODUCT('Part 13','Part 13','Part 13',(#1510));
#1483=PRODUCT_CATEGORY('','');
#1484=PRODUCT_CATEGORY('','');
#1485=PRODUCT_CATEGORY('','');
#1486=PRODUCT_CATEGORY('','');
#1487=PRODUCT_CATEGORY('','');
#1488=PRODUCT_CATEGORY('','');
#1489=PRODUCT_CATEGORY('','');
#1490=PRODUCT_CATEGORY('','');
#1491=PRODUCT_CATEGORY('','');
#1492=PRODUCT_CATEGORY('','');
#1493=PRODUCT_CATEGORY('','');
#1494=PRODUCT_CATEGORY('','');
#1495=PRODUCT_CATEGORY('','');
#1496=PRODUCT_CATEGORY('','');
#1497=PRODUCT_CONTEXT('',#1525,'mechanical');
#1498=PRODUCT_CONTEXT('',#1526,'mechanical');
#1499=PRODUCT_CONTEXT('',#1527,'mechanical');
#1500=PRODUCT_CONTEXT('',#1528,'mechanical');
#1501=PRODUCT_CONTEXT('',#1529,'mechanical');
#1502=PRODUCT_CONTEXT('',#1530,'mechanical');
#1503=PRODUCT_CONTEXT('',#1531,'mechanical');
#1504=PRODUCT_CONTEXT('',#1532,'mechanical');
#1505=PRODUCT_CONTEXT('',#1533,'mechanical');
#1506=PRODUCT_CONTEXT('',#1534,'mechanical');
#1507=PRODUCT_CONTEXT('',#1535,'mechanical');
#1508=PRODUCT_CONTEXT('',#1536,'mechanical');
#1509=PRODUCT_CONTEXT('',#1537,'mechanical');
#1510=PRODUCT_CONTEXT('',#1538,'mechanical');
#1511=APPLICATION_PROTOCOL_DEFINITION('international standard',
'ap242_managed_model_based_3d_engineering',2020,#1525);
#1512=APPLICATION_PROTOCOL_DEFINITION('international standard',
'ap242_managed_model_based_3d_engineering',2020,#1526);
#1513=APPLICATION_PROTOCOL_DEFINITION('international standard',
'ap242_managed_model_based_3d_engineering',2020,#1527);
#1514=APPLICATION_PROTOCOL_DEFINITION('international standard',
'ap242_managed_model_based_3d_engineering',2020,#1528);
#1515=APPLICATION_PROTOCOL_DEFINITION('international standard',
'ap242_managed_model_based_3d_engineering',2020,#1529);
#1516=APPLICATION_PROTOCOL_DEFINITION('international standard',
'ap242_managed_model_based_3d_engineering',2020,#1530);
#1517=APPLICATION_PROTOCOL_DEFINITION('international standard',
'ap242_managed_model_based_3d_engineering',2020,#1531);
#1518=APPLICATION_PROTOCOL_DEFINITION('international standard',
'ap242_managed_model_based_3d_engineering',2020,#1532);
#1519=APPLICATION_PROTOCOL_DEFINITION('international standard',
'ap242_managed_model_based_3d_engineering',2020,#1533);
#1520=APPLICATION_PROTOCOL_DEFINITION('international standard',
'ap242_managed_model_based_3d_engineering',2020,#1534);
#1521=APPLICATION_PROTOCOL_DEFINITION('international standard',
'ap242_managed_model_based_3d_engineering',2020,#1535);
#1522=APPLICATION_PROTOCOL_DEFINITION('international standard',
'ap242_managed_model_based_3d_engineering',2020,#1536);
#1523=APPLICATION_PROTOCOL_DEFINITION('international standard',
'ap242_managed_model_based_3d_engineering',2020,#1537);
#1524=APPLICATION_PROTOCOL_DEFINITION('international standard',
'ap242_managed_model_based_3d_engineering',2020,#1538);
#1525=APPLICATION_CONTEXT('managed model based 3d engineering');
#1526=APPLICATION_CONTEXT('managed model based 3d engineering');
#1527=APPLICATION_CONTEXT('managed model based 3d engineering');
#1528=APPLICATION_CONTEXT('managed model based 3d engineering');
#1529=APPLICATION_CONTEXT('managed model based 3d engineering');
#1530=APPLICATION_CONTEXT('managed model based 3d engineering');
#1531=APPLICATION_CONTEXT('managed model based 3d engineering');
#1532=APPLICATION_CONTEXT('managed model based 3d engineering');
#1533=APPLICATION_CONTEXT('managed model based 3d engineering');
#1534=APPLICATION_CONTEXT('managed model based 3d engineering');
#1535=APPLICATION_CONTEXT('managed model based 3d engineering');
#1536=APPLICATION_CONTEXT('managed model based 3d engineering');
#1537=APPLICATION_CONTEXT('managed model based 3d engineering');
#1538=APPLICATION_CONTEXT('managed model based 3d engineering');
ENDSEC;
END-ISO-10303-21;
