ISO-10303-21;
HEADER;
/* Generated by software containing ST-Developer
 * from STEP Tools, Inc. (www.steptools.com) 
 */
/* OPTION: using custom renumber hook */

FILE_DESCRIPTION(
/* description */ ('STEP AP242 Edition 2',
'CAx-IF Rec.Pracs.---Representation and Presentation of Product Manufa
cturing Information (PMI)---4.0---2014-10-13',
'CAx-IF Rec.Pracs.---3D Tessellated Geometry---0.4---2014-09-14','2;1',
'CAx-IF Rec.Pracs.---User Defined Attributes---1.5---2016-08-15'),
/* implementation_level */ '2;1');

FILE_NAME(
/* name */ 'Base plate',
/* time_stamp */ '2026-06-03T07:05:24Z',
/* author */ (''),
/* organization */ (''),
/* preprocessor_version */ 'ST-DEVELOPER v20',
/* originating_system */ 'ONSHAPE BY PTC INC, 1.215',
/* authorisation */ '  ');

FILE_SCHEMA (('AP242_MANAGED_MODEL_BASED_3D_ENGINEERING_MIM_LF { 1 0 10303 442 3 1 4 }'));
ENDSEC;

DATA;
#10=SHAPE_REPRESENTATION_RELATIONSHIP('','',#319,#11);
#11=ADVANCED_BREP_SHAPE_REPRESENTATION('',(#317),#513);
#12=CYLINDRICAL_SURFACE('',#343,7.);
#13=CYLINDRICAL_SURFACE('',#344,1.225);
#14=CYLINDRICAL_SURFACE('',#345,1.225);
#15=CYLINDRICAL_SURFACE('',#346,1.225);
#16=CYLINDRICAL_SURFACE('',#347,1.225);
#17=CYLINDRICAL_SURFACE('',#348,1.225);
#18=CIRCLE('',#322,7.);
#19=CIRCLE('',#323,1.225);
#20=CIRCLE('',#324,1.225);
#21=CIRCLE('',#325,1.225);
#22=CIRCLE('',#326,1.225);
#23=CIRCLE('',#327,1.225);
#24=CIRCLE('',#329,1.225);
#25=CIRCLE('',#330,1.225);
#26=CIRCLE('',#331,7.);
#27=CIRCLE('',#332,1.225);
#28=CIRCLE('',#333,1.225);
#29=CIRCLE('',#334,1.225);
#30=ORIENTED_EDGE('',*,*,#102,.T.);
#31=ORIENTED_EDGE('',*,*,#103,.T.);
#32=ORIENTED_EDGE('',*,*,#104,.T.);
#33=ORIENTED_EDGE('',*,*,#105,.T.);
#34=ORIENTED_EDGE('',*,*,#106,.T.);
#35=ORIENTED_EDGE('',*,*,#107,.T.);
#36=ORIENTED_EDGE('',*,*,#108,.T.);
#37=ORIENTED_EDGE('',*,*,#109,.T.);
#38=ORIENTED_EDGE('',*,*,#110,.F.);
#39=ORIENTED_EDGE('',*,*,#111,.F.);
#40=ORIENTED_EDGE('',*,*,#112,.F.);
#41=ORIENTED_EDGE('',*,*,#113,.F.);
#42=ORIENTED_EDGE('',*,*,#114,.F.);
#43=ORIENTED_EDGE('',*,*,#115,.F.);
#44=ORIENTED_EDGE('',*,*,#116,.T.);
#45=ORIENTED_EDGE('',*,*,#117,.T.);
#46=ORIENTED_EDGE('',*,*,#118,.T.);
#47=ORIENTED_EDGE('',*,*,#119,.F.);
#48=ORIENTED_EDGE('',*,*,#120,.F.);
#49=ORIENTED_EDGE('',*,*,#121,.F.);
#50=ORIENTED_EDGE('',*,*,#122,.F.);
#51=ORIENTED_EDGE('',*,*,#123,.F.);
#52=ORIENTED_EDGE('',*,*,#124,.F.);
#53=ORIENTED_EDGE('',*,*,#125,.F.);
#54=ORIENTED_EDGE('',*,*,#126,.F.);
#55=ORIENTED_EDGE('',*,*,#127,.T.);
#56=ORIENTED_EDGE('',*,*,#128,.T.);
#57=ORIENTED_EDGE('',*,*,#129,.T.);
#58=ORIENTED_EDGE('',*,*,#119,.T.);
#59=ORIENTED_EDGE('',*,*,#130,.F.);
#60=ORIENTED_EDGE('',*,*,#102,.F.);
#61=ORIENTED_EDGE('',*,*,#131,.T.);
#62=ORIENTED_EDGE('',*,*,#126,.T.);
#63=ORIENTED_EDGE('',*,*,#132,.F.);
#64=ORIENTED_EDGE('',*,*,#103,.F.);
#65=ORIENTED_EDGE('',*,*,#130,.T.);
#66=ORIENTED_EDGE('',*,*,#125,.T.);
#67=ORIENTED_EDGE('',*,*,#133,.F.);
#68=ORIENTED_EDGE('',*,*,#104,.F.);
#69=ORIENTED_EDGE('',*,*,#132,.T.);
#70=ORIENTED_EDGE('',*,*,#124,.T.);
#71=ORIENTED_EDGE('',*,*,#134,.F.);
#72=ORIENTED_EDGE('',*,*,#105,.F.);
#73=ORIENTED_EDGE('',*,*,#133,.T.);
#74=ORIENTED_EDGE('',*,*,#123,.T.);
#75=ORIENTED_EDGE('',*,*,#135,.F.);
#76=ORIENTED_EDGE('',*,*,#106,.F.);
#77=ORIENTED_EDGE('',*,*,#134,.T.);
#78=ORIENTED_EDGE('',*,*,#122,.T.);
#79=ORIENTED_EDGE('',*,*,#136,.F.);
#80=ORIENTED_EDGE('',*,*,#107,.F.);
#81=ORIENTED_EDGE('',*,*,#135,.T.);
#82=ORIENTED_EDGE('',*,*,#121,.T.);
#83=ORIENTED_EDGE('',*,*,#137,.F.);
#84=ORIENTED_EDGE('',*,*,#108,.F.);
#85=ORIENTED_EDGE('',*,*,#136,.T.);
#86=ORIENTED_EDGE('',*,*,#120,.T.);
#87=ORIENTED_EDGE('',*,*,#131,.F.);
#88=ORIENTED_EDGE('',*,*,#109,.F.);
#89=ORIENTED_EDGE('',*,*,#137,.T.);
#90=ORIENTED_EDGE('',*,*,#110,.T.);
#91=ORIENTED_EDGE('',*,*,#118,.F.);
#92=ORIENTED_EDGE('',*,*,#111,.T.);
#93=ORIENTED_EDGE('',*,*,#127,.F.);
#94=ORIENTED_EDGE('',*,*,#112,.T.);
#95=ORIENTED_EDGE('',*,*,#117,.F.);
#96=ORIENTED_EDGE('',*,*,#113,.T.);
#97=ORIENTED_EDGE('',*,*,#128,.F.);
#98=ORIENTED_EDGE('',*,*,#114,.T.);
#99=ORIENTED_EDGE('',*,*,#116,.F.);
#100=ORIENTED_EDGE('',*,*,#115,.T.);
#101=ORIENTED_EDGE('',*,*,#129,.F.);
#102=EDGE_CURVE('',#138,#139,#166,.T.);
#103=EDGE_CURVE('',#139,#140,#167,.T.);
#104=EDGE_CURVE('',#140,#141,#168,.T.);
#105=EDGE_CURVE('',#141,#142,#169,.T.);
#106=EDGE_CURVE('',#142,#143,#170,.T.);
#107=EDGE_CURVE('',#143,#144,#171,.T.);
#108=EDGE_CURVE('',#144,#145,#172,.T.);
#109=EDGE_CURVE('',#145,#138,#173,.T.);
#110=EDGE_CURVE('',#146,#146,#18,.T.);
#111=EDGE_CURVE('',#147,#147,#19,.T.);
#112=EDGE_CURVE('',#148,#148,#20,.T.);
#113=EDGE_CURVE('',#149,#149,#21,.T.);
#114=EDGE_CURVE('',#150,#150,#22,.T.);
#115=EDGE_CURVE('',#151,#151,#23,.T.);
#116=EDGE_CURVE('',#152,#152,#24,.T.);
#117=EDGE_CURVE('',#153,#153,#25,.T.);
#118=EDGE_CURVE('',#154,#154,#26,.T.);
#119=EDGE_CURVE('',#155,#156,#174,.T.);
#120=EDGE_CURVE('',#157,#155,#175,.T.);
#121=EDGE_CURVE('',#158,#157,#176,.T.);
#122=EDGE_CURVE('',#159,#158,#177,.T.);
#123=EDGE_CURVE('',#160,#159,#178,.T.);
#124=EDGE_CURVE('',#161,#160,#179,.T.);
#125=EDGE_CURVE('',#162,#161,#180,.T.);
#126=EDGE_CURVE('',#156,#162,#181,.T.);
#127=EDGE_CURVE('',#163,#163,#27,.T.);
#128=EDGE_CURVE('',#164,#164,#28,.T.);
#129=EDGE_CURVE('',#165,#165,#29,.T.);
#130=EDGE_CURVE('',#139,#156,#182,.T.);
#131=EDGE_CURVE('',#138,#155,#183,.T.);
#132=EDGE_CURVE('',#140,#162,#184,.T.);
#133=EDGE_CURVE('',#141,#161,#185,.T.);
#134=EDGE_CURVE('',#142,#160,#186,.T.);
#135=EDGE_CURVE('',#143,#159,#187,.T.);
#136=EDGE_CURVE('',#144,#158,#188,.T.);
#137=EDGE_CURVE('',#145,#157,#189,.T.);
#138=VERTEX_POINT('',#434);
#139=VERTEX_POINT('',#435);
#140=VERTEX_POINT('',#437);
#141=VERTEX_POINT('',#439);
#142=VERTEX_POINT('',#441);
#143=VERTEX_POINT('',#443);
#144=VERTEX_POINT('',#445);
#145=VERTEX_POINT('',#447);
#146=VERTEX_POINT('',#450);
#147=VERTEX_POINT('',#452);
#148=VERTEX_POINT('',#454);
#149=VERTEX_POINT('',#456);
#150=VERTEX_POINT('',#458);
#151=VERTEX_POINT('',#460);
#152=VERTEX_POINT('',#463);
#153=VERTEX_POINT('',#465);
#154=VERTEX_POINT('',#467);
#155=VERTEX_POINT('',#469);
#156=VERTEX_POINT('',#470);
#157=VERTEX_POINT('',#472);
#158=VERTEX_POINT('',#474);
#159=VERTEX_POINT('',#476);
#160=VERTEX_POINT('',#478);
#161=VERTEX_POINT('',#480);
#162=VERTEX_POINT('',#482);
#163=VERTEX_POINT('',#485);
#164=VERTEX_POINT('',#487);
#165=VERTEX_POINT('',#489);
#166=LINE('',#433,#190);
#167=LINE('',#436,#191);
#168=LINE('',#438,#192);
#169=LINE('',#440,#193);
#170=LINE('',#442,#194);
#171=LINE('',#444,#195);
#172=LINE('',#446,#196);
#173=LINE('',#448,#197);
#174=LINE('',#468,#198);
#175=LINE('',#471,#199);
#176=LINE('',#473,#200);
#177=LINE('',#475,#201);
#178=LINE('',#477,#202);
#179=LINE('',#479,#203);
#180=LINE('',#481,#204);
#181=LINE('',#483,#205);
#182=LINE('',#491,#206);
#183=LINE('',#492,#207);
#184=LINE('',#494,#208);
#185=LINE('',#496,#209);
#186=LINE('',#498,#210);
#187=LINE('',#500,#211);
#188=LINE('',#502,#212);
#189=LINE('',#504,#213);
#190=VECTOR('',#353,1000.);
#191=VECTOR('',#354,1000.);
#192=VECTOR('',#355,1000.);
#193=VECTOR('',#356,1000.);
#194=VECTOR('',#357,1000.);
#195=VECTOR('',#358,1000.);
#196=VECTOR('',#359,1000.);
#197=VECTOR('',#360,1000.);
#198=VECTOR('',#381,1000.);
#199=VECTOR('',#382,1000.);
#200=VECTOR('',#383,1000.);
#201=VECTOR('',#384,1000.);
#202=VECTOR('',#385,1000.);
#203=VECTOR('',#386,1000.);
#204=VECTOR('',#387,1000.);
#205=VECTOR('',#388,1000.);
#206=VECTOR('',#397,1000.);
#207=VECTOR('',#398,1000.);
#208=VECTOR('',#401,1000.);
#209=VECTOR('',#404,1000.);
#210=VECTOR('',#407,1000.);
#211=VECTOR('',#410,1000.);
#212=VECTOR('',#413,1000.);
#213=VECTOR('',#416,1000.);
#214=EDGE_LOOP('',(#30,#31,#32,#33,#34,#35,#36,#37));
#215=EDGE_LOOP('',(#38));
#216=EDGE_LOOP('',(#39));
#217=EDGE_LOOP('',(#40));
#218=EDGE_LOOP('',(#41));
#219=EDGE_LOOP('',(#42));
#220=EDGE_LOOP('',(#43));
#221=EDGE_LOOP('',(#44));
#222=EDGE_LOOP('',(#45));
#223=EDGE_LOOP('',(#46));
#224=EDGE_LOOP('',(#47,#48,#49,#50,#51,#52,#53,#54));
#225=EDGE_LOOP('',(#55));
#226=EDGE_LOOP('',(#56));
#227=EDGE_LOOP('',(#57));
#228=EDGE_LOOP('',(#58,#59,#60,#61));
#229=EDGE_LOOP('',(#62,#63,#64,#65));
#230=EDGE_LOOP('',(#66,#67,#68,#69));
#231=EDGE_LOOP('',(#70,#71,#72,#73));
#232=EDGE_LOOP('',(#74,#75,#76,#77));
#233=EDGE_LOOP('',(#78,#79,#80,#81));
#234=EDGE_LOOP('',(#82,#83,#84,#85));
#235=EDGE_LOOP('',(#86,#87,#88,#89));
#236=EDGE_LOOP('',(#90));
#237=EDGE_LOOP('',(#91));
#238=EDGE_LOOP('',(#92));
#239=EDGE_LOOP('',(#93));
#240=EDGE_LOOP('',(#94));
#241=EDGE_LOOP('',(#95));
#242=EDGE_LOOP('',(#96));
#243=EDGE_LOOP('',(#97));
#244=EDGE_LOOP('',(#98));
#245=EDGE_LOOP('',(#99));
#246=EDGE_LOOP('',(#100));
#247=EDGE_LOOP('',(#101));
#248=FACE_BOUND('',#214,.T.);
#249=FACE_BOUND('',#215,.T.);
#250=FACE_BOUND('',#216,.T.);
#251=FACE_BOUND('',#217,.T.);
#252=FACE_BOUND('',#218,.T.);
#253=FACE_BOUND('',#219,.T.);
#254=FACE_BOUND('',#220,.T.);
#255=FACE_BOUND('',#221,.T.);
#256=FACE_BOUND('',#222,.T.);
#257=FACE_BOUND('',#223,.T.);
#258=FACE_BOUND('',#224,.T.);
#259=FACE_BOUND('',#225,.T.);
#260=FACE_BOUND('',#226,.T.);
#261=FACE_BOUND('',#227,.T.);
#262=FACE_BOUND('',#228,.T.);
#263=FACE_BOUND('',#229,.T.);
#264=FACE_BOUND('',#230,.T.);
#265=FACE_BOUND('',#231,.T.);
#266=FACE_BOUND('',#232,.T.);
#267=FACE_BOUND('',#233,.T.);
#268=FACE_BOUND('',#234,.T.);
#269=FACE_BOUND('',#235,.T.);
#270=FACE_BOUND('',#236,.T.);
#271=FACE_BOUND('',#237,.T.);
#272=FACE_BOUND('',#238,.T.);
#273=FACE_BOUND('',#239,.T.);
#274=FACE_BOUND('',#240,.T.);
#275=FACE_BOUND('',#241,.T.);
#276=FACE_BOUND('',#242,.T.);
#277=FACE_BOUND('',#243,.T.);
#278=FACE_BOUND('',#244,.T.);
#279=FACE_BOUND('',#245,.T.);
#280=FACE_BOUND('',#246,.T.);
#281=FACE_BOUND('',#247,.T.);
#282=PLANE('',#321);
#283=PLANE('',#328);
#284=PLANE('',#335);
#285=PLANE('',#336);
#286=PLANE('',#337);
#287=PLANE('',#338);
#288=PLANE('',#339);
#289=PLANE('',#340);
#290=PLANE('',#341);
#291=PLANE('',#342);
#292=ADVANCED_FACE('',(#248,#249,#250,#251,#252,#253,#254),#282,.F.);
#293=ADVANCED_FACE('',(#255,#256,#257,#258,#259,#260,#261),#283,.T.);
#294=ADVANCED_FACE('',(#262),#284,.F.);
#295=ADVANCED_FACE('',(#263),#285,.F.);
#296=ADVANCED_FACE('',(#264),#286,.F.);
#297=ADVANCED_FACE('',(#265),#287,.F.);
#298=ADVANCED_FACE('',(#266),#288,.F.);
#299=ADVANCED_FACE('',(#267),#289,.F.);
#300=ADVANCED_FACE('',(#268),#290,.F.);
#301=ADVANCED_FACE('',(#269),#291,.F.);
#302=ADVANCED_FACE('',(#270,#271),#12,.F.);
#303=ADVANCED_FACE('',(#272,#273),#13,.F.);
#304=ADVANCED_FACE('',(#274,#275),#14,.F.);
#305=ADVANCED_FACE('',(#276,#277),#15,.F.);
#306=ADVANCED_FACE('',(#278,#279),#16,.F.);
#307=ADVANCED_FACE('',(#280,#281),#17,.F.);
#308=CLOSED_SHELL('',(#292,#293,#294,#295,#296,#297,#298,#299,#300,#301,
#302,#303,#304,#305,#306,#307));
#309=STYLED_ITEM('',(#310),#317);
#310=PRESENTATION_STYLE_ASSIGNMENT((#311));
#311=SURFACE_STYLE_USAGE(.BOTH.,#312);
#312=SURFACE_SIDE_STYLE('',(#313));
#313=SURFACE_STYLE_FILL_AREA(#314);
#314=FILL_AREA_STYLE('',(#315));
#315=FILL_AREA_STYLE_COLOUR('',#316);
#316=COLOUR_RGB('',0.796078431372549,0.823529411764706,0.937254901960784);
#317=MANIFOLD_SOLID_BREP('Part 1',#308);
#318=SHAPE_DEFINITION_REPRESENTATION(#518,#319);
#319=SHAPE_REPRESENTATION('Part 1',(#320),#513);
#320=AXIS2_PLACEMENT_3D('',#431,#349,#350);
#321=AXIS2_PLACEMENT_3D('',#432,#351,#352);
#322=AXIS2_PLACEMENT_3D('',#449,#361,#362);
#323=AXIS2_PLACEMENT_3D('',#451,#363,#364);
#324=AXIS2_PLACEMENT_3D('',#453,#365,#366);
#325=AXIS2_PLACEMENT_3D('',#455,#367,#368);
#326=AXIS2_PLACEMENT_3D('',#457,#369,#370);
#327=AXIS2_PLACEMENT_3D('',#459,#371,#372);
#328=AXIS2_PLACEMENT_3D('',#461,#373,#374);
#329=AXIS2_PLACEMENT_3D('',#462,#375,#376);
#330=AXIS2_PLACEMENT_3D('',#464,#377,#378);
#331=AXIS2_PLACEMENT_3D('',#466,#379,#380);
#332=AXIS2_PLACEMENT_3D('',#484,#389,#390);
#333=AXIS2_PLACEMENT_3D('',#486,#391,#392);
#334=AXIS2_PLACEMENT_3D('',#488,#393,#394);
#335=AXIS2_PLACEMENT_3D('',#490,#395,#396);
#336=AXIS2_PLACEMENT_3D('',#493,#399,#400);
#337=AXIS2_PLACEMENT_3D('',#495,#402,#403);
#338=AXIS2_PLACEMENT_3D('',#497,#405,#406);
#339=AXIS2_PLACEMENT_3D('',#499,#408,#409);
#340=AXIS2_PLACEMENT_3D('',#501,#411,#412);
#341=AXIS2_PLACEMENT_3D('',#503,#414,#415);
#342=AXIS2_PLACEMENT_3D('',#505,#417,#418);
#343=AXIS2_PLACEMENT_3D('',#506,#419,#420);
#344=AXIS2_PLACEMENT_3D('',#507,#421,#422);
#345=AXIS2_PLACEMENT_3D('',#508,#423,#424);
#346=AXIS2_PLACEMENT_3D('',#509,#425,#426);
#347=AXIS2_PLACEMENT_3D('',#510,#427,#428);
#348=AXIS2_PLACEMENT_3D('',#511,#429,#430);
#349=DIRECTION('',(0.,0.,1.));
#350=DIRECTION('',(1.,0.,0.));
#351=DIRECTION('',(0.,-1.,0.));
#352=DIRECTION('',(0.,0.,-1.));
#353=DIRECTION('',(-1.,0.,4.23103286823612E-17));
#354=DIRECTION('',(-0.707106781186548,0.,0.707106781186547));
#355=DIRECTION('',(1.50845519650157E-16,0.,1.));
#356=DIRECTION('',(0.707106781186548,0.,0.707106781186548));
#357=DIRECTION('',(1.,0.,4.23103286823612E-17));
#358=DIRECTION('',(0.707106781186549,0.,-0.707106781186546));
#359=DIRECTION('',(-3.01691039300314E-16,0.,-1.));
#360=DIRECTION('',(-0.707106781186548,0.,-0.707106781186547));
#361=DIRECTION('',(0.,1.,0.));
#362=DIRECTION('',(0.,0.,1.));
#363=DIRECTION('',(0.,1.,0.));
#364=DIRECTION('',(0.,0.,1.));
#365=DIRECTION('',(0.,1.,0.));
#366=DIRECTION('',(0.,0.,1.));
#367=DIRECTION('',(0.,1.,0.));
#368=DIRECTION('',(0.,0.,-1.));
#369=DIRECTION('',(0.,1.,0.));
#370=DIRECTION('',(0.,0.,1.));
#371=DIRECTION('',(0.,1.,0.));
#372=DIRECTION('',(0.,0.,-1.));
#373=DIRECTION('',(0.,-1.,0.));
#374=DIRECTION('',(0.,0.,-1.));
#375=DIRECTION('',(0.,1.,0.));
#376=DIRECTION('',(0.,0.,1.));
#377=DIRECTION('',(0.,1.,0.));
#378=DIRECTION('',(0.,0.,1.));
#379=DIRECTION('',(0.,1.,0.));
#380=DIRECTION('',(0.,0.,1.));
#381=DIRECTION('',(-1.,0.,4.23103286823612E-17));
#382=DIRECTION('',(-0.707106781186548,0.,-0.707106781186547));
#383=DIRECTION('',(-3.01691039300314E-16,0.,-1.));
#384=DIRECTION('',(0.707106781186549,0.,-0.707106781186546));
#385=DIRECTION('',(1.,0.,4.23103286823612E-17));
#386=DIRECTION('',(0.707106781186548,0.,0.707106781186548));
#387=DIRECTION('',(1.50845519650157E-16,0.,1.));
#388=DIRECTION('',(-0.707106781186548,0.,0.707106781186547));
#389=DIRECTION('',(0.,1.,0.));
#390=DIRECTION('',(0.,0.,1.));
#391=DIRECTION('',(0.,1.,0.));
#392=DIRECTION('',(0.,0.,-1.));
#393=DIRECTION('',(0.,1.,0.));
#394=DIRECTION('',(0.,0.,-1.));
#395=DIRECTION('',(4.23103286823612E-17,0.,1.));
#396=DIRECTION('',(1.,0.,-4.23103286823612E-17));
#397=DIRECTION('',(0.,-1.,0.));
#398=DIRECTION('',(0.,-1.,0.));
#399=DIRECTION('',(0.707106781186547,0.,0.707106781186548));
#400=DIRECTION('',(0.707106781186548,0.,-0.707106781186547));
#401=DIRECTION('',(0.,-1.,0.));
#402=DIRECTION('',(1.,0.,-1.50845519650157E-16));
#403=DIRECTION('',(-1.50845519650157E-16,0.,-1.));
#404=DIRECTION('',(0.,-1.,0.));
#405=DIRECTION('',(0.707106781186548,0.,-0.707106781186548));
#406=DIRECTION('',(-0.707106781186548,0.,-0.707106781186548));
#407=DIRECTION('',(0.,-1.,0.));
#408=DIRECTION('',(4.23103286823612E-17,0.,-1.));
#409=DIRECTION('',(-1.,0.,-4.23103286823612E-17));
#410=DIRECTION('',(0.,-1.,0.));
#411=DIRECTION('',(-0.707106781186546,0.,-0.707106781186549));
#412=DIRECTION('',(-0.707106781186549,0.,0.707106781186546));
#413=DIRECTION('',(0.,-1.,0.));
#414=DIRECTION('',(-1.,0.,3.01691039300314E-16));
#415=DIRECTION('',(3.01691039300314E-16,0.,1.));
#416=DIRECTION('',(0.,-1.,0.));
#417=DIRECTION('',(-0.707106781186547,0.,0.707106781186548));
#418=DIRECTION('',(0.707106781186548,0.,0.707106781186547));
#419=DIRECTION('',(0.,-1.,0.));
#420=DIRECTION('',(0.,0.,-1.));
#421=DIRECTION('',(0.,-1.,0.));
#422=DIRECTION('',(0.,0.,-1.));
#423=DIRECTION('',(0.,-1.,0.));
#424=DIRECTION('',(0.,0.,-1.));
#425=DIRECTION('',(0.,-1.,0.));
#426=DIRECTION('',(0.,0.,-1.));
#427=DIRECTION('',(0.,-1.,0.));
#428=DIRECTION('',(0.,0.,-1.));
#429=DIRECTION('',(0.,-1.,0.));
#430=DIRECTION('',(0.,0.,-1.));
#431=CARTESIAN_POINT('',(0.,0.,0.));
#432=CARTESIAN_POINT('',(0.,2.,0.));
#433=CARTESIAN_POINT('',(-20.5,2.,-13.5));
#434=CARTESIAN_POINT('',(20.5,2.,-13.5));
#435=CARTESIAN_POINT('',(-20.5,2.,-13.5));
#436=CARTESIAN_POINT('',(-22.5,2.,-11.5));
#437=CARTESIAN_POINT('',(-22.5,2.,-11.5));
#438=CARTESIAN_POINT('',(-22.5,2.,-11.5));
#439=CARTESIAN_POINT('',(-22.5,2.,11.5));
#440=CARTESIAN_POINT('',(-22.5,2.,11.5));
#441=CARTESIAN_POINT('',(-20.5,2.,13.5));
#442=CARTESIAN_POINT('',(-20.5,2.,13.5));
#443=CARTESIAN_POINT('',(20.5,2.,13.5));
#444=CARTESIAN_POINT('',(20.5,2.,13.5));
#445=CARTESIAN_POINT('',(22.5,2.,11.5));
#446=CARTESIAN_POINT('',(22.5,2.,-11.5));
#447=CARTESIAN_POINT('',(22.5,2.,-11.5));
#448=CARTESIAN_POINT('',(20.5,2.,-13.5));
#449=CARTESIAN_POINT('',(-12.,2.,3.85185988877447E-31));
#450=CARTESIAN_POINT('',(-12.,2.,7.));
#451=CARTESIAN_POINT('',(3.,2.,4.81482486096809E-31));
#452=CARTESIAN_POINT('',(3.,2.,1.225));
#453=CARTESIAN_POINT('',(-19.5,2.,-9.5));
#454=CARTESIAN_POINT('',(-19.5,2.,-8.275));
#455=CARTESIAN_POINT('',(19.5,2.,-8.5));
#456=CARTESIAN_POINT('',(19.5,2.,-9.725));
#457=CARTESIAN_POINT('',(19.5,2.,8.5));
#458=CARTESIAN_POINT('',(19.5,2.,9.725));
#459=CARTESIAN_POINT('',(-19.5,2.,9.5));
#460=CARTESIAN_POINT('',(-19.5,2.,8.275));
#461=CARTESIAN_POINT('',(0.,0.,0.));
#462=CARTESIAN_POINT('',(19.5,0.,8.5));
#463=CARTESIAN_POINT('',(19.5,0.,9.725));
#464=CARTESIAN_POINT('',(-19.5,0.,-9.5));
#465=CARTESIAN_POINT('',(-19.5,0.,-8.275));
#466=CARTESIAN_POINT('',(-12.,0.,3.85185988877447E-31));
#467=CARTESIAN_POINT('',(-12.,0.,7.));
#468=CARTESIAN_POINT('',(-20.5,0.,-13.5));
#469=CARTESIAN_POINT('',(20.5,0.,-13.5));
#470=CARTESIAN_POINT('',(-20.5,0.,-13.5));
#471=CARTESIAN_POINT('',(20.5,0.,-13.5));
#472=CARTESIAN_POINT('',(22.5,0.,-11.5));
#473=CARTESIAN_POINT('',(22.5,0.,-11.5));
#474=CARTESIAN_POINT('',(22.5,0.,11.5));
#475=CARTESIAN_POINT('',(20.5,0.,13.5));
#476=CARTESIAN_POINT('',(20.5,0.,13.5));
#477=CARTESIAN_POINT('',(-20.5,0.,13.5));
#478=CARTESIAN_POINT('',(-20.5,0.,13.5));
#479=CARTESIAN_POINT('',(-22.5,0.,11.5));
#480=CARTESIAN_POINT('',(-22.5,0.,11.5));
#481=CARTESIAN_POINT('',(-22.5,0.,-11.5));
#482=CARTESIAN_POINT('',(-22.5,0.,-11.5));
#483=CARTESIAN_POINT('',(-22.5,0.,-11.5));
#484=CARTESIAN_POINT('',(3.,0.,4.81482486096809E-31));
#485=CARTESIAN_POINT('',(3.,0.,1.225));
#486=CARTESIAN_POINT('',(19.5,0.,-8.5));
#487=CARTESIAN_POINT('',(19.5,0.,-9.725));
#488=CARTESIAN_POINT('',(-19.5,0.,9.5));
#489=CARTESIAN_POINT('',(-19.5,0.,8.275));
#490=CARTESIAN_POINT('',(-20.5,2.,-13.5));
#491=CARTESIAN_POINT('',(-20.5,2.,-13.5));
#492=CARTESIAN_POINT('',(20.5,2.,-13.5));
#493=CARTESIAN_POINT('',(-22.5,2.,-11.5));
#494=CARTESIAN_POINT('',(-22.5,2.,-11.5));
#495=CARTESIAN_POINT('',(-22.5,2.,-11.5));
#496=CARTESIAN_POINT('',(-22.5,2.,11.5));
#497=CARTESIAN_POINT('',(-22.5,2.,11.5));
#498=CARTESIAN_POINT('',(-20.5,2.,13.5));
#499=CARTESIAN_POINT('',(-20.5,2.,13.5));
#500=CARTESIAN_POINT('',(20.5,2.,13.5));
#501=CARTESIAN_POINT('',(20.5,2.,13.5));
#502=CARTESIAN_POINT('',(22.5,2.,11.5));
#503=CARTESIAN_POINT('',(22.5,2.,-11.5));
#504=CARTESIAN_POINT('',(22.5,2.,-11.5));
#505=CARTESIAN_POINT('',(20.5,2.,-13.5));
#506=CARTESIAN_POINT('',(-12.,2.,3.85185988877447E-31));
#507=CARTESIAN_POINT('',(3.,2.,4.81482486096809E-31));
#508=CARTESIAN_POINT('',(-19.5,2.,-9.5));
#509=CARTESIAN_POINT('',(19.5,2.,-8.5));
#510=CARTESIAN_POINT('',(19.5,2.,8.5));
#511=CARTESIAN_POINT('',(-19.5,2.,9.5));
#512=MECHANICAL_DESIGN_GEOMETRIC_PRESENTATION_REPRESENTATION('',(#309),
#513);
#513=(
GEOMETRIC_REPRESENTATION_CONTEXT(3)
GLOBAL_UNCERTAINTY_ASSIGNED_CONTEXT((#514))
GLOBAL_UNIT_ASSIGNED_CONTEXT((#517,#516,#515))
REPRESENTATION_CONTEXT('Part 1','TOP_LEVEL_ASSEMBLY_PART')
);
#514=UNCERTAINTY_MEASURE_WITH_UNIT(LENGTH_MEASURE(1.E-5),#517,
'DISTANCE_ACCURACY_VALUE','Maximum Tolerance applied to model');
#515=(
NAMED_UNIT(*)
SI_UNIT($,.STERADIAN.)
SOLID_ANGLE_UNIT()
);
#516=(
NAMED_UNIT(*)
PLANE_ANGLE_UNIT()
SI_UNIT($,.RADIAN.)
);
#517=(
LENGTH_UNIT()
NAMED_UNIT(*)
SI_UNIT(.MILLI.,.METRE.)
);
#518=PRODUCT_DEFINITION_SHAPE('','',#519);
#519=PRODUCT_DEFINITION('','',#521,#520);
#520=PRODUCT_DEFINITION_CONTEXT('',#527,'design');
#521=PRODUCT_DEFINITION_FORMATION_WITH_SPECIFIED_SOURCE('','',#523,
 .NOT_KNOWN.);
#522=PRODUCT_RELATED_PRODUCT_CATEGORY('','',(#523));
#523=PRODUCT('Part 1','Part 1','Part 1',(#525));
#524=PRODUCT_CATEGORY('','');
#525=PRODUCT_CONTEXT('',#527,'mechanical');
#526=APPLICATION_PROTOCOL_DEFINITION('international standard',
'ap242_managed_model_based_3d_engineering',2020,#527);
#527=APPLICATION_CONTEXT('managed model based 3d engineering');
ENDSEC;
END-ISO-10303-21;
