ISO-10303-21;
HEADER;
/* Generated by software containing ST-Developer
 * from STEP Tools, Inc. (www.steptools.com) 
 */
/* OPTION: using custom renumber hook */

FILE_DESCRIPTION(
/* description */ ('STEP AP242 Edition 2',
'CAx-IF Rec.Pracs.---Representation and Presentation of Product Manufa
cturing Information (PMI)---4.0---2014-10-13',
'CAx-IF Rec.Pracs.---3D Tessellated Geometry---0.4---2014-09-14','2;1',
'CAx-IF Rec.Pracs.---User Defined Attributes---1.5---2016-08-15'),
/* implementation_level */ '2;1');

FILE_NAME(
/* name */ 'chassis_mount_clamp',
/* time_stamp */ '2026-06-03T07:01:51Z',
/* author */ (''),
/* organization */ (''),
/* preprocessor_version */ 'ST-DEVELOPER v20',
/* originating_system */ 'ONSHAPE BY PTC INC, 1.215',
/* authorisation */ '  ');

FILE_SCHEMA (('AP242_MANAGED_MODEL_BASED_3D_ENGINEERING_MIM_LF { 1 0 10303 442 3 1 4 }'));
ENDSEC;

DATA;
#10=SHAPE_REPRESENTATION_RELATIONSHIP('','',#407,#11);
#11=ADVANCED_BREP_SHAPE_REPRESENTATION('',(#405),#683);
#12=CYLINDRICAL_SURFACE('',#430,8.);
#13=CYLINDRICAL_SURFACE('',#431,3.);
#14=CYLINDRICAL_SURFACE('',#445,2.5);
#15=CYLINDRICAL_SURFACE('',#446,2.5);
#16=CYLINDRICAL_SURFACE('',#447,10.);
#17=CYLINDRICAL_SURFACE('',#448,10.);
#18=CYLINDRICAL_SURFACE('',#449,10.);
#19=CYLINDRICAL_SURFACE('',#450,10.);
#20=CYLINDRICAL_SURFACE('',#451,3.);
#21=CYLINDRICAL_SURFACE('',#452,3.);
#22=CYLINDRICAL_SURFACE('',#453,3.);
#23=CIRCLE('',#411,3.);
#24=CIRCLE('',#412,3.);
#25=CIRCLE('',#413,3.);
#26=CIRCLE('',#414,10.);
#27=CIRCLE('',#415,10.);
#28=CIRCLE('',#417,3.);
#29=CIRCLE('',#418,3.);
#30=CIRCLE('',#419,3.);
#31=CIRCLE('',#420,10.);
#32=CIRCLE('',#421,10.);
#33=CIRCLE('',#425,3.);
#34=CIRCLE('',#426,8.);
#35=CIRCLE('',#428,3.);
#36=CIRCLE('',#429,8.);
#37=CIRCLE('',#435,2.5);
#38=CIRCLE('',#436,2.5);
#39=CIRCLE('',#437,10.);
#40=CIRCLE('',#438,10.);
#41=CIRCLE('',#440,2.5);
#42=CIRCLE('',#441,2.5);
#43=CIRCLE('',#442,10.);
#44=CIRCLE('',#443,10.);
#45=ORIENTED_EDGE('',*,*,#145,.F.);
#46=ORIENTED_EDGE('',*,*,#146,.T.);
#47=ORIENTED_EDGE('',*,*,#147,.T.);
#48=ORIENTED_EDGE('',*,*,#148,.T.);
#49=ORIENTED_EDGE('',*,*,#149,.T.);
#50=ORIENTED_EDGE('',*,*,#150,.T.);
#51=ORIENTED_EDGE('',*,*,#151,.T.);
#52=ORIENTED_EDGE('',*,*,#147,.F.);
#53=ORIENTED_EDGE('',*,*,#152,.T.);
#54=ORIENTED_EDGE('',*,*,#153,.F.);
#55=ORIENTED_EDGE('',*,*,#154,.T.);
#56=ORIENTED_EDGE('',*,*,#155,.F.);
#57=ORIENTED_EDGE('',*,*,#156,.F.);
#58=ORIENTED_EDGE('',*,*,#157,.F.);
#59=ORIENTED_EDGE('',*,*,#158,.F.);
#60=ORIENTED_EDGE('',*,*,#159,.F.);
#61=ORIENTED_EDGE('',*,*,#160,.T.);
#62=ORIENTED_EDGE('',*,*,#161,.T.);
#63=ORIENTED_EDGE('',*,*,#145,.T.);
#64=ORIENTED_EDGE('',*,*,#162,.T.);
#65=ORIENTED_EDGE('',*,*,#163,.T.);
#66=ORIENTED_EDGE('',*,*,#164,.T.);
#67=ORIENTED_EDGE('',*,*,#153,.T.);
#68=ORIENTED_EDGE('',*,*,#165,.T.);
#69=ORIENTED_EDGE('',*,*,#160,.F.);
#70=ORIENTED_EDGE('',*,*,#166,.T.);
#71=ORIENTED_EDGE('',*,*,#155,.T.);
#72=ORIENTED_EDGE('',*,*,#167,.T.);
#73=ORIENTED_EDGE('',*,*,#163,.F.);
#74=ORIENTED_EDGE('',*,*,#168,.F.);
#75=ORIENTED_EDGE('',*,*,#169,.F.);
#76=ORIENTED_EDGE('',*,*,#170,.F.);
#77=ORIENTED_EDGE('',*,*,#168,.T.);
#78=ORIENTED_EDGE('',*,*,#171,.T.);
#79=ORIENTED_EDGE('',*,*,#172,.F.);
#80=ORIENTED_EDGE('',*,*,#173,.T.);
#81=ORIENTED_EDGE('',*,*,#174,.T.);
#82=ORIENTED_EDGE('',*,*,#148,.F.);
#83=ORIENTED_EDGE('',*,*,#162,.F.);
#84=ORIENTED_EDGE('',*,*,#174,.F.);
#85=ORIENTED_EDGE('',*,*,#175,.F.);
#86=ORIENTED_EDGE('',*,*,#171,.F.);
#87=ORIENTED_EDGE('',*,*,#156,.T.);
#88=ORIENTED_EDGE('',*,*,#170,.T.);
#89=ORIENTED_EDGE('',*,*,#176,.T.);
#90=ORIENTED_EDGE('',*,*,#172,.T.);
#91=ORIENTED_EDGE('',*,*,#177,.F.);
#92=ORIENTED_EDGE('',*,*,#178,.T.);
#93=ORIENTED_EDGE('',*,*,#179,.T.);
#94=ORIENTED_EDGE('',*,*,#173,.F.);
#95=ORIENTED_EDGE('',*,*,#180,.T.);
#96=ORIENTED_EDGE('',*,*,#181,.T.);
#97=ORIENTED_EDGE('',*,*,#182,.F.);
#98=ORIENTED_EDGE('',*,*,#169,.T.);
#99=ORIENTED_EDGE('',*,*,#183,.F.);
#100=ORIENTED_EDGE('',*,*,#184,.F.);
#101=ORIENTED_EDGE('',*,*,#185,.F.);
#102=ORIENTED_EDGE('',*,*,#186,.T.);
#103=ORIENTED_EDGE('',*,*,#180,.F.);
#104=ORIENTED_EDGE('',*,*,#175,.T.);
#105=ORIENTED_EDGE('',*,*,#179,.F.);
#106=ORIENTED_EDGE('',*,*,#187,.T.);
#107=ORIENTED_EDGE('',*,*,#188,.T.);
#108=ORIENTED_EDGE('',*,*,#189,.T.);
#109=ORIENTED_EDGE('',*,*,#182,.T.);
#110=ORIENTED_EDGE('',*,*,#190,.T.);
#111=ORIENTED_EDGE('',*,*,#191,.T.);
#112=ORIENTED_EDGE('',*,*,#192,.T.);
#113=ORIENTED_EDGE('',*,*,#177,.T.);
#114=ORIENTED_EDGE('',*,*,#176,.F.);
#115=ORIENTED_EDGE('',*,*,#191,.F.);
#116=ORIENTED_EDGE('',*,*,#193,.T.);
#117=ORIENTED_EDGE('',*,*,#185,.T.);
#118=ORIENTED_EDGE('',*,*,#194,.T.);
#119=ORIENTED_EDGE('',*,*,#189,.F.);
#120=ORIENTED_EDGE('',*,*,#184,.T.);
#121=ORIENTED_EDGE('',*,*,#188,.F.);
#122=ORIENTED_EDGE('',*,*,#183,.T.);
#123=ORIENTED_EDGE('',*,*,#152,.F.);
#124=ORIENTED_EDGE('',*,*,#146,.F.);
#125=ORIENTED_EDGE('',*,*,#161,.F.);
#126=ORIENTED_EDGE('',*,*,#165,.F.);
#127=ORIENTED_EDGE('',*,*,#154,.F.);
#128=ORIENTED_EDGE('',*,*,#166,.F.);
#129=ORIENTED_EDGE('',*,*,#164,.F.);
#130=ORIENTED_EDGE('',*,*,#167,.F.);
#131=ORIENTED_EDGE('',*,*,#186,.F.);
#132=ORIENTED_EDGE('',*,*,#193,.F.);
#133=ORIENTED_EDGE('',*,*,#190,.F.);
#134=ORIENTED_EDGE('',*,*,#181,.F.);
#135=ORIENTED_EDGE('',*,*,#187,.F.);
#136=ORIENTED_EDGE('',*,*,#178,.F.);
#137=ORIENTED_EDGE('',*,*,#192,.F.);
#138=ORIENTED_EDGE('',*,*,#194,.F.);
#139=ORIENTED_EDGE('',*,*,#151,.F.);
#140=ORIENTED_EDGE('',*,*,#159,.T.);
#141=ORIENTED_EDGE('',*,*,#150,.F.);
#142=ORIENTED_EDGE('',*,*,#158,.T.);
#143=ORIENTED_EDGE('',*,*,#149,.F.);
#144=ORIENTED_EDGE('',*,*,#157,.T.);
#145=EDGE_CURVE('',#195,#196,#229,.T.);
#146=EDGE_CURVE('',#195,#197,#230,.F.);
#147=EDGE_CURVE('',#197,#198,#231,.T.);
#148=EDGE_CURVE('',#198,#196,#232,.T.);
#149=EDGE_CURVE('',#199,#199,#23,.T.);
#150=EDGE_CURVE('',#200,#200,#24,.T.);
#151=EDGE_CURVE('',#201,#201,#25,.T.);
#152=EDGE_CURVE('',#197,#202,#26,.F.);
#153=EDGE_CURVE('',#203,#202,#233,.T.);
#154=EDGE_CURVE('',#203,#204,#27,.F.);
#155=EDGE_CURVE('',#205,#204,#234,.T.);
#156=EDGE_CURVE('',#198,#205,#235,.F.);
#157=EDGE_CURVE('',#206,#206,#28,.T.);
#158=EDGE_CURVE('',#207,#207,#29,.T.);
#159=EDGE_CURVE('',#208,#208,#30,.T.);
#160=EDGE_CURVE('',#209,#210,#236,.T.);
#161=EDGE_CURVE('',#210,#195,#31,.T.);
#162=EDGE_CURVE('',#196,#211,#237,.F.);
#163=EDGE_CURVE('',#211,#212,#238,.T.);
#164=EDGE_CURVE('',#212,#209,#32,.T.);
#165=EDGE_CURVE('',#202,#210,#239,.T.);
#166=EDGE_CURVE('',#209,#203,#240,.F.);
#167=EDGE_CURVE('',#204,#212,#241,.T.);
#168=EDGE_CURVE('',#205,#211,#242,.T.);
#169=EDGE_CURVE('',#213,#214,#243,.T.);
#170=EDGE_CURVE('',#205,#213,#33,.F.);
#171=EDGE_CURVE('',#211,#214,#34,.F.);
#172=EDGE_CURVE('',#215,#198,#35,.T.);
#173=EDGE_CURVE('',#215,#216,#244,.T.);
#174=EDGE_CURVE('',#216,#196,#36,.T.);
#175=EDGE_CURVE('',#214,#216,#245,.T.);
#176=EDGE_CURVE('',#213,#215,#246,.F.);
#177=EDGE_CURVE('',#217,#215,#247,.F.);
#178=EDGE_CURVE('',#217,#218,#248,.F.);
#179=EDGE_CURVE('',#218,#216,#249,.T.);
#180=EDGE_CURVE('',#214,#219,#250,.T.);
#181=EDGE_CURVE('',#219,#220,#251,.T.);
#182=EDGE_CURVE('',#213,#220,#252,.F.);
#183=EDGE_CURVE('',#221,#221,#37,.T.);
#184=EDGE_CURVE('',#222,#222,#38,.T.);
#185=EDGE_CURVE('',#223,#224,#253,.T.);
#186=EDGE_CURVE('',#223,#219,#39,.T.);
#187=EDGE_CURVE('',#218,#224,#40,.T.);
#188=EDGE_CURVE('',#225,#225,#41,.T.);
#189=EDGE_CURVE('',#226,#226,#42,.T.);
#190=EDGE_CURVE('',#220,#227,#43,.F.);
#191=EDGE_CURVE('',#227,#228,#254,.F.);
#192=EDGE_CURVE('',#228,#217,#44,.F.);
#193=EDGE_CURVE('',#227,#223,#255,.F.);
#194=EDGE_CURVE('',#224,#228,#256,.T.);
#195=VERTEX_POINT('',#577);
#196=VERTEX_POINT('',#578);
#197=VERTEX_POINT('',#580);
#198=VERTEX_POINT('',#582);
#199=VERTEX_POINT('',#586);
#200=VERTEX_POINT('',#588);
#201=VERTEX_POINT('',#590);
#202=VERTEX_POINT('',#592);
#203=VERTEX_POINT('',#594);
#204=VERTEX_POINT('',#596);
#205=VERTEX_POINT('',#598);
#206=VERTEX_POINT('',#602);
#207=VERTEX_POINT('',#604);
#208=VERTEX_POINT('',#606);
#209=VERTEX_POINT('',#608);
#210=VERTEX_POINT('',#609);
#211=VERTEX_POINT('',#612);
#212=VERTEX_POINT('',#614);
#213=VERTEX_POINT('',#624);
#214=VERTEX_POINT('',#625);
#215=VERTEX_POINT('',#630);
#216=VERTEX_POINT('',#632);
#217=VERTEX_POINT('',#640);
#218=VERTEX_POINT('',#642);
#219=VERTEX_POINT('',#646);
#220=VERTEX_POINT('',#648);
#221=VERTEX_POINT('',#652);
#222=VERTEX_POINT('',#654);
#223=VERTEX_POINT('',#656);
#224=VERTEX_POINT('',#657);
#225=VERTEX_POINT('',#662);
#226=VERTEX_POINT('',#664);
#227=VERTEX_POINT('',#666);
#228=VERTEX_POINT('',#668);
#229=LINE('',#576,#257);
#230=LINE('',#579,#258);
#231=LINE('',#581,#259);
#232=LINE('',#583,#260);
#233=LINE('',#593,#261);
#234=LINE('',#597,#262);
#235=LINE('',#599,#263);
#236=LINE('',#607,#264);
#237=LINE('',#611,#265);
#238=LINE('',#613,#266);
#239=LINE('',#617,#267);
#240=LINE('',#618,#268);
#241=LINE('',#620,#269);
#242=LINE('',#621,#270);
#243=LINE('',#623,#271);
#244=LINE('',#631,#272);
#245=LINE('',#635,#273);
#246=LINE('',#637,#274);
#247=LINE('',#639,#275);
#248=LINE('',#641,#276);
#249=LINE('',#643,#277);
#250=LINE('',#645,#278);
#251=LINE('',#647,#279);
#252=LINE('',#649,#280);
#253=LINE('',#655,#281);
#254=LINE('',#667,#282);
#255=LINE('',#671,#283);
#256=LINE('',#672,#284);
#257=VECTOR('',#458,1000.);
#258=VECTOR('',#459,1000.);
#259=VECTOR('',#460,1000.);
#260=VECTOR('',#461,1000.);
#261=VECTOR('',#472,1000.);
#262=VECTOR('',#475,1000.);
#263=VECTOR('',#476,1000.);
#264=VECTOR('',#485,1000.);
#265=VECTOR('',#488,1000.);
#266=VECTOR('',#489,1000.);
#267=VECTOR('',#494,1000.);
#268=VECTOR('',#495,1000.);
#269=VECTOR('',#498,1000.);
#270=VECTOR('',#499,1000.);
#271=VECTOR('',#502,1000.);
#272=VECTOR('',#511,1000.);
#273=VECTOR('',#516,1000.);
#274=VECTOR('',#519,1000.);
#275=VECTOR('',#522,1000.);
#276=VECTOR('',#523,1000.);
#277=VECTOR('',#524,1000.);
#278=VECTOR('',#527,1000.);
#279=VECTOR('',#528,1000.);
#280=VECTOR('',#529,1000.);
#281=VECTOR('',#536,1000.);
#282=VECTOR('',#549,1000.);
#283=VECTOR('',#554,1000.);
#284=VECTOR('',#555,1000.);
#285=EDGE_LOOP('',(#45,#46,#47,#48));
#286=EDGE_LOOP('',(#49));
#287=EDGE_LOOP('',(#50));
#288=EDGE_LOOP('',(#51));
#289=EDGE_LOOP('',(#52,#53,#54,#55,#56,#57));
#290=EDGE_LOOP('',(#58));
#291=EDGE_LOOP('',(#59));
#292=EDGE_LOOP('',(#60));
#293=EDGE_LOOP('',(#61,#62,#63,#64,#65,#66));
#294=EDGE_LOOP('',(#67,#68,#69,#70));
#295=EDGE_LOOP('',(#71,#72,#73,#74));
#296=EDGE_LOOP('',(#75,#76,#77,#78));
#297=EDGE_LOOP('',(#79,#80,#81,#82));
#298=EDGE_LOOP('',(#83,#84,#85,#86));
#299=EDGE_LOOP('',(#87,#88,#89,#90));
#300=EDGE_LOOP('',(#91,#92,#93,#94));
#301=EDGE_LOOP('',(#95,#96,#97,#98));
#302=EDGE_LOOP('',(#99));
#303=EDGE_LOOP('',(#100));
#304=EDGE_LOOP('',(#101,#102,#103,#104,#105,#106));
#305=EDGE_LOOP('',(#107));
#306=EDGE_LOOP('',(#108));
#307=EDGE_LOOP('',(#109,#110,#111,#112,#113,#114));
#308=EDGE_LOOP('',(#115,#116,#117,#118));
#309=EDGE_LOOP('',(#119));
#310=EDGE_LOOP('',(#120));
#311=EDGE_LOOP('',(#121));
#312=EDGE_LOOP('',(#122));
#313=EDGE_LOOP('',(#123,#124,#125,#126));
#314=EDGE_LOOP('',(#127,#128,#129,#130));
#315=EDGE_LOOP('',(#131,#132,#133,#134));
#316=EDGE_LOOP('',(#135,#136,#137,#138));
#317=EDGE_LOOP('',(#139));
#318=EDGE_LOOP('',(#140));
#319=EDGE_LOOP('',(#141));
#320=EDGE_LOOP('',(#142));
#321=EDGE_LOOP('',(#143));
#322=EDGE_LOOP('',(#144));
#323=FACE_BOUND('',#285,.T.);
#324=FACE_BOUND('',#286,.T.);
#325=FACE_BOUND('',#287,.T.);
#326=FACE_BOUND('',#288,.T.);
#327=FACE_BOUND('',#289,.T.);
#328=FACE_BOUND('',#290,.T.);
#329=FACE_BOUND('',#291,.T.);
#330=FACE_BOUND('',#292,.T.);
#331=FACE_BOUND('',#293,.T.);
#332=FACE_BOUND('',#294,.T.);
#333=FACE_BOUND('',#295,.T.);
#334=FACE_BOUND('',#296,.T.);
#335=FACE_BOUND('',#297,.T.);
#336=FACE_BOUND('',#298,.T.);
#337=FACE_BOUND('',#299,.T.);
#338=FACE_BOUND('',#300,.T.);
#339=FACE_BOUND('',#301,.T.);
#340=FACE_BOUND('',#302,.T.);
#341=FACE_BOUND('',#303,.T.);
#342=FACE_BOUND('',#304,.T.);
#343=FACE_BOUND('',#305,.T.);
#344=FACE_BOUND('',#306,.T.);
#345=FACE_BOUND('',#307,.T.);
#346=FACE_BOUND('',#308,.T.);
#347=FACE_BOUND('',#309,.T.);
#348=FACE_BOUND('',#310,.T.);
#349=FACE_BOUND('',#311,.T.);
#350=FACE_BOUND('',#312,.T.);
#351=FACE_BOUND('',#313,.T.);
#352=FACE_BOUND('',#314,.T.);
#353=FACE_BOUND('',#315,.T.);
#354=FACE_BOUND('',#316,.T.);
#355=FACE_BOUND('',#317,.T.);
#356=FACE_BOUND('',#318,.T.);
#357=FACE_BOUND('',#319,.T.);
#358=FACE_BOUND('',#320,.T.);
#359=FACE_BOUND('',#321,.T.);
#360=FACE_BOUND('',#322,.T.);
#361=PLANE('',#409);
#362=PLANE('',#410);
#363=PLANE('',#416);
#364=PLANE('',#422);
#365=PLANE('',#423);
#366=PLANE('',#424);
#367=PLANE('',#427);
#368=PLANE('',#432);
#369=PLANE('',#433);
#370=PLANE('',#434);
#371=PLANE('',#439);
#372=PLANE('',#444);
#373=ADVANCED_FACE('',(#323),#361,.T.);
#374=ADVANCED_FACE('',(#324,#325,#326,#327),#362,.F.);
#375=ADVANCED_FACE('',(#328,#329,#330,#331),#363,.T.);
#376=ADVANCED_FACE('',(#332),#364,.T.);
#377=ADVANCED_FACE('',(#333),#365,.T.);
#378=ADVANCED_FACE('',(#334),#366,.T.);
#379=ADVANCED_FACE('',(#335),#367,.F.);
#380=ADVANCED_FACE('',(#336),#12,.T.);
#381=ADVANCED_FACE('',(#337),#13,.F.);
#382=ADVANCED_FACE('',(#338),#368,.T.);
#383=ADVANCED_FACE('',(#339),#369,.T.);
#384=ADVANCED_FACE('',(#340,#341,#342),#370,.T.);
#385=ADVANCED_FACE('',(#343,#344,#345),#371,.F.);
#386=ADVANCED_FACE('',(#346),#372,.T.);
#387=ADVANCED_FACE('',(#347,#348),#14,.F.);
#388=ADVANCED_FACE('',(#349,#350),#15,.F.);
#389=ADVANCED_FACE('',(#351),#16,.T.);
#390=ADVANCED_FACE('',(#352),#17,.T.);
#391=ADVANCED_FACE('',(#353),#18,.T.);
#392=ADVANCED_FACE('',(#354),#19,.T.);
#393=ADVANCED_FACE('',(#355,#356),#20,.F.);
#394=ADVANCED_FACE('',(#357,#358),#21,.F.);
#395=ADVANCED_FACE('',(#359,#360),#22,.F.);
#396=CLOSED_SHELL('',(#373,#374,#375,#376,#377,#378,#379,#380,#381,#382,
#383,#384,#385,#386,#387,#388,#389,#390,#391,#392,#393,#394,#395));
#397=STYLED_ITEM('',(#398),#405);
#398=PRESENTATION_STYLE_ASSIGNMENT((#399));
#399=SURFACE_STYLE_USAGE(.BOTH.,#400);
#400=SURFACE_SIDE_STYLE('',(#401));
#401=SURFACE_STYLE_FILL_AREA(#402);
#402=FILL_AREA_STYLE('',(#403));
#403=FILL_AREA_STYLE_COLOUR('',#404);
#404=COLOUR_RGB('',0.796078431372549,0.823529411764706,0.937254901960784);
#405=MANIFOLD_SOLID_BREP('Part 1',#396);
#406=SHAPE_DEFINITION_REPRESENTATION(#688,#407);
#407=SHAPE_REPRESENTATION('Part 1',(#408),#683);
#408=AXIS2_PLACEMENT_3D('',#574,#454,#455);
#409=AXIS2_PLACEMENT_3D('',#575,#456,#457);
#410=AXIS2_PLACEMENT_3D('',#584,#462,#463);
#411=AXIS2_PLACEMENT_3D('',#585,#464,#465);
#412=AXIS2_PLACEMENT_3D('',#587,#466,#467);
#413=AXIS2_PLACEMENT_3D('',#589,#468,#469);
#414=AXIS2_PLACEMENT_3D('',#591,#470,#471);
#415=AXIS2_PLACEMENT_3D('',#595,#473,#474);
#416=AXIS2_PLACEMENT_3D('',#600,#477,#478);
#417=AXIS2_PLACEMENT_3D('',#601,#479,#480);
#418=AXIS2_PLACEMENT_3D('',#603,#481,#482);
#419=AXIS2_PLACEMENT_3D('',#605,#483,#484);
#420=AXIS2_PLACEMENT_3D('',#610,#486,#487);
#421=AXIS2_PLACEMENT_3D('',#615,#490,#491);
#422=AXIS2_PLACEMENT_3D('',#616,#492,#493);
#423=AXIS2_PLACEMENT_3D('',#619,#496,#497);
#424=AXIS2_PLACEMENT_3D('',#622,#500,#501);
#425=AXIS2_PLACEMENT_3D('',#626,#503,#504);
#426=AXIS2_PLACEMENT_3D('',#627,#505,#506);
#427=AXIS2_PLACEMENT_3D('',#628,#507,#508);
#428=AXIS2_PLACEMENT_3D('',#629,#509,#510);
#429=AXIS2_PLACEMENT_3D('',#633,#512,#513);
#430=AXIS2_PLACEMENT_3D('',#634,#514,#515);
#431=AXIS2_PLACEMENT_3D('',#636,#517,#518);
#432=AXIS2_PLACEMENT_3D('',#638,#520,#521);
#433=AXIS2_PLACEMENT_3D('',#644,#525,#526);
#434=AXIS2_PLACEMENT_3D('',#650,#530,#531);
#435=AXIS2_PLACEMENT_3D('',#651,#532,#533);
#436=AXIS2_PLACEMENT_3D('',#653,#534,#535);
#437=AXIS2_PLACEMENT_3D('',#658,#537,#538);
#438=AXIS2_PLACEMENT_3D('',#659,#539,#540);
#439=AXIS2_PLACEMENT_3D('',#660,#541,#542);
#440=AXIS2_PLACEMENT_3D('',#661,#543,#544);
#441=AXIS2_PLACEMENT_3D('',#663,#545,#546);
#442=AXIS2_PLACEMENT_3D('',#665,#547,#548);
#443=AXIS2_PLACEMENT_3D('',#669,#550,#551);
#444=AXIS2_PLACEMENT_3D('',#670,#552,#553);
#445=AXIS2_PLACEMENT_3D('',#673,#556,#557);
#446=AXIS2_PLACEMENT_3D('',#674,#558,#559);
#447=AXIS2_PLACEMENT_3D('',#675,#560,#561);
#448=AXIS2_PLACEMENT_3D('',#676,#562,#563);
#449=AXIS2_PLACEMENT_3D('',#677,#564,#565);
#450=AXIS2_PLACEMENT_3D('',#678,#566,#567);
#451=AXIS2_PLACEMENT_3D('',#679,#568,#569);
#452=AXIS2_PLACEMENT_3D('',#680,#570,#571);
#453=AXIS2_PLACEMENT_3D('',#681,#572,#573);
#454=DIRECTION('',(0.,0.,1.));
#455=DIRECTION('',(1.,0.,0.));
#456=DIRECTION('',(0.,1.38777878078145E-16,-1.));
#457=DIRECTION('',(0.,1.,1.38777878078145E-16));
#458=DIRECTION('',(0.,1.,1.38777878078145E-16));
#459=DIRECTION('',(1.,0.,0.));
#460=DIRECTION('',(0.,1.,1.38777878078145E-16));
#461=DIRECTION('',(1.,0.,0.));
#462=DIRECTION('',(1.,0.,0.));
#463=DIRECTION('',(0.,0.,-1.));
#464=DIRECTION('',(1.,0.,0.));
#465=DIRECTION('',(0.,0.,-1.));
#466=DIRECTION('',(1.,0.,0.));
#467=DIRECTION('',(0.,0.,-1.));
#468=DIRECTION('',(1.,0.,0.));
#469=DIRECTION('',(0.,0.,-1.));
#470=DIRECTION('',(1.,0.,0.));
#471=DIRECTION('',(0.,0.,-1.));
#472=DIRECTION('',(0.,0.,-1.));
#473=DIRECTION('',(1.,0.,0.));
#474=DIRECTION('',(0.,0.,-1.));
#475=DIRECTION('',(0.,-1.,-1.04083408558608E-16));
#476=DIRECTION('',(0.,0.,-1.));
#477=DIRECTION('',(1.,0.,0.));
#478=DIRECTION('',(0.,0.,-1.));
#479=DIRECTION('',(1.,0.,0.));
#480=DIRECTION('',(0.,0.,-1.));
#481=DIRECTION('',(1.,0.,0.));
#482=DIRECTION('',(0.,0.,-1.));
#483=DIRECTION('',(1.,0.,0.));
#484=DIRECTION('',(0.,0.,-1.));
#485=DIRECTION('',(0.,0.,-1.));
#486=DIRECTION('',(1.,0.,0.));
#487=DIRECTION('',(0.,0.,-1.));
#488=DIRECTION('',(0.,0.,-1.));
#489=DIRECTION('',(0.,-1.,-1.04083408558608E-16));
#490=DIRECTION('',(1.,0.,0.));
#491=DIRECTION('',(0.,0.,-1.));
#492=DIRECTION('',(0.,-1.,0.));
#493=DIRECTION('',(0.,0.,-1.));
#494=DIRECTION('',(1.,0.,0.));
#495=DIRECTION('',(1.,0.,0.));
#496=DIRECTION('',(0.,-1.04083408558608E-16,1.));
#497=DIRECTION('',(0.,-1.,-1.04083408558608E-16));
#498=DIRECTION('',(1.,0.,0.));
#499=DIRECTION('',(1.,0.,0.));
#500=DIRECTION('',(0.,0.,1.));
#501=DIRECTION('',(1.,0.,0.));
#502=DIRECTION('',(3.46944695195361E-15,1.,0.));
#503=DIRECTION('',(0.,0.,-1.));
#504=DIRECTION('',(-1.,0.,0.));
#505=DIRECTION('',(0.,0.,-1.));
#506=DIRECTION('',(-1.,0.,0.));
#507=DIRECTION('',(0.,0.,1.));
#508=DIRECTION('',(1.,0.,0.));
#509=DIRECTION('',(0.,0.,-1.));
#510=DIRECTION('',(-1.,0.,0.));
#511=DIRECTION('',(3.46944695195361E-15,1.,0.));
#512=DIRECTION('',(0.,0.,-1.));
#513=DIRECTION('',(-1.,0.,0.));
#514=DIRECTION('',(0.,0.,-1.));
#515=DIRECTION('',(3.46944695195361E-15,1.,0.));
#516=DIRECTION('',(0.,0.,-1.));
#517=DIRECTION('',(0.,0.,-1.));
#518=DIRECTION('',(3.46944695195361E-15,1.,0.));
#519=DIRECTION('',(0.,0.,1.));
#520=DIRECTION('',(0.,0.,-1.));
#521=DIRECTION('',(-1.,0.,0.));
#522=DIRECTION('',(-1.,3.46944695195361E-15,0.));
#523=DIRECTION('',(-3.49148133884313E-15,-1.,0.));
#524=DIRECTION('',(1.,-3.46944695195361E-15,0.));
#525=DIRECTION('',(0.,0.,1.));
#526=DIRECTION('',(1.,0.,0.));
#527=DIRECTION('',(-1.,3.46944695195361E-15,0.));
#528=DIRECTION('',(-3.49148133884313E-15,-1.,0.));
#529=DIRECTION('',(1.,-3.46944695195361E-15,0.));
#530=DIRECTION('',(3.46944695195361E-15,1.,0.));
#531=DIRECTION('',(-1.,3.46944695195361E-15,0.));
#532=DIRECTION('',(3.46944695195361E-15,1.,0.));
#533=DIRECTION('',(-1.,3.46944695195361E-15,0.));
#534=DIRECTION('',(3.46944695195361E-15,1.,0.));
#535=DIRECTION('',(-1.,3.46944695195361E-15,0.));
#536=DIRECTION('',(0.,0.,-1.));
#537=DIRECTION('',(3.46944695195361E-15,1.,0.));
#538=DIRECTION('',(-1.,3.46944695195361E-15,0.));
#539=DIRECTION('',(3.46944695195361E-15,1.,0.));
#540=DIRECTION('',(-1.,3.46944695195361E-15,0.));
#541=DIRECTION('',(3.46944695195361E-15,1.,0.));
#542=DIRECTION('',(-1.,3.46944695195361E-15,0.));
#543=DIRECTION('',(3.46944695195361E-15,1.,0.));
#544=DIRECTION('',(-1.,3.46944695195361E-15,0.));
#545=DIRECTION('',(3.46944695195361E-15,1.,0.));
#546=DIRECTION('',(-1.,3.46944695195361E-15,0.));
#547=DIRECTION('',(3.46944695195361E-15,1.,0.));
#548=DIRECTION('',(-1.,3.46944695195361E-15,0.));
#549=DIRECTION('',(0.,0.,1.));
#550=DIRECTION('',(3.46944695195361E-15,1.,0.));
#551=DIRECTION('',(-1.,3.46944695195361E-15,0.));
#552=DIRECTION('',(-1.,3.49148133884313E-15,0.));
#553=DIRECTION('',(-3.49148133884313E-15,-1.,0.));
#554=DIRECTION('',(-3.49148133884313E-15,-1.,0.));
#555=DIRECTION('',(-3.49148133884313E-15,-1.,0.));
#556=DIRECTION('',(3.46944695195361E-15,1.,0.));
#557=DIRECTION('',(-1.,3.46944695195361E-15,0.));
#558=DIRECTION('',(3.46944695195361E-15,1.,0.));
#559=DIRECTION('',(-1.,3.46944695195361E-15,0.));
#560=DIRECTION('',(1.,0.,0.));
#561=DIRECTION('',(0.,0.,-1.));
#562=DIRECTION('',(1.,0.,0.));
#563=DIRECTION('',(0.,0.,-1.));
#564=DIRECTION('',(-3.49148133884313E-15,-1.,0.));
#565=DIRECTION('',(1.,-3.49148133884313E-15,0.));
#566=DIRECTION('',(-3.49148133884313E-15,-1.,0.));
#567=DIRECTION('',(1.,-3.49148133884313E-15,0.));
#568=DIRECTION('',(1.,0.,0.));
#569=DIRECTION('',(0.,0.,-1.));
#570=DIRECTION('',(1.,0.,0.));
#571=DIRECTION('',(0.,0.,-1.));
#572=DIRECTION('',(1.,0.,0.));
#573=DIRECTION('',(0.,0.,-1.));
#574=CARTESIAN_POINT('',(0.,0.,0.));
#575=CARTESIAN_POINT('',(-5.,50.,-20.));
#576=CARTESIAN_POINT('',(0.,50.,-20.));
#577=CARTESIAN_POINT('',(0.,-40.,-20.));
#578=CARTESIAN_POINT('',(0.,42.,-20.));
#579=CARTESIAN_POINT('',(-5.,-40.,-20.));
#580=CARTESIAN_POINT('',(-5.,-40.,-20.));
#581=CARTESIAN_POINT('',(-5.,50.,-20.));
#582=CARTESIAN_POINT('',(-5.,42.,-20.));
#583=CARTESIAN_POINT('',(-5.,42.,-20.));
#584=CARTESIAN_POINT('',(-5.,0.,0.));
#585=CARTESIAN_POINT('',(-5.,25.,3.25260651745651E-15));
#586=CARTESIAN_POINT('',(-5.,25.,-3.));
#587=CARTESIAN_POINT('',(-5.,-30.,-3.90312782094782E-15));
#588=CARTESIAN_POINT('',(-5.,-30.,-3.));
#589=CARTESIAN_POINT('',(-5.,0.,0.));
#590=CARTESIAN_POINT('',(-5.,0.,-3.));
#591=CARTESIAN_POINT('',(-5.,-40.,-10.));
#592=CARTESIAN_POINT('',(-5.,-50.,-10.));
#593=CARTESIAN_POINT('',(-5.,-50.,20.));
#594=CARTESIAN_POINT('',(-5.,-50.,10.));
#595=CARTESIAN_POINT('',(-5.,-40.,10.));
#596=CARTESIAN_POINT('',(-5.,-40.,20.));
#597=CARTESIAN_POINT('',(-5.,50.,20.));
#598=CARTESIAN_POINT('',(-5.,42.,20.));
#599=CARTESIAN_POINT('',(-5.,42.,-20.));
#600=CARTESIAN_POINT('',(0.,0.,0.));
#601=CARTESIAN_POINT('',(0.,25.,3.25260651745651E-15));
#602=CARTESIAN_POINT('',(0.,25.,-3.));
#603=CARTESIAN_POINT('',(0.,-30.,-3.90312782094782E-15));
#604=CARTESIAN_POINT('',(0.,-30.,-3.));
#605=CARTESIAN_POINT('',(0.,0.,0.));
#606=CARTESIAN_POINT('',(0.,0.,-3.));
#607=CARTESIAN_POINT('',(0.,-50.,20.));
#608=CARTESIAN_POINT('',(0.,-50.,10.));
#609=CARTESIAN_POINT('',(0.,-50.,-10.));
#610=CARTESIAN_POINT('',(0.,-40.,-10.));
#611=CARTESIAN_POINT('',(0.,42.,-20.));
#612=CARTESIAN_POINT('',(0.,42.,20.));
#613=CARTESIAN_POINT('',(0.,50.,20.));
#614=CARTESIAN_POINT('',(0.,-40.,20.));
#615=CARTESIAN_POINT('',(0.,-40.,10.));
#616=CARTESIAN_POINT('',(-5.,-50.,20.));
#617=CARTESIAN_POINT('',(-5.,-50.,-10.));
#618=CARTESIAN_POINT('',(-5.,-50.,10.));
#619=CARTESIAN_POINT('',(-5.,50.,20.));
#620=CARTESIAN_POINT('',(-5.,-40.,20.));
#621=CARTESIAN_POINT('',(-5.,42.,20.));
#622=CARTESIAN_POINT('',(-8.,42.,20.));
#623=CARTESIAN_POINT('',(-8.,50.,20.));
#624=CARTESIAN_POINT('',(-8.,45.,20.));
#625=CARTESIAN_POINT('',(-8.,50.,20.));
#626=CARTESIAN_POINT('',(-8.,42.,20.));
#627=CARTESIAN_POINT('',(-8.,42.,20.));
#628=CARTESIAN_POINT('',(-8.,42.,-20.));
#629=CARTESIAN_POINT('',(-8.,42.,-20.));
#630=CARTESIAN_POINT('',(-8.,45.,-20.));
#631=CARTESIAN_POINT('',(-8.,45.,-20.));
#632=CARTESIAN_POINT('',(-8.,50.,-20.));
#633=CARTESIAN_POINT('',(-8.,42.,-20.));
#634=CARTESIAN_POINT('',(-8.,42.,-20.));
#635=CARTESIAN_POINT('',(-8.,50.,0.));
#636=CARTESIAN_POINT('',(-8.,42.,-20.));
#637=CARTESIAN_POINT('',(-8.,45.,20.));
#638=CARTESIAN_POINT('',(-5.,50.,-20.));
#639=CARTESIAN_POINT('',(1.73472347597681E-13,45.,-20.));
#640=CARTESIAN_POINT('',(-13.,45.,-20.));
#641=CARTESIAN_POINT('',(-13.,50.,-20.));
#642=CARTESIAN_POINT('',(-13.,50.,-20.));
#643=CARTESIAN_POINT('',(-5.,50.,-20.));
#644=CARTESIAN_POINT('',(-23.,50.,20.));
#645=CARTESIAN_POINT('',(-23.,50.,20.));
#646=CARTESIAN_POINT('',(-13.,50.,20.));
#647=CARTESIAN_POINT('',(-13.,50.,20.));
#648=CARTESIAN_POINT('',(-13.,45.,20.));
#649=CARTESIAN_POINT('',(1.73472347597681E-13,45.,20.));
#650=CARTESIAN_POINT('',(1.90929754291896E-13,50.,0.));
#651=CARTESIAN_POINT('',(-18.,50.,-10.));
#652=CARTESIAN_POINT('',(-20.5,50.,-10.));
#653=CARTESIAN_POINT('',(-18.,50.,10.));
#654=CARTESIAN_POINT('',(-20.5,50.,10.));
#655=CARTESIAN_POINT('',(-23.,50.,-20.));
#656=CARTESIAN_POINT('',(-23.,50.,10.));
#657=CARTESIAN_POINT('',(-23.,50.,-10.));
#658=CARTESIAN_POINT('',(-13.,50.,10.));
#659=CARTESIAN_POINT('',(-13.,50.,-10.));
#660=CARTESIAN_POINT('',(1.73472347597681E-13,45.,0.));
#661=CARTESIAN_POINT('',(-18.,45.,-10.));
#662=CARTESIAN_POINT('',(-20.5,45.,-10.));
#663=CARTESIAN_POINT('',(-18.,45.,10.));
#664=CARTESIAN_POINT('',(-20.5,45.,10.));
#665=CARTESIAN_POINT('',(-13.,45.,10.));
#666=CARTESIAN_POINT('',(-23.,45.,10.));
#667=CARTESIAN_POINT('',(-23.,45.,0.));
#668=CARTESIAN_POINT('',(-23.,45.,-10.));
#669=CARTESIAN_POINT('',(-13.,45.,-10.));
#670=CARTESIAN_POINT('',(-23.,50.,-20.));
#671=CARTESIAN_POINT('',(-23.,50.,10.));
#672=CARTESIAN_POINT('',(-23.,50.,-10.));
#673=CARTESIAN_POINT('',(-18.,45.,10.));
#674=CARTESIAN_POINT('',(-18.,45.,-10.));
#675=CARTESIAN_POINT('',(-5.,-40.,-10.));
#676=CARTESIAN_POINT('',(-5.,-40.,10.));
#677=CARTESIAN_POINT('',(-13.,50.,10.));
#678=CARTESIAN_POINT('',(-13.,50.,-10.));
#679=CARTESIAN_POINT('',(-5.,0.,0.));
#680=CARTESIAN_POINT('',(-5.,-30.,-3.90312782094782E-15));
#681=CARTESIAN_POINT('',(-5.,25.,3.25260651745651E-15));
#682=MECHANICAL_DESIGN_GEOMETRIC_PRESENTATION_REPRESENTATION('',(#397),
#683);
#683=(
GEOMETRIC_REPRESENTATION_CONTEXT(3)
GLOBAL_UNCERTAINTY_ASSIGNED_CONTEXT((#684))
GLOBAL_UNIT_ASSIGNED_CONTEXT((#687,#686,#685))
REPRESENTATION_CONTEXT('Part 1','TOP_LEVEL_ASSEMBLY_PART')
);
#684=UNCERTAINTY_MEASURE_WITH_UNIT(LENGTH_MEASURE(1.E-5),#687,
'DISTANCE_ACCURACY_VALUE','Maximum Tolerance applied to model');
#685=(
NAMED_UNIT(*)
SI_UNIT($,.STERADIAN.)
SOLID_ANGLE_UNIT()
);
#686=(
NAMED_UNIT(*)
PLANE_ANGLE_UNIT()
SI_UNIT($,.RADIAN.)
);
#687=(
LENGTH_UNIT()
NAMED_UNIT(*)
SI_UNIT(.MILLI.,.METRE.)
);
#688=PRODUCT_DEFINITION_SHAPE('','',#689);
#689=PRODUCT_DEFINITION('','',#691,#690);
#690=PRODUCT_DEFINITION_CONTEXT('',#697,'design');
#691=PRODUCT_DEFINITION_FORMATION_WITH_SPECIFIED_SOURCE('','',#693,
 .NOT_KNOWN.);
#692=PRODUCT_RELATED_PRODUCT_CATEGORY('','',(#693));
#693=PRODUCT('Part 1','Part 1','Part 1',(#695));
#694=PRODUCT_CATEGORY('','');
#695=PRODUCT_CONTEXT('',#697,'mechanical');
#696=APPLICATION_PROTOCOL_DEFINITION('international standard',
'ap242_managed_model_based_3d_engineering',2020,#697);
#697=APPLICATION_CONTEXT('managed model based 3d engineering');
ENDSEC;
END-ISO-10303-21;
